M48
; DRILL file {KiCad (7.0.0)} date Mon Apr 24 14:01:39 2023
; FORMAT={-:-/ absolute / metric / decimal}
; #@! TF.CreationDate,2023-04-24T14:01:39+02:00
; #@! TF.GenerationSoftware,Kicad,Pcbnew,(7.0.0)
; #@! TF.FileFunction,Plated,1,2,PTH
FMAT,2
METRIC
; #@! TA.AperFunction,Plated,PTH,ViaDrill
T1C0.300
; #@! TA.AperFunction,Plated,PTH,ComponentDrill
T2C0.500
; #@! TA.AperFunction,Plated,PTH,ComponentDrill
T3C1.000
; #@! TA.AperFunction,Plated,PTH,ComponentDrill
T4C1.100
%
G90
G05
T1
X101.014Y-75.943
X102.472Y-89.01
X104.154Y-75.692
X104.302Y-81.688
X106.078Y-87.58
X106.078Y-97.585
X108.398Y-85.177
X110.076Y-87.497
X110.333Y-89.662
X110.715Y-86.283
X110.932Y-113.538
X111.405Y-86.307
X111.405Y-100.544
X115.636Y-70.328
X115.879Y-71.628
X124.862Y-65.155
X125.385Y-115.674
X127.968Y-73.66
X128.859Y-103.118
X129.589Y-62.481
X129.589Y-100.563
X130.556Y-136.906
X131.365Y-132.144
X131.896Y-122.741
X133.285Y-127.694
X133.285Y-133.397
X133.39Y-126.499
X134.779Y-134.636
X135.037Y-81.412
X135.172Y-124.129
X135.172Y-129.049
X135.486Y-129.714
X135.562Y-134.903
X136.035Y-128.207
X136.11Y-131.094
X136.11Y-136.411
X138.846Y-130.048
X139.391Y-127.808
X139.391Y-133.363
X141.472Y-128.201
X143.951Y-100.627
X144.421Y-96.949
X147.815Y-67.368
X149.641Y-79.416
X150.43Y-84.149
X153.199Y-98.073
X155.881Y-75.717
X155.881Y-97.543
T3
X103.378Y-124.714
X103.378Y-127.254
X103.378Y-129.794
X103.378Y-132.334
X103.378Y-134.874
X131.773Y-53.858
X131.773Y-56.398
X131.773Y-58.938
X131.773Y-61.478
X131.773Y-64.018
X131.773Y-66.558
X131.773Y-69.098
X131.773Y-71.638
X131.773Y-74.178
X131.773Y-76.718
X131.773Y-79.258
X131.773Y-81.798
X131.773Y-84.338
X131.773Y-86.878
X131.773Y-89.418
X131.773Y-91.958
X131.773Y-94.498
X131.773Y-97.038
X131.773Y-99.578
X131.773Y-102.118
X131.773Y-104.658
X131.773Y-107.198
X131.773Y-109.738
X131.773Y-112.278
X146.304Y-53.848
X146.304Y-56.388
X146.304Y-58.928
X146.304Y-61.468
X146.304Y-64.008
X146.304Y-66.548
X146.304Y-69.088
X146.304Y-71.628
X146.304Y-74.168
X146.304Y-76.708
X146.304Y-79.248
X146.304Y-81.788
X146.304Y-84.328
X146.304Y-86.868
X146.304Y-89.408
X146.304Y-91.948
X146.304Y-94.488
X146.304Y-97.028
X146.304Y-99.568
X146.304Y-102.108
X146.304Y-104.648
X146.304Y-107.188
X146.304Y-109.728
X146.304Y-112.268
X153.67Y-57.658
X153.67Y-60.198
X153.67Y-62.738
X153.67Y-65.278
X153.67Y-67.818
X153.67Y-70.358
X153.67Y-72.898
X153.67Y-75.438
X153.67Y-77.978
X153.67Y-80.518
X178.054Y-53.368
X178.054Y-124.968
T4
X119.432Y-59.726
X119.432Y-64.226
X125.932Y-59.726
X125.932Y-64.226
T2
G00X91.654Y-85.536
M15
G01X90.954Y-85.536
M16
G05
G00X91.654Y-91.186
M15
G01X90.954Y-91.186
M16
G05
T0
M30
