%TF.GenerationSoftware,KiCad,Pcbnew,(7.0.0)*%
%TF.CreationDate,2023-04-24T23:57:33+02:00*%
%TF.ProjectId,main_v0.6,6d61696e-5f76-4302-9e36-2e6b69636164,rev?*%
%TF.SameCoordinates,Original*%
%TF.FileFunction,Legend,Top*%
%TF.FilePolarity,Positive*%
%FSLAX46Y46*%
G04 Gerber Fmt 4.6, Leading zero omitted, Abs format (unit mm)*
G04 Created by KiCad (PCBNEW (7.0.0)) date 2023-04-24 23:57:33*
%MOMM*%
%LPD*%
G01*
G04 APERTURE LIST*
G04 Aperture macros list*
%AMRoundRect*
0 Rectangle with rounded corners*
0 $1 Rounding radius*
0 $2 $3 $4 $5 $6 $7 $8 $9 X,Y pos of 4 corners*
0 Add a 4 corners polygon primitive as box body*
4,1,4,$2,$3,$4,$5,$6,$7,$8,$9,$2,$3,0*
0 Add four circle primitives for the rounded corners*
1,1,$1+$1,$2,$3*
1,1,$1+$1,$4,$5*
1,1,$1+$1,$6,$7*
1,1,$1+$1,$8,$9*
0 Add four rect primitives between the rounded corners*
20,1,$1+$1,$2,$3,$4,$5,0*
20,1,$1+$1,$4,$5,$6,$7,0*
20,1,$1+$1,$6,$7,$8,$9,0*
20,1,$1+$1,$8,$9,$2,$3,0*%
%AMFreePoly0*
4,1,9,3.862500,-0.866500,0.737500,-0.866500,0.737500,-0.450000,-0.737500,-0.450000,-0.737500,0.450000,0.737500,0.450000,0.737500,0.866500,3.862500,0.866500,3.862500,-0.866500,3.862500,-0.866500,$1*%
%AMFreePoly1*
4,1,9,1.050000,0.350000,0.550000,0.000000,0.550000,-0.400000,0.800000,-0.650000,0.800000,-0.800000,-1.050000,-0.800000,-1.050000,0.800000,1.050000,0.800000,1.050000,0.350000,1.050000,0.350000,$1*%
%AMFreePoly2*
4,1,9,1.050000,-0.800000,-0.800000,-0.800000,-0.800000,-0.650000,-0.550000,-0.400000,-0.550000,0.000000,-1.050000,0.350000,-1.050000,0.800000,1.050000,0.800000,1.050000,-0.800000,1.050000,-0.800000,$1*%
G04 Aperture macros list end*
%ADD10C,0.150000*%
%ADD11C,0.254000*%
%ADD12C,0.120000*%
%ADD13C,0.127000*%
%ADD14C,0.200000*%
%ADD15C,0.152400*%
%ADD16C,0.010000*%
%ADD17RoundRect,0.250000X-0.312500X-0.625000X0.312500X-0.625000X0.312500X0.625000X-0.312500X0.625000X0*%
%ADD18RoundRect,0.007500X-0.117500X0.412500X-0.117500X-0.412500X0.117500X-0.412500X0.117500X0.412500X0*%
%ADD19R,2.500000X1.600000*%
%ADD20RoundRect,0.250000X0.625000X-0.312500X0.625000X0.312500X-0.625000X0.312500X-0.625000X-0.312500X0*%
%ADD21R,0.650000X0.400000*%
%ADD22R,1.700000X1.700000*%
%ADD23O,1.700000X1.700000*%
%ADD24RoundRect,0.250000X-0.325000X-0.650000X0.325000X-0.650000X0.325000X0.650000X-0.325000X0.650000X0*%
%ADD25C,1.500000*%
%ADD26RoundRect,0.250000X-0.625000X0.312500X-0.625000X-0.312500X0.625000X-0.312500X0.625000X0.312500X0*%
%ADD27RoundRect,0.218750X-0.218750X-0.256250X0.218750X-0.256250X0.218750X0.256250X-0.218750X0.256250X0*%
%ADD28R,0.550000X1.200000*%
%ADD29R,2.000000X7.875000*%
%ADD30RoundRect,0.250000X0.312500X0.625000X-0.312500X0.625000X-0.312500X-0.625000X0.312500X-0.625000X0*%
%ADD31RoundRect,0.250000X-0.275000X-0.700000X0.275000X-0.700000X0.275000X0.700000X-0.275000X0.700000X0*%
%ADD32RoundRect,0.150000X-0.150000X0.512500X-0.150000X-0.512500X0.150000X-0.512500X0.150000X0.512500X0*%
%ADD33RoundRect,0.175000X-1.250000X-0.175000X1.250000X-0.175000X1.250000X0.175000X-1.250000X0.175000X0*%
%ADD34R,4.570000X4.450000*%
%ADD35RoundRect,0.250000X0.650000X-0.325000X0.650000X0.325000X-0.650000X0.325000X-0.650000X-0.325000X0*%
%ADD36RoundRect,0.250000X-0.650000X0.325000X-0.650000X-0.325000X0.650000X-0.325000X0.650000X0.325000X0*%
%ADD37R,1.300000X0.900000*%
%ADD38FreePoly0,0.000000*%
%ADD39RoundRect,0.250000X0.325000X0.650000X-0.325000X0.650000X-0.325000X-0.650000X0.325000X-0.650000X0*%
%ADD40R,0.600000X1.550000*%
%ADD41R,2.200000X2.150000*%
%ADD42C,2.000000*%
%ADD43RoundRect,0.100000X-0.175000X-0.100000X0.175000X-0.100000X0.175000X0.100000X-0.175000X0.100000X0*%
%ADD44RoundRect,0.100000X-0.100000X-0.175000X0.100000X-0.175000X0.100000X0.175000X-0.100000X0.175000X0*%
%ADD45R,0.380000X0.150000*%
%ADD46R,0.380000X0.630000*%
%ADD47C,0.600000*%
%ADD48R,1.350000X0.400000*%
%ADD49FreePoly1,270.000000*%
%ADD50O,1.700000X1.000000*%
%ADD51R,1.900000X1.900000*%
%ADD52O,1.700000X0.850000*%
%ADD53FreePoly2,270.000000*%
G04 APERTURE END LIST*
D10*
X179831904Y-147420000D02*
X179736666Y-147372380D01*
X179736666Y-147372380D02*
X179593809Y-147372380D01*
X179593809Y-147372380D02*
X179450952Y-147420000D01*
X179450952Y-147420000D02*
X179355714Y-147515238D01*
X179355714Y-147515238D02*
X179308095Y-147610476D01*
X179308095Y-147610476D02*
X179260476Y-147800952D01*
X179260476Y-147800952D02*
X179260476Y-147943809D01*
X179260476Y-147943809D02*
X179308095Y-148134285D01*
X179308095Y-148134285D02*
X179355714Y-148229523D01*
X179355714Y-148229523D02*
X179450952Y-148324761D01*
X179450952Y-148324761D02*
X179593809Y-148372380D01*
X179593809Y-148372380D02*
X179689047Y-148372380D01*
X179689047Y-148372380D02*
X179831904Y-148324761D01*
X179831904Y-148324761D02*
X179879523Y-148277142D01*
X179879523Y-148277142D02*
X179879523Y-147943809D01*
X179879523Y-147943809D02*
X179689047Y-147943809D01*
X180308095Y-148372380D02*
X180308095Y-147705714D01*
X180308095Y-147896190D02*
X180355714Y-147800952D01*
X180355714Y-147800952D02*
X180403333Y-147753333D01*
X180403333Y-147753333D02*
X180498571Y-147705714D01*
X180498571Y-147705714D02*
X180593809Y-147705714D01*
X181070000Y-148372380D02*
X180974762Y-148324761D01*
X180974762Y-148324761D02*
X180927143Y-148277142D01*
X180927143Y-148277142D02*
X180879524Y-148181904D01*
X180879524Y-148181904D02*
X180879524Y-147896190D01*
X180879524Y-147896190D02*
X180927143Y-147800952D01*
X180927143Y-147800952D02*
X180974762Y-147753333D01*
X180974762Y-147753333D02*
X181070000Y-147705714D01*
X181070000Y-147705714D02*
X181212857Y-147705714D01*
X181212857Y-147705714D02*
X181308095Y-147753333D01*
X181308095Y-147753333D02*
X181355714Y-147800952D01*
X181355714Y-147800952D02*
X181403333Y-147896190D01*
X181403333Y-147896190D02*
X181403333Y-148181904D01*
X181403333Y-148181904D02*
X181355714Y-148277142D01*
X181355714Y-148277142D02*
X181308095Y-148324761D01*
X181308095Y-148324761D02*
X181212857Y-148372380D01*
X181212857Y-148372380D02*
X181070000Y-148372380D01*
X182260476Y-147705714D02*
X182260476Y-148372380D01*
X181831905Y-147705714D02*
X181831905Y-148229523D01*
X181831905Y-148229523D02*
X181879524Y-148324761D01*
X181879524Y-148324761D02*
X181974762Y-148372380D01*
X181974762Y-148372380D02*
X182117619Y-148372380D01*
X182117619Y-148372380D02*
X182212857Y-148324761D01*
X182212857Y-148324761D02*
X182260476Y-148277142D01*
X182736667Y-147705714D02*
X182736667Y-148705714D01*
X182736667Y-147753333D02*
X182831905Y-147705714D01*
X182831905Y-147705714D02*
X183022381Y-147705714D01*
X183022381Y-147705714D02*
X183117619Y-147753333D01*
X183117619Y-147753333D02*
X183165238Y-147800952D01*
X183165238Y-147800952D02*
X183212857Y-147896190D01*
X183212857Y-147896190D02*
X183212857Y-148181904D01*
X183212857Y-148181904D02*
X183165238Y-148277142D01*
X183165238Y-148277142D02*
X183117619Y-148324761D01*
X183117619Y-148324761D02*
X183022381Y-148372380D01*
X183022381Y-148372380D02*
X182831905Y-148372380D01*
X182831905Y-148372380D02*
X182736667Y-148324761D01*
X184670000Y-147705714D02*
X184670000Y-148372380D01*
X184431905Y-147324761D02*
X184193810Y-148039047D01*
X184193810Y-148039047D02*
X184812857Y-148039047D01*
X185698572Y-147705714D02*
X185936667Y-148372380D01*
X185936667Y-148372380D02*
X186174762Y-147705714D01*
X186746191Y-147372380D02*
X186841429Y-147372380D01*
X186841429Y-147372380D02*
X186936667Y-147420000D01*
X186936667Y-147420000D02*
X186984286Y-147467619D01*
X186984286Y-147467619D02*
X187031905Y-147562857D01*
X187031905Y-147562857D02*
X187079524Y-147753333D01*
X187079524Y-147753333D02*
X187079524Y-147991428D01*
X187079524Y-147991428D02*
X187031905Y-148181904D01*
X187031905Y-148181904D02*
X186984286Y-148277142D01*
X186984286Y-148277142D02*
X186936667Y-148324761D01*
X186936667Y-148324761D02*
X186841429Y-148372380D01*
X186841429Y-148372380D02*
X186746191Y-148372380D01*
X186746191Y-148372380D02*
X186650953Y-148324761D01*
X186650953Y-148324761D02*
X186603334Y-148277142D01*
X186603334Y-148277142D02*
X186555715Y-148181904D01*
X186555715Y-148181904D02*
X186508096Y-147991428D01*
X186508096Y-147991428D02*
X186508096Y-147753333D01*
X186508096Y-147753333D02*
X186555715Y-147562857D01*
X186555715Y-147562857D02*
X186603334Y-147467619D01*
X186603334Y-147467619D02*
X186650953Y-147420000D01*
X186650953Y-147420000D02*
X186746191Y-147372380D01*
X187508096Y-148277142D02*
X187555715Y-148324761D01*
X187555715Y-148324761D02*
X187508096Y-148372380D01*
X187508096Y-148372380D02*
X187460477Y-148324761D01*
X187460477Y-148324761D02*
X187508096Y-148277142D01*
X187508096Y-148277142D02*
X187508096Y-148372380D01*
X187936667Y-147467619D02*
X187984286Y-147420000D01*
X187984286Y-147420000D02*
X188079524Y-147372380D01*
X188079524Y-147372380D02*
X188317619Y-147372380D01*
X188317619Y-147372380D02*
X188412857Y-147420000D01*
X188412857Y-147420000D02*
X188460476Y-147467619D01*
X188460476Y-147467619D02*
X188508095Y-147562857D01*
X188508095Y-147562857D02*
X188508095Y-147658095D01*
X188508095Y-147658095D02*
X188460476Y-147800952D01*
X188460476Y-147800952D02*
X187889048Y-148372380D01*
X187889048Y-148372380D02*
X188508095Y-148372380D01*
X188841429Y-147372380D02*
X189508095Y-147372380D01*
X189508095Y-147372380D02*
X189079524Y-148372380D01*
%TO.C,R28*%
X158615142Y-79077380D02*
X158281809Y-78601190D01*
X158043714Y-79077380D02*
X158043714Y-78077380D01*
X158043714Y-78077380D02*
X158424666Y-78077380D01*
X158424666Y-78077380D02*
X158519904Y-78125000D01*
X158519904Y-78125000D02*
X158567523Y-78172619D01*
X158567523Y-78172619D02*
X158615142Y-78267857D01*
X158615142Y-78267857D02*
X158615142Y-78410714D01*
X158615142Y-78410714D02*
X158567523Y-78505952D01*
X158567523Y-78505952D02*
X158519904Y-78553571D01*
X158519904Y-78553571D02*
X158424666Y-78601190D01*
X158424666Y-78601190D02*
X158043714Y-78601190D01*
X158996095Y-78172619D02*
X159043714Y-78125000D01*
X159043714Y-78125000D02*
X159138952Y-78077380D01*
X159138952Y-78077380D02*
X159377047Y-78077380D01*
X159377047Y-78077380D02*
X159472285Y-78125000D01*
X159472285Y-78125000D02*
X159519904Y-78172619D01*
X159519904Y-78172619D02*
X159567523Y-78267857D01*
X159567523Y-78267857D02*
X159567523Y-78363095D01*
X159567523Y-78363095D02*
X159519904Y-78505952D01*
X159519904Y-78505952D02*
X158948476Y-79077380D01*
X158948476Y-79077380D02*
X159567523Y-79077380D01*
X160138952Y-78505952D02*
X160043714Y-78458333D01*
X160043714Y-78458333D02*
X159996095Y-78410714D01*
X159996095Y-78410714D02*
X159948476Y-78315476D01*
X159948476Y-78315476D02*
X159948476Y-78267857D01*
X159948476Y-78267857D02*
X159996095Y-78172619D01*
X159996095Y-78172619D02*
X160043714Y-78125000D01*
X160043714Y-78125000D02*
X160138952Y-78077380D01*
X160138952Y-78077380D02*
X160329428Y-78077380D01*
X160329428Y-78077380D02*
X160424666Y-78125000D01*
X160424666Y-78125000D02*
X160472285Y-78172619D01*
X160472285Y-78172619D02*
X160519904Y-78267857D01*
X160519904Y-78267857D02*
X160519904Y-78315476D01*
X160519904Y-78315476D02*
X160472285Y-78410714D01*
X160472285Y-78410714D02*
X160424666Y-78458333D01*
X160424666Y-78458333D02*
X160329428Y-78505952D01*
X160329428Y-78505952D02*
X160138952Y-78505952D01*
X160138952Y-78505952D02*
X160043714Y-78553571D01*
X160043714Y-78553571D02*
X159996095Y-78601190D01*
X159996095Y-78601190D02*
X159948476Y-78696428D01*
X159948476Y-78696428D02*
X159948476Y-78886904D01*
X159948476Y-78886904D02*
X159996095Y-78982142D01*
X159996095Y-78982142D02*
X160043714Y-79029761D01*
X160043714Y-79029761D02*
X160138952Y-79077380D01*
X160138952Y-79077380D02*
X160329428Y-79077380D01*
X160329428Y-79077380D02*
X160424666Y-79029761D01*
X160424666Y-79029761D02*
X160472285Y-78982142D01*
X160472285Y-78982142D02*
X160519904Y-78886904D01*
X160519904Y-78886904D02*
X160519904Y-78696428D01*
X160519904Y-78696428D02*
X160472285Y-78601190D01*
X160472285Y-78601190D02*
X160424666Y-78553571D01*
X160424666Y-78553571D02*
X160329428Y-78505952D01*
%TO.C,U5*%
X112242380Y-85510904D02*
X113051904Y-85510904D01*
X113051904Y-85510904D02*
X113147142Y-85463285D01*
X113147142Y-85463285D02*
X113194761Y-85415666D01*
X113194761Y-85415666D02*
X113242380Y-85320428D01*
X113242380Y-85320428D02*
X113242380Y-85129952D01*
X113242380Y-85129952D02*
X113194761Y-85034714D01*
X113194761Y-85034714D02*
X113147142Y-84987095D01*
X113147142Y-84987095D02*
X113051904Y-84939476D01*
X113051904Y-84939476D02*
X112242380Y-84939476D01*
X112242380Y-83987095D02*
X112242380Y-84463285D01*
X112242380Y-84463285D02*
X112718571Y-84510904D01*
X112718571Y-84510904D02*
X112670952Y-84463285D01*
X112670952Y-84463285D02*
X112623333Y-84368047D01*
X112623333Y-84368047D02*
X112623333Y-84129952D01*
X112623333Y-84129952D02*
X112670952Y-84034714D01*
X112670952Y-84034714D02*
X112718571Y-83987095D01*
X112718571Y-83987095D02*
X112813809Y-83939476D01*
X112813809Y-83939476D02*
X113051904Y-83939476D01*
X113051904Y-83939476D02*
X113147142Y-83987095D01*
X113147142Y-83987095D02*
X113194761Y-84034714D01*
X113194761Y-84034714D02*
X113242380Y-84129952D01*
X113242380Y-84129952D02*
X113242380Y-84368047D01*
X113242380Y-84368047D02*
X113194761Y-84463285D01*
X113194761Y-84463285D02*
X113147142Y-84510904D01*
%TO.C,R22*%
X140787380Y-103258857D02*
X140311190Y-103592190D01*
X140787380Y-103830285D02*
X139787380Y-103830285D01*
X139787380Y-103830285D02*
X139787380Y-103449333D01*
X139787380Y-103449333D02*
X139835000Y-103354095D01*
X139835000Y-103354095D02*
X139882619Y-103306476D01*
X139882619Y-103306476D02*
X139977857Y-103258857D01*
X139977857Y-103258857D02*
X140120714Y-103258857D01*
X140120714Y-103258857D02*
X140215952Y-103306476D01*
X140215952Y-103306476D02*
X140263571Y-103354095D01*
X140263571Y-103354095D02*
X140311190Y-103449333D01*
X140311190Y-103449333D02*
X140311190Y-103830285D01*
X139882619Y-102877904D02*
X139835000Y-102830285D01*
X139835000Y-102830285D02*
X139787380Y-102735047D01*
X139787380Y-102735047D02*
X139787380Y-102496952D01*
X139787380Y-102496952D02*
X139835000Y-102401714D01*
X139835000Y-102401714D02*
X139882619Y-102354095D01*
X139882619Y-102354095D02*
X139977857Y-102306476D01*
X139977857Y-102306476D02*
X140073095Y-102306476D01*
X140073095Y-102306476D02*
X140215952Y-102354095D01*
X140215952Y-102354095D02*
X140787380Y-102925523D01*
X140787380Y-102925523D02*
X140787380Y-102306476D01*
X139882619Y-101925523D02*
X139835000Y-101877904D01*
X139835000Y-101877904D02*
X139787380Y-101782666D01*
X139787380Y-101782666D02*
X139787380Y-101544571D01*
X139787380Y-101544571D02*
X139835000Y-101449333D01*
X139835000Y-101449333D02*
X139882619Y-101401714D01*
X139882619Y-101401714D02*
X139977857Y-101354095D01*
X139977857Y-101354095D02*
X140073095Y-101354095D01*
X140073095Y-101354095D02*
X140215952Y-101401714D01*
X140215952Y-101401714D02*
X140787380Y-101973142D01*
X140787380Y-101973142D02*
X140787380Y-101354095D01*
%TO.C,U1*%
X114874095Y-68345380D02*
X114874095Y-69154904D01*
X114874095Y-69154904D02*
X114921714Y-69250142D01*
X114921714Y-69250142D02*
X114969333Y-69297761D01*
X114969333Y-69297761D02*
X115064571Y-69345380D01*
X115064571Y-69345380D02*
X115255047Y-69345380D01*
X115255047Y-69345380D02*
X115350285Y-69297761D01*
X115350285Y-69297761D02*
X115397904Y-69250142D01*
X115397904Y-69250142D02*
X115445523Y-69154904D01*
X115445523Y-69154904D02*
X115445523Y-68345380D01*
X116445523Y-69345380D02*
X115874095Y-69345380D01*
X116159809Y-69345380D02*
X116159809Y-68345380D01*
X116159809Y-68345380D02*
X116064571Y-68488238D01*
X116064571Y-68488238D02*
X115969333Y-68583476D01*
X115969333Y-68583476D02*
X115874095Y-68631095D01*
%TO.C,R1*%
X110831333Y-59507380D02*
X110498000Y-59031190D01*
X110259905Y-59507380D02*
X110259905Y-58507380D01*
X110259905Y-58507380D02*
X110640857Y-58507380D01*
X110640857Y-58507380D02*
X110736095Y-58555000D01*
X110736095Y-58555000D02*
X110783714Y-58602619D01*
X110783714Y-58602619D02*
X110831333Y-58697857D01*
X110831333Y-58697857D02*
X110831333Y-58840714D01*
X110831333Y-58840714D02*
X110783714Y-58935952D01*
X110783714Y-58935952D02*
X110736095Y-58983571D01*
X110736095Y-58983571D02*
X110640857Y-59031190D01*
X110640857Y-59031190D02*
X110259905Y-59031190D01*
X111783714Y-59507380D02*
X111212286Y-59507380D01*
X111498000Y-59507380D02*
X111498000Y-58507380D01*
X111498000Y-58507380D02*
X111402762Y-58650238D01*
X111402762Y-58650238D02*
X111307524Y-58745476D01*
X111307524Y-58745476D02*
X111212286Y-58793095D01*
%TO.C,J1*%
X131439666Y-50455380D02*
X131439666Y-51169666D01*
X131439666Y-51169666D02*
X131392047Y-51312523D01*
X131392047Y-51312523D02*
X131296809Y-51407761D01*
X131296809Y-51407761D02*
X131153952Y-51455380D01*
X131153952Y-51455380D02*
X131058714Y-51455380D01*
X132439666Y-51455380D02*
X131868238Y-51455380D01*
X132153952Y-51455380D02*
X132153952Y-50455380D01*
X132153952Y-50455380D02*
X132058714Y-50598238D01*
X132058714Y-50598238D02*
X131963476Y-50693476D01*
X131963476Y-50693476D02*
X131868238Y-50741095D01*
%TO.C,R7*%
X153757333Y-108275380D02*
X153424000Y-107799190D01*
X153185905Y-108275380D02*
X153185905Y-107275380D01*
X153185905Y-107275380D02*
X153566857Y-107275380D01*
X153566857Y-107275380D02*
X153662095Y-107323000D01*
X153662095Y-107323000D02*
X153709714Y-107370619D01*
X153709714Y-107370619D02*
X153757333Y-107465857D01*
X153757333Y-107465857D02*
X153757333Y-107608714D01*
X153757333Y-107608714D02*
X153709714Y-107703952D01*
X153709714Y-107703952D02*
X153662095Y-107751571D01*
X153662095Y-107751571D02*
X153566857Y-107799190D01*
X153566857Y-107799190D02*
X153185905Y-107799190D01*
X154090667Y-107275380D02*
X154757333Y-107275380D01*
X154757333Y-107275380D02*
X154328762Y-108275380D01*
%TO.C,C7*%
X98639333Y-112214142D02*
X98591714Y-112261761D01*
X98591714Y-112261761D02*
X98448857Y-112309380D01*
X98448857Y-112309380D02*
X98353619Y-112309380D01*
X98353619Y-112309380D02*
X98210762Y-112261761D01*
X98210762Y-112261761D02*
X98115524Y-112166523D01*
X98115524Y-112166523D02*
X98067905Y-112071285D01*
X98067905Y-112071285D02*
X98020286Y-111880809D01*
X98020286Y-111880809D02*
X98020286Y-111737952D01*
X98020286Y-111737952D02*
X98067905Y-111547476D01*
X98067905Y-111547476D02*
X98115524Y-111452238D01*
X98115524Y-111452238D02*
X98210762Y-111357000D01*
X98210762Y-111357000D02*
X98353619Y-111309380D01*
X98353619Y-111309380D02*
X98448857Y-111309380D01*
X98448857Y-111309380D02*
X98591714Y-111357000D01*
X98591714Y-111357000D02*
X98639333Y-111404619D01*
X98972667Y-111309380D02*
X99639333Y-111309380D01*
X99639333Y-111309380D02*
X99210762Y-112309380D01*
%TO.C,TP14*%
X103377380Y-81748094D02*
X103377380Y-81176666D01*
X104377380Y-81462380D02*
X103377380Y-81462380D01*
X104377380Y-80843332D02*
X103377380Y-80843332D01*
X103377380Y-80843332D02*
X103377380Y-80462380D01*
X103377380Y-80462380D02*
X103425000Y-80367142D01*
X103425000Y-80367142D02*
X103472619Y-80319523D01*
X103472619Y-80319523D02*
X103567857Y-80271904D01*
X103567857Y-80271904D02*
X103710714Y-80271904D01*
X103710714Y-80271904D02*
X103805952Y-80319523D01*
X103805952Y-80319523D02*
X103853571Y-80367142D01*
X103853571Y-80367142D02*
X103901190Y-80462380D01*
X103901190Y-80462380D02*
X103901190Y-80843332D01*
X104377380Y-79319523D02*
X104377380Y-79890951D01*
X104377380Y-79605237D02*
X103377380Y-79605237D01*
X103377380Y-79605237D02*
X103520238Y-79700475D01*
X103520238Y-79700475D02*
X103615476Y-79795713D01*
X103615476Y-79795713D02*
X103663095Y-79890951D01*
X103710714Y-78462380D02*
X104377380Y-78462380D01*
X103329761Y-78700475D02*
X104044047Y-78938570D01*
X104044047Y-78938570D02*
X104044047Y-78319523D01*
%TO.C,TP3*%
X151392095Y-88651380D02*
X151963523Y-88651380D01*
X151677809Y-89651380D02*
X151677809Y-88651380D01*
X152296857Y-89651380D02*
X152296857Y-88651380D01*
X152296857Y-88651380D02*
X152677809Y-88651380D01*
X152677809Y-88651380D02*
X152773047Y-88699000D01*
X152773047Y-88699000D02*
X152820666Y-88746619D01*
X152820666Y-88746619D02*
X152868285Y-88841857D01*
X152868285Y-88841857D02*
X152868285Y-88984714D01*
X152868285Y-88984714D02*
X152820666Y-89079952D01*
X152820666Y-89079952D02*
X152773047Y-89127571D01*
X152773047Y-89127571D02*
X152677809Y-89175190D01*
X152677809Y-89175190D02*
X152296857Y-89175190D01*
X153201619Y-88651380D02*
X153820666Y-88651380D01*
X153820666Y-88651380D02*
X153487333Y-89032333D01*
X153487333Y-89032333D02*
X153630190Y-89032333D01*
X153630190Y-89032333D02*
X153725428Y-89079952D01*
X153725428Y-89079952D02*
X153773047Y-89127571D01*
X153773047Y-89127571D02*
X153820666Y-89222809D01*
X153820666Y-89222809D02*
X153820666Y-89460904D01*
X153820666Y-89460904D02*
X153773047Y-89556142D01*
X153773047Y-89556142D02*
X153725428Y-89603761D01*
X153725428Y-89603761D02*
X153630190Y-89651380D01*
X153630190Y-89651380D02*
X153344476Y-89651380D01*
X153344476Y-89651380D02*
X153249238Y-89603761D01*
X153249238Y-89603761D02*
X153201619Y-89556142D01*
%TO.C,R18*%
X121440380Y-108340357D02*
X120964190Y-108673690D01*
X121440380Y-108911785D02*
X120440380Y-108911785D01*
X120440380Y-108911785D02*
X120440380Y-108530833D01*
X120440380Y-108530833D02*
X120488000Y-108435595D01*
X120488000Y-108435595D02*
X120535619Y-108387976D01*
X120535619Y-108387976D02*
X120630857Y-108340357D01*
X120630857Y-108340357D02*
X120773714Y-108340357D01*
X120773714Y-108340357D02*
X120868952Y-108387976D01*
X120868952Y-108387976D02*
X120916571Y-108435595D01*
X120916571Y-108435595D02*
X120964190Y-108530833D01*
X120964190Y-108530833D02*
X120964190Y-108911785D01*
X121440380Y-107387976D02*
X121440380Y-107959404D01*
X121440380Y-107673690D02*
X120440380Y-107673690D01*
X120440380Y-107673690D02*
X120583238Y-107768928D01*
X120583238Y-107768928D02*
X120678476Y-107864166D01*
X120678476Y-107864166D02*
X120726095Y-107959404D01*
X120868952Y-106816547D02*
X120821333Y-106911785D01*
X120821333Y-106911785D02*
X120773714Y-106959404D01*
X120773714Y-106959404D02*
X120678476Y-107007023D01*
X120678476Y-107007023D02*
X120630857Y-107007023D01*
X120630857Y-107007023D02*
X120535619Y-106959404D01*
X120535619Y-106959404D02*
X120488000Y-106911785D01*
X120488000Y-106911785D02*
X120440380Y-106816547D01*
X120440380Y-106816547D02*
X120440380Y-106626071D01*
X120440380Y-106626071D02*
X120488000Y-106530833D01*
X120488000Y-106530833D02*
X120535619Y-106483214D01*
X120535619Y-106483214D02*
X120630857Y-106435595D01*
X120630857Y-106435595D02*
X120678476Y-106435595D01*
X120678476Y-106435595D02*
X120773714Y-106483214D01*
X120773714Y-106483214D02*
X120821333Y-106530833D01*
X120821333Y-106530833D02*
X120868952Y-106626071D01*
X120868952Y-106626071D02*
X120868952Y-106816547D01*
X120868952Y-106816547D02*
X120916571Y-106911785D01*
X120916571Y-106911785D02*
X120964190Y-106959404D01*
X120964190Y-106959404D02*
X121059428Y-107007023D01*
X121059428Y-107007023D02*
X121249904Y-107007023D01*
X121249904Y-107007023D02*
X121345142Y-106959404D01*
X121345142Y-106959404D02*
X121392761Y-106911785D01*
X121392761Y-106911785D02*
X121440380Y-106816547D01*
X121440380Y-106816547D02*
X121440380Y-106626071D01*
X121440380Y-106626071D02*
X121392761Y-106530833D01*
X121392761Y-106530833D02*
X121345142Y-106483214D01*
X121345142Y-106483214D02*
X121249904Y-106435595D01*
X121249904Y-106435595D02*
X121059428Y-106435595D01*
X121059428Y-106435595D02*
X120964190Y-106483214D01*
X120964190Y-106483214D02*
X120916571Y-106530833D01*
X120916571Y-106530833D02*
X120868952Y-106626071D01*
%TO.C,R24*%
X100641642Y-74239380D02*
X100308309Y-73763190D01*
X100070214Y-74239380D02*
X100070214Y-73239380D01*
X100070214Y-73239380D02*
X100451166Y-73239380D01*
X100451166Y-73239380D02*
X100546404Y-73287000D01*
X100546404Y-73287000D02*
X100594023Y-73334619D01*
X100594023Y-73334619D02*
X100641642Y-73429857D01*
X100641642Y-73429857D02*
X100641642Y-73572714D01*
X100641642Y-73572714D02*
X100594023Y-73667952D01*
X100594023Y-73667952D02*
X100546404Y-73715571D01*
X100546404Y-73715571D02*
X100451166Y-73763190D01*
X100451166Y-73763190D02*
X100070214Y-73763190D01*
X101022595Y-73334619D02*
X101070214Y-73287000D01*
X101070214Y-73287000D02*
X101165452Y-73239380D01*
X101165452Y-73239380D02*
X101403547Y-73239380D01*
X101403547Y-73239380D02*
X101498785Y-73287000D01*
X101498785Y-73287000D02*
X101546404Y-73334619D01*
X101546404Y-73334619D02*
X101594023Y-73429857D01*
X101594023Y-73429857D02*
X101594023Y-73525095D01*
X101594023Y-73525095D02*
X101546404Y-73667952D01*
X101546404Y-73667952D02*
X100974976Y-74239380D01*
X100974976Y-74239380D02*
X101594023Y-74239380D01*
X102451166Y-73572714D02*
X102451166Y-74239380D01*
X102213071Y-73191761D02*
X101974976Y-73906047D01*
X101974976Y-73906047D02*
X102594023Y-73906047D01*
%TO.C,TP11*%
X123991905Y-99859880D02*
X124563333Y-99859880D01*
X124277619Y-100859880D02*
X124277619Y-99859880D01*
X124896667Y-100859880D02*
X124896667Y-99859880D01*
X124896667Y-99859880D02*
X125277619Y-99859880D01*
X125277619Y-99859880D02*
X125372857Y-99907500D01*
X125372857Y-99907500D02*
X125420476Y-99955119D01*
X125420476Y-99955119D02*
X125468095Y-100050357D01*
X125468095Y-100050357D02*
X125468095Y-100193214D01*
X125468095Y-100193214D02*
X125420476Y-100288452D01*
X125420476Y-100288452D02*
X125372857Y-100336071D01*
X125372857Y-100336071D02*
X125277619Y-100383690D01*
X125277619Y-100383690D02*
X124896667Y-100383690D01*
X126420476Y-100859880D02*
X125849048Y-100859880D01*
X126134762Y-100859880D02*
X126134762Y-99859880D01*
X126134762Y-99859880D02*
X126039524Y-100002738D01*
X126039524Y-100002738D02*
X125944286Y-100097976D01*
X125944286Y-100097976D02*
X125849048Y-100145595D01*
X127372857Y-100859880D02*
X126801429Y-100859880D01*
X127087143Y-100859880D02*
X127087143Y-99859880D01*
X127087143Y-99859880D02*
X126991905Y-100002738D01*
X126991905Y-100002738D02*
X126896667Y-100097976D01*
X126896667Y-100097976D02*
X126801429Y-100145595D01*
%TO.C,D2*%
X162837905Y-126191380D02*
X162837905Y-125191380D01*
X162837905Y-125191380D02*
X163076000Y-125191380D01*
X163076000Y-125191380D02*
X163218857Y-125239000D01*
X163218857Y-125239000D02*
X163314095Y-125334238D01*
X163314095Y-125334238D02*
X163361714Y-125429476D01*
X163361714Y-125429476D02*
X163409333Y-125619952D01*
X163409333Y-125619952D02*
X163409333Y-125762809D01*
X163409333Y-125762809D02*
X163361714Y-125953285D01*
X163361714Y-125953285D02*
X163314095Y-126048523D01*
X163314095Y-126048523D02*
X163218857Y-126143761D01*
X163218857Y-126143761D02*
X163076000Y-126191380D01*
X163076000Y-126191380D02*
X162837905Y-126191380D01*
X163790286Y-125286619D02*
X163837905Y-125239000D01*
X163837905Y-125239000D02*
X163933143Y-125191380D01*
X163933143Y-125191380D02*
X164171238Y-125191380D01*
X164171238Y-125191380D02*
X164266476Y-125239000D01*
X164266476Y-125239000D02*
X164314095Y-125286619D01*
X164314095Y-125286619D02*
X164361714Y-125381857D01*
X164361714Y-125381857D02*
X164361714Y-125477095D01*
X164361714Y-125477095D02*
X164314095Y-125619952D01*
X164314095Y-125619952D02*
X163742667Y-126191380D01*
X163742667Y-126191380D02*
X164361714Y-126191380D01*
%TO.C,R17*%
X128643142Y-121483380D02*
X128309809Y-121007190D01*
X128071714Y-121483380D02*
X128071714Y-120483380D01*
X128071714Y-120483380D02*
X128452666Y-120483380D01*
X128452666Y-120483380D02*
X128547904Y-120531000D01*
X128547904Y-120531000D02*
X128595523Y-120578619D01*
X128595523Y-120578619D02*
X128643142Y-120673857D01*
X128643142Y-120673857D02*
X128643142Y-120816714D01*
X128643142Y-120816714D02*
X128595523Y-120911952D01*
X128595523Y-120911952D02*
X128547904Y-120959571D01*
X128547904Y-120959571D02*
X128452666Y-121007190D01*
X128452666Y-121007190D02*
X128071714Y-121007190D01*
X129595523Y-121483380D02*
X129024095Y-121483380D01*
X129309809Y-121483380D02*
X129309809Y-120483380D01*
X129309809Y-120483380D02*
X129214571Y-120626238D01*
X129214571Y-120626238D02*
X129119333Y-120721476D01*
X129119333Y-120721476D02*
X129024095Y-120769095D01*
X129928857Y-120483380D02*
X130595523Y-120483380D01*
X130595523Y-120483380D02*
X130166952Y-121483380D01*
%TO.C,IC1*%
X131865810Y-127621380D02*
X131865810Y-126621380D01*
X132913428Y-127526142D02*
X132865809Y-127573761D01*
X132865809Y-127573761D02*
X132722952Y-127621380D01*
X132722952Y-127621380D02*
X132627714Y-127621380D01*
X132627714Y-127621380D02*
X132484857Y-127573761D01*
X132484857Y-127573761D02*
X132389619Y-127478523D01*
X132389619Y-127478523D02*
X132342000Y-127383285D01*
X132342000Y-127383285D02*
X132294381Y-127192809D01*
X132294381Y-127192809D02*
X132294381Y-127049952D01*
X132294381Y-127049952D02*
X132342000Y-126859476D01*
X132342000Y-126859476D02*
X132389619Y-126764238D01*
X132389619Y-126764238D02*
X132484857Y-126669000D01*
X132484857Y-126669000D02*
X132627714Y-126621380D01*
X132627714Y-126621380D02*
X132722952Y-126621380D01*
X132722952Y-126621380D02*
X132865809Y-126669000D01*
X132865809Y-126669000D02*
X132913428Y-126716619D01*
X133865809Y-127621380D02*
X133294381Y-127621380D01*
X133580095Y-127621380D02*
X133580095Y-126621380D01*
X133580095Y-126621380D02*
X133484857Y-126764238D01*
X133484857Y-126764238D02*
X133389619Y-126859476D01*
X133389619Y-126859476D02*
X133294381Y-126907095D01*
%TO.C,Y1*%
X133247190Y-73882190D02*
X133723380Y-73882190D01*
X132723380Y-74215523D02*
X133247190Y-73882190D01*
X133247190Y-73882190D02*
X132723380Y-73548857D01*
X133723380Y-72691714D02*
X133723380Y-73263142D01*
X133723380Y-72977428D02*
X132723380Y-72977428D01*
X132723380Y-72977428D02*
X132866238Y-73072666D01*
X132866238Y-73072666D02*
X132961476Y-73167904D01*
X132961476Y-73167904D02*
X133009095Y-73263142D01*
%TO.C,R32*%
X113403142Y-65095380D02*
X113069809Y-64619190D01*
X112831714Y-65095380D02*
X112831714Y-64095380D01*
X112831714Y-64095380D02*
X113212666Y-64095380D01*
X113212666Y-64095380D02*
X113307904Y-64143000D01*
X113307904Y-64143000D02*
X113355523Y-64190619D01*
X113355523Y-64190619D02*
X113403142Y-64285857D01*
X113403142Y-64285857D02*
X113403142Y-64428714D01*
X113403142Y-64428714D02*
X113355523Y-64523952D01*
X113355523Y-64523952D02*
X113307904Y-64571571D01*
X113307904Y-64571571D02*
X113212666Y-64619190D01*
X113212666Y-64619190D02*
X112831714Y-64619190D01*
X113736476Y-64095380D02*
X114355523Y-64095380D01*
X114355523Y-64095380D02*
X114022190Y-64476333D01*
X114022190Y-64476333D02*
X114165047Y-64476333D01*
X114165047Y-64476333D02*
X114260285Y-64523952D01*
X114260285Y-64523952D02*
X114307904Y-64571571D01*
X114307904Y-64571571D02*
X114355523Y-64666809D01*
X114355523Y-64666809D02*
X114355523Y-64904904D01*
X114355523Y-64904904D02*
X114307904Y-65000142D01*
X114307904Y-65000142D02*
X114260285Y-65047761D01*
X114260285Y-65047761D02*
X114165047Y-65095380D01*
X114165047Y-65095380D02*
X113879333Y-65095380D01*
X113879333Y-65095380D02*
X113784095Y-65047761D01*
X113784095Y-65047761D02*
X113736476Y-65000142D01*
X114736476Y-64190619D02*
X114784095Y-64143000D01*
X114784095Y-64143000D02*
X114879333Y-64095380D01*
X114879333Y-64095380D02*
X115117428Y-64095380D01*
X115117428Y-64095380D02*
X115212666Y-64143000D01*
X115212666Y-64143000D02*
X115260285Y-64190619D01*
X115260285Y-64190619D02*
X115307904Y-64285857D01*
X115307904Y-64285857D02*
X115307904Y-64381095D01*
X115307904Y-64381095D02*
X115260285Y-64523952D01*
X115260285Y-64523952D02*
X114688857Y-65095380D01*
X114688857Y-65095380D02*
X115307904Y-65095380D01*
%TO.C,R15*%
X146931142Y-120975380D02*
X146597809Y-120499190D01*
X146359714Y-120975380D02*
X146359714Y-119975380D01*
X146359714Y-119975380D02*
X146740666Y-119975380D01*
X146740666Y-119975380D02*
X146835904Y-120023000D01*
X146835904Y-120023000D02*
X146883523Y-120070619D01*
X146883523Y-120070619D02*
X146931142Y-120165857D01*
X146931142Y-120165857D02*
X146931142Y-120308714D01*
X146931142Y-120308714D02*
X146883523Y-120403952D01*
X146883523Y-120403952D02*
X146835904Y-120451571D01*
X146835904Y-120451571D02*
X146740666Y-120499190D01*
X146740666Y-120499190D02*
X146359714Y-120499190D01*
X147883523Y-120975380D02*
X147312095Y-120975380D01*
X147597809Y-120975380D02*
X147597809Y-119975380D01*
X147597809Y-119975380D02*
X147502571Y-120118238D01*
X147502571Y-120118238D02*
X147407333Y-120213476D01*
X147407333Y-120213476D02*
X147312095Y-120261095D01*
X148788285Y-119975380D02*
X148312095Y-119975380D01*
X148312095Y-119975380D02*
X148264476Y-120451571D01*
X148264476Y-120451571D02*
X148312095Y-120403952D01*
X148312095Y-120403952D02*
X148407333Y-120356333D01*
X148407333Y-120356333D02*
X148645428Y-120356333D01*
X148645428Y-120356333D02*
X148740666Y-120403952D01*
X148740666Y-120403952D02*
X148788285Y-120451571D01*
X148788285Y-120451571D02*
X148835904Y-120546809D01*
X148835904Y-120546809D02*
X148835904Y-120784904D01*
X148835904Y-120784904D02*
X148788285Y-120880142D01*
X148788285Y-120880142D02*
X148740666Y-120927761D01*
X148740666Y-120927761D02*
X148645428Y-120975380D01*
X148645428Y-120975380D02*
X148407333Y-120975380D01*
X148407333Y-120975380D02*
X148312095Y-120927761D01*
X148312095Y-120927761D02*
X148264476Y-120880142D01*
%TO.C,C11*%
X153281142Y-120596142D02*
X153233523Y-120643761D01*
X153233523Y-120643761D02*
X153090666Y-120691380D01*
X153090666Y-120691380D02*
X152995428Y-120691380D01*
X152995428Y-120691380D02*
X152852571Y-120643761D01*
X152852571Y-120643761D02*
X152757333Y-120548523D01*
X152757333Y-120548523D02*
X152709714Y-120453285D01*
X152709714Y-120453285D02*
X152662095Y-120262809D01*
X152662095Y-120262809D02*
X152662095Y-120119952D01*
X152662095Y-120119952D02*
X152709714Y-119929476D01*
X152709714Y-119929476D02*
X152757333Y-119834238D01*
X152757333Y-119834238D02*
X152852571Y-119739000D01*
X152852571Y-119739000D02*
X152995428Y-119691380D01*
X152995428Y-119691380D02*
X153090666Y-119691380D01*
X153090666Y-119691380D02*
X153233523Y-119739000D01*
X153233523Y-119739000D02*
X153281142Y-119786619D01*
X154233523Y-120691380D02*
X153662095Y-120691380D01*
X153947809Y-120691380D02*
X153947809Y-119691380D01*
X153947809Y-119691380D02*
X153852571Y-119834238D01*
X153852571Y-119834238D02*
X153757333Y-119929476D01*
X153757333Y-119929476D02*
X153662095Y-119977095D01*
X155185904Y-120691380D02*
X154614476Y-120691380D01*
X154900190Y-120691380D02*
X154900190Y-119691380D01*
X154900190Y-119691380D02*
X154804952Y-119834238D01*
X154804952Y-119834238D02*
X154709714Y-119929476D01*
X154709714Y-119929476D02*
X154614476Y-119977095D01*
%TO.C,J4*%
X104374666Y-127861380D02*
X104374666Y-128575666D01*
X104374666Y-128575666D02*
X104327047Y-128718523D01*
X104327047Y-128718523D02*
X104231809Y-128813761D01*
X104231809Y-128813761D02*
X104088952Y-128861380D01*
X104088952Y-128861380D02*
X103993714Y-128861380D01*
X105279428Y-128194714D02*
X105279428Y-128861380D01*
X105041333Y-127813761D02*
X104803238Y-128528047D01*
X104803238Y-128528047D02*
X105422285Y-128528047D01*
%TO.C,R2*%
X159283833Y-100485380D02*
X158950500Y-100009190D01*
X158712405Y-100485380D02*
X158712405Y-99485380D01*
X158712405Y-99485380D02*
X159093357Y-99485380D01*
X159093357Y-99485380D02*
X159188595Y-99533000D01*
X159188595Y-99533000D02*
X159236214Y-99580619D01*
X159236214Y-99580619D02*
X159283833Y-99675857D01*
X159283833Y-99675857D02*
X159283833Y-99818714D01*
X159283833Y-99818714D02*
X159236214Y-99913952D01*
X159236214Y-99913952D02*
X159188595Y-99961571D01*
X159188595Y-99961571D02*
X159093357Y-100009190D01*
X159093357Y-100009190D02*
X158712405Y-100009190D01*
X159664786Y-99580619D02*
X159712405Y-99533000D01*
X159712405Y-99533000D02*
X159807643Y-99485380D01*
X159807643Y-99485380D02*
X160045738Y-99485380D01*
X160045738Y-99485380D02*
X160140976Y-99533000D01*
X160140976Y-99533000D02*
X160188595Y-99580619D01*
X160188595Y-99580619D02*
X160236214Y-99675857D01*
X160236214Y-99675857D02*
X160236214Y-99771095D01*
X160236214Y-99771095D02*
X160188595Y-99913952D01*
X160188595Y-99913952D02*
X159617167Y-100485380D01*
X159617167Y-100485380D02*
X160236214Y-100485380D01*
%TO.C,L1*%
X134961333Y-121657380D02*
X134485143Y-121657380D01*
X134485143Y-121657380D02*
X134485143Y-120657380D01*
X135818476Y-121657380D02*
X135247048Y-121657380D01*
X135532762Y-121657380D02*
X135532762Y-120657380D01*
X135532762Y-120657380D02*
X135437524Y-120800238D01*
X135437524Y-120800238D02*
X135342286Y-120895476D01*
X135342286Y-120895476D02*
X135247048Y-120943095D01*
%TO.C,Q1*%
X125544619Y-133445238D02*
X125497000Y-133540476D01*
X125497000Y-133540476D02*
X125401761Y-133635714D01*
X125401761Y-133635714D02*
X125258904Y-133778571D01*
X125258904Y-133778571D02*
X125211285Y-133873809D01*
X125211285Y-133873809D02*
X125211285Y-133969047D01*
X125449380Y-133921428D02*
X125401761Y-134016666D01*
X125401761Y-134016666D02*
X125306523Y-134111904D01*
X125306523Y-134111904D02*
X125116047Y-134159523D01*
X125116047Y-134159523D02*
X124782714Y-134159523D01*
X124782714Y-134159523D02*
X124592238Y-134111904D01*
X124592238Y-134111904D02*
X124497000Y-134016666D01*
X124497000Y-134016666D02*
X124449380Y-133921428D01*
X124449380Y-133921428D02*
X124449380Y-133730952D01*
X124449380Y-133730952D02*
X124497000Y-133635714D01*
X124497000Y-133635714D02*
X124592238Y-133540476D01*
X124592238Y-133540476D02*
X124782714Y-133492857D01*
X124782714Y-133492857D02*
X125116047Y-133492857D01*
X125116047Y-133492857D02*
X125306523Y-133540476D01*
X125306523Y-133540476D02*
X125401761Y-133635714D01*
X125401761Y-133635714D02*
X125449380Y-133730952D01*
X125449380Y-133730952D02*
X125449380Y-133921428D01*
X125449380Y-132540476D02*
X125449380Y-133111904D01*
X125449380Y-132826190D02*
X124449380Y-132826190D01*
X124449380Y-132826190D02*
X124592238Y-132921428D01*
X124592238Y-132921428D02*
X124687476Y-133016666D01*
X124687476Y-133016666D02*
X124735095Y-133111904D01*
%TO.C,U4*%
X151006095Y-130112380D02*
X151006095Y-130921904D01*
X151006095Y-130921904D02*
X151053714Y-131017142D01*
X151053714Y-131017142D02*
X151101333Y-131064761D01*
X151101333Y-131064761D02*
X151196571Y-131112380D01*
X151196571Y-131112380D02*
X151387047Y-131112380D01*
X151387047Y-131112380D02*
X151482285Y-131064761D01*
X151482285Y-131064761D02*
X151529904Y-131017142D01*
X151529904Y-131017142D02*
X151577523Y-130921904D01*
X151577523Y-130921904D02*
X151577523Y-130112380D01*
X152482285Y-130445714D02*
X152482285Y-131112380D01*
X152244190Y-130064761D02*
X152006095Y-130779047D01*
X152006095Y-130779047D02*
X152625142Y-130779047D01*
%TO.C,R30*%
X95767880Y-67952857D02*
X95291690Y-68286190D01*
X95767880Y-68524285D02*
X94767880Y-68524285D01*
X94767880Y-68524285D02*
X94767880Y-68143333D01*
X94767880Y-68143333D02*
X94815500Y-68048095D01*
X94815500Y-68048095D02*
X94863119Y-68000476D01*
X94863119Y-68000476D02*
X94958357Y-67952857D01*
X94958357Y-67952857D02*
X95101214Y-67952857D01*
X95101214Y-67952857D02*
X95196452Y-68000476D01*
X95196452Y-68000476D02*
X95244071Y-68048095D01*
X95244071Y-68048095D02*
X95291690Y-68143333D01*
X95291690Y-68143333D02*
X95291690Y-68524285D01*
X94767880Y-67619523D02*
X94767880Y-67000476D01*
X94767880Y-67000476D02*
X95148833Y-67333809D01*
X95148833Y-67333809D02*
X95148833Y-67190952D01*
X95148833Y-67190952D02*
X95196452Y-67095714D01*
X95196452Y-67095714D02*
X95244071Y-67048095D01*
X95244071Y-67048095D02*
X95339309Y-67000476D01*
X95339309Y-67000476D02*
X95577404Y-67000476D01*
X95577404Y-67000476D02*
X95672642Y-67048095D01*
X95672642Y-67048095D02*
X95720261Y-67095714D01*
X95720261Y-67095714D02*
X95767880Y-67190952D01*
X95767880Y-67190952D02*
X95767880Y-67476666D01*
X95767880Y-67476666D02*
X95720261Y-67571904D01*
X95720261Y-67571904D02*
X95672642Y-67619523D01*
X94767880Y-66381428D02*
X94767880Y-66286190D01*
X94767880Y-66286190D02*
X94815500Y-66190952D01*
X94815500Y-66190952D02*
X94863119Y-66143333D01*
X94863119Y-66143333D02*
X94958357Y-66095714D01*
X94958357Y-66095714D02*
X95148833Y-66048095D01*
X95148833Y-66048095D02*
X95386928Y-66048095D01*
X95386928Y-66048095D02*
X95577404Y-66095714D01*
X95577404Y-66095714D02*
X95672642Y-66143333D01*
X95672642Y-66143333D02*
X95720261Y-66190952D01*
X95720261Y-66190952D02*
X95767880Y-66286190D01*
X95767880Y-66286190D02*
X95767880Y-66381428D01*
X95767880Y-66381428D02*
X95720261Y-66476666D01*
X95720261Y-66476666D02*
X95672642Y-66524285D01*
X95672642Y-66524285D02*
X95577404Y-66571904D01*
X95577404Y-66571904D02*
X95386928Y-66619523D01*
X95386928Y-66619523D02*
X95148833Y-66619523D01*
X95148833Y-66619523D02*
X94958357Y-66571904D01*
X94958357Y-66571904D02*
X94863119Y-66524285D01*
X94863119Y-66524285D02*
X94815500Y-66476666D01*
X94815500Y-66476666D02*
X94767880Y-66381428D01*
%TO.C,R11*%
X142928642Y-127367380D02*
X142595309Y-126891190D01*
X142357214Y-127367380D02*
X142357214Y-126367380D01*
X142357214Y-126367380D02*
X142738166Y-126367380D01*
X142738166Y-126367380D02*
X142833404Y-126415000D01*
X142833404Y-126415000D02*
X142881023Y-126462619D01*
X142881023Y-126462619D02*
X142928642Y-126557857D01*
X142928642Y-126557857D02*
X142928642Y-126700714D01*
X142928642Y-126700714D02*
X142881023Y-126795952D01*
X142881023Y-126795952D02*
X142833404Y-126843571D01*
X142833404Y-126843571D02*
X142738166Y-126891190D01*
X142738166Y-126891190D02*
X142357214Y-126891190D01*
X143881023Y-127367380D02*
X143309595Y-127367380D01*
X143595309Y-127367380D02*
X143595309Y-126367380D01*
X143595309Y-126367380D02*
X143500071Y-126510238D01*
X143500071Y-126510238D02*
X143404833Y-126605476D01*
X143404833Y-126605476D02*
X143309595Y-126653095D01*
X144833404Y-127367380D02*
X144261976Y-127367380D01*
X144547690Y-127367380D02*
X144547690Y-126367380D01*
X144547690Y-126367380D02*
X144452452Y-126510238D01*
X144452452Y-126510238D02*
X144357214Y-126605476D01*
X144357214Y-126605476D02*
X144261976Y-126653095D01*
%TO.C,C3*%
X156664142Y-93892666D02*
X156711761Y-93940285D01*
X156711761Y-93940285D02*
X156759380Y-94083142D01*
X156759380Y-94083142D02*
X156759380Y-94178380D01*
X156759380Y-94178380D02*
X156711761Y-94321237D01*
X156711761Y-94321237D02*
X156616523Y-94416475D01*
X156616523Y-94416475D02*
X156521285Y-94464094D01*
X156521285Y-94464094D02*
X156330809Y-94511713D01*
X156330809Y-94511713D02*
X156187952Y-94511713D01*
X156187952Y-94511713D02*
X155997476Y-94464094D01*
X155997476Y-94464094D02*
X155902238Y-94416475D01*
X155902238Y-94416475D02*
X155807000Y-94321237D01*
X155807000Y-94321237D02*
X155759380Y-94178380D01*
X155759380Y-94178380D02*
X155759380Y-94083142D01*
X155759380Y-94083142D02*
X155807000Y-93940285D01*
X155807000Y-93940285D02*
X155854619Y-93892666D01*
X155759380Y-93559332D02*
X155759380Y-92940285D01*
X155759380Y-92940285D02*
X156140333Y-93273618D01*
X156140333Y-93273618D02*
X156140333Y-93130761D01*
X156140333Y-93130761D02*
X156187952Y-93035523D01*
X156187952Y-93035523D02*
X156235571Y-92987904D01*
X156235571Y-92987904D02*
X156330809Y-92940285D01*
X156330809Y-92940285D02*
X156568904Y-92940285D01*
X156568904Y-92940285D02*
X156664142Y-92987904D01*
X156664142Y-92987904D02*
X156711761Y-93035523D01*
X156711761Y-93035523D02*
X156759380Y-93130761D01*
X156759380Y-93130761D02*
X156759380Y-93416475D01*
X156759380Y-93416475D02*
X156711761Y-93511713D01*
X156711761Y-93511713D02*
X156664142Y-93559332D01*
%TO.C,C5*%
X139392142Y-134278666D02*
X139439761Y-134326285D01*
X139439761Y-134326285D02*
X139487380Y-134469142D01*
X139487380Y-134469142D02*
X139487380Y-134564380D01*
X139487380Y-134564380D02*
X139439761Y-134707237D01*
X139439761Y-134707237D02*
X139344523Y-134802475D01*
X139344523Y-134802475D02*
X139249285Y-134850094D01*
X139249285Y-134850094D02*
X139058809Y-134897713D01*
X139058809Y-134897713D02*
X138915952Y-134897713D01*
X138915952Y-134897713D02*
X138725476Y-134850094D01*
X138725476Y-134850094D02*
X138630238Y-134802475D01*
X138630238Y-134802475D02*
X138535000Y-134707237D01*
X138535000Y-134707237D02*
X138487380Y-134564380D01*
X138487380Y-134564380D02*
X138487380Y-134469142D01*
X138487380Y-134469142D02*
X138535000Y-134326285D01*
X138535000Y-134326285D02*
X138582619Y-134278666D01*
X138487380Y-133373904D02*
X138487380Y-133850094D01*
X138487380Y-133850094D02*
X138963571Y-133897713D01*
X138963571Y-133897713D02*
X138915952Y-133850094D01*
X138915952Y-133850094D02*
X138868333Y-133754856D01*
X138868333Y-133754856D02*
X138868333Y-133516761D01*
X138868333Y-133516761D02*
X138915952Y-133421523D01*
X138915952Y-133421523D02*
X138963571Y-133373904D01*
X138963571Y-133373904D02*
X139058809Y-133326285D01*
X139058809Y-133326285D02*
X139296904Y-133326285D01*
X139296904Y-133326285D02*
X139392142Y-133373904D01*
X139392142Y-133373904D02*
X139439761Y-133421523D01*
X139439761Y-133421523D02*
X139487380Y-133516761D01*
X139487380Y-133516761D02*
X139487380Y-133754856D01*
X139487380Y-133754856D02*
X139439761Y-133850094D01*
X139439761Y-133850094D02*
X139392142Y-133897713D01*
%TO.C,R23*%
X153281142Y-115641380D02*
X152947809Y-115165190D01*
X152709714Y-115641380D02*
X152709714Y-114641380D01*
X152709714Y-114641380D02*
X153090666Y-114641380D01*
X153090666Y-114641380D02*
X153185904Y-114689000D01*
X153185904Y-114689000D02*
X153233523Y-114736619D01*
X153233523Y-114736619D02*
X153281142Y-114831857D01*
X153281142Y-114831857D02*
X153281142Y-114974714D01*
X153281142Y-114974714D02*
X153233523Y-115069952D01*
X153233523Y-115069952D02*
X153185904Y-115117571D01*
X153185904Y-115117571D02*
X153090666Y-115165190D01*
X153090666Y-115165190D02*
X152709714Y-115165190D01*
X153662095Y-114736619D02*
X153709714Y-114689000D01*
X153709714Y-114689000D02*
X153804952Y-114641380D01*
X153804952Y-114641380D02*
X154043047Y-114641380D01*
X154043047Y-114641380D02*
X154138285Y-114689000D01*
X154138285Y-114689000D02*
X154185904Y-114736619D01*
X154185904Y-114736619D02*
X154233523Y-114831857D01*
X154233523Y-114831857D02*
X154233523Y-114927095D01*
X154233523Y-114927095D02*
X154185904Y-115069952D01*
X154185904Y-115069952D02*
X153614476Y-115641380D01*
X153614476Y-115641380D02*
X154233523Y-115641380D01*
X154566857Y-114641380D02*
X155185904Y-114641380D01*
X155185904Y-114641380D02*
X154852571Y-115022333D01*
X154852571Y-115022333D02*
X154995428Y-115022333D01*
X154995428Y-115022333D02*
X155090666Y-115069952D01*
X155090666Y-115069952D02*
X155138285Y-115117571D01*
X155138285Y-115117571D02*
X155185904Y-115212809D01*
X155185904Y-115212809D02*
X155185904Y-115450904D01*
X155185904Y-115450904D02*
X155138285Y-115546142D01*
X155138285Y-115546142D02*
X155090666Y-115593761D01*
X155090666Y-115593761D02*
X154995428Y-115641380D01*
X154995428Y-115641380D02*
X154709714Y-115641380D01*
X154709714Y-115641380D02*
X154614476Y-115593761D01*
X154614476Y-115593761D02*
X154566857Y-115546142D01*
%TO.C,C1*%
X112612142Y-71032666D02*
X112659761Y-71080285D01*
X112659761Y-71080285D02*
X112707380Y-71223142D01*
X112707380Y-71223142D02*
X112707380Y-71318380D01*
X112707380Y-71318380D02*
X112659761Y-71461237D01*
X112659761Y-71461237D02*
X112564523Y-71556475D01*
X112564523Y-71556475D02*
X112469285Y-71604094D01*
X112469285Y-71604094D02*
X112278809Y-71651713D01*
X112278809Y-71651713D02*
X112135952Y-71651713D01*
X112135952Y-71651713D02*
X111945476Y-71604094D01*
X111945476Y-71604094D02*
X111850238Y-71556475D01*
X111850238Y-71556475D02*
X111755000Y-71461237D01*
X111755000Y-71461237D02*
X111707380Y-71318380D01*
X111707380Y-71318380D02*
X111707380Y-71223142D01*
X111707380Y-71223142D02*
X111755000Y-71080285D01*
X111755000Y-71080285D02*
X111802619Y-71032666D01*
X112707380Y-70080285D02*
X112707380Y-70651713D01*
X112707380Y-70365999D02*
X111707380Y-70365999D01*
X111707380Y-70365999D02*
X111850238Y-70461237D01*
X111850238Y-70461237D02*
X111945476Y-70556475D01*
X111945476Y-70556475D02*
X111993095Y-70651713D01*
%TO.C,J3*%
X153336666Y-54695380D02*
X153336666Y-55409666D01*
X153336666Y-55409666D02*
X153289047Y-55552523D01*
X153289047Y-55552523D02*
X153193809Y-55647761D01*
X153193809Y-55647761D02*
X153050952Y-55695380D01*
X153050952Y-55695380D02*
X152955714Y-55695380D01*
X153717619Y-54695380D02*
X154336666Y-54695380D01*
X154336666Y-54695380D02*
X154003333Y-55076333D01*
X154003333Y-55076333D02*
X154146190Y-55076333D01*
X154146190Y-55076333D02*
X154241428Y-55123952D01*
X154241428Y-55123952D02*
X154289047Y-55171571D01*
X154289047Y-55171571D02*
X154336666Y-55266809D01*
X154336666Y-55266809D02*
X154336666Y-55504904D01*
X154336666Y-55504904D02*
X154289047Y-55600142D01*
X154289047Y-55600142D02*
X154241428Y-55647761D01*
X154241428Y-55647761D02*
X154146190Y-55695380D01*
X154146190Y-55695380D02*
X153860476Y-55695380D01*
X153860476Y-55695380D02*
X153765238Y-55647761D01*
X153765238Y-55647761D02*
X153717619Y-55600142D01*
%TO.C,R5*%
X152487333Y-96591380D02*
X152154000Y-96115190D01*
X151915905Y-96591380D02*
X151915905Y-95591380D01*
X151915905Y-95591380D02*
X152296857Y-95591380D01*
X152296857Y-95591380D02*
X152392095Y-95639000D01*
X152392095Y-95639000D02*
X152439714Y-95686619D01*
X152439714Y-95686619D02*
X152487333Y-95781857D01*
X152487333Y-95781857D02*
X152487333Y-95924714D01*
X152487333Y-95924714D02*
X152439714Y-96019952D01*
X152439714Y-96019952D02*
X152392095Y-96067571D01*
X152392095Y-96067571D02*
X152296857Y-96115190D01*
X152296857Y-96115190D02*
X151915905Y-96115190D01*
X153392095Y-95591380D02*
X152915905Y-95591380D01*
X152915905Y-95591380D02*
X152868286Y-96067571D01*
X152868286Y-96067571D02*
X152915905Y-96019952D01*
X152915905Y-96019952D02*
X153011143Y-95972333D01*
X153011143Y-95972333D02*
X153249238Y-95972333D01*
X153249238Y-95972333D02*
X153344476Y-96019952D01*
X153344476Y-96019952D02*
X153392095Y-96067571D01*
X153392095Y-96067571D02*
X153439714Y-96162809D01*
X153439714Y-96162809D02*
X153439714Y-96400904D01*
X153439714Y-96400904D02*
X153392095Y-96496142D01*
X153392095Y-96496142D02*
X153344476Y-96543761D01*
X153344476Y-96543761D02*
X153249238Y-96591380D01*
X153249238Y-96591380D02*
X153011143Y-96591380D01*
X153011143Y-96591380D02*
X152915905Y-96543761D01*
X152915905Y-96543761D02*
X152868286Y-96496142D01*
%TO.C,TP4*%
X104148095Y-63505380D02*
X104719523Y-63505380D01*
X104433809Y-64505380D02*
X104433809Y-63505380D01*
X105052857Y-64505380D02*
X105052857Y-63505380D01*
X105052857Y-63505380D02*
X105433809Y-63505380D01*
X105433809Y-63505380D02*
X105529047Y-63553000D01*
X105529047Y-63553000D02*
X105576666Y-63600619D01*
X105576666Y-63600619D02*
X105624285Y-63695857D01*
X105624285Y-63695857D02*
X105624285Y-63838714D01*
X105624285Y-63838714D02*
X105576666Y-63933952D01*
X105576666Y-63933952D02*
X105529047Y-63981571D01*
X105529047Y-63981571D02*
X105433809Y-64029190D01*
X105433809Y-64029190D02*
X105052857Y-64029190D01*
X106481428Y-63838714D02*
X106481428Y-64505380D01*
X106243333Y-63457761D02*
X106005238Y-64172047D01*
X106005238Y-64172047D02*
X106624285Y-64172047D01*
%TO.C,TP6*%
X102116095Y-107193380D02*
X102687523Y-107193380D01*
X102401809Y-108193380D02*
X102401809Y-107193380D01*
X103020857Y-108193380D02*
X103020857Y-107193380D01*
X103020857Y-107193380D02*
X103401809Y-107193380D01*
X103401809Y-107193380D02*
X103497047Y-107241000D01*
X103497047Y-107241000D02*
X103544666Y-107288619D01*
X103544666Y-107288619D02*
X103592285Y-107383857D01*
X103592285Y-107383857D02*
X103592285Y-107526714D01*
X103592285Y-107526714D02*
X103544666Y-107621952D01*
X103544666Y-107621952D02*
X103497047Y-107669571D01*
X103497047Y-107669571D02*
X103401809Y-107717190D01*
X103401809Y-107717190D02*
X103020857Y-107717190D01*
X104449428Y-107193380D02*
X104258952Y-107193380D01*
X104258952Y-107193380D02*
X104163714Y-107241000D01*
X104163714Y-107241000D02*
X104116095Y-107288619D01*
X104116095Y-107288619D02*
X104020857Y-107431476D01*
X104020857Y-107431476D02*
X103973238Y-107621952D01*
X103973238Y-107621952D02*
X103973238Y-108002904D01*
X103973238Y-108002904D02*
X104020857Y-108098142D01*
X104020857Y-108098142D02*
X104068476Y-108145761D01*
X104068476Y-108145761D02*
X104163714Y-108193380D01*
X104163714Y-108193380D02*
X104354190Y-108193380D01*
X104354190Y-108193380D02*
X104449428Y-108145761D01*
X104449428Y-108145761D02*
X104497047Y-108098142D01*
X104497047Y-108098142D02*
X104544666Y-108002904D01*
X104544666Y-108002904D02*
X104544666Y-107764809D01*
X104544666Y-107764809D02*
X104497047Y-107669571D01*
X104497047Y-107669571D02*
X104449428Y-107621952D01*
X104449428Y-107621952D02*
X104354190Y-107574333D01*
X104354190Y-107574333D02*
X104163714Y-107574333D01*
X104163714Y-107574333D02*
X104068476Y-107621952D01*
X104068476Y-107621952D02*
X104020857Y-107669571D01*
X104020857Y-107669571D02*
X103973238Y-107764809D01*
%TO.C,R4*%
X154841380Y-103290666D02*
X154365190Y-103623999D01*
X154841380Y-103862094D02*
X153841380Y-103862094D01*
X153841380Y-103862094D02*
X153841380Y-103481142D01*
X153841380Y-103481142D02*
X153889000Y-103385904D01*
X153889000Y-103385904D02*
X153936619Y-103338285D01*
X153936619Y-103338285D02*
X154031857Y-103290666D01*
X154031857Y-103290666D02*
X154174714Y-103290666D01*
X154174714Y-103290666D02*
X154269952Y-103338285D01*
X154269952Y-103338285D02*
X154317571Y-103385904D01*
X154317571Y-103385904D02*
X154365190Y-103481142D01*
X154365190Y-103481142D02*
X154365190Y-103862094D01*
X154174714Y-102433523D02*
X154841380Y-102433523D01*
X153793761Y-102671618D02*
X154508047Y-102909713D01*
X154508047Y-102909713D02*
X154508047Y-102290666D01*
%TO.C,R14*%
X141089142Y-120975380D02*
X140755809Y-120499190D01*
X140517714Y-120975380D02*
X140517714Y-119975380D01*
X140517714Y-119975380D02*
X140898666Y-119975380D01*
X140898666Y-119975380D02*
X140993904Y-120023000D01*
X140993904Y-120023000D02*
X141041523Y-120070619D01*
X141041523Y-120070619D02*
X141089142Y-120165857D01*
X141089142Y-120165857D02*
X141089142Y-120308714D01*
X141089142Y-120308714D02*
X141041523Y-120403952D01*
X141041523Y-120403952D02*
X140993904Y-120451571D01*
X140993904Y-120451571D02*
X140898666Y-120499190D01*
X140898666Y-120499190D02*
X140517714Y-120499190D01*
X142041523Y-120975380D02*
X141470095Y-120975380D01*
X141755809Y-120975380D02*
X141755809Y-119975380D01*
X141755809Y-119975380D02*
X141660571Y-120118238D01*
X141660571Y-120118238D02*
X141565333Y-120213476D01*
X141565333Y-120213476D02*
X141470095Y-120261095D01*
X142898666Y-120308714D02*
X142898666Y-120975380D01*
X142660571Y-119927761D02*
X142422476Y-120642047D01*
X142422476Y-120642047D02*
X143041523Y-120642047D01*
%TO.C,U3*%
X105410095Y-109405380D02*
X105410095Y-110214904D01*
X105410095Y-110214904D02*
X105457714Y-110310142D01*
X105457714Y-110310142D02*
X105505333Y-110357761D01*
X105505333Y-110357761D02*
X105600571Y-110405380D01*
X105600571Y-110405380D02*
X105791047Y-110405380D01*
X105791047Y-110405380D02*
X105886285Y-110357761D01*
X105886285Y-110357761D02*
X105933904Y-110310142D01*
X105933904Y-110310142D02*
X105981523Y-110214904D01*
X105981523Y-110214904D02*
X105981523Y-109405380D01*
X106362476Y-109405380D02*
X106981523Y-109405380D01*
X106981523Y-109405380D02*
X106648190Y-109786333D01*
X106648190Y-109786333D02*
X106791047Y-109786333D01*
X106791047Y-109786333D02*
X106886285Y-109833952D01*
X106886285Y-109833952D02*
X106933904Y-109881571D01*
X106933904Y-109881571D02*
X106981523Y-109976809D01*
X106981523Y-109976809D02*
X106981523Y-110214904D01*
X106981523Y-110214904D02*
X106933904Y-110310142D01*
X106933904Y-110310142D02*
X106886285Y-110357761D01*
X106886285Y-110357761D02*
X106791047Y-110405380D01*
X106791047Y-110405380D02*
X106505333Y-110405380D01*
X106505333Y-110405380D02*
X106410095Y-110357761D01*
X106410095Y-110357761D02*
X106362476Y-110310142D01*
%TO.C,C9*%
X136280333Y-63844142D02*
X136232714Y-63891761D01*
X136232714Y-63891761D02*
X136089857Y-63939380D01*
X136089857Y-63939380D02*
X135994619Y-63939380D01*
X135994619Y-63939380D02*
X135851762Y-63891761D01*
X135851762Y-63891761D02*
X135756524Y-63796523D01*
X135756524Y-63796523D02*
X135708905Y-63701285D01*
X135708905Y-63701285D02*
X135661286Y-63510809D01*
X135661286Y-63510809D02*
X135661286Y-63367952D01*
X135661286Y-63367952D02*
X135708905Y-63177476D01*
X135708905Y-63177476D02*
X135756524Y-63082238D01*
X135756524Y-63082238D02*
X135851762Y-62987000D01*
X135851762Y-62987000D02*
X135994619Y-62939380D01*
X135994619Y-62939380D02*
X136089857Y-62939380D01*
X136089857Y-62939380D02*
X136232714Y-62987000D01*
X136232714Y-62987000D02*
X136280333Y-63034619D01*
X136756524Y-63939380D02*
X136947000Y-63939380D01*
X136947000Y-63939380D02*
X137042238Y-63891761D01*
X137042238Y-63891761D02*
X137089857Y-63844142D01*
X137089857Y-63844142D02*
X137185095Y-63701285D01*
X137185095Y-63701285D02*
X137232714Y-63510809D01*
X137232714Y-63510809D02*
X137232714Y-63129857D01*
X137232714Y-63129857D02*
X137185095Y-63034619D01*
X137185095Y-63034619D02*
X137137476Y-62987000D01*
X137137476Y-62987000D02*
X137042238Y-62939380D01*
X137042238Y-62939380D02*
X136851762Y-62939380D01*
X136851762Y-62939380D02*
X136756524Y-62987000D01*
X136756524Y-62987000D02*
X136708905Y-63034619D01*
X136708905Y-63034619D02*
X136661286Y-63129857D01*
X136661286Y-63129857D02*
X136661286Y-63367952D01*
X136661286Y-63367952D02*
X136708905Y-63463190D01*
X136708905Y-63463190D02*
X136756524Y-63510809D01*
X136756524Y-63510809D02*
X136851762Y-63558428D01*
X136851762Y-63558428D02*
X137042238Y-63558428D01*
X137042238Y-63558428D02*
X137137476Y-63510809D01*
X137137476Y-63510809D02*
X137185095Y-63463190D01*
X137185095Y-63463190D02*
X137232714Y-63367952D01*
%TO.C,U8*%
X122923905Y-98970631D02*
X123734748Y-98970631D01*
X123734748Y-98970631D02*
X123830142Y-98922935D01*
X123830142Y-98922935D02*
X123877838Y-98875238D01*
X123877838Y-98875238D02*
X123925535Y-98779845D01*
X123925535Y-98779845D02*
X123925535Y-98589058D01*
X123925535Y-98589058D02*
X123877838Y-98493665D01*
X123877838Y-98493665D02*
X123830142Y-98445968D01*
X123830142Y-98445968D02*
X123734748Y-98398271D01*
X123734748Y-98398271D02*
X122923905Y-98398271D01*
X123353175Y-97778214D02*
X123305478Y-97873608D01*
X123305478Y-97873608D02*
X123257782Y-97921304D01*
X123257782Y-97921304D02*
X123162388Y-97969001D01*
X123162388Y-97969001D02*
X123114692Y-97969001D01*
X123114692Y-97969001D02*
X123019298Y-97921304D01*
X123019298Y-97921304D02*
X122971602Y-97873608D01*
X122971602Y-97873608D02*
X122923905Y-97778214D01*
X122923905Y-97778214D02*
X122923905Y-97587428D01*
X122923905Y-97587428D02*
X122971602Y-97492034D01*
X122971602Y-97492034D02*
X123019298Y-97444338D01*
X123019298Y-97444338D02*
X123114692Y-97396641D01*
X123114692Y-97396641D02*
X123162388Y-97396641D01*
X123162388Y-97396641D02*
X123257782Y-97444338D01*
X123257782Y-97444338D02*
X123305478Y-97492034D01*
X123305478Y-97492034D02*
X123353175Y-97587428D01*
X123353175Y-97587428D02*
X123353175Y-97778214D01*
X123353175Y-97778214D02*
X123400872Y-97873608D01*
X123400872Y-97873608D02*
X123448568Y-97921304D01*
X123448568Y-97921304D02*
X123543962Y-97969001D01*
X123543962Y-97969001D02*
X123734748Y-97969001D01*
X123734748Y-97969001D02*
X123830142Y-97921304D01*
X123830142Y-97921304D02*
X123877838Y-97873608D01*
X123877838Y-97873608D02*
X123925535Y-97778214D01*
X123925535Y-97778214D02*
X123925535Y-97587428D01*
X123925535Y-97587428D02*
X123877838Y-97492034D01*
X123877838Y-97492034D02*
X123830142Y-97444338D01*
X123830142Y-97444338D02*
X123734748Y-97396641D01*
X123734748Y-97396641D02*
X123543962Y-97396641D01*
X123543962Y-97396641D02*
X123448568Y-97444338D01*
X123448568Y-97444338D02*
X123400872Y-97492034D01*
X123400872Y-97492034D02*
X123353175Y-97587428D01*
D11*
%TO.C,D1*%
X117680618Y-138896573D02*
X117680618Y-137626573D01*
X117680618Y-137626573D02*
X117982999Y-137626573D01*
X117982999Y-137626573D02*
X118164428Y-137687050D01*
X118164428Y-137687050D02*
X118285380Y-137808002D01*
X118285380Y-137808002D02*
X118345857Y-137928954D01*
X118345857Y-137928954D02*
X118406333Y-138170859D01*
X118406333Y-138170859D02*
X118406333Y-138352288D01*
X118406333Y-138352288D02*
X118345857Y-138594192D01*
X118345857Y-138594192D02*
X118285380Y-138715145D01*
X118285380Y-138715145D02*
X118164428Y-138836097D01*
X118164428Y-138836097D02*
X117982999Y-138896573D01*
X117982999Y-138896573D02*
X117680618Y-138896573D01*
X119615857Y-138896573D02*
X118890142Y-138896573D01*
X119252999Y-138896573D02*
X119252999Y-137626573D01*
X119252999Y-137626573D02*
X119132047Y-137808002D01*
X119132047Y-137808002D02*
X119011095Y-137928954D01*
X119011095Y-137928954D02*
X118890142Y-137989430D01*
D10*
%TO.C,R3*%
X115149333Y-72715380D02*
X114816000Y-72239190D01*
X114577905Y-72715380D02*
X114577905Y-71715380D01*
X114577905Y-71715380D02*
X114958857Y-71715380D01*
X114958857Y-71715380D02*
X115054095Y-71763000D01*
X115054095Y-71763000D02*
X115101714Y-71810619D01*
X115101714Y-71810619D02*
X115149333Y-71905857D01*
X115149333Y-71905857D02*
X115149333Y-72048714D01*
X115149333Y-72048714D02*
X115101714Y-72143952D01*
X115101714Y-72143952D02*
X115054095Y-72191571D01*
X115054095Y-72191571D02*
X114958857Y-72239190D01*
X114958857Y-72239190D02*
X114577905Y-72239190D01*
X115482667Y-71715380D02*
X116101714Y-71715380D01*
X116101714Y-71715380D02*
X115768381Y-72096333D01*
X115768381Y-72096333D02*
X115911238Y-72096333D01*
X115911238Y-72096333D02*
X116006476Y-72143952D01*
X116006476Y-72143952D02*
X116054095Y-72191571D01*
X116054095Y-72191571D02*
X116101714Y-72286809D01*
X116101714Y-72286809D02*
X116101714Y-72524904D01*
X116101714Y-72524904D02*
X116054095Y-72620142D01*
X116054095Y-72620142D02*
X116006476Y-72667761D01*
X116006476Y-72667761D02*
X115911238Y-72715380D01*
X115911238Y-72715380D02*
X115625524Y-72715380D01*
X115625524Y-72715380D02*
X115530286Y-72667761D01*
X115530286Y-72667761D02*
X115482667Y-72620142D01*
%TO.C,R26*%
X159885142Y-115641380D02*
X159551809Y-115165190D01*
X159313714Y-115641380D02*
X159313714Y-114641380D01*
X159313714Y-114641380D02*
X159694666Y-114641380D01*
X159694666Y-114641380D02*
X159789904Y-114689000D01*
X159789904Y-114689000D02*
X159837523Y-114736619D01*
X159837523Y-114736619D02*
X159885142Y-114831857D01*
X159885142Y-114831857D02*
X159885142Y-114974714D01*
X159885142Y-114974714D02*
X159837523Y-115069952D01*
X159837523Y-115069952D02*
X159789904Y-115117571D01*
X159789904Y-115117571D02*
X159694666Y-115165190D01*
X159694666Y-115165190D02*
X159313714Y-115165190D01*
X160266095Y-114736619D02*
X160313714Y-114689000D01*
X160313714Y-114689000D02*
X160408952Y-114641380D01*
X160408952Y-114641380D02*
X160647047Y-114641380D01*
X160647047Y-114641380D02*
X160742285Y-114689000D01*
X160742285Y-114689000D02*
X160789904Y-114736619D01*
X160789904Y-114736619D02*
X160837523Y-114831857D01*
X160837523Y-114831857D02*
X160837523Y-114927095D01*
X160837523Y-114927095D02*
X160789904Y-115069952D01*
X160789904Y-115069952D02*
X160218476Y-115641380D01*
X160218476Y-115641380D02*
X160837523Y-115641380D01*
X161694666Y-114641380D02*
X161504190Y-114641380D01*
X161504190Y-114641380D02*
X161408952Y-114689000D01*
X161408952Y-114689000D02*
X161361333Y-114736619D01*
X161361333Y-114736619D02*
X161266095Y-114879476D01*
X161266095Y-114879476D02*
X161218476Y-115069952D01*
X161218476Y-115069952D02*
X161218476Y-115450904D01*
X161218476Y-115450904D02*
X161266095Y-115546142D01*
X161266095Y-115546142D02*
X161313714Y-115593761D01*
X161313714Y-115593761D02*
X161408952Y-115641380D01*
X161408952Y-115641380D02*
X161599428Y-115641380D01*
X161599428Y-115641380D02*
X161694666Y-115593761D01*
X161694666Y-115593761D02*
X161742285Y-115546142D01*
X161742285Y-115546142D02*
X161789904Y-115450904D01*
X161789904Y-115450904D02*
X161789904Y-115212809D01*
X161789904Y-115212809D02*
X161742285Y-115117571D01*
X161742285Y-115117571D02*
X161694666Y-115069952D01*
X161694666Y-115069952D02*
X161599428Y-115022333D01*
X161599428Y-115022333D02*
X161408952Y-115022333D01*
X161408952Y-115022333D02*
X161313714Y-115069952D01*
X161313714Y-115069952D02*
X161266095Y-115117571D01*
X161266095Y-115117571D02*
X161218476Y-115212809D01*
%TO.C,R10*%
X121846642Y-127071380D02*
X121513309Y-126595190D01*
X121275214Y-127071380D02*
X121275214Y-126071380D01*
X121275214Y-126071380D02*
X121656166Y-126071380D01*
X121656166Y-126071380D02*
X121751404Y-126119000D01*
X121751404Y-126119000D02*
X121799023Y-126166619D01*
X121799023Y-126166619D02*
X121846642Y-126261857D01*
X121846642Y-126261857D02*
X121846642Y-126404714D01*
X121846642Y-126404714D02*
X121799023Y-126499952D01*
X121799023Y-126499952D02*
X121751404Y-126547571D01*
X121751404Y-126547571D02*
X121656166Y-126595190D01*
X121656166Y-126595190D02*
X121275214Y-126595190D01*
X122799023Y-127071380D02*
X122227595Y-127071380D01*
X122513309Y-127071380D02*
X122513309Y-126071380D01*
X122513309Y-126071380D02*
X122418071Y-126214238D01*
X122418071Y-126214238D02*
X122322833Y-126309476D01*
X122322833Y-126309476D02*
X122227595Y-126357095D01*
X123418071Y-126071380D02*
X123513309Y-126071380D01*
X123513309Y-126071380D02*
X123608547Y-126119000D01*
X123608547Y-126119000D02*
X123656166Y-126166619D01*
X123656166Y-126166619D02*
X123703785Y-126261857D01*
X123703785Y-126261857D02*
X123751404Y-126452333D01*
X123751404Y-126452333D02*
X123751404Y-126690428D01*
X123751404Y-126690428D02*
X123703785Y-126880904D01*
X123703785Y-126880904D02*
X123656166Y-126976142D01*
X123656166Y-126976142D02*
X123608547Y-127023761D01*
X123608547Y-127023761D02*
X123513309Y-127071380D01*
X123513309Y-127071380D02*
X123418071Y-127071380D01*
X123418071Y-127071380D02*
X123322833Y-127023761D01*
X123322833Y-127023761D02*
X123275214Y-126976142D01*
X123275214Y-126976142D02*
X123227595Y-126880904D01*
X123227595Y-126880904D02*
X123179976Y-126690428D01*
X123179976Y-126690428D02*
X123179976Y-126452333D01*
X123179976Y-126452333D02*
X123227595Y-126261857D01*
X123227595Y-126261857D02*
X123275214Y-126166619D01*
X123275214Y-126166619D02*
X123322833Y-126119000D01*
X123322833Y-126119000D02*
X123418071Y-126071380D01*
%TO.C,TP13*%
X99099905Y-84587380D02*
X99671333Y-84587380D01*
X99385619Y-85587380D02*
X99385619Y-84587380D01*
X100004667Y-85587380D02*
X100004667Y-84587380D01*
X100004667Y-84587380D02*
X100385619Y-84587380D01*
X100385619Y-84587380D02*
X100480857Y-84635000D01*
X100480857Y-84635000D02*
X100528476Y-84682619D01*
X100528476Y-84682619D02*
X100576095Y-84777857D01*
X100576095Y-84777857D02*
X100576095Y-84920714D01*
X100576095Y-84920714D02*
X100528476Y-85015952D01*
X100528476Y-85015952D02*
X100480857Y-85063571D01*
X100480857Y-85063571D02*
X100385619Y-85111190D01*
X100385619Y-85111190D02*
X100004667Y-85111190D01*
X101528476Y-85587380D02*
X100957048Y-85587380D01*
X101242762Y-85587380D02*
X101242762Y-84587380D01*
X101242762Y-84587380D02*
X101147524Y-84730238D01*
X101147524Y-84730238D02*
X101052286Y-84825476D01*
X101052286Y-84825476D02*
X100957048Y-84873095D01*
X101861810Y-84587380D02*
X102480857Y-84587380D01*
X102480857Y-84587380D02*
X102147524Y-84968333D01*
X102147524Y-84968333D02*
X102290381Y-84968333D01*
X102290381Y-84968333D02*
X102385619Y-85015952D01*
X102385619Y-85015952D02*
X102433238Y-85063571D01*
X102433238Y-85063571D02*
X102480857Y-85158809D01*
X102480857Y-85158809D02*
X102480857Y-85396904D01*
X102480857Y-85396904D02*
X102433238Y-85492142D01*
X102433238Y-85492142D02*
X102385619Y-85539761D01*
X102385619Y-85539761D02*
X102290381Y-85587380D01*
X102290381Y-85587380D02*
X102004667Y-85587380D01*
X102004667Y-85587380D02*
X101909429Y-85539761D01*
X101909429Y-85539761D02*
X101861810Y-85492142D01*
%TO.C,J2*%
X145970666Y-114405380D02*
X145970666Y-115119666D01*
X145970666Y-115119666D02*
X145923047Y-115262523D01*
X145923047Y-115262523D02*
X145827809Y-115357761D01*
X145827809Y-115357761D02*
X145684952Y-115405380D01*
X145684952Y-115405380D02*
X145589714Y-115405380D01*
X146399238Y-114500619D02*
X146446857Y-114453000D01*
X146446857Y-114453000D02*
X146542095Y-114405380D01*
X146542095Y-114405380D02*
X146780190Y-114405380D01*
X146780190Y-114405380D02*
X146875428Y-114453000D01*
X146875428Y-114453000D02*
X146923047Y-114500619D01*
X146923047Y-114500619D02*
X146970666Y-114595857D01*
X146970666Y-114595857D02*
X146970666Y-114691095D01*
X146970666Y-114691095D02*
X146923047Y-114833952D01*
X146923047Y-114833952D02*
X146351619Y-115405380D01*
X146351619Y-115405380D02*
X146970666Y-115405380D01*
%TO.C,R16*%
X122293142Y-121737380D02*
X121959809Y-121261190D01*
X121721714Y-121737380D02*
X121721714Y-120737380D01*
X121721714Y-120737380D02*
X122102666Y-120737380D01*
X122102666Y-120737380D02*
X122197904Y-120785000D01*
X122197904Y-120785000D02*
X122245523Y-120832619D01*
X122245523Y-120832619D02*
X122293142Y-120927857D01*
X122293142Y-120927857D02*
X122293142Y-121070714D01*
X122293142Y-121070714D02*
X122245523Y-121165952D01*
X122245523Y-121165952D02*
X122197904Y-121213571D01*
X122197904Y-121213571D02*
X122102666Y-121261190D01*
X122102666Y-121261190D02*
X121721714Y-121261190D01*
X123245523Y-121737380D02*
X122674095Y-121737380D01*
X122959809Y-121737380D02*
X122959809Y-120737380D01*
X122959809Y-120737380D02*
X122864571Y-120880238D01*
X122864571Y-120880238D02*
X122769333Y-120975476D01*
X122769333Y-120975476D02*
X122674095Y-121023095D01*
X124102666Y-120737380D02*
X123912190Y-120737380D01*
X123912190Y-120737380D02*
X123816952Y-120785000D01*
X123816952Y-120785000D02*
X123769333Y-120832619D01*
X123769333Y-120832619D02*
X123674095Y-120975476D01*
X123674095Y-120975476D02*
X123626476Y-121165952D01*
X123626476Y-121165952D02*
X123626476Y-121546904D01*
X123626476Y-121546904D02*
X123674095Y-121642142D01*
X123674095Y-121642142D02*
X123721714Y-121689761D01*
X123721714Y-121689761D02*
X123816952Y-121737380D01*
X123816952Y-121737380D02*
X124007428Y-121737380D01*
X124007428Y-121737380D02*
X124102666Y-121689761D01*
X124102666Y-121689761D02*
X124150285Y-121642142D01*
X124150285Y-121642142D02*
X124197904Y-121546904D01*
X124197904Y-121546904D02*
X124197904Y-121308809D01*
X124197904Y-121308809D02*
X124150285Y-121213571D01*
X124150285Y-121213571D02*
X124102666Y-121165952D01*
X124102666Y-121165952D02*
X124007428Y-121118333D01*
X124007428Y-121118333D02*
X123816952Y-121118333D01*
X123816952Y-121118333D02*
X123721714Y-121165952D01*
X123721714Y-121165952D02*
X123674095Y-121213571D01*
X123674095Y-121213571D02*
X123626476Y-121308809D01*
%TO.C,R13*%
X155567142Y-126309380D02*
X155233809Y-125833190D01*
X154995714Y-126309380D02*
X154995714Y-125309380D01*
X154995714Y-125309380D02*
X155376666Y-125309380D01*
X155376666Y-125309380D02*
X155471904Y-125357000D01*
X155471904Y-125357000D02*
X155519523Y-125404619D01*
X155519523Y-125404619D02*
X155567142Y-125499857D01*
X155567142Y-125499857D02*
X155567142Y-125642714D01*
X155567142Y-125642714D02*
X155519523Y-125737952D01*
X155519523Y-125737952D02*
X155471904Y-125785571D01*
X155471904Y-125785571D02*
X155376666Y-125833190D01*
X155376666Y-125833190D02*
X154995714Y-125833190D01*
X156519523Y-126309380D02*
X155948095Y-126309380D01*
X156233809Y-126309380D02*
X156233809Y-125309380D01*
X156233809Y-125309380D02*
X156138571Y-125452238D01*
X156138571Y-125452238D02*
X156043333Y-125547476D01*
X156043333Y-125547476D02*
X155948095Y-125595095D01*
X156852857Y-125309380D02*
X157471904Y-125309380D01*
X157471904Y-125309380D02*
X157138571Y-125690333D01*
X157138571Y-125690333D02*
X157281428Y-125690333D01*
X157281428Y-125690333D02*
X157376666Y-125737952D01*
X157376666Y-125737952D02*
X157424285Y-125785571D01*
X157424285Y-125785571D02*
X157471904Y-125880809D01*
X157471904Y-125880809D02*
X157471904Y-126118904D01*
X157471904Y-126118904D02*
X157424285Y-126214142D01*
X157424285Y-126214142D02*
X157376666Y-126261761D01*
X157376666Y-126261761D02*
X157281428Y-126309380D01*
X157281428Y-126309380D02*
X156995714Y-126309380D01*
X156995714Y-126309380D02*
X156900476Y-126261761D01*
X156900476Y-126261761D02*
X156852857Y-126214142D01*
%TO.C,C8*%
X136993333Y-88228142D02*
X136945714Y-88275761D01*
X136945714Y-88275761D02*
X136802857Y-88323380D01*
X136802857Y-88323380D02*
X136707619Y-88323380D01*
X136707619Y-88323380D02*
X136564762Y-88275761D01*
X136564762Y-88275761D02*
X136469524Y-88180523D01*
X136469524Y-88180523D02*
X136421905Y-88085285D01*
X136421905Y-88085285D02*
X136374286Y-87894809D01*
X136374286Y-87894809D02*
X136374286Y-87751952D01*
X136374286Y-87751952D02*
X136421905Y-87561476D01*
X136421905Y-87561476D02*
X136469524Y-87466238D01*
X136469524Y-87466238D02*
X136564762Y-87371000D01*
X136564762Y-87371000D02*
X136707619Y-87323380D01*
X136707619Y-87323380D02*
X136802857Y-87323380D01*
X136802857Y-87323380D02*
X136945714Y-87371000D01*
X136945714Y-87371000D02*
X136993333Y-87418619D01*
X137564762Y-87751952D02*
X137469524Y-87704333D01*
X137469524Y-87704333D02*
X137421905Y-87656714D01*
X137421905Y-87656714D02*
X137374286Y-87561476D01*
X137374286Y-87561476D02*
X137374286Y-87513857D01*
X137374286Y-87513857D02*
X137421905Y-87418619D01*
X137421905Y-87418619D02*
X137469524Y-87371000D01*
X137469524Y-87371000D02*
X137564762Y-87323380D01*
X137564762Y-87323380D02*
X137755238Y-87323380D01*
X137755238Y-87323380D02*
X137850476Y-87371000D01*
X137850476Y-87371000D02*
X137898095Y-87418619D01*
X137898095Y-87418619D02*
X137945714Y-87513857D01*
X137945714Y-87513857D02*
X137945714Y-87561476D01*
X137945714Y-87561476D02*
X137898095Y-87656714D01*
X137898095Y-87656714D02*
X137850476Y-87704333D01*
X137850476Y-87704333D02*
X137755238Y-87751952D01*
X137755238Y-87751952D02*
X137564762Y-87751952D01*
X137564762Y-87751952D02*
X137469524Y-87799571D01*
X137469524Y-87799571D02*
X137421905Y-87847190D01*
X137421905Y-87847190D02*
X137374286Y-87942428D01*
X137374286Y-87942428D02*
X137374286Y-88132904D01*
X137374286Y-88132904D02*
X137421905Y-88228142D01*
X137421905Y-88228142D02*
X137469524Y-88275761D01*
X137469524Y-88275761D02*
X137564762Y-88323380D01*
X137564762Y-88323380D02*
X137755238Y-88323380D01*
X137755238Y-88323380D02*
X137850476Y-88275761D01*
X137850476Y-88275761D02*
X137898095Y-88228142D01*
X137898095Y-88228142D02*
X137945714Y-88132904D01*
X137945714Y-88132904D02*
X137945714Y-87942428D01*
X137945714Y-87942428D02*
X137898095Y-87847190D01*
X137898095Y-87847190D02*
X137850476Y-87799571D01*
X137850476Y-87799571D02*
X137755238Y-87751952D01*
%TO.C,SW1*%
X121348667Y-58045761D02*
X121491524Y-58093380D01*
X121491524Y-58093380D02*
X121729619Y-58093380D01*
X121729619Y-58093380D02*
X121824857Y-58045761D01*
X121824857Y-58045761D02*
X121872476Y-57998142D01*
X121872476Y-57998142D02*
X121920095Y-57902904D01*
X121920095Y-57902904D02*
X121920095Y-57807666D01*
X121920095Y-57807666D02*
X121872476Y-57712428D01*
X121872476Y-57712428D02*
X121824857Y-57664809D01*
X121824857Y-57664809D02*
X121729619Y-57617190D01*
X121729619Y-57617190D02*
X121539143Y-57569571D01*
X121539143Y-57569571D02*
X121443905Y-57521952D01*
X121443905Y-57521952D02*
X121396286Y-57474333D01*
X121396286Y-57474333D02*
X121348667Y-57379095D01*
X121348667Y-57379095D02*
X121348667Y-57283857D01*
X121348667Y-57283857D02*
X121396286Y-57188619D01*
X121396286Y-57188619D02*
X121443905Y-57141000D01*
X121443905Y-57141000D02*
X121539143Y-57093380D01*
X121539143Y-57093380D02*
X121777238Y-57093380D01*
X121777238Y-57093380D02*
X121920095Y-57141000D01*
X122253429Y-57093380D02*
X122491524Y-58093380D01*
X122491524Y-58093380D02*
X122682000Y-57379095D01*
X122682000Y-57379095D02*
X122872476Y-58093380D01*
X122872476Y-58093380D02*
X123110572Y-57093380D01*
X124015333Y-58093380D02*
X123443905Y-58093380D01*
X123729619Y-58093380D02*
X123729619Y-57093380D01*
X123729619Y-57093380D02*
X123634381Y-57236238D01*
X123634381Y-57236238D02*
X123539143Y-57331476D01*
X123539143Y-57331476D02*
X123443905Y-57379095D01*
%TO.C,TP8*%
X114816095Y-132339380D02*
X115387523Y-132339380D01*
X115101809Y-133339380D02*
X115101809Y-132339380D01*
X115720857Y-133339380D02*
X115720857Y-132339380D01*
X115720857Y-132339380D02*
X116101809Y-132339380D01*
X116101809Y-132339380D02*
X116197047Y-132387000D01*
X116197047Y-132387000D02*
X116244666Y-132434619D01*
X116244666Y-132434619D02*
X116292285Y-132529857D01*
X116292285Y-132529857D02*
X116292285Y-132672714D01*
X116292285Y-132672714D02*
X116244666Y-132767952D01*
X116244666Y-132767952D02*
X116197047Y-132815571D01*
X116197047Y-132815571D02*
X116101809Y-132863190D01*
X116101809Y-132863190D02*
X115720857Y-132863190D01*
X116863714Y-132767952D02*
X116768476Y-132720333D01*
X116768476Y-132720333D02*
X116720857Y-132672714D01*
X116720857Y-132672714D02*
X116673238Y-132577476D01*
X116673238Y-132577476D02*
X116673238Y-132529857D01*
X116673238Y-132529857D02*
X116720857Y-132434619D01*
X116720857Y-132434619D02*
X116768476Y-132387000D01*
X116768476Y-132387000D02*
X116863714Y-132339380D01*
X116863714Y-132339380D02*
X117054190Y-132339380D01*
X117054190Y-132339380D02*
X117149428Y-132387000D01*
X117149428Y-132387000D02*
X117197047Y-132434619D01*
X117197047Y-132434619D02*
X117244666Y-132529857D01*
X117244666Y-132529857D02*
X117244666Y-132577476D01*
X117244666Y-132577476D02*
X117197047Y-132672714D01*
X117197047Y-132672714D02*
X117149428Y-132720333D01*
X117149428Y-132720333D02*
X117054190Y-132767952D01*
X117054190Y-132767952D02*
X116863714Y-132767952D01*
X116863714Y-132767952D02*
X116768476Y-132815571D01*
X116768476Y-132815571D02*
X116720857Y-132863190D01*
X116720857Y-132863190D02*
X116673238Y-132958428D01*
X116673238Y-132958428D02*
X116673238Y-133148904D01*
X116673238Y-133148904D02*
X116720857Y-133244142D01*
X116720857Y-133244142D02*
X116768476Y-133291761D01*
X116768476Y-133291761D02*
X116863714Y-133339380D01*
X116863714Y-133339380D02*
X117054190Y-133339380D01*
X117054190Y-133339380D02*
X117149428Y-133291761D01*
X117149428Y-133291761D02*
X117197047Y-133244142D01*
X117197047Y-133244142D02*
X117244666Y-133148904D01*
X117244666Y-133148904D02*
X117244666Y-132958428D01*
X117244666Y-132958428D02*
X117197047Y-132863190D01*
X117197047Y-132863190D02*
X117149428Y-132815571D01*
X117149428Y-132815571D02*
X117054190Y-132767952D01*
%TO.C,R21*%
X140073142Y-139517380D02*
X139739809Y-139041190D01*
X139501714Y-139517380D02*
X139501714Y-138517380D01*
X139501714Y-138517380D02*
X139882666Y-138517380D01*
X139882666Y-138517380D02*
X139977904Y-138565000D01*
X139977904Y-138565000D02*
X140025523Y-138612619D01*
X140025523Y-138612619D02*
X140073142Y-138707857D01*
X140073142Y-138707857D02*
X140073142Y-138850714D01*
X140073142Y-138850714D02*
X140025523Y-138945952D01*
X140025523Y-138945952D02*
X139977904Y-138993571D01*
X139977904Y-138993571D02*
X139882666Y-139041190D01*
X139882666Y-139041190D02*
X139501714Y-139041190D01*
X140454095Y-138612619D02*
X140501714Y-138565000D01*
X140501714Y-138565000D02*
X140596952Y-138517380D01*
X140596952Y-138517380D02*
X140835047Y-138517380D01*
X140835047Y-138517380D02*
X140930285Y-138565000D01*
X140930285Y-138565000D02*
X140977904Y-138612619D01*
X140977904Y-138612619D02*
X141025523Y-138707857D01*
X141025523Y-138707857D02*
X141025523Y-138803095D01*
X141025523Y-138803095D02*
X140977904Y-138945952D01*
X140977904Y-138945952D02*
X140406476Y-139517380D01*
X140406476Y-139517380D02*
X141025523Y-139517380D01*
X141977904Y-139517380D02*
X141406476Y-139517380D01*
X141692190Y-139517380D02*
X141692190Y-138517380D01*
X141692190Y-138517380D02*
X141596952Y-138660238D01*
X141596952Y-138660238D02*
X141501714Y-138755476D01*
X141501714Y-138755476D02*
X141406476Y-138803095D01*
%TO.C,R25*%
X113627880Y-103706857D02*
X113151690Y-104040190D01*
X113627880Y-104278285D02*
X112627880Y-104278285D01*
X112627880Y-104278285D02*
X112627880Y-103897333D01*
X112627880Y-103897333D02*
X112675500Y-103802095D01*
X112675500Y-103802095D02*
X112723119Y-103754476D01*
X112723119Y-103754476D02*
X112818357Y-103706857D01*
X112818357Y-103706857D02*
X112961214Y-103706857D01*
X112961214Y-103706857D02*
X113056452Y-103754476D01*
X113056452Y-103754476D02*
X113104071Y-103802095D01*
X113104071Y-103802095D02*
X113151690Y-103897333D01*
X113151690Y-103897333D02*
X113151690Y-104278285D01*
X112723119Y-103325904D02*
X112675500Y-103278285D01*
X112675500Y-103278285D02*
X112627880Y-103183047D01*
X112627880Y-103183047D02*
X112627880Y-102944952D01*
X112627880Y-102944952D02*
X112675500Y-102849714D01*
X112675500Y-102849714D02*
X112723119Y-102802095D01*
X112723119Y-102802095D02*
X112818357Y-102754476D01*
X112818357Y-102754476D02*
X112913595Y-102754476D01*
X112913595Y-102754476D02*
X113056452Y-102802095D01*
X113056452Y-102802095D02*
X113627880Y-103373523D01*
X113627880Y-103373523D02*
X113627880Y-102754476D01*
X112627880Y-101849714D02*
X112627880Y-102325904D01*
X112627880Y-102325904D02*
X113104071Y-102373523D01*
X113104071Y-102373523D02*
X113056452Y-102325904D01*
X113056452Y-102325904D02*
X113008833Y-102230666D01*
X113008833Y-102230666D02*
X113008833Y-101992571D01*
X113008833Y-101992571D02*
X113056452Y-101897333D01*
X113056452Y-101897333D02*
X113104071Y-101849714D01*
X113104071Y-101849714D02*
X113199309Y-101802095D01*
X113199309Y-101802095D02*
X113437404Y-101802095D01*
X113437404Y-101802095D02*
X113532642Y-101849714D01*
X113532642Y-101849714D02*
X113580261Y-101897333D01*
X113580261Y-101897333D02*
X113627880Y-101992571D01*
X113627880Y-101992571D02*
X113627880Y-102230666D01*
X113627880Y-102230666D02*
X113580261Y-102325904D01*
X113580261Y-102325904D02*
X113532642Y-102373523D01*
%TO.C,R6*%
X156996333Y-110561380D02*
X156663000Y-110085190D01*
X156424905Y-110561380D02*
X156424905Y-109561380D01*
X156424905Y-109561380D02*
X156805857Y-109561380D01*
X156805857Y-109561380D02*
X156901095Y-109609000D01*
X156901095Y-109609000D02*
X156948714Y-109656619D01*
X156948714Y-109656619D02*
X156996333Y-109751857D01*
X156996333Y-109751857D02*
X156996333Y-109894714D01*
X156996333Y-109894714D02*
X156948714Y-109989952D01*
X156948714Y-109989952D02*
X156901095Y-110037571D01*
X156901095Y-110037571D02*
X156805857Y-110085190D01*
X156805857Y-110085190D02*
X156424905Y-110085190D01*
X157853476Y-109561380D02*
X157663000Y-109561380D01*
X157663000Y-109561380D02*
X157567762Y-109609000D01*
X157567762Y-109609000D02*
X157520143Y-109656619D01*
X157520143Y-109656619D02*
X157424905Y-109799476D01*
X157424905Y-109799476D02*
X157377286Y-109989952D01*
X157377286Y-109989952D02*
X157377286Y-110370904D01*
X157377286Y-110370904D02*
X157424905Y-110466142D01*
X157424905Y-110466142D02*
X157472524Y-110513761D01*
X157472524Y-110513761D02*
X157567762Y-110561380D01*
X157567762Y-110561380D02*
X157758238Y-110561380D01*
X157758238Y-110561380D02*
X157853476Y-110513761D01*
X157853476Y-110513761D02*
X157901095Y-110466142D01*
X157901095Y-110466142D02*
X157948714Y-110370904D01*
X157948714Y-110370904D02*
X157948714Y-110132809D01*
X157948714Y-110132809D02*
X157901095Y-110037571D01*
X157901095Y-110037571D02*
X157853476Y-109989952D01*
X157853476Y-109989952D02*
X157758238Y-109942333D01*
X157758238Y-109942333D02*
X157567762Y-109942333D01*
X157567762Y-109942333D02*
X157472524Y-109989952D01*
X157472524Y-109989952D02*
X157424905Y-110037571D01*
X157424905Y-110037571D02*
X157377286Y-110132809D01*
%TO.C,C4*%
X159204142Y-93892666D02*
X159251761Y-93940285D01*
X159251761Y-93940285D02*
X159299380Y-94083142D01*
X159299380Y-94083142D02*
X159299380Y-94178380D01*
X159299380Y-94178380D02*
X159251761Y-94321237D01*
X159251761Y-94321237D02*
X159156523Y-94416475D01*
X159156523Y-94416475D02*
X159061285Y-94464094D01*
X159061285Y-94464094D02*
X158870809Y-94511713D01*
X158870809Y-94511713D02*
X158727952Y-94511713D01*
X158727952Y-94511713D02*
X158537476Y-94464094D01*
X158537476Y-94464094D02*
X158442238Y-94416475D01*
X158442238Y-94416475D02*
X158347000Y-94321237D01*
X158347000Y-94321237D02*
X158299380Y-94178380D01*
X158299380Y-94178380D02*
X158299380Y-94083142D01*
X158299380Y-94083142D02*
X158347000Y-93940285D01*
X158347000Y-93940285D02*
X158394619Y-93892666D01*
X158632714Y-93035523D02*
X159299380Y-93035523D01*
X158251761Y-93273618D02*
X158966047Y-93511713D01*
X158966047Y-93511713D02*
X158966047Y-92892666D01*
%TO.C,R9*%
X144427380Y-97702666D02*
X143951190Y-98035999D01*
X144427380Y-98274094D02*
X143427380Y-98274094D01*
X143427380Y-98274094D02*
X143427380Y-97893142D01*
X143427380Y-97893142D02*
X143475000Y-97797904D01*
X143475000Y-97797904D02*
X143522619Y-97750285D01*
X143522619Y-97750285D02*
X143617857Y-97702666D01*
X143617857Y-97702666D02*
X143760714Y-97702666D01*
X143760714Y-97702666D02*
X143855952Y-97750285D01*
X143855952Y-97750285D02*
X143903571Y-97797904D01*
X143903571Y-97797904D02*
X143951190Y-97893142D01*
X143951190Y-97893142D02*
X143951190Y-98274094D01*
X144427380Y-97226475D02*
X144427380Y-97035999D01*
X144427380Y-97035999D02*
X144379761Y-96940761D01*
X144379761Y-96940761D02*
X144332142Y-96893142D01*
X144332142Y-96893142D02*
X144189285Y-96797904D01*
X144189285Y-96797904D02*
X143998809Y-96750285D01*
X143998809Y-96750285D02*
X143617857Y-96750285D01*
X143617857Y-96750285D02*
X143522619Y-96797904D01*
X143522619Y-96797904D02*
X143475000Y-96845523D01*
X143475000Y-96845523D02*
X143427380Y-96940761D01*
X143427380Y-96940761D02*
X143427380Y-97131237D01*
X143427380Y-97131237D02*
X143475000Y-97226475D01*
X143475000Y-97226475D02*
X143522619Y-97274094D01*
X143522619Y-97274094D02*
X143617857Y-97321713D01*
X143617857Y-97321713D02*
X143855952Y-97321713D01*
X143855952Y-97321713D02*
X143951190Y-97274094D01*
X143951190Y-97274094D02*
X143998809Y-97226475D01*
X143998809Y-97226475D02*
X144046428Y-97131237D01*
X144046428Y-97131237D02*
X144046428Y-96940761D01*
X144046428Y-96940761D02*
X143998809Y-96845523D01*
X143998809Y-96845523D02*
X143951190Y-96797904D01*
X143951190Y-96797904D02*
X143855952Y-96750285D01*
%TO.C,C10*%
X119470142Y-128912857D02*
X119517761Y-128960476D01*
X119517761Y-128960476D02*
X119565380Y-129103333D01*
X119565380Y-129103333D02*
X119565380Y-129198571D01*
X119565380Y-129198571D02*
X119517761Y-129341428D01*
X119517761Y-129341428D02*
X119422523Y-129436666D01*
X119422523Y-129436666D02*
X119327285Y-129484285D01*
X119327285Y-129484285D02*
X119136809Y-129531904D01*
X119136809Y-129531904D02*
X118993952Y-129531904D01*
X118993952Y-129531904D02*
X118803476Y-129484285D01*
X118803476Y-129484285D02*
X118708238Y-129436666D01*
X118708238Y-129436666D02*
X118613000Y-129341428D01*
X118613000Y-129341428D02*
X118565380Y-129198571D01*
X118565380Y-129198571D02*
X118565380Y-129103333D01*
X118565380Y-129103333D02*
X118613000Y-128960476D01*
X118613000Y-128960476D02*
X118660619Y-128912857D01*
X119565380Y-127960476D02*
X119565380Y-128531904D01*
X119565380Y-128246190D02*
X118565380Y-128246190D01*
X118565380Y-128246190D02*
X118708238Y-128341428D01*
X118708238Y-128341428D02*
X118803476Y-128436666D01*
X118803476Y-128436666D02*
X118851095Y-128531904D01*
X118565380Y-127341428D02*
X118565380Y-127246190D01*
X118565380Y-127246190D02*
X118613000Y-127150952D01*
X118613000Y-127150952D02*
X118660619Y-127103333D01*
X118660619Y-127103333D02*
X118755857Y-127055714D01*
X118755857Y-127055714D02*
X118946333Y-127008095D01*
X118946333Y-127008095D02*
X119184428Y-127008095D01*
X119184428Y-127008095D02*
X119374904Y-127055714D01*
X119374904Y-127055714D02*
X119470142Y-127103333D01*
X119470142Y-127103333D02*
X119517761Y-127150952D01*
X119517761Y-127150952D02*
X119565380Y-127246190D01*
X119565380Y-127246190D02*
X119565380Y-127341428D01*
X119565380Y-127341428D02*
X119517761Y-127436666D01*
X119517761Y-127436666D02*
X119470142Y-127484285D01*
X119470142Y-127484285D02*
X119374904Y-127531904D01*
X119374904Y-127531904D02*
X119184428Y-127579523D01*
X119184428Y-127579523D02*
X118946333Y-127579523D01*
X118946333Y-127579523D02*
X118755857Y-127531904D01*
X118755857Y-127531904D02*
X118660619Y-127484285D01*
X118660619Y-127484285D02*
X118613000Y-127436666D01*
X118613000Y-127436666D02*
X118565380Y-127341428D01*
%TO.C,R8*%
X125563333Y-136977380D02*
X125230000Y-136501190D01*
X124991905Y-136977380D02*
X124991905Y-135977380D01*
X124991905Y-135977380D02*
X125372857Y-135977380D01*
X125372857Y-135977380D02*
X125468095Y-136025000D01*
X125468095Y-136025000D02*
X125515714Y-136072619D01*
X125515714Y-136072619D02*
X125563333Y-136167857D01*
X125563333Y-136167857D02*
X125563333Y-136310714D01*
X125563333Y-136310714D02*
X125515714Y-136405952D01*
X125515714Y-136405952D02*
X125468095Y-136453571D01*
X125468095Y-136453571D02*
X125372857Y-136501190D01*
X125372857Y-136501190D02*
X124991905Y-136501190D01*
X126134762Y-136405952D02*
X126039524Y-136358333D01*
X126039524Y-136358333D02*
X125991905Y-136310714D01*
X125991905Y-136310714D02*
X125944286Y-136215476D01*
X125944286Y-136215476D02*
X125944286Y-136167857D01*
X125944286Y-136167857D02*
X125991905Y-136072619D01*
X125991905Y-136072619D02*
X126039524Y-136025000D01*
X126039524Y-136025000D02*
X126134762Y-135977380D01*
X126134762Y-135977380D02*
X126325238Y-135977380D01*
X126325238Y-135977380D02*
X126420476Y-136025000D01*
X126420476Y-136025000D02*
X126468095Y-136072619D01*
X126468095Y-136072619D02*
X126515714Y-136167857D01*
X126515714Y-136167857D02*
X126515714Y-136215476D01*
X126515714Y-136215476D02*
X126468095Y-136310714D01*
X126468095Y-136310714D02*
X126420476Y-136358333D01*
X126420476Y-136358333D02*
X126325238Y-136405952D01*
X126325238Y-136405952D02*
X126134762Y-136405952D01*
X126134762Y-136405952D02*
X126039524Y-136453571D01*
X126039524Y-136453571D02*
X125991905Y-136501190D01*
X125991905Y-136501190D02*
X125944286Y-136596428D01*
X125944286Y-136596428D02*
X125944286Y-136786904D01*
X125944286Y-136786904D02*
X125991905Y-136882142D01*
X125991905Y-136882142D02*
X126039524Y-136929761D01*
X126039524Y-136929761D02*
X126134762Y-136977380D01*
X126134762Y-136977380D02*
X126325238Y-136977380D01*
X126325238Y-136977380D02*
X126420476Y-136929761D01*
X126420476Y-136929761D02*
X126468095Y-136882142D01*
X126468095Y-136882142D02*
X126515714Y-136786904D01*
X126515714Y-136786904D02*
X126515714Y-136596428D01*
X126515714Y-136596428D02*
X126468095Y-136501190D01*
X126468095Y-136501190D02*
X126420476Y-136453571D01*
X126420476Y-136453571D02*
X126325238Y-136405952D01*
%TO.C,R19*%
X124996380Y-108338857D02*
X124520190Y-108672190D01*
X124996380Y-108910285D02*
X123996380Y-108910285D01*
X123996380Y-108910285D02*
X123996380Y-108529333D01*
X123996380Y-108529333D02*
X124044000Y-108434095D01*
X124044000Y-108434095D02*
X124091619Y-108386476D01*
X124091619Y-108386476D02*
X124186857Y-108338857D01*
X124186857Y-108338857D02*
X124329714Y-108338857D01*
X124329714Y-108338857D02*
X124424952Y-108386476D01*
X124424952Y-108386476D02*
X124472571Y-108434095D01*
X124472571Y-108434095D02*
X124520190Y-108529333D01*
X124520190Y-108529333D02*
X124520190Y-108910285D01*
X124996380Y-107386476D02*
X124996380Y-107957904D01*
X124996380Y-107672190D02*
X123996380Y-107672190D01*
X123996380Y-107672190D02*
X124139238Y-107767428D01*
X124139238Y-107767428D02*
X124234476Y-107862666D01*
X124234476Y-107862666D02*
X124282095Y-107957904D01*
X124996380Y-106910285D02*
X124996380Y-106719809D01*
X124996380Y-106719809D02*
X124948761Y-106624571D01*
X124948761Y-106624571D02*
X124901142Y-106576952D01*
X124901142Y-106576952D02*
X124758285Y-106481714D01*
X124758285Y-106481714D02*
X124567809Y-106434095D01*
X124567809Y-106434095D02*
X124186857Y-106434095D01*
X124186857Y-106434095D02*
X124091619Y-106481714D01*
X124091619Y-106481714D02*
X124044000Y-106529333D01*
X124044000Y-106529333D02*
X123996380Y-106624571D01*
X123996380Y-106624571D02*
X123996380Y-106815047D01*
X123996380Y-106815047D02*
X124044000Y-106910285D01*
X124044000Y-106910285D02*
X124091619Y-106957904D01*
X124091619Y-106957904D02*
X124186857Y-107005523D01*
X124186857Y-107005523D02*
X124424952Y-107005523D01*
X124424952Y-107005523D02*
X124520190Y-106957904D01*
X124520190Y-106957904D02*
X124567809Y-106910285D01*
X124567809Y-106910285D02*
X124615428Y-106815047D01*
X124615428Y-106815047D02*
X124615428Y-106624571D01*
X124615428Y-106624571D02*
X124567809Y-106529333D01*
X124567809Y-106529333D02*
X124520190Y-106481714D01*
X124520190Y-106481714D02*
X124424952Y-106434095D01*
%TO.C,R31*%
X163139380Y-82238357D02*
X162663190Y-82571690D01*
X163139380Y-82809785D02*
X162139380Y-82809785D01*
X162139380Y-82809785D02*
X162139380Y-82428833D01*
X162139380Y-82428833D02*
X162187000Y-82333595D01*
X162187000Y-82333595D02*
X162234619Y-82285976D01*
X162234619Y-82285976D02*
X162329857Y-82238357D01*
X162329857Y-82238357D02*
X162472714Y-82238357D01*
X162472714Y-82238357D02*
X162567952Y-82285976D01*
X162567952Y-82285976D02*
X162615571Y-82333595D01*
X162615571Y-82333595D02*
X162663190Y-82428833D01*
X162663190Y-82428833D02*
X162663190Y-82809785D01*
X162139380Y-81905023D02*
X162139380Y-81285976D01*
X162139380Y-81285976D02*
X162520333Y-81619309D01*
X162520333Y-81619309D02*
X162520333Y-81476452D01*
X162520333Y-81476452D02*
X162567952Y-81381214D01*
X162567952Y-81381214D02*
X162615571Y-81333595D01*
X162615571Y-81333595D02*
X162710809Y-81285976D01*
X162710809Y-81285976D02*
X162948904Y-81285976D01*
X162948904Y-81285976D02*
X163044142Y-81333595D01*
X163044142Y-81333595D02*
X163091761Y-81381214D01*
X163091761Y-81381214D02*
X163139380Y-81476452D01*
X163139380Y-81476452D02*
X163139380Y-81762166D01*
X163139380Y-81762166D02*
X163091761Y-81857404D01*
X163091761Y-81857404D02*
X163044142Y-81905023D01*
X163139380Y-80333595D02*
X163139380Y-80905023D01*
X163139380Y-80619309D02*
X162139380Y-80619309D01*
X162139380Y-80619309D02*
X162282238Y-80714547D01*
X162282238Y-80714547D02*
X162377476Y-80809785D01*
X162377476Y-80809785D02*
X162425095Y-80905023D01*
%TO.C,U2*%
X154712659Y-103832380D02*
X154712659Y-104641904D01*
X154712659Y-104641904D02*
X154760278Y-104737142D01*
X154760278Y-104737142D02*
X154807897Y-104784761D01*
X154807897Y-104784761D02*
X154903135Y-104832380D01*
X154903135Y-104832380D02*
X155093611Y-104832380D01*
X155093611Y-104832380D02*
X155188849Y-104784761D01*
X155188849Y-104784761D02*
X155236468Y-104737142D01*
X155236468Y-104737142D02*
X155284087Y-104641904D01*
X155284087Y-104641904D02*
X155284087Y-103832380D01*
X155712659Y-103927619D02*
X155760278Y-103880000D01*
X155760278Y-103880000D02*
X155855516Y-103832380D01*
X155855516Y-103832380D02*
X156093611Y-103832380D01*
X156093611Y-103832380D02*
X156188849Y-103880000D01*
X156188849Y-103880000D02*
X156236468Y-103927619D01*
X156236468Y-103927619D02*
X156284087Y-104022857D01*
X156284087Y-104022857D02*
X156284087Y-104118095D01*
X156284087Y-104118095D02*
X156236468Y-104260952D01*
X156236468Y-104260952D02*
X155665040Y-104832380D01*
X155665040Y-104832380D02*
X156284087Y-104832380D01*
%TO.C,TP7*%
X131580095Y-133355380D02*
X132151523Y-133355380D01*
X131865809Y-134355380D02*
X131865809Y-133355380D01*
X132484857Y-134355380D02*
X132484857Y-133355380D01*
X132484857Y-133355380D02*
X132865809Y-133355380D01*
X132865809Y-133355380D02*
X132961047Y-133403000D01*
X132961047Y-133403000D02*
X133008666Y-133450619D01*
X133008666Y-133450619D02*
X133056285Y-133545857D01*
X133056285Y-133545857D02*
X133056285Y-133688714D01*
X133056285Y-133688714D02*
X133008666Y-133783952D01*
X133008666Y-133783952D02*
X132961047Y-133831571D01*
X132961047Y-133831571D02*
X132865809Y-133879190D01*
X132865809Y-133879190D02*
X132484857Y-133879190D01*
X133389619Y-133355380D02*
X134056285Y-133355380D01*
X134056285Y-133355380D02*
X133627714Y-134355380D01*
%TO.C,D4*%
X148105905Y-139653380D02*
X148105905Y-138653380D01*
X148105905Y-138653380D02*
X148344000Y-138653380D01*
X148344000Y-138653380D02*
X148486857Y-138701000D01*
X148486857Y-138701000D02*
X148582095Y-138796238D01*
X148582095Y-138796238D02*
X148629714Y-138891476D01*
X148629714Y-138891476D02*
X148677333Y-139081952D01*
X148677333Y-139081952D02*
X148677333Y-139224809D01*
X148677333Y-139224809D02*
X148629714Y-139415285D01*
X148629714Y-139415285D02*
X148582095Y-139510523D01*
X148582095Y-139510523D02*
X148486857Y-139605761D01*
X148486857Y-139605761D02*
X148344000Y-139653380D01*
X148344000Y-139653380D02*
X148105905Y-139653380D01*
X149534476Y-138986714D02*
X149534476Y-139653380D01*
X149296381Y-138605761D02*
X149058286Y-139320047D01*
X149058286Y-139320047D02*
X149677333Y-139320047D01*
%TO.C,R20*%
X98417142Y-108275380D02*
X98083809Y-107799190D01*
X97845714Y-108275380D02*
X97845714Y-107275380D01*
X97845714Y-107275380D02*
X98226666Y-107275380D01*
X98226666Y-107275380D02*
X98321904Y-107323000D01*
X98321904Y-107323000D02*
X98369523Y-107370619D01*
X98369523Y-107370619D02*
X98417142Y-107465857D01*
X98417142Y-107465857D02*
X98417142Y-107608714D01*
X98417142Y-107608714D02*
X98369523Y-107703952D01*
X98369523Y-107703952D02*
X98321904Y-107751571D01*
X98321904Y-107751571D02*
X98226666Y-107799190D01*
X98226666Y-107799190D02*
X97845714Y-107799190D01*
X98798095Y-107370619D02*
X98845714Y-107323000D01*
X98845714Y-107323000D02*
X98940952Y-107275380D01*
X98940952Y-107275380D02*
X99179047Y-107275380D01*
X99179047Y-107275380D02*
X99274285Y-107323000D01*
X99274285Y-107323000D02*
X99321904Y-107370619D01*
X99321904Y-107370619D02*
X99369523Y-107465857D01*
X99369523Y-107465857D02*
X99369523Y-107561095D01*
X99369523Y-107561095D02*
X99321904Y-107703952D01*
X99321904Y-107703952D02*
X98750476Y-108275380D01*
X98750476Y-108275380D02*
X99369523Y-108275380D01*
X99988571Y-107275380D02*
X100083809Y-107275380D01*
X100083809Y-107275380D02*
X100179047Y-107323000D01*
X100179047Y-107323000D02*
X100226666Y-107370619D01*
X100226666Y-107370619D02*
X100274285Y-107465857D01*
X100274285Y-107465857D02*
X100321904Y-107656333D01*
X100321904Y-107656333D02*
X100321904Y-107894428D01*
X100321904Y-107894428D02*
X100274285Y-108084904D01*
X100274285Y-108084904D02*
X100226666Y-108180142D01*
X100226666Y-108180142D02*
X100179047Y-108227761D01*
X100179047Y-108227761D02*
X100083809Y-108275380D01*
X100083809Y-108275380D02*
X99988571Y-108275380D01*
X99988571Y-108275380D02*
X99893333Y-108227761D01*
X99893333Y-108227761D02*
X99845714Y-108180142D01*
X99845714Y-108180142D02*
X99798095Y-108084904D01*
X99798095Y-108084904D02*
X99750476Y-107894428D01*
X99750476Y-107894428D02*
X99750476Y-107656333D01*
X99750476Y-107656333D02*
X99798095Y-107465857D01*
X99798095Y-107465857D02*
X99845714Y-107370619D01*
X99845714Y-107370619D02*
X99893333Y-107323000D01*
X99893333Y-107323000D02*
X99988571Y-107275380D01*
%TO.C,TP5*%
X125738095Y-69855380D02*
X126309523Y-69855380D01*
X126023809Y-70855380D02*
X126023809Y-69855380D01*
X126642857Y-70855380D02*
X126642857Y-69855380D01*
X126642857Y-69855380D02*
X127023809Y-69855380D01*
X127023809Y-69855380D02*
X127119047Y-69903000D01*
X127119047Y-69903000D02*
X127166666Y-69950619D01*
X127166666Y-69950619D02*
X127214285Y-70045857D01*
X127214285Y-70045857D02*
X127214285Y-70188714D01*
X127214285Y-70188714D02*
X127166666Y-70283952D01*
X127166666Y-70283952D02*
X127119047Y-70331571D01*
X127119047Y-70331571D02*
X127023809Y-70379190D01*
X127023809Y-70379190D02*
X126642857Y-70379190D01*
X128119047Y-69855380D02*
X127642857Y-69855380D01*
X127642857Y-69855380D02*
X127595238Y-70331571D01*
X127595238Y-70331571D02*
X127642857Y-70283952D01*
X127642857Y-70283952D02*
X127738095Y-70236333D01*
X127738095Y-70236333D02*
X127976190Y-70236333D01*
X127976190Y-70236333D02*
X128071428Y-70283952D01*
X128071428Y-70283952D02*
X128119047Y-70331571D01*
X128119047Y-70331571D02*
X128166666Y-70426809D01*
X128166666Y-70426809D02*
X128166666Y-70664904D01*
X128166666Y-70664904D02*
X128119047Y-70760142D01*
X128119047Y-70760142D02*
X128071428Y-70807761D01*
X128071428Y-70807761D02*
X127976190Y-70855380D01*
X127976190Y-70855380D02*
X127738095Y-70855380D01*
X127738095Y-70855380D02*
X127642857Y-70807761D01*
X127642857Y-70807761D02*
X127595238Y-70760142D01*
%TO.C,TP1*%
X161298095Y-109479380D02*
X161869523Y-109479380D01*
X161583809Y-110479380D02*
X161583809Y-109479380D01*
X162202857Y-110479380D02*
X162202857Y-109479380D01*
X162202857Y-109479380D02*
X162583809Y-109479380D01*
X162583809Y-109479380D02*
X162679047Y-109527000D01*
X162679047Y-109527000D02*
X162726666Y-109574619D01*
X162726666Y-109574619D02*
X162774285Y-109669857D01*
X162774285Y-109669857D02*
X162774285Y-109812714D01*
X162774285Y-109812714D02*
X162726666Y-109907952D01*
X162726666Y-109907952D02*
X162679047Y-109955571D01*
X162679047Y-109955571D02*
X162583809Y-110003190D01*
X162583809Y-110003190D02*
X162202857Y-110003190D01*
X163726666Y-110479380D02*
X163155238Y-110479380D01*
X163440952Y-110479380D02*
X163440952Y-109479380D01*
X163440952Y-109479380D02*
X163345714Y-109622238D01*
X163345714Y-109622238D02*
X163250476Y-109717476D01*
X163250476Y-109717476D02*
X163155238Y-109765095D01*
%TO.C,Q2*%
X149698007Y-127037414D02*
X149638015Y-127007418D01*
X149638015Y-127007418D02*
X149578022Y-126947425D01*
X149578022Y-126947425D02*
X149488033Y-126857436D01*
X149488033Y-126857436D02*
X149428041Y-126827440D01*
X149428041Y-126827440D02*
X149368048Y-126827440D01*
X149398045Y-126977421D02*
X149338052Y-126947425D01*
X149338052Y-126947425D02*
X149278060Y-126887433D01*
X149278060Y-126887433D02*
X149248063Y-126767448D01*
X149248063Y-126767448D02*
X149248063Y-126557474D01*
X149248063Y-126557474D02*
X149278060Y-126437489D01*
X149278060Y-126437489D02*
X149338052Y-126377497D01*
X149338052Y-126377497D02*
X149398045Y-126347500D01*
X149398045Y-126347500D02*
X149518030Y-126347500D01*
X149518030Y-126347500D02*
X149578022Y-126377497D01*
X149578022Y-126377497D02*
X149638015Y-126437489D01*
X149638015Y-126437489D02*
X149668011Y-126557474D01*
X149668011Y-126557474D02*
X149668011Y-126767448D01*
X149668011Y-126767448D02*
X149638015Y-126887433D01*
X149638015Y-126887433D02*
X149578022Y-126947425D01*
X149578022Y-126947425D02*
X149518030Y-126977421D01*
X149518030Y-126977421D02*
X149398045Y-126977421D01*
X149907980Y-126407493D02*
X149937977Y-126377497D01*
X149937977Y-126377497D02*
X149997969Y-126347500D01*
X149997969Y-126347500D02*
X150147950Y-126347500D01*
X150147950Y-126347500D02*
X150207943Y-126377497D01*
X150207943Y-126377497D02*
X150237939Y-126407493D01*
X150237939Y-126407493D02*
X150267935Y-126467485D01*
X150267935Y-126467485D02*
X150267935Y-126527478D01*
X150267935Y-126527478D02*
X150237939Y-126617466D01*
X150237939Y-126617466D02*
X149877984Y-126977421D01*
X149877984Y-126977421D02*
X150267935Y-126977421D01*
%TO.C,BT1*%
X177542571Y-88978714D02*
X177590190Y-88835857D01*
X177590190Y-88835857D02*
X177637809Y-88788238D01*
X177637809Y-88788238D02*
X177733047Y-88740619D01*
X177733047Y-88740619D02*
X177875904Y-88740619D01*
X177875904Y-88740619D02*
X177971142Y-88788238D01*
X177971142Y-88788238D02*
X178018761Y-88835857D01*
X178018761Y-88835857D02*
X178066380Y-88931095D01*
X178066380Y-88931095D02*
X178066380Y-89312047D01*
X178066380Y-89312047D02*
X177066380Y-89312047D01*
X177066380Y-89312047D02*
X177066380Y-88978714D01*
X177066380Y-88978714D02*
X177114000Y-88883476D01*
X177114000Y-88883476D02*
X177161619Y-88835857D01*
X177161619Y-88835857D02*
X177256857Y-88788238D01*
X177256857Y-88788238D02*
X177352095Y-88788238D01*
X177352095Y-88788238D02*
X177447333Y-88835857D01*
X177447333Y-88835857D02*
X177494952Y-88883476D01*
X177494952Y-88883476D02*
X177542571Y-88978714D01*
X177542571Y-88978714D02*
X177542571Y-89312047D01*
X177066380Y-88454904D02*
X177066380Y-87883476D01*
X178066380Y-88169190D02*
X177066380Y-88169190D01*
X178066380Y-87026333D02*
X178066380Y-87597761D01*
X178066380Y-87312047D02*
X177066380Y-87312047D01*
X177066380Y-87312047D02*
X177209238Y-87407285D01*
X177209238Y-87407285D02*
X177304476Y-87502523D01*
X177304476Y-87502523D02*
X177352095Y-87597761D01*
%TO.C,C6*%
X132280142Y-143422666D02*
X132327761Y-143470285D01*
X132327761Y-143470285D02*
X132375380Y-143613142D01*
X132375380Y-143613142D02*
X132375380Y-143708380D01*
X132375380Y-143708380D02*
X132327761Y-143851237D01*
X132327761Y-143851237D02*
X132232523Y-143946475D01*
X132232523Y-143946475D02*
X132137285Y-143994094D01*
X132137285Y-143994094D02*
X131946809Y-144041713D01*
X131946809Y-144041713D02*
X131803952Y-144041713D01*
X131803952Y-144041713D02*
X131613476Y-143994094D01*
X131613476Y-143994094D02*
X131518238Y-143946475D01*
X131518238Y-143946475D02*
X131423000Y-143851237D01*
X131423000Y-143851237D02*
X131375380Y-143708380D01*
X131375380Y-143708380D02*
X131375380Y-143613142D01*
X131375380Y-143613142D02*
X131423000Y-143470285D01*
X131423000Y-143470285D02*
X131470619Y-143422666D01*
X131375380Y-142565523D02*
X131375380Y-142755999D01*
X131375380Y-142755999D02*
X131423000Y-142851237D01*
X131423000Y-142851237D02*
X131470619Y-142898856D01*
X131470619Y-142898856D02*
X131613476Y-142994094D01*
X131613476Y-142994094D02*
X131803952Y-143041713D01*
X131803952Y-143041713D02*
X132184904Y-143041713D01*
X132184904Y-143041713D02*
X132280142Y-142994094D01*
X132280142Y-142994094D02*
X132327761Y-142946475D01*
X132327761Y-142946475D02*
X132375380Y-142851237D01*
X132375380Y-142851237D02*
X132375380Y-142660761D01*
X132375380Y-142660761D02*
X132327761Y-142565523D01*
X132327761Y-142565523D02*
X132280142Y-142517904D01*
X132280142Y-142517904D02*
X132184904Y-142470285D01*
X132184904Y-142470285D02*
X131946809Y-142470285D01*
X131946809Y-142470285D02*
X131851571Y-142517904D01*
X131851571Y-142517904D02*
X131803952Y-142565523D01*
X131803952Y-142565523D02*
X131756333Y-142660761D01*
X131756333Y-142660761D02*
X131756333Y-142851237D01*
X131756333Y-142851237D02*
X131803952Y-142946475D01*
X131803952Y-142946475D02*
X131851571Y-142994094D01*
X131851571Y-142994094D02*
X131946809Y-143041713D01*
%TO.C,TP2*%
X161552095Y-100779380D02*
X162123523Y-100779380D01*
X161837809Y-101779380D02*
X161837809Y-100779380D01*
X162456857Y-101779380D02*
X162456857Y-100779380D01*
X162456857Y-100779380D02*
X162837809Y-100779380D01*
X162837809Y-100779380D02*
X162933047Y-100827000D01*
X162933047Y-100827000D02*
X162980666Y-100874619D01*
X162980666Y-100874619D02*
X163028285Y-100969857D01*
X163028285Y-100969857D02*
X163028285Y-101112714D01*
X163028285Y-101112714D02*
X162980666Y-101207952D01*
X162980666Y-101207952D02*
X162933047Y-101255571D01*
X162933047Y-101255571D02*
X162837809Y-101303190D01*
X162837809Y-101303190D02*
X162456857Y-101303190D01*
X163409238Y-100874619D02*
X163456857Y-100827000D01*
X163456857Y-100827000D02*
X163552095Y-100779380D01*
X163552095Y-100779380D02*
X163790190Y-100779380D01*
X163790190Y-100779380D02*
X163885428Y-100827000D01*
X163885428Y-100827000D02*
X163933047Y-100874619D01*
X163933047Y-100874619D02*
X163980666Y-100969857D01*
X163980666Y-100969857D02*
X163980666Y-101065095D01*
X163980666Y-101065095D02*
X163933047Y-101207952D01*
X163933047Y-101207952D02*
X163361619Y-101779380D01*
X163361619Y-101779380D02*
X163980666Y-101779380D01*
%TO.C,TP12*%
X111672905Y-106623880D02*
X112244333Y-106623880D01*
X111958619Y-107623880D02*
X111958619Y-106623880D01*
X112577667Y-107623880D02*
X112577667Y-106623880D01*
X112577667Y-106623880D02*
X112958619Y-106623880D01*
X112958619Y-106623880D02*
X113053857Y-106671500D01*
X113053857Y-106671500D02*
X113101476Y-106719119D01*
X113101476Y-106719119D02*
X113149095Y-106814357D01*
X113149095Y-106814357D02*
X113149095Y-106957214D01*
X113149095Y-106957214D02*
X113101476Y-107052452D01*
X113101476Y-107052452D02*
X113053857Y-107100071D01*
X113053857Y-107100071D02*
X112958619Y-107147690D01*
X112958619Y-107147690D02*
X112577667Y-107147690D01*
X114101476Y-107623880D02*
X113530048Y-107623880D01*
X113815762Y-107623880D02*
X113815762Y-106623880D01*
X113815762Y-106623880D02*
X113720524Y-106766738D01*
X113720524Y-106766738D02*
X113625286Y-106861976D01*
X113625286Y-106861976D02*
X113530048Y-106909595D01*
X114482429Y-106719119D02*
X114530048Y-106671500D01*
X114530048Y-106671500D02*
X114625286Y-106623880D01*
X114625286Y-106623880D02*
X114863381Y-106623880D01*
X114863381Y-106623880D02*
X114958619Y-106671500D01*
X114958619Y-106671500D02*
X115006238Y-106719119D01*
X115006238Y-106719119D02*
X115053857Y-106814357D01*
X115053857Y-106814357D02*
X115053857Y-106909595D01*
X115053857Y-106909595D02*
X115006238Y-107052452D01*
X115006238Y-107052452D02*
X114434810Y-107623880D01*
X114434810Y-107623880D02*
X115053857Y-107623880D01*
%TO.C,R27*%
X152555380Y-87195357D02*
X152079190Y-87528690D01*
X152555380Y-87766785D02*
X151555380Y-87766785D01*
X151555380Y-87766785D02*
X151555380Y-87385833D01*
X151555380Y-87385833D02*
X151603000Y-87290595D01*
X151603000Y-87290595D02*
X151650619Y-87242976D01*
X151650619Y-87242976D02*
X151745857Y-87195357D01*
X151745857Y-87195357D02*
X151888714Y-87195357D01*
X151888714Y-87195357D02*
X151983952Y-87242976D01*
X151983952Y-87242976D02*
X152031571Y-87290595D01*
X152031571Y-87290595D02*
X152079190Y-87385833D01*
X152079190Y-87385833D02*
X152079190Y-87766785D01*
X151650619Y-86814404D02*
X151603000Y-86766785D01*
X151603000Y-86766785D02*
X151555380Y-86671547D01*
X151555380Y-86671547D02*
X151555380Y-86433452D01*
X151555380Y-86433452D02*
X151603000Y-86338214D01*
X151603000Y-86338214D02*
X151650619Y-86290595D01*
X151650619Y-86290595D02*
X151745857Y-86242976D01*
X151745857Y-86242976D02*
X151841095Y-86242976D01*
X151841095Y-86242976D02*
X151983952Y-86290595D01*
X151983952Y-86290595D02*
X152555380Y-86862023D01*
X152555380Y-86862023D02*
X152555380Y-86242976D01*
X151555380Y-85909642D02*
X151555380Y-85242976D01*
X151555380Y-85242976D02*
X152555380Y-85671547D01*
%TO.C,R29*%
X158615142Y-82367380D02*
X158281809Y-81891190D01*
X158043714Y-82367380D02*
X158043714Y-81367380D01*
X158043714Y-81367380D02*
X158424666Y-81367380D01*
X158424666Y-81367380D02*
X158519904Y-81415000D01*
X158519904Y-81415000D02*
X158567523Y-81462619D01*
X158567523Y-81462619D02*
X158615142Y-81557857D01*
X158615142Y-81557857D02*
X158615142Y-81700714D01*
X158615142Y-81700714D02*
X158567523Y-81795952D01*
X158567523Y-81795952D02*
X158519904Y-81843571D01*
X158519904Y-81843571D02*
X158424666Y-81891190D01*
X158424666Y-81891190D02*
X158043714Y-81891190D01*
X158996095Y-81462619D02*
X159043714Y-81415000D01*
X159043714Y-81415000D02*
X159138952Y-81367380D01*
X159138952Y-81367380D02*
X159377047Y-81367380D01*
X159377047Y-81367380D02*
X159472285Y-81415000D01*
X159472285Y-81415000D02*
X159519904Y-81462619D01*
X159519904Y-81462619D02*
X159567523Y-81557857D01*
X159567523Y-81557857D02*
X159567523Y-81653095D01*
X159567523Y-81653095D02*
X159519904Y-81795952D01*
X159519904Y-81795952D02*
X158948476Y-82367380D01*
X158948476Y-82367380D02*
X159567523Y-82367380D01*
X160043714Y-82367380D02*
X160234190Y-82367380D01*
X160234190Y-82367380D02*
X160329428Y-82319761D01*
X160329428Y-82319761D02*
X160377047Y-82272142D01*
X160377047Y-82272142D02*
X160472285Y-82129285D01*
X160472285Y-82129285D02*
X160519904Y-81938809D01*
X160519904Y-81938809D02*
X160519904Y-81557857D01*
X160519904Y-81557857D02*
X160472285Y-81462619D01*
X160472285Y-81462619D02*
X160424666Y-81415000D01*
X160424666Y-81415000D02*
X160329428Y-81367380D01*
X160329428Y-81367380D02*
X160138952Y-81367380D01*
X160138952Y-81367380D02*
X160043714Y-81415000D01*
X160043714Y-81415000D02*
X159996095Y-81462619D01*
X159996095Y-81462619D02*
X159948476Y-81557857D01*
X159948476Y-81557857D02*
X159948476Y-81795952D01*
X159948476Y-81795952D02*
X159996095Y-81891190D01*
X159996095Y-81891190D02*
X160043714Y-81938809D01*
X160043714Y-81938809D02*
X160138952Y-81986428D01*
X160138952Y-81986428D02*
X160329428Y-81986428D01*
X160329428Y-81986428D02*
X160424666Y-81938809D01*
X160424666Y-81938809D02*
X160472285Y-81891190D01*
X160472285Y-81891190D02*
X160519904Y-81795952D01*
%TO.C,U7*%
X136218095Y-129173380D02*
X136218095Y-129982904D01*
X136218095Y-129982904D02*
X136265714Y-130078142D01*
X136265714Y-130078142D02*
X136313333Y-130125761D01*
X136313333Y-130125761D02*
X136408571Y-130173380D01*
X136408571Y-130173380D02*
X136599047Y-130173380D01*
X136599047Y-130173380D02*
X136694285Y-130125761D01*
X136694285Y-130125761D02*
X136741904Y-130078142D01*
X136741904Y-130078142D02*
X136789523Y-129982904D01*
X136789523Y-129982904D02*
X136789523Y-129173380D01*
X137170476Y-129173380D02*
X137837142Y-129173380D01*
X137837142Y-129173380D02*
X137408571Y-130173380D01*
%TO.C,R12*%
X155628642Y-139263380D02*
X155295309Y-138787190D01*
X155057214Y-139263380D02*
X155057214Y-138263380D01*
X155057214Y-138263380D02*
X155438166Y-138263380D01*
X155438166Y-138263380D02*
X155533404Y-138311000D01*
X155533404Y-138311000D02*
X155581023Y-138358619D01*
X155581023Y-138358619D02*
X155628642Y-138453857D01*
X155628642Y-138453857D02*
X155628642Y-138596714D01*
X155628642Y-138596714D02*
X155581023Y-138691952D01*
X155581023Y-138691952D02*
X155533404Y-138739571D01*
X155533404Y-138739571D02*
X155438166Y-138787190D01*
X155438166Y-138787190D02*
X155057214Y-138787190D01*
X156581023Y-139263380D02*
X156009595Y-139263380D01*
X156295309Y-139263380D02*
X156295309Y-138263380D01*
X156295309Y-138263380D02*
X156200071Y-138406238D01*
X156200071Y-138406238D02*
X156104833Y-138501476D01*
X156104833Y-138501476D02*
X156009595Y-138549095D01*
X156961976Y-138358619D02*
X157009595Y-138311000D01*
X157009595Y-138311000D02*
X157104833Y-138263380D01*
X157104833Y-138263380D02*
X157342928Y-138263380D01*
X157342928Y-138263380D02*
X157438166Y-138311000D01*
X157438166Y-138311000D02*
X157485785Y-138358619D01*
X157485785Y-138358619D02*
X157533404Y-138453857D01*
X157533404Y-138453857D02*
X157533404Y-138549095D01*
X157533404Y-138549095D02*
X157485785Y-138691952D01*
X157485785Y-138691952D02*
X156914357Y-139263380D01*
X156914357Y-139263380D02*
X157533404Y-139263380D01*
%TO.C,J5*%
X95561380Y-88694333D02*
X96275666Y-88694333D01*
X96275666Y-88694333D02*
X96418523Y-88741952D01*
X96418523Y-88741952D02*
X96513761Y-88837190D01*
X96513761Y-88837190D02*
X96561380Y-88980047D01*
X96561380Y-88980047D02*
X96561380Y-89075285D01*
X95561380Y-87741952D02*
X95561380Y-88218142D01*
X95561380Y-88218142D02*
X96037571Y-88265761D01*
X96037571Y-88265761D02*
X95989952Y-88218142D01*
X95989952Y-88218142D02*
X95942333Y-88122904D01*
X95942333Y-88122904D02*
X95942333Y-87884809D01*
X95942333Y-87884809D02*
X95989952Y-87789571D01*
X95989952Y-87789571D02*
X96037571Y-87741952D01*
X96037571Y-87741952D02*
X96132809Y-87694333D01*
X96132809Y-87694333D02*
X96370904Y-87694333D01*
X96370904Y-87694333D02*
X96466142Y-87741952D01*
X96466142Y-87741952D02*
X96513761Y-87789571D01*
X96513761Y-87789571D02*
X96561380Y-87884809D01*
X96561380Y-87884809D02*
X96561380Y-88122904D01*
X96561380Y-88122904D02*
X96513761Y-88218142D01*
X96513761Y-88218142D02*
X96466142Y-88265761D01*
%TO.C,C2*%
X119326142Y-70573666D02*
X119373761Y-70621285D01*
X119373761Y-70621285D02*
X119421380Y-70764142D01*
X119421380Y-70764142D02*
X119421380Y-70859380D01*
X119421380Y-70859380D02*
X119373761Y-71002237D01*
X119373761Y-71002237D02*
X119278523Y-71097475D01*
X119278523Y-71097475D02*
X119183285Y-71145094D01*
X119183285Y-71145094D02*
X118992809Y-71192713D01*
X118992809Y-71192713D02*
X118849952Y-71192713D01*
X118849952Y-71192713D02*
X118659476Y-71145094D01*
X118659476Y-71145094D02*
X118564238Y-71097475D01*
X118564238Y-71097475D02*
X118469000Y-71002237D01*
X118469000Y-71002237D02*
X118421380Y-70859380D01*
X118421380Y-70859380D02*
X118421380Y-70764142D01*
X118421380Y-70764142D02*
X118469000Y-70621285D01*
X118469000Y-70621285D02*
X118516619Y-70573666D01*
X118516619Y-70192713D02*
X118469000Y-70145094D01*
X118469000Y-70145094D02*
X118421380Y-70049856D01*
X118421380Y-70049856D02*
X118421380Y-69811761D01*
X118421380Y-69811761D02*
X118469000Y-69716523D01*
X118469000Y-69716523D02*
X118516619Y-69668904D01*
X118516619Y-69668904D02*
X118611857Y-69621285D01*
X118611857Y-69621285D02*
X118707095Y-69621285D01*
X118707095Y-69621285D02*
X118849952Y-69668904D01*
X118849952Y-69668904D02*
X119421380Y-70240332D01*
X119421380Y-70240332D02*
X119421380Y-69621285D01*
D12*
%TO.C,R28*%
X158530936Y-79620000D02*
X159985064Y-79620000D01*
X158530936Y-81440000D02*
X159985064Y-81440000D01*
D13*
%TO.C,U5*%
X112060000Y-82574000D02*
X112060000Y-85574000D01*
X108920000Y-82574000D02*
X108920000Y-85574000D01*
D14*
X111715000Y-81599000D02*
G75*
G03*
X111715000Y-81599000I-100000J0D01*
G01*
D12*
%TO.C,R22*%
X141330000Y-103343064D02*
X141330000Y-101888936D01*
X143150000Y-103343064D02*
X143150000Y-101888936D01*
%TO.C,U1*%
X114936000Y-72138000D02*
X116336000Y-72138000D01*
X116336000Y-69818000D02*
X114436000Y-69818000D01*
%TO.C,R1*%
X110270936Y-60050000D02*
X111725064Y-60050000D01*
X110270936Y-61870000D02*
X111725064Y-61870000D01*
%TO.C,J1*%
X130443000Y-55128000D02*
X130443000Y-113608000D01*
X130443000Y-55128000D02*
X133103000Y-55128000D01*
X130443000Y-113608000D02*
X133103000Y-113608000D01*
X131773000Y-52528000D02*
X133103000Y-52528000D01*
X133103000Y-52528000D02*
X133103000Y-53858000D01*
X133103000Y-55128000D02*
X133103000Y-113608000D01*
%TO.C,R7*%
X153196936Y-108818000D02*
X154651064Y-108818000D01*
X153196936Y-110638000D02*
X154651064Y-110638000D01*
%TO.C,C7*%
X98094748Y-112882000D02*
X99517252Y-112882000D01*
X98094748Y-114702000D02*
X99517252Y-114702000D01*
%TO.C,TP14*%
X103312000Y-80010000D02*
G75*
G03*
X103312000Y-80010000I-950000J0D01*
G01*
%TO.C,TP3*%
X153604000Y-90932000D02*
G75*
G03*
X153604000Y-90932000I-950000J0D01*
G01*
%TO.C,R18*%
X120163000Y-106970436D02*
X120163000Y-108424564D01*
X118343000Y-106970436D02*
X118343000Y-108424564D01*
%TO.C,R24*%
X100557436Y-74782000D02*
X102011564Y-74782000D01*
X100557436Y-76602000D02*
X102011564Y-76602000D01*
%TO.C,TP11*%
X126680000Y-102140500D02*
G75*
G03*
X126680000Y-102140500I-950000J0D01*
G01*
%TO.C,D2*%
X162091000Y-126519000D02*
X162091000Y-127989000D01*
X162091000Y-127989000D02*
X164376000Y-127989000D01*
X164376000Y-126519000D02*
X162091000Y-126519000D01*
%TO.C,R17*%
X128558936Y-122026000D02*
X130013064Y-122026000D01*
X128558936Y-123846000D02*
X130013064Y-123846000D01*
D15*
%TO.C,IC1*%
X130150000Y-128984000D02*
X130244000Y-128984000D01*
X130150000Y-130604000D02*
X130150000Y-128984000D01*
X130244000Y-130604000D02*
X130150000Y-130604000D01*
X131050000Y-128984000D02*
X132094000Y-128984000D01*
X131144000Y-130604000D02*
X131050000Y-130604000D01*
X132094000Y-130604000D02*
X132000000Y-130604000D01*
X132900000Y-128984000D02*
X132994000Y-128984000D01*
X132994000Y-128984000D02*
X132994000Y-130604000D01*
X132994000Y-130604000D02*
X132900000Y-130604000D01*
D13*
X130672000Y-130094000D02*
G75*
G03*
X130672000Y-130094000I-100000J0D01*
G01*
D12*
%TO.C,Y1*%
X134356000Y-83481000D02*
X139456000Y-83481000D01*
X139456000Y-83481000D02*
X139456000Y-67506000D01*
X134356000Y-67506000D02*
X134356000Y-83481000D01*
%TO.C,R32*%
X113318936Y-65638000D02*
X114773064Y-65638000D01*
X113318936Y-67458000D02*
X114773064Y-67458000D01*
%TO.C,R15*%
X146846936Y-121518000D02*
X148301064Y-121518000D01*
X146846936Y-123338000D02*
X148301064Y-123338000D01*
%TO.C,C11*%
X153212748Y-121264000D02*
X154635252Y-121264000D01*
X153212748Y-123084000D02*
X154635252Y-123084000D01*
%TO.C,J4*%
X104708000Y-136204000D02*
X103378000Y-136204000D01*
X104708000Y-134874000D02*
X104708000Y-136204000D01*
X104708000Y-133604000D02*
X104708000Y-123384000D01*
X104708000Y-133604000D02*
X102048000Y-133604000D01*
X104708000Y-123384000D02*
X102048000Y-123384000D01*
X102048000Y-133604000D02*
X102048000Y-123384000D01*
%TO.C,R2*%
X160177564Y-99208000D02*
X158723436Y-99208000D01*
X160177564Y-97388000D02*
X158723436Y-97388000D01*
%TO.C,L1*%
X134292758Y-122280000D02*
X135963242Y-122280000D01*
X134292758Y-124100000D02*
X135963242Y-124100000D01*
%TO.C,Q1*%
X124242000Y-133350000D02*
X124242000Y-131550000D01*
X124242000Y-133350000D02*
X124242000Y-134150000D01*
X121122000Y-133350000D02*
X121122000Y-132550000D01*
X121122000Y-133350000D02*
X121122000Y-134150000D01*
%TO.C,U4*%
X151768000Y-131470000D02*
X146193000Y-131470000D01*
X151768000Y-131470000D02*
X154053000Y-131470000D01*
X151768000Y-136500000D02*
X149483000Y-136500000D01*
X151768000Y-136500000D02*
X154053000Y-136500000D01*
%TO.C,R30*%
X96310500Y-68037064D02*
X96310500Y-66582936D01*
X98130500Y-68037064D02*
X98130500Y-66582936D01*
%TO.C,R11*%
X142844436Y-126090000D02*
X144298564Y-126090000D01*
X142844436Y-127910000D02*
X144298564Y-127910000D01*
%TO.C,C3*%
X157332000Y-94437252D02*
X157332000Y-93014748D01*
X159152000Y-94437252D02*
X159152000Y-93014748D01*
%TO.C,C5*%
X140060000Y-134823252D02*
X140060000Y-133400748D01*
X141880000Y-134823252D02*
X141880000Y-133400748D01*
%TO.C,R23*%
X153196936Y-116184000D02*
X154651064Y-116184000D01*
X153196936Y-118004000D02*
X154651064Y-118004000D01*
%TO.C,C1*%
X111400000Y-70154748D02*
X111400000Y-71577252D01*
X109580000Y-70154748D02*
X109580000Y-71577252D01*
%TO.C,J3*%
X152340000Y-56328000D02*
X153670000Y-56328000D01*
X152340000Y-57658000D02*
X152340000Y-56328000D01*
X152340000Y-58928000D02*
X152340000Y-81848000D01*
X152340000Y-58928000D02*
X155000000Y-58928000D01*
X152340000Y-81848000D02*
X155000000Y-81848000D01*
X155000000Y-58928000D02*
X155000000Y-81848000D01*
%TO.C,R5*%
X151926936Y-97134000D02*
X153381064Y-97134000D01*
X151926936Y-98954000D02*
X153381064Y-98954000D01*
%TO.C,TP4*%
X106360000Y-65786000D02*
G75*
G03*
X106360000Y-65786000I-950000J0D01*
G01*
%TO.C,TP6*%
X104328000Y-109474000D02*
G75*
G03*
X104328000Y-109474000I-950000J0D01*
G01*
%TO.C,R4*%
X153564000Y-102396936D02*
X153564000Y-103851064D01*
X151744000Y-102396936D02*
X151744000Y-103851064D01*
%TO.C,R14*%
X141004936Y-121518000D02*
X142459064Y-121518000D01*
X141004936Y-123338000D02*
X142459064Y-123338000D01*
%TO.C,U3*%
X103672000Y-111408000D02*
X104812000Y-111408000D01*
X104812000Y-111178000D02*
X104812000Y-111408000D01*
X104812000Y-111178000D02*
X107532000Y-111178000D01*
X104812000Y-115898000D02*
X104812000Y-115668000D01*
X107532000Y-111178000D02*
X107532000Y-112488000D01*
X107532000Y-114588000D02*
X107532000Y-115898000D01*
X107532000Y-115898000D02*
X104812000Y-115898000D01*
%TO.C,C9*%
X137158252Y-62632000D02*
X135735748Y-62632000D01*
X137158252Y-60812000D02*
X135735748Y-60812000D01*
D13*
%TO.C,U8*%
X122592000Y-96888500D02*
X122592000Y-100788500D01*
X117692000Y-96888500D02*
X117692000Y-100788500D01*
X122705500Y-95338500D02*
G75*
G03*
X122705500Y-95338500I-63500J0D01*
G01*
D14*
%TO.C,D1*%
X115918000Y-140240000D02*
X121318000Y-140240000D01*
X121318000Y-136620000D02*
X115343000Y-136620000D01*
D12*
%TO.C,R3*%
X114588936Y-73258000D02*
X116043064Y-73258000D01*
X114588936Y-75078000D02*
X116043064Y-75078000D01*
%TO.C,R26*%
X159800936Y-116184000D02*
X161255064Y-116184000D01*
X159800936Y-118004000D02*
X161255064Y-118004000D01*
%TO.C,R10*%
X121762436Y-127614000D02*
X123216564Y-127614000D01*
X121762436Y-129434000D02*
X123216564Y-129434000D01*
%TO.C,TP13*%
X101788000Y-86868000D02*
G75*
G03*
X101788000Y-86868000I-950000J0D01*
G01*
%TO.C,J2*%
X147634000Y-110998000D02*
X147634000Y-52518000D01*
X147634000Y-110998000D02*
X144974000Y-110998000D01*
X147634000Y-52518000D02*
X144974000Y-52518000D01*
X146304000Y-113598000D02*
X144974000Y-113598000D01*
X144974000Y-113598000D02*
X144974000Y-112268000D01*
X144974000Y-110998000D02*
X144974000Y-52518000D01*
%TO.C,R16*%
X122208936Y-122280000D02*
X123663064Y-122280000D01*
X122208936Y-124100000D02*
X123663064Y-124100000D01*
%TO.C,R13*%
X155482936Y-126852000D02*
X156937064Y-126852000D01*
X155482936Y-128672000D02*
X156937064Y-128672000D01*
%TO.C,C8*%
X137871252Y-87016000D02*
X136448748Y-87016000D01*
X137871252Y-85196000D02*
X136448748Y-85196000D01*
%TO.C,SW1*%
X119182000Y-61226000D02*
X119182000Y-62726000D01*
X120432000Y-65226000D02*
X124932000Y-65226000D01*
X124932000Y-58726000D02*
X120432000Y-58726000D01*
X126182000Y-62726000D02*
X126182000Y-61226000D01*
%TO.C,TP8*%
X117028000Y-134620000D02*
G75*
G03*
X117028000Y-134620000I-950000J0D01*
G01*
%TO.C,R21*%
X139988936Y-140060000D02*
X141443064Y-140060000D01*
X139988936Y-141880000D02*
X141443064Y-141880000D01*
%TO.C,R25*%
X112350500Y-99287436D02*
X112350500Y-100741564D01*
X110530500Y-99287436D02*
X110530500Y-100741564D01*
%TO.C,R6*%
X156435936Y-111104000D02*
X157890064Y-111104000D01*
X156435936Y-112924000D02*
X157890064Y-112924000D01*
%TO.C,C4*%
X159872000Y-94437252D02*
X159872000Y-93014748D01*
X161692000Y-94437252D02*
X161692000Y-93014748D01*
%TO.C,R9*%
X143150000Y-96808936D02*
X143150000Y-98263064D01*
X141330000Y-96808936D02*
X141330000Y-98263064D01*
%TO.C,C10*%
X118258000Y-127558748D02*
X118258000Y-128981252D01*
X116438000Y-127558748D02*
X116438000Y-128981252D01*
%TO.C,R8*%
X125002936Y-137520000D02*
X126457064Y-137520000D01*
X125002936Y-139340000D02*
X126457064Y-139340000D01*
%TO.C,R19*%
X123719000Y-106968936D02*
X123719000Y-108423064D01*
X121899000Y-106968936D02*
X121899000Y-108423064D01*
%TO.C,R31*%
X163682000Y-82322564D02*
X163682000Y-80868436D01*
X165502000Y-82322564D02*
X165502000Y-80868436D01*
%TO.C,U2*%
X154850000Y-105591000D02*
X154850000Y-104991000D01*
X155150000Y-102871000D02*
X154850000Y-102871000D01*
X155150000Y-105591000D02*
X154850000Y-105591000D01*
X157270000Y-102871000D02*
X157570000Y-102871000D01*
X157270000Y-105591000D02*
X157570000Y-105591000D01*
X157570000Y-102871000D02*
X157570000Y-103471000D01*
X157570000Y-105591000D02*
X157570000Y-104991000D01*
%TO.C,TP7*%
X133792000Y-135636000D02*
G75*
G03*
X133792000Y-135636000I-950000J0D01*
G01*
%TO.C,D4*%
X147359000Y-139981000D02*
X147359000Y-141451000D01*
X147359000Y-141451000D02*
X149644000Y-141451000D01*
X149644000Y-139981000D02*
X147359000Y-139981000D01*
%TO.C,R20*%
X98332936Y-108818000D02*
X99787064Y-108818000D01*
X98332936Y-110638000D02*
X99787064Y-110638000D01*
%TO.C,TP5*%
X127950000Y-72136000D02*
G75*
G03*
X127950000Y-72136000I-950000J0D01*
G01*
%TO.C,TP1*%
X163510000Y-111760000D02*
G75*
G03*
X163510000Y-111760000I-950000J0D01*
G01*
D14*
%TO.C,Q2*%
X148632000Y-126700000D02*
G75*
G03*
X148632000Y-126700000I-150000J0D01*
G01*
%TO.C,BT1*%
X178054000Y-63168000D02*
X178054000Y-59168000D01*
X175954000Y-61168000D02*
X179954000Y-61168000D01*
D12*
%TO.C,C6*%
X132948000Y-143967252D02*
X132948000Y-142544748D01*
X134768000Y-143967252D02*
X134768000Y-142544748D01*
%TO.C,TP2*%
X163764000Y-102362000D02*
G75*
G03*
X163764000Y-102362000I-950000J0D01*
G01*
%TO.C,TP12*%
X114361000Y-108904500D02*
G75*
G03*
X114361000Y-108904500I-950000J0D01*
G01*
%TO.C,R27*%
X151278000Y-85825436D02*
X151278000Y-87279564D01*
X149458000Y-85825436D02*
X149458000Y-87279564D01*
%TO.C,R29*%
X158530936Y-82910000D02*
X159985064Y-82910000D01*
X158530936Y-84730000D02*
X159985064Y-84730000D01*
D13*
%TO.C,U7*%
X136201000Y-128108000D02*
X138201000Y-128108000D01*
X136201000Y-130488000D02*
X138201000Y-130488000D01*
D14*
X135501000Y-128536000D02*
G75*
G03*
X135501000Y-128536000I-100000J0D01*
G01*
D12*
%TO.C,R12*%
X155544436Y-139806000D02*
X156998564Y-139806000D01*
X155544436Y-141626000D02*
X156998564Y-141626000D01*
%TO.C,J5*%
X92854000Y-84516000D02*
X90364000Y-84516000D01*
X95294000Y-86661000D02*
X95294000Y-87461000D01*
X94844000Y-87061000D02*
X95294000Y-86661000D01*
X95294000Y-87461000D02*
X94844000Y-87061000D01*
X92854000Y-92206000D02*
X90364000Y-92206000D01*
%TO.C,C2*%
X119994000Y-71118252D02*
X119994000Y-69695748D01*
X121814000Y-71118252D02*
X121814000Y-69695748D01*
%TD*%
%LPC*%
%TO.C,U7*%
G36*
X137221000Y-128993000D02*
G01*
X135931000Y-128993000D01*
X135931000Y-128503000D01*
X137221000Y-128503000D01*
X137221000Y-128993000D01*
G37*
D16*
X137221000Y-128993000D02*
X135931000Y-128993000D01*
X135931000Y-128503000D01*
X137221000Y-128503000D01*
X137221000Y-128993000D01*
G36*
X137521000Y-129468000D02*
G01*
X135931000Y-129468000D01*
X135931000Y-129128000D01*
X137521000Y-129128000D01*
X137521000Y-129468000D01*
G37*
X137521000Y-129468000D02*
X135931000Y-129468000D01*
X135931000Y-129128000D01*
X137521000Y-129128000D01*
X137521000Y-129468000D01*
G36*
X137221000Y-130093000D02*
G01*
X135931000Y-130093000D01*
X135931000Y-129603000D01*
X137221000Y-129603000D01*
X137221000Y-130093000D01*
G37*
X137221000Y-130093000D02*
X135931000Y-130093000D01*
X135931000Y-129603000D01*
X137221000Y-129603000D01*
X137221000Y-130093000D01*
G36*
X138471000Y-128743000D02*
G01*
X137881000Y-128743000D01*
X137881000Y-128353000D01*
X138471000Y-128353000D01*
X138471000Y-128743000D01*
G37*
X138471000Y-128743000D02*
X137881000Y-128743000D01*
X137881000Y-128353000D01*
X138471000Y-128353000D01*
X138471000Y-128743000D01*
G36*
X138471000Y-129243000D02*
G01*
X137881000Y-129243000D01*
X137881000Y-128853000D01*
X138471000Y-128853000D01*
X138471000Y-129243000D01*
G37*
X138471000Y-129243000D02*
X137881000Y-129243000D01*
X137881000Y-128853000D01*
X138471000Y-128853000D01*
X138471000Y-129243000D01*
G36*
X138471000Y-129743000D02*
G01*
X137881000Y-129743000D01*
X137881000Y-129353000D01*
X138471000Y-129353000D01*
X138471000Y-129743000D01*
G37*
X138471000Y-129743000D02*
X137881000Y-129743000D01*
X137881000Y-129353000D01*
X138471000Y-129353000D01*
X138471000Y-129743000D01*
G36*
X138471000Y-130243000D02*
G01*
X137881000Y-130243000D01*
X137881000Y-129853000D01*
X138471000Y-129853000D01*
X138471000Y-130243000D01*
G37*
X138471000Y-130243000D02*
X137881000Y-130243000D01*
X137881000Y-129853000D01*
X138471000Y-129853000D01*
X138471000Y-130243000D01*
%TD*%
D17*
%TO.C,R28*%
X157795500Y-80530000D03*
X160720500Y-80530000D03*
%TD*%
D18*
%TO.C,U5*%
X111615000Y-82639000D03*
X111165000Y-82639000D03*
X110715000Y-82639000D03*
X110265000Y-82639000D03*
X109815000Y-82639000D03*
X109365000Y-82639000D03*
X109365000Y-85509000D03*
X109815000Y-85509000D03*
X110265000Y-85509000D03*
X110715000Y-85509000D03*
X111165000Y-85509000D03*
X111615000Y-85509000D03*
D19*
X110489999Y-84073999D03*
%TD*%
D20*
%TO.C,R22*%
X142240000Y-104078500D03*
X142240000Y-101153500D03*
%TD*%
D21*
%TO.C,U1*%
X114685999Y-70327999D03*
X114685999Y-70977999D03*
X114685999Y-71627999D03*
X116585999Y-71627999D03*
X116585999Y-70327999D03*
%TD*%
D17*
%TO.C,R1*%
X109535500Y-60960000D03*
X112460500Y-60960000D03*
%TD*%
D22*
%TO.C,J1*%
X131772999Y-53857999D03*
D23*
X131772999Y-56397999D03*
X131772999Y-58937999D03*
X131772999Y-61477999D03*
X131772999Y-64017999D03*
X131772999Y-66557999D03*
X131772999Y-69097999D03*
X131772999Y-71637999D03*
X131772999Y-74177999D03*
X131772999Y-76717999D03*
X131772999Y-79257999D03*
X131772999Y-81797999D03*
X131772999Y-84337999D03*
X131772999Y-86877999D03*
X131772999Y-89417999D03*
X131772999Y-91957999D03*
X131772999Y-94497999D03*
X131772999Y-97037999D03*
X131772999Y-99577999D03*
X131772999Y-102117999D03*
X131772999Y-104657999D03*
X131772999Y-107197999D03*
X131772999Y-109737999D03*
X131772999Y-112277999D03*
%TD*%
D17*
%TO.C,R7*%
X152461500Y-109728000D03*
X155386500Y-109728000D03*
%TD*%
D24*
%TO.C,C7*%
X97331000Y-113792000D03*
X100281000Y-113792000D03*
%TD*%
D25*
%TO.C,TP14*%
X102362000Y-80010000D03*
%TD*%
%TO.C,TP3*%
X152654000Y-90932000D03*
%TD*%
D26*
%TO.C,R18*%
X119253000Y-106235000D03*
X119253000Y-109160000D03*
%TD*%
D17*
%TO.C,R24*%
X99822000Y-75692000D03*
X102747000Y-75692000D03*
%TD*%
D25*
%TO.C,TP11*%
X125730000Y-102140500D03*
%TD*%
D27*
%TO.C,D2*%
X162788500Y-127254000D03*
X164363500Y-127254000D03*
%TD*%
D17*
%TO.C,R17*%
X127823500Y-122936000D03*
X130748500Y-122936000D03*
%TD*%
D28*
%TO.C,IC1*%
X130621999Y-131093999D03*
X131571999Y-131093999D03*
X132521999Y-131093999D03*
X132521999Y-128493999D03*
X131571999Y-128493999D03*
X130621999Y-128493999D03*
%TD*%
D29*
%TO.C,Y1*%
X136905999Y-79343499D03*
X136905999Y-67468499D03*
%TD*%
D17*
%TO.C,R32*%
X112583500Y-66548000D03*
X115508500Y-66548000D03*
%TD*%
%TO.C,R15*%
X146111500Y-122428000D03*
X149036500Y-122428000D03*
%TD*%
D24*
%TO.C,C11*%
X152449000Y-122174000D03*
X155399000Y-122174000D03*
%TD*%
D22*
%TO.C,J4*%
X103377999Y-134873999D03*
D23*
X103377999Y-132333999D03*
X103377999Y-129793999D03*
X103377999Y-127253999D03*
X103377999Y-124713999D03*
%TD*%
D30*
%TO.C,R2*%
X160913000Y-98298000D03*
X157988000Y-98298000D03*
%TD*%
D31*
%TO.C,L1*%
X133553000Y-123190000D03*
X136703000Y-123190000D03*
%TD*%
D32*
%TO.C,Q1*%
X123632000Y-132212500D03*
X122682000Y-132212500D03*
X121732000Y-132212500D03*
X121732000Y-134487500D03*
X122682000Y-134487500D03*
X123632000Y-134487500D03*
%TD*%
D33*
%TO.C,U4*%
X147618000Y-132080000D03*
X147618000Y-133350000D03*
X147618000Y-134620000D03*
X147618000Y-135890000D03*
X155918000Y-135890000D03*
X155918000Y-134620000D03*
X155918000Y-133350000D03*
X155918000Y-132080000D03*
D34*
X151767999Y-133984999D03*
%TD*%
D20*
%TO.C,R30*%
X97220500Y-68772500D03*
X97220500Y-65847500D03*
%TD*%
D17*
%TO.C,R11*%
X142109000Y-127000000D03*
X145034000Y-127000000D03*
%TD*%
D35*
%TO.C,C3*%
X158242000Y-95201000D03*
X158242000Y-92251000D03*
%TD*%
%TO.C,C5*%
X140970000Y-135587000D03*
X140970000Y-132637000D03*
%TD*%
D17*
%TO.C,R23*%
X152461500Y-117094000D03*
X155386500Y-117094000D03*
%TD*%
D36*
%TO.C,C1*%
X110490000Y-69391000D03*
X110490000Y-72341000D03*
%TD*%
D22*
%TO.C,J3*%
X153669999Y-57657999D03*
D23*
X153669999Y-60197999D03*
X153669999Y-62737999D03*
X153669999Y-65277999D03*
X153669999Y-67817999D03*
X153669999Y-70357999D03*
X153669999Y-72897999D03*
X153669999Y-75437999D03*
X153669999Y-77977999D03*
X153669999Y-80517999D03*
%TD*%
D17*
%TO.C,R5*%
X151191500Y-98044000D03*
X154116500Y-98044000D03*
%TD*%
D25*
%TO.C,TP4*%
X105410000Y-65786000D03*
%TD*%
%TO.C,TP6*%
X103378000Y-109474000D03*
%TD*%
D26*
%TO.C,R4*%
X152654000Y-101661500D03*
X152654000Y-104586500D03*
%TD*%
D17*
%TO.C,R14*%
X140269500Y-122428000D03*
X143194500Y-122428000D03*
%TD*%
D37*
%TO.C,U3*%
X104221999Y-112037999D03*
D38*
X104309500Y-113538000D03*
D37*
X104221999Y-115037999D03*
%TD*%
D39*
%TO.C,C9*%
X137922000Y-61722000D03*
X134972000Y-61722000D03*
%TD*%
D40*
%TO.C,U8*%
X122046999Y-96138499D03*
X120776999Y-96138499D03*
X119506999Y-96138499D03*
X118236999Y-96138499D03*
X118236999Y-101538499D03*
X119506999Y-101538499D03*
X120776999Y-101538499D03*
X122046999Y-101538499D03*
%TD*%
D41*
%TO.C,D1*%
X116417999Y-138429999D03*
X120817999Y-138429999D03*
%TD*%
D17*
%TO.C,R3*%
X113853500Y-74168000D03*
X116778500Y-74168000D03*
%TD*%
%TO.C,R26*%
X159065500Y-117094000D03*
X161990500Y-117094000D03*
%TD*%
%TO.C,R10*%
X121027000Y-128524000D03*
X123952000Y-128524000D03*
%TD*%
D25*
%TO.C,TP13*%
X100838000Y-86868000D03*
%TD*%
D22*
%TO.C,J2*%
X146303999Y-112267999D03*
D23*
X146303999Y-109727999D03*
X146303999Y-107187999D03*
X146303999Y-104647999D03*
X146303999Y-102107999D03*
X146303999Y-99567999D03*
X146303999Y-97027999D03*
X146303999Y-94487999D03*
X146303999Y-91947999D03*
X146303999Y-89407999D03*
X146303999Y-86867999D03*
X146303999Y-84327999D03*
X146303999Y-81787999D03*
X146303999Y-79247999D03*
X146303999Y-76707999D03*
X146303999Y-74167999D03*
X146303999Y-71627999D03*
X146303999Y-69087999D03*
X146303999Y-66547999D03*
X146303999Y-64007999D03*
X146303999Y-61467999D03*
X146303999Y-58927999D03*
X146303999Y-56387999D03*
X146303999Y-53847999D03*
%TD*%
D17*
%TO.C,R16*%
X121473500Y-123190000D03*
X124398500Y-123190000D03*
%TD*%
%TO.C,R13*%
X154747500Y-127762000D03*
X157672500Y-127762000D03*
%TD*%
D39*
%TO.C,C8*%
X138635000Y-86106000D03*
X135685000Y-86106000D03*
%TD*%
D42*
%TO.C,SW1*%
X119432000Y-59726000D03*
X125932000Y-59726000D03*
X119432000Y-64226000D03*
X125932000Y-64226000D03*
%TD*%
D25*
%TO.C,TP8*%
X116078000Y-134620000D03*
%TD*%
D17*
%TO.C,R21*%
X139253500Y-140970000D03*
X142178500Y-140970000D03*
%TD*%
D26*
%TO.C,R25*%
X111440500Y-98552000D03*
X111440500Y-101477000D03*
%TD*%
D17*
%TO.C,R6*%
X155700500Y-112014000D03*
X158625500Y-112014000D03*
%TD*%
D35*
%TO.C,C4*%
X160782000Y-95201000D03*
X160782000Y-92251000D03*
%TD*%
D26*
%TO.C,R9*%
X142240000Y-96073500D03*
X142240000Y-98998500D03*
%TD*%
D36*
%TO.C,C10*%
X117348000Y-126795000D03*
X117348000Y-129745000D03*
%TD*%
D17*
%TO.C,R8*%
X124267500Y-138430000D03*
X127192500Y-138430000D03*
%TD*%
D26*
%TO.C,R19*%
X122809000Y-106233500D03*
X122809000Y-109158500D03*
%TD*%
D20*
%TO.C,R31*%
X164592000Y-83058000D03*
X164592000Y-80133000D03*
%TD*%
D43*
%TO.C,U2*%
X155285000Y-103931000D03*
X155285000Y-104531000D03*
D44*
X155610000Y-105156000D03*
X156210000Y-105156000D03*
X156810000Y-105156000D03*
D43*
X157135000Y-104531000D03*
X157135000Y-103931000D03*
D44*
X156810000Y-103306000D03*
X156210000Y-103306000D03*
X155610000Y-103306000D03*
%TD*%
D25*
%TO.C,TP7*%
X132842000Y-135636000D03*
%TD*%
D27*
%TO.C,D4*%
X148056500Y-140716000D03*
X149631500Y-140716000D03*
%TD*%
D17*
%TO.C,R20*%
X97597500Y-109728000D03*
X100522500Y-109728000D03*
%TD*%
D25*
%TO.C,TP5*%
X127000000Y-72136000D03*
%TD*%
%TO.C,TP1*%
X162560000Y-111760000D03*
%TD*%
D45*
%TO.C,Q2*%
X149351999Y-126825999D03*
X149351999Y-127174999D03*
D46*
X150011999Y-126999999D03*
%TD*%
D42*
%TO.C,BT1*%
X178054000Y-53368000D03*
X178054000Y-124968000D03*
%TD*%
D35*
%TO.C,C6*%
X133858000Y-144731000D03*
X133858000Y-141781000D03*
%TD*%
D25*
%TO.C,TP2*%
X162814000Y-102362000D03*
%TD*%
%TO.C,TP12*%
X113411000Y-108904500D03*
%TD*%
D26*
%TO.C,R27*%
X150368000Y-85090000D03*
X150368000Y-88015000D03*
%TD*%
D17*
%TO.C,R29*%
X157795500Y-83820000D03*
X160720500Y-83820000D03*
%TD*%
%TO.C,R12*%
X154809000Y-140716000D03*
X157734000Y-140716000D03*
%TD*%
D47*
%TO.C,J5*%
X93654000Y-86361000D03*
X93654000Y-90361000D03*
D48*
X93978999Y-87060999D03*
X93978999Y-87710999D03*
X93978999Y-88360999D03*
X93978999Y-89010999D03*
X93978999Y-89660999D03*
D49*
X93854000Y-85261000D03*
D50*
X91303999Y-85535999D03*
D51*
X91303999Y-87160999D03*
X91303999Y-89560999D03*
D52*
X91303999Y-91185999D03*
D53*
X93854000Y-91461000D03*
%TD*%
D35*
%TO.C,C2*%
X120904000Y-71882000D03*
X120904000Y-68932000D03*
%TD*%
M02*
