M48
; DRILL file {KiCad (7.0.0)} date Mon Apr 24 23:57:33 2023
; FORMAT={-:-/ absolute / inch / decimal}
; #@! TF.CreationDate,2023-04-24T23:57:33+02:00
; #@! TF.GenerationSoftware,Kicad,Pcbnew,(7.0.0)
; #@! TF.FileFunction,Plated,1,2,PTH
FMAT,2
INCH
; #@! TA.AperFunction,Plated,PTH,ViaDrill
T1C0.0118
; #@! TA.AperFunction,Plated,PTH,ComponentDrill
T2C0.0197
; #@! TA.AperFunction,Plated,PTH,ComponentDrill
T3C0.0394
; #@! TA.AperFunction,Plated,PTH,ComponentDrill
T4C0.0433
%
G90
G05
T1
X3.9769Y-2.9899
X4.0343Y-3.5043
X4.1005Y-2.98
X4.1064Y-3.2161
X4.1763Y-3.448
X4.1763Y-3.8419
X4.2677Y-3.3534
X4.3337Y-3.4448
X4.3438Y-3.53
X4.3589Y-3.397
X4.3674Y-4.47
X4.386Y-3.3979
X4.386Y-3.9584
X4.5526Y-2.7688
X4.5622Y-2.82
X4.9158Y-2.5651
X4.9364Y-4.5541
X5.0381Y-2.9
X5.0732Y-4.0598
X5.1019Y-2.4599
X5.1019Y-3.9592
X5.14Y-5.39
X5.1719Y-5.2025
X5.1927Y-4.8323
X5.2475Y-5.0273
X5.2475Y-5.2518
X5.2516Y-4.9803
X5.3063Y-5.3006
X5.3164Y-3.2052
X5.3218Y-4.887
X5.3218Y-5.0807
X5.3341Y-5.1069
X5.3371Y-5.3111
X5.3557Y-5.0475
X5.3587Y-5.1612
X5.3587Y-5.3705
X5.4664Y-5.12
X5.4878Y-5.0318
X5.4878Y-5.2505
X5.5698Y-5.0473
X5.6674Y-3.9617
X5.6859Y-3.8169
X5.8195Y-2.6523
X5.8914Y-3.1266
X5.9225Y-3.313
X6.0315Y-3.8612
X6.137Y-2.981
X6.137Y-3.8403
T3
X4.07Y-4.91
X4.07Y-5.01
X4.07Y-5.11
X4.07Y-5.21
X4.07Y-5.31
X5.1879Y-2.1204
X5.1879Y-2.2204
X5.1879Y-2.3204
X5.1879Y-2.4204
X5.1879Y-2.5204
X5.1879Y-2.6204
X5.1879Y-2.7204
X5.1879Y-2.8204
X5.1879Y-2.9204
X5.1879Y-3.0204
X5.1879Y-3.1204
X5.1879Y-3.2204
X5.1879Y-3.3204
X5.1879Y-3.4204
X5.1879Y-3.5204
X5.1879Y-3.6204
X5.1879Y-3.7204
X5.1879Y-3.8204
X5.1879Y-3.9204
X5.1879Y-4.0204
X5.1879Y-4.1204
X5.1879Y-4.2204
X5.1879Y-4.3204
X5.1879Y-4.4204
X5.76Y-2.12
X5.76Y-2.22
X5.76Y-2.32
X5.76Y-2.42
X5.76Y-2.52
X5.76Y-2.62
X5.76Y-2.72
X5.76Y-2.82
X5.76Y-2.92
X5.76Y-3.02
X5.76Y-3.12
X5.76Y-3.22
X5.76Y-3.32
X5.76Y-3.42
X5.76Y-3.52
X5.76Y-3.62
X5.76Y-3.72
X5.76Y-3.82
X5.76Y-3.92
X5.76Y-4.02
X5.76Y-4.12
X5.76Y-4.22
X5.76Y-4.32
X5.76Y-4.42
X6.05Y-2.27
X6.05Y-2.37
X6.05Y-2.47
X6.05Y-2.57
X6.05Y-2.67
X6.05Y-2.77
X6.05Y-2.87
X6.05Y-2.97
X6.05Y-3.07
X6.05Y-3.17
X7.01Y-2.1011
X7.01Y-4.92
T4
X4.702Y-2.3514
X4.702Y-2.5286
X4.958Y-2.3514
X4.958Y-2.5286
T2
G00X3.6084Y-3.3676
M15
G01X3.5809Y-3.3676
M16
G05
G00X3.6084Y-3.59
M15
G01X3.5809Y-3.59
M16
G05
T0
M30
