%TF.GenerationSoftware,KiCad,Pcbnew,(7.0.0)*%
%TF.CreationDate,2023-03-21T00:44:08+02:00*%
%TF.ProjectId,main_v0.6,6d61696e-5f76-4302-9e36-2e6b69636164,rev?*%
%TF.SameCoordinates,Original*%
%TF.FileFunction,Legend,Top*%
%TF.FilePolarity,Positive*%
%FSLAX46Y46*%
G04 Gerber Fmt 4.6, Leading zero omitted, Abs format (unit mm)*
G04 Created by KiCad (PCBNEW (7.0.0)) date 2023-03-21 00:44:08*
%MOMM*%
%LPD*%
G01*
G04 APERTURE LIST*
%ADD10C,0.150000*%
%ADD11C,0.120000*%
%ADD12C,0.127000*%
%ADD13C,0.200000*%
%ADD14C,0.152400*%
G04 APERTURE END LIST*
D10*
%TO.C,R17*%
X164457142Y-81351380D02*
X164123809Y-80875190D01*
X163885714Y-81351380D02*
X163885714Y-80351380D01*
X163885714Y-80351380D02*
X164266666Y-80351380D01*
X164266666Y-80351380D02*
X164361904Y-80399000D01*
X164361904Y-80399000D02*
X164409523Y-80446619D01*
X164409523Y-80446619D02*
X164457142Y-80541857D01*
X164457142Y-80541857D02*
X164457142Y-80684714D01*
X164457142Y-80684714D02*
X164409523Y-80779952D01*
X164409523Y-80779952D02*
X164361904Y-80827571D01*
X164361904Y-80827571D02*
X164266666Y-80875190D01*
X164266666Y-80875190D02*
X163885714Y-80875190D01*
X165409523Y-81351380D02*
X164838095Y-81351380D01*
X165123809Y-81351380D02*
X165123809Y-80351380D01*
X165123809Y-80351380D02*
X165028571Y-80494238D01*
X165028571Y-80494238D02*
X164933333Y-80589476D01*
X164933333Y-80589476D02*
X164838095Y-80637095D01*
X165742857Y-80351380D02*
X166409523Y-80351380D01*
X166409523Y-80351380D02*
X165980952Y-81351380D01*
%TO.C,U5*%
X99481095Y-84358380D02*
X99481095Y-85167904D01*
X99481095Y-85167904D02*
X99528714Y-85263142D01*
X99528714Y-85263142D02*
X99576333Y-85310761D01*
X99576333Y-85310761D02*
X99671571Y-85358380D01*
X99671571Y-85358380D02*
X99862047Y-85358380D01*
X99862047Y-85358380D02*
X99957285Y-85310761D01*
X99957285Y-85310761D02*
X100004904Y-85263142D01*
X100004904Y-85263142D02*
X100052523Y-85167904D01*
X100052523Y-85167904D02*
X100052523Y-84358380D01*
X101004904Y-84358380D02*
X100528714Y-84358380D01*
X100528714Y-84358380D02*
X100481095Y-84834571D01*
X100481095Y-84834571D02*
X100528714Y-84786952D01*
X100528714Y-84786952D02*
X100623952Y-84739333D01*
X100623952Y-84739333D02*
X100862047Y-84739333D01*
X100862047Y-84739333D02*
X100957285Y-84786952D01*
X100957285Y-84786952D02*
X101004904Y-84834571D01*
X101004904Y-84834571D02*
X101052523Y-84929809D01*
X101052523Y-84929809D02*
X101052523Y-85167904D01*
X101052523Y-85167904D02*
X101004904Y-85263142D01*
X101004904Y-85263142D02*
X100957285Y-85310761D01*
X100957285Y-85310761D02*
X100862047Y-85358380D01*
X100862047Y-85358380D02*
X100623952Y-85358380D01*
X100623952Y-85358380D02*
X100528714Y-85310761D01*
X100528714Y-85310761D02*
X100481095Y-85263142D01*
%TO.C,U1*%
X107508095Y-83964880D02*
X107508095Y-84774404D01*
X107508095Y-84774404D02*
X107555714Y-84869642D01*
X107555714Y-84869642D02*
X107603333Y-84917261D01*
X107603333Y-84917261D02*
X107698571Y-84964880D01*
X107698571Y-84964880D02*
X107889047Y-84964880D01*
X107889047Y-84964880D02*
X107984285Y-84917261D01*
X107984285Y-84917261D02*
X108031904Y-84869642D01*
X108031904Y-84869642D02*
X108079523Y-84774404D01*
X108079523Y-84774404D02*
X108079523Y-83964880D01*
X109079523Y-84964880D02*
X108508095Y-84964880D01*
X108793809Y-84964880D02*
X108793809Y-83964880D01*
X108793809Y-83964880D02*
X108698571Y-84107738D01*
X108698571Y-84107738D02*
X108603333Y-84202976D01*
X108603333Y-84202976D02*
X108508095Y-84250595D01*
%TO.C,R1*%
X110768333Y-90377380D02*
X110435000Y-89901190D01*
X110196905Y-90377380D02*
X110196905Y-89377380D01*
X110196905Y-89377380D02*
X110577857Y-89377380D01*
X110577857Y-89377380D02*
X110673095Y-89425000D01*
X110673095Y-89425000D02*
X110720714Y-89472619D01*
X110720714Y-89472619D02*
X110768333Y-89567857D01*
X110768333Y-89567857D02*
X110768333Y-89710714D01*
X110768333Y-89710714D02*
X110720714Y-89805952D01*
X110720714Y-89805952D02*
X110673095Y-89853571D01*
X110673095Y-89853571D02*
X110577857Y-89901190D01*
X110577857Y-89901190D02*
X110196905Y-89901190D01*
X111720714Y-90377380D02*
X111149286Y-90377380D01*
X111435000Y-90377380D02*
X111435000Y-89377380D01*
X111435000Y-89377380D02*
X111339762Y-89520238D01*
X111339762Y-89520238D02*
X111244524Y-89615476D01*
X111244524Y-89615476D02*
X111149286Y-89663095D01*
%TO.C,J1*%
X172816666Y-37677380D02*
X172816666Y-38391666D01*
X172816666Y-38391666D02*
X172769047Y-38534523D01*
X172769047Y-38534523D02*
X172673809Y-38629761D01*
X172673809Y-38629761D02*
X172530952Y-38677380D01*
X172530952Y-38677380D02*
X172435714Y-38677380D01*
X173816666Y-38677380D02*
X173245238Y-38677380D01*
X173530952Y-38677380D02*
X173530952Y-37677380D01*
X173530952Y-37677380D02*
X173435714Y-37820238D01*
X173435714Y-37820238D02*
X173340476Y-37915476D01*
X173340476Y-37915476D02*
X173245238Y-37963095D01*
%TO.C,R7*%
X127532333Y-95457380D02*
X127199000Y-94981190D01*
X126960905Y-95457380D02*
X126960905Y-94457380D01*
X126960905Y-94457380D02*
X127341857Y-94457380D01*
X127341857Y-94457380D02*
X127437095Y-94505000D01*
X127437095Y-94505000D02*
X127484714Y-94552619D01*
X127484714Y-94552619D02*
X127532333Y-94647857D01*
X127532333Y-94647857D02*
X127532333Y-94790714D01*
X127532333Y-94790714D02*
X127484714Y-94885952D01*
X127484714Y-94885952D02*
X127437095Y-94933571D01*
X127437095Y-94933571D02*
X127341857Y-94981190D01*
X127341857Y-94981190D02*
X126960905Y-94981190D01*
X127865667Y-94457380D02*
X128532333Y-94457380D01*
X128532333Y-94457380D02*
X128103762Y-95457380D01*
%TO.C,R15*%
X147851642Y-74361380D02*
X147518309Y-73885190D01*
X147280214Y-74361380D02*
X147280214Y-73361380D01*
X147280214Y-73361380D02*
X147661166Y-73361380D01*
X147661166Y-73361380D02*
X147756404Y-73409000D01*
X147756404Y-73409000D02*
X147804023Y-73456619D01*
X147804023Y-73456619D02*
X147851642Y-73551857D01*
X147851642Y-73551857D02*
X147851642Y-73694714D01*
X147851642Y-73694714D02*
X147804023Y-73789952D01*
X147804023Y-73789952D02*
X147756404Y-73837571D01*
X147756404Y-73837571D02*
X147661166Y-73885190D01*
X147661166Y-73885190D02*
X147280214Y-73885190D01*
X148804023Y-74361380D02*
X148232595Y-74361380D01*
X148518309Y-74361380D02*
X148518309Y-73361380D01*
X148518309Y-73361380D02*
X148423071Y-73504238D01*
X148423071Y-73504238D02*
X148327833Y-73599476D01*
X148327833Y-73599476D02*
X148232595Y-73647095D01*
X149708785Y-73361380D02*
X149232595Y-73361380D01*
X149232595Y-73361380D02*
X149184976Y-73837571D01*
X149184976Y-73837571D02*
X149232595Y-73789952D01*
X149232595Y-73789952D02*
X149327833Y-73742333D01*
X149327833Y-73742333D02*
X149565928Y-73742333D01*
X149565928Y-73742333D02*
X149661166Y-73789952D01*
X149661166Y-73789952D02*
X149708785Y-73837571D01*
X149708785Y-73837571D02*
X149756404Y-73932809D01*
X149756404Y-73932809D02*
X149756404Y-74170904D01*
X149756404Y-74170904D02*
X149708785Y-74266142D01*
X149708785Y-74266142D02*
X149661166Y-74313761D01*
X149661166Y-74313761D02*
X149565928Y-74361380D01*
X149565928Y-74361380D02*
X149327833Y-74361380D01*
X149327833Y-74361380D02*
X149232595Y-74313761D01*
X149232595Y-74313761D02*
X149184976Y-74266142D01*
%TO.C,R18*%
X157408142Y-64595380D02*
X157074809Y-64119190D01*
X156836714Y-64595380D02*
X156836714Y-63595380D01*
X156836714Y-63595380D02*
X157217666Y-63595380D01*
X157217666Y-63595380D02*
X157312904Y-63643000D01*
X157312904Y-63643000D02*
X157360523Y-63690619D01*
X157360523Y-63690619D02*
X157408142Y-63785857D01*
X157408142Y-63785857D02*
X157408142Y-63928714D01*
X157408142Y-63928714D02*
X157360523Y-64023952D01*
X157360523Y-64023952D02*
X157312904Y-64071571D01*
X157312904Y-64071571D02*
X157217666Y-64119190D01*
X157217666Y-64119190D02*
X156836714Y-64119190D01*
X158360523Y-64595380D02*
X157789095Y-64595380D01*
X158074809Y-64595380D02*
X158074809Y-63595380D01*
X158074809Y-63595380D02*
X157979571Y-63738238D01*
X157979571Y-63738238D02*
X157884333Y-63833476D01*
X157884333Y-63833476D02*
X157789095Y-63881095D01*
X158931952Y-64023952D02*
X158836714Y-63976333D01*
X158836714Y-63976333D02*
X158789095Y-63928714D01*
X158789095Y-63928714D02*
X158741476Y-63833476D01*
X158741476Y-63833476D02*
X158741476Y-63785857D01*
X158741476Y-63785857D02*
X158789095Y-63690619D01*
X158789095Y-63690619D02*
X158836714Y-63643000D01*
X158836714Y-63643000D02*
X158931952Y-63595380D01*
X158931952Y-63595380D02*
X159122428Y-63595380D01*
X159122428Y-63595380D02*
X159217666Y-63643000D01*
X159217666Y-63643000D02*
X159265285Y-63690619D01*
X159265285Y-63690619D02*
X159312904Y-63785857D01*
X159312904Y-63785857D02*
X159312904Y-63833476D01*
X159312904Y-63833476D02*
X159265285Y-63928714D01*
X159265285Y-63928714D02*
X159217666Y-63976333D01*
X159217666Y-63976333D02*
X159122428Y-64023952D01*
X159122428Y-64023952D02*
X158931952Y-64023952D01*
X158931952Y-64023952D02*
X158836714Y-64071571D01*
X158836714Y-64071571D02*
X158789095Y-64119190D01*
X158789095Y-64119190D02*
X158741476Y-64214428D01*
X158741476Y-64214428D02*
X158741476Y-64404904D01*
X158741476Y-64404904D02*
X158789095Y-64500142D01*
X158789095Y-64500142D02*
X158836714Y-64547761D01*
X158836714Y-64547761D02*
X158931952Y-64595380D01*
X158931952Y-64595380D02*
X159122428Y-64595380D01*
X159122428Y-64595380D02*
X159217666Y-64547761D01*
X159217666Y-64547761D02*
X159265285Y-64500142D01*
X159265285Y-64500142D02*
X159312904Y-64404904D01*
X159312904Y-64404904D02*
X159312904Y-64214428D01*
X159312904Y-64214428D02*
X159265285Y-64119190D01*
X159265285Y-64119190D02*
X159217666Y-64071571D01*
X159217666Y-64071571D02*
X159122428Y-64023952D01*
%TO.C,R24*%
X108577142Y-95067380D02*
X108243809Y-94591190D01*
X108005714Y-95067380D02*
X108005714Y-94067380D01*
X108005714Y-94067380D02*
X108386666Y-94067380D01*
X108386666Y-94067380D02*
X108481904Y-94115000D01*
X108481904Y-94115000D02*
X108529523Y-94162619D01*
X108529523Y-94162619D02*
X108577142Y-94257857D01*
X108577142Y-94257857D02*
X108577142Y-94400714D01*
X108577142Y-94400714D02*
X108529523Y-94495952D01*
X108529523Y-94495952D02*
X108481904Y-94543571D01*
X108481904Y-94543571D02*
X108386666Y-94591190D01*
X108386666Y-94591190D02*
X108005714Y-94591190D01*
X108958095Y-94162619D02*
X109005714Y-94115000D01*
X109005714Y-94115000D02*
X109100952Y-94067380D01*
X109100952Y-94067380D02*
X109339047Y-94067380D01*
X109339047Y-94067380D02*
X109434285Y-94115000D01*
X109434285Y-94115000D02*
X109481904Y-94162619D01*
X109481904Y-94162619D02*
X109529523Y-94257857D01*
X109529523Y-94257857D02*
X109529523Y-94353095D01*
X109529523Y-94353095D02*
X109481904Y-94495952D01*
X109481904Y-94495952D02*
X108910476Y-95067380D01*
X108910476Y-95067380D02*
X109529523Y-95067380D01*
X110386666Y-94400714D02*
X110386666Y-95067380D01*
X110148571Y-94019761D02*
X109910476Y-94734047D01*
X109910476Y-94734047D02*
X110529523Y-94734047D01*
%TO.C,D2*%
X117495905Y-75255380D02*
X117495905Y-74255380D01*
X117495905Y-74255380D02*
X117734000Y-74255380D01*
X117734000Y-74255380D02*
X117876857Y-74303000D01*
X117876857Y-74303000D02*
X117972095Y-74398238D01*
X117972095Y-74398238D02*
X118019714Y-74493476D01*
X118019714Y-74493476D02*
X118067333Y-74683952D01*
X118067333Y-74683952D02*
X118067333Y-74826809D01*
X118067333Y-74826809D02*
X118019714Y-75017285D01*
X118019714Y-75017285D02*
X117972095Y-75112523D01*
X117972095Y-75112523D02*
X117876857Y-75207761D01*
X117876857Y-75207761D02*
X117734000Y-75255380D01*
X117734000Y-75255380D02*
X117495905Y-75255380D01*
X118448286Y-74350619D02*
X118495905Y-74303000D01*
X118495905Y-74303000D02*
X118591143Y-74255380D01*
X118591143Y-74255380D02*
X118829238Y-74255380D01*
X118829238Y-74255380D02*
X118924476Y-74303000D01*
X118924476Y-74303000D02*
X118972095Y-74350619D01*
X118972095Y-74350619D02*
X119019714Y-74445857D01*
X119019714Y-74445857D02*
X119019714Y-74541095D01*
X119019714Y-74541095D02*
X118972095Y-74683952D01*
X118972095Y-74683952D02*
X118400667Y-75255380D01*
X118400667Y-75255380D02*
X119019714Y-75255380D01*
%TO.C,IC1*%
X100943810Y-65167380D02*
X100943810Y-64167380D01*
X101991428Y-65072142D02*
X101943809Y-65119761D01*
X101943809Y-65119761D02*
X101800952Y-65167380D01*
X101800952Y-65167380D02*
X101705714Y-65167380D01*
X101705714Y-65167380D02*
X101562857Y-65119761D01*
X101562857Y-65119761D02*
X101467619Y-65024523D01*
X101467619Y-65024523D02*
X101420000Y-64929285D01*
X101420000Y-64929285D02*
X101372381Y-64738809D01*
X101372381Y-64738809D02*
X101372381Y-64595952D01*
X101372381Y-64595952D02*
X101420000Y-64405476D01*
X101420000Y-64405476D02*
X101467619Y-64310238D01*
X101467619Y-64310238D02*
X101562857Y-64215000D01*
X101562857Y-64215000D02*
X101705714Y-64167380D01*
X101705714Y-64167380D02*
X101800952Y-64167380D01*
X101800952Y-64167380D02*
X101943809Y-64215000D01*
X101943809Y-64215000D02*
X101991428Y-64262619D01*
X102943809Y-65167380D02*
X102372381Y-65167380D01*
X102658095Y-65167380D02*
X102658095Y-64167380D01*
X102658095Y-64167380D02*
X102562857Y-64310238D01*
X102562857Y-64310238D02*
X102467619Y-64405476D01*
X102467619Y-64405476D02*
X102372381Y-64453095D01*
%TO.C,R16*%
X163476642Y-74361380D02*
X163143309Y-73885190D01*
X162905214Y-74361380D02*
X162905214Y-73361380D01*
X162905214Y-73361380D02*
X163286166Y-73361380D01*
X163286166Y-73361380D02*
X163381404Y-73409000D01*
X163381404Y-73409000D02*
X163429023Y-73456619D01*
X163429023Y-73456619D02*
X163476642Y-73551857D01*
X163476642Y-73551857D02*
X163476642Y-73694714D01*
X163476642Y-73694714D02*
X163429023Y-73789952D01*
X163429023Y-73789952D02*
X163381404Y-73837571D01*
X163381404Y-73837571D02*
X163286166Y-73885190D01*
X163286166Y-73885190D02*
X162905214Y-73885190D01*
X164429023Y-74361380D02*
X163857595Y-74361380D01*
X164143309Y-74361380D02*
X164143309Y-73361380D01*
X164143309Y-73361380D02*
X164048071Y-73504238D01*
X164048071Y-73504238D02*
X163952833Y-73599476D01*
X163952833Y-73599476D02*
X163857595Y-73647095D01*
X165286166Y-73361380D02*
X165095690Y-73361380D01*
X165095690Y-73361380D02*
X165000452Y-73409000D01*
X165000452Y-73409000D02*
X164952833Y-73456619D01*
X164952833Y-73456619D02*
X164857595Y-73599476D01*
X164857595Y-73599476D02*
X164809976Y-73789952D01*
X164809976Y-73789952D02*
X164809976Y-74170904D01*
X164809976Y-74170904D02*
X164857595Y-74266142D01*
X164857595Y-74266142D02*
X164905214Y-74313761D01*
X164905214Y-74313761D02*
X165000452Y-74361380D01*
X165000452Y-74361380D02*
X165190928Y-74361380D01*
X165190928Y-74361380D02*
X165286166Y-74313761D01*
X165286166Y-74313761D02*
X165333785Y-74266142D01*
X165333785Y-74266142D02*
X165381404Y-74170904D01*
X165381404Y-74170904D02*
X165381404Y-73932809D01*
X165381404Y-73932809D02*
X165333785Y-73837571D01*
X165333785Y-73837571D02*
X165286166Y-73789952D01*
X165286166Y-73789952D02*
X165190928Y-73742333D01*
X165190928Y-73742333D02*
X165000452Y-73742333D01*
X165000452Y-73742333D02*
X164905214Y-73789952D01*
X164905214Y-73789952D02*
X164857595Y-73837571D01*
X164857595Y-73837571D02*
X164809976Y-73932809D01*
%TO.C,R2*%
X131176333Y-91384380D02*
X130843000Y-90908190D01*
X130604905Y-91384380D02*
X130604905Y-90384380D01*
X130604905Y-90384380D02*
X130985857Y-90384380D01*
X130985857Y-90384380D02*
X131081095Y-90432000D01*
X131081095Y-90432000D02*
X131128714Y-90479619D01*
X131128714Y-90479619D02*
X131176333Y-90574857D01*
X131176333Y-90574857D02*
X131176333Y-90717714D01*
X131176333Y-90717714D02*
X131128714Y-90812952D01*
X131128714Y-90812952D02*
X131081095Y-90860571D01*
X131081095Y-90860571D02*
X130985857Y-90908190D01*
X130985857Y-90908190D02*
X130604905Y-90908190D01*
X131557286Y-90479619D02*
X131604905Y-90432000D01*
X131604905Y-90432000D02*
X131700143Y-90384380D01*
X131700143Y-90384380D02*
X131938238Y-90384380D01*
X131938238Y-90384380D02*
X132033476Y-90432000D01*
X132033476Y-90432000D02*
X132081095Y-90479619D01*
X132081095Y-90479619D02*
X132128714Y-90574857D01*
X132128714Y-90574857D02*
X132128714Y-90670095D01*
X132128714Y-90670095D02*
X132081095Y-90812952D01*
X132081095Y-90812952D02*
X131509667Y-91384380D01*
X131509667Y-91384380D02*
X132128714Y-91384380D01*
%TO.C,Q1*%
X101504761Y-75187619D02*
X101409523Y-75140000D01*
X101409523Y-75140000D02*
X101314285Y-75044761D01*
X101314285Y-75044761D02*
X101171428Y-74901904D01*
X101171428Y-74901904D02*
X101076190Y-74854285D01*
X101076190Y-74854285D02*
X100980952Y-74854285D01*
X101028571Y-75092380D02*
X100933333Y-75044761D01*
X100933333Y-75044761D02*
X100838095Y-74949523D01*
X100838095Y-74949523D02*
X100790476Y-74759047D01*
X100790476Y-74759047D02*
X100790476Y-74425714D01*
X100790476Y-74425714D02*
X100838095Y-74235238D01*
X100838095Y-74235238D02*
X100933333Y-74140000D01*
X100933333Y-74140000D02*
X101028571Y-74092380D01*
X101028571Y-74092380D02*
X101219047Y-74092380D01*
X101219047Y-74092380D02*
X101314285Y-74140000D01*
X101314285Y-74140000D02*
X101409523Y-74235238D01*
X101409523Y-74235238D02*
X101457142Y-74425714D01*
X101457142Y-74425714D02*
X101457142Y-74759047D01*
X101457142Y-74759047D02*
X101409523Y-74949523D01*
X101409523Y-74949523D02*
X101314285Y-75044761D01*
X101314285Y-75044761D02*
X101219047Y-75092380D01*
X101219047Y-75092380D02*
X101028571Y-75092380D01*
X102409523Y-75092380D02*
X101838095Y-75092380D01*
X102123809Y-75092380D02*
X102123809Y-74092380D01*
X102123809Y-74092380D02*
X102028571Y-74235238D01*
X102028571Y-74235238D02*
X101933333Y-74330476D01*
X101933333Y-74330476D02*
X101838095Y-74378095D01*
%TO.C,U4*%
X120297095Y-62454380D02*
X120297095Y-63263904D01*
X120297095Y-63263904D02*
X120344714Y-63359142D01*
X120344714Y-63359142D02*
X120392333Y-63406761D01*
X120392333Y-63406761D02*
X120487571Y-63454380D01*
X120487571Y-63454380D02*
X120678047Y-63454380D01*
X120678047Y-63454380D02*
X120773285Y-63406761D01*
X120773285Y-63406761D02*
X120820904Y-63359142D01*
X120820904Y-63359142D02*
X120868523Y-63263904D01*
X120868523Y-63263904D02*
X120868523Y-62454380D01*
X121773285Y-62787714D02*
X121773285Y-63454380D01*
X121535190Y-62406761D02*
X121297095Y-63121047D01*
X121297095Y-63121047D02*
X121916142Y-63121047D01*
%TO.C,D3*%
X155438905Y-74361380D02*
X155438905Y-73361380D01*
X155438905Y-73361380D02*
X155677000Y-73361380D01*
X155677000Y-73361380D02*
X155819857Y-73409000D01*
X155819857Y-73409000D02*
X155915095Y-73504238D01*
X155915095Y-73504238D02*
X155962714Y-73599476D01*
X155962714Y-73599476D02*
X156010333Y-73789952D01*
X156010333Y-73789952D02*
X156010333Y-73932809D01*
X156010333Y-73932809D02*
X155962714Y-74123285D01*
X155962714Y-74123285D02*
X155915095Y-74218523D01*
X155915095Y-74218523D02*
X155819857Y-74313761D01*
X155819857Y-74313761D02*
X155677000Y-74361380D01*
X155677000Y-74361380D02*
X155438905Y-74361380D01*
X156343667Y-73361380D02*
X156962714Y-73361380D01*
X156962714Y-73361380D02*
X156629381Y-73742333D01*
X156629381Y-73742333D02*
X156772238Y-73742333D01*
X156772238Y-73742333D02*
X156867476Y-73789952D01*
X156867476Y-73789952D02*
X156915095Y-73837571D01*
X156915095Y-73837571D02*
X156962714Y-73932809D01*
X156962714Y-73932809D02*
X156962714Y-74170904D01*
X156962714Y-74170904D02*
X156915095Y-74266142D01*
X156915095Y-74266142D02*
X156867476Y-74313761D01*
X156867476Y-74313761D02*
X156772238Y-74361380D01*
X156772238Y-74361380D02*
X156486524Y-74361380D01*
X156486524Y-74361380D02*
X156391286Y-74313761D01*
X156391286Y-74313761D02*
X156343667Y-74266142D01*
%TO.C,R11*%
X112473642Y-73604380D02*
X112140309Y-73128190D01*
X111902214Y-73604380D02*
X111902214Y-72604380D01*
X111902214Y-72604380D02*
X112283166Y-72604380D01*
X112283166Y-72604380D02*
X112378404Y-72652000D01*
X112378404Y-72652000D02*
X112426023Y-72699619D01*
X112426023Y-72699619D02*
X112473642Y-72794857D01*
X112473642Y-72794857D02*
X112473642Y-72937714D01*
X112473642Y-72937714D02*
X112426023Y-73032952D01*
X112426023Y-73032952D02*
X112378404Y-73080571D01*
X112378404Y-73080571D02*
X112283166Y-73128190D01*
X112283166Y-73128190D02*
X111902214Y-73128190D01*
X113426023Y-73604380D02*
X112854595Y-73604380D01*
X113140309Y-73604380D02*
X113140309Y-72604380D01*
X113140309Y-72604380D02*
X113045071Y-72747238D01*
X113045071Y-72747238D02*
X112949833Y-72842476D01*
X112949833Y-72842476D02*
X112854595Y-72890095D01*
X114378404Y-73604380D02*
X113806976Y-73604380D01*
X114092690Y-73604380D02*
X114092690Y-72604380D01*
X114092690Y-72604380D02*
X113997452Y-72747238D01*
X113997452Y-72747238D02*
X113902214Y-72842476D01*
X113902214Y-72842476D02*
X113806976Y-72890095D01*
%TO.C,C3*%
X135977333Y-101872142D02*
X135929714Y-101919761D01*
X135929714Y-101919761D02*
X135786857Y-101967380D01*
X135786857Y-101967380D02*
X135691619Y-101967380D01*
X135691619Y-101967380D02*
X135548762Y-101919761D01*
X135548762Y-101919761D02*
X135453524Y-101824523D01*
X135453524Y-101824523D02*
X135405905Y-101729285D01*
X135405905Y-101729285D02*
X135358286Y-101538809D01*
X135358286Y-101538809D02*
X135358286Y-101395952D01*
X135358286Y-101395952D02*
X135405905Y-101205476D01*
X135405905Y-101205476D02*
X135453524Y-101110238D01*
X135453524Y-101110238D02*
X135548762Y-101015000D01*
X135548762Y-101015000D02*
X135691619Y-100967380D01*
X135691619Y-100967380D02*
X135786857Y-100967380D01*
X135786857Y-100967380D02*
X135929714Y-101015000D01*
X135929714Y-101015000D02*
X135977333Y-101062619D01*
X136310667Y-100967380D02*
X136929714Y-100967380D01*
X136929714Y-100967380D02*
X136596381Y-101348333D01*
X136596381Y-101348333D02*
X136739238Y-101348333D01*
X136739238Y-101348333D02*
X136834476Y-101395952D01*
X136834476Y-101395952D02*
X136882095Y-101443571D01*
X136882095Y-101443571D02*
X136929714Y-101538809D01*
X136929714Y-101538809D02*
X136929714Y-101776904D01*
X136929714Y-101776904D02*
X136882095Y-101872142D01*
X136882095Y-101872142D02*
X136834476Y-101919761D01*
X136834476Y-101919761D02*
X136739238Y-101967380D01*
X136739238Y-101967380D02*
X136453524Y-101967380D01*
X136453524Y-101967380D02*
X136358286Y-101919761D01*
X136358286Y-101919761D02*
X136310667Y-101872142D01*
%TO.C,C5*%
X131010142Y-71335666D02*
X131057761Y-71383285D01*
X131057761Y-71383285D02*
X131105380Y-71526142D01*
X131105380Y-71526142D02*
X131105380Y-71621380D01*
X131105380Y-71621380D02*
X131057761Y-71764237D01*
X131057761Y-71764237D02*
X130962523Y-71859475D01*
X130962523Y-71859475D02*
X130867285Y-71907094D01*
X130867285Y-71907094D02*
X130676809Y-71954713D01*
X130676809Y-71954713D02*
X130533952Y-71954713D01*
X130533952Y-71954713D02*
X130343476Y-71907094D01*
X130343476Y-71907094D02*
X130248238Y-71859475D01*
X130248238Y-71859475D02*
X130153000Y-71764237D01*
X130153000Y-71764237D02*
X130105380Y-71621380D01*
X130105380Y-71621380D02*
X130105380Y-71526142D01*
X130105380Y-71526142D02*
X130153000Y-71383285D01*
X130153000Y-71383285D02*
X130200619Y-71335666D01*
X130105380Y-70430904D02*
X130105380Y-70907094D01*
X130105380Y-70907094D02*
X130581571Y-70954713D01*
X130581571Y-70954713D02*
X130533952Y-70907094D01*
X130533952Y-70907094D02*
X130486333Y-70811856D01*
X130486333Y-70811856D02*
X130486333Y-70573761D01*
X130486333Y-70573761D02*
X130533952Y-70478523D01*
X130533952Y-70478523D02*
X130581571Y-70430904D01*
X130581571Y-70430904D02*
X130676809Y-70383285D01*
X130676809Y-70383285D02*
X130914904Y-70383285D01*
X130914904Y-70383285D02*
X131010142Y-70430904D01*
X131010142Y-70430904D02*
X131057761Y-70478523D01*
X131057761Y-70478523D02*
X131105380Y-70573761D01*
X131105380Y-70573761D02*
X131105380Y-70811856D01*
X131105380Y-70811856D02*
X131057761Y-70907094D01*
X131057761Y-70907094D02*
X131010142Y-70954713D01*
%TO.C,C1*%
X111593333Y-86219642D02*
X111545714Y-86267261D01*
X111545714Y-86267261D02*
X111402857Y-86314880D01*
X111402857Y-86314880D02*
X111307619Y-86314880D01*
X111307619Y-86314880D02*
X111164762Y-86267261D01*
X111164762Y-86267261D02*
X111069524Y-86172023D01*
X111069524Y-86172023D02*
X111021905Y-86076785D01*
X111021905Y-86076785D02*
X110974286Y-85886309D01*
X110974286Y-85886309D02*
X110974286Y-85743452D01*
X110974286Y-85743452D02*
X111021905Y-85552976D01*
X111021905Y-85552976D02*
X111069524Y-85457738D01*
X111069524Y-85457738D02*
X111164762Y-85362500D01*
X111164762Y-85362500D02*
X111307619Y-85314880D01*
X111307619Y-85314880D02*
X111402857Y-85314880D01*
X111402857Y-85314880D02*
X111545714Y-85362500D01*
X111545714Y-85362500D02*
X111593333Y-85410119D01*
X112545714Y-86314880D02*
X111974286Y-86314880D01*
X112260000Y-86314880D02*
X112260000Y-85314880D01*
X112260000Y-85314880D02*
X112164762Y-85457738D01*
X112164762Y-85457738D02*
X112069524Y-85552976D01*
X112069524Y-85552976D02*
X111974286Y-85600595D01*
%TO.C,R5*%
X127532333Y-100537380D02*
X127199000Y-100061190D01*
X126960905Y-100537380D02*
X126960905Y-99537380D01*
X126960905Y-99537380D02*
X127341857Y-99537380D01*
X127341857Y-99537380D02*
X127437095Y-99585000D01*
X127437095Y-99585000D02*
X127484714Y-99632619D01*
X127484714Y-99632619D02*
X127532333Y-99727857D01*
X127532333Y-99727857D02*
X127532333Y-99870714D01*
X127532333Y-99870714D02*
X127484714Y-99965952D01*
X127484714Y-99965952D02*
X127437095Y-100013571D01*
X127437095Y-100013571D02*
X127341857Y-100061190D01*
X127341857Y-100061190D02*
X126960905Y-100061190D01*
X128437095Y-99537380D02*
X127960905Y-99537380D01*
X127960905Y-99537380D02*
X127913286Y-100013571D01*
X127913286Y-100013571D02*
X127960905Y-99965952D01*
X127960905Y-99965952D02*
X128056143Y-99918333D01*
X128056143Y-99918333D02*
X128294238Y-99918333D01*
X128294238Y-99918333D02*
X128389476Y-99965952D01*
X128389476Y-99965952D02*
X128437095Y-100013571D01*
X128437095Y-100013571D02*
X128484714Y-100108809D01*
X128484714Y-100108809D02*
X128484714Y-100346904D01*
X128484714Y-100346904D02*
X128437095Y-100442142D01*
X128437095Y-100442142D02*
X128389476Y-100489761D01*
X128389476Y-100489761D02*
X128294238Y-100537380D01*
X128294238Y-100537380D02*
X128056143Y-100537380D01*
X128056143Y-100537380D02*
X127960905Y-100489761D01*
X127960905Y-100489761D02*
X127913286Y-100442142D01*
%TO.C,R4*%
X127532333Y-98027380D02*
X127199000Y-97551190D01*
X126960905Y-98027380D02*
X126960905Y-97027380D01*
X126960905Y-97027380D02*
X127341857Y-97027380D01*
X127341857Y-97027380D02*
X127437095Y-97075000D01*
X127437095Y-97075000D02*
X127484714Y-97122619D01*
X127484714Y-97122619D02*
X127532333Y-97217857D01*
X127532333Y-97217857D02*
X127532333Y-97360714D01*
X127532333Y-97360714D02*
X127484714Y-97455952D01*
X127484714Y-97455952D02*
X127437095Y-97503571D01*
X127437095Y-97503571D02*
X127341857Y-97551190D01*
X127341857Y-97551190D02*
X126960905Y-97551190D01*
X128389476Y-97360714D02*
X128389476Y-98027380D01*
X128151381Y-96979761D02*
X127913286Y-97694047D01*
X127913286Y-97694047D02*
X128532333Y-97694047D01*
%TO.C,U3*%
X177888906Y-95406114D02*
X177888906Y-96216779D01*
X177888906Y-96216779D02*
X177936592Y-96312151D01*
X177936592Y-96312151D02*
X177984279Y-96359837D01*
X177984279Y-96359837D02*
X178079651Y-96407523D01*
X178079651Y-96407523D02*
X178270395Y-96407523D01*
X178270395Y-96407523D02*
X178365768Y-96359837D01*
X178365768Y-96359837D02*
X178413454Y-96312151D01*
X178413454Y-96312151D02*
X178461140Y-96216779D01*
X178461140Y-96216779D02*
X178461140Y-95406114D01*
X178842629Y-95406114D02*
X179462549Y-95406114D01*
X179462549Y-95406114D02*
X179128746Y-95787604D01*
X179128746Y-95787604D02*
X179271804Y-95787604D01*
X179271804Y-95787604D02*
X179367177Y-95835290D01*
X179367177Y-95835290D02*
X179414863Y-95882976D01*
X179414863Y-95882976D02*
X179462549Y-95978348D01*
X179462549Y-95978348D02*
X179462549Y-96216779D01*
X179462549Y-96216779D02*
X179414863Y-96312151D01*
X179414863Y-96312151D02*
X179367177Y-96359837D01*
X179367177Y-96359837D02*
X179271804Y-96407523D01*
X179271804Y-96407523D02*
X178985687Y-96407523D01*
X178985687Y-96407523D02*
X178890315Y-96359837D01*
X178890315Y-96359837D02*
X178842629Y-96312151D01*
%TO.C,D1*%
X158265905Y-93543380D02*
X158265905Y-92543380D01*
X158265905Y-92543380D02*
X158504000Y-92543380D01*
X158504000Y-92543380D02*
X158646857Y-92591000D01*
X158646857Y-92591000D02*
X158742095Y-92686238D01*
X158742095Y-92686238D02*
X158789714Y-92781476D01*
X158789714Y-92781476D02*
X158837333Y-92971952D01*
X158837333Y-92971952D02*
X158837333Y-93114809D01*
X158837333Y-93114809D02*
X158789714Y-93305285D01*
X158789714Y-93305285D02*
X158742095Y-93400523D01*
X158742095Y-93400523D02*
X158646857Y-93495761D01*
X158646857Y-93495761D02*
X158504000Y-93543380D01*
X158504000Y-93543380D02*
X158265905Y-93543380D01*
X159789714Y-93543380D02*
X159218286Y-93543380D01*
X159504000Y-93543380D02*
X159504000Y-92543380D01*
X159504000Y-92543380D02*
X159408762Y-92686238D01*
X159408762Y-92686238D02*
X159313524Y-92781476D01*
X159313524Y-92781476D02*
X159218286Y-92829095D01*
%TO.C,R3*%
X115848333Y-90377380D02*
X115515000Y-89901190D01*
X115276905Y-90377380D02*
X115276905Y-89377380D01*
X115276905Y-89377380D02*
X115657857Y-89377380D01*
X115657857Y-89377380D02*
X115753095Y-89425000D01*
X115753095Y-89425000D02*
X115800714Y-89472619D01*
X115800714Y-89472619D02*
X115848333Y-89567857D01*
X115848333Y-89567857D02*
X115848333Y-89710714D01*
X115848333Y-89710714D02*
X115800714Y-89805952D01*
X115800714Y-89805952D02*
X115753095Y-89853571D01*
X115753095Y-89853571D02*
X115657857Y-89901190D01*
X115657857Y-89901190D02*
X115276905Y-89901190D01*
X116181667Y-89377380D02*
X116800714Y-89377380D01*
X116800714Y-89377380D02*
X116467381Y-89758333D01*
X116467381Y-89758333D02*
X116610238Y-89758333D01*
X116610238Y-89758333D02*
X116705476Y-89805952D01*
X116705476Y-89805952D02*
X116753095Y-89853571D01*
X116753095Y-89853571D02*
X116800714Y-89948809D01*
X116800714Y-89948809D02*
X116800714Y-90186904D01*
X116800714Y-90186904D02*
X116753095Y-90282142D01*
X116753095Y-90282142D02*
X116705476Y-90329761D01*
X116705476Y-90329761D02*
X116610238Y-90377380D01*
X116610238Y-90377380D02*
X116324524Y-90377380D01*
X116324524Y-90377380D02*
X116229286Y-90329761D01*
X116229286Y-90329761D02*
X116181667Y-90282142D01*
%TO.C,R10*%
X94607142Y-63571380D02*
X94273809Y-63095190D01*
X94035714Y-63571380D02*
X94035714Y-62571380D01*
X94035714Y-62571380D02*
X94416666Y-62571380D01*
X94416666Y-62571380D02*
X94511904Y-62619000D01*
X94511904Y-62619000D02*
X94559523Y-62666619D01*
X94559523Y-62666619D02*
X94607142Y-62761857D01*
X94607142Y-62761857D02*
X94607142Y-62904714D01*
X94607142Y-62904714D02*
X94559523Y-62999952D01*
X94559523Y-62999952D02*
X94511904Y-63047571D01*
X94511904Y-63047571D02*
X94416666Y-63095190D01*
X94416666Y-63095190D02*
X94035714Y-63095190D01*
X95559523Y-63571380D02*
X94988095Y-63571380D01*
X95273809Y-63571380D02*
X95273809Y-62571380D01*
X95273809Y-62571380D02*
X95178571Y-62714238D01*
X95178571Y-62714238D02*
X95083333Y-62809476D01*
X95083333Y-62809476D02*
X94988095Y-62857095D01*
X96178571Y-62571380D02*
X96273809Y-62571380D01*
X96273809Y-62571380D02*
X96369047Y-62619000D01*
X96369047Y-62619000D02*
X96416666Y-62666619D01*
X96416666Y-62666619D02*
X96464285Y-62761857D01*
X96464285Y-62761857D02*
X96511904Y-62952333D01*
X96511904Y-62952333D02*
X96511904Y-63190428D01*
X96511904Y-63190428D02*
X96464285Y-63380904D01*
X96464285Y-63380904D02*
X96416666Y-63476142D01*
X96416666Y-63476142D02*
X96369047Y-63523761D01*
X96369047Y-63523761D02*
X96273809Y-63571380D01*
X96273809Y-63571380D02*
X96178571Y-63571380D01*
X96178571Y-63571380D02*
X96083333Y-63523761D01*
X96083333Y-63523761D02*
X96035714Y-63476142D01*
X96035714Y-63476142D02*
X95988095Y-63380904D01*
X95988095Y-63380904D02*
X95940476Y-63190428D01*
X95940476Y-63190428D02*
X95940476Y-62952333D01*
X95940476Y-62952333D02*
X95988095Y-62761857D01*
X95988095Y-62761857D02*
X96035714Y-62666619D01*
X96035714Y-62666619D02*
X96083333Y-62619000D01*
X96083333Y-62619000D02*
X96178571Y-62571380D01*
%TO.C,J2*%
X195246666Y-37677380D02*
X195246666Y-38391666D01*
X195246666Y-38391666D02*
X195199047Y-38534523D01*
X195199047Y-38534523D02*
X195103809Y-38629761D01*
X195103809Y-38629761D02*
X194960952Y-38677380D01*
X194960952Y-38677380D02*
X194865714Y-38677380D01*
X195675238Y-37772619D02*
X195722857Y-37725000D01*
X195722857Y-37725000D02*
X195818095Y-37677380D01*
X195818095Y-37677380D02*
X196056190Y-37677380D01*
X196056190Y-37677380D02*
X196151428Y-37725000D01*
X196151428Y-37725000D02*
X196199047Y-37772619D01*
X196199047Y-37772619D02*
X196246666Y-37867857D01*
X196246666Y-37867857D02*
X196246666Y-37963095D01*
X196246666Y-37963095D02*
X196199047Y-38105952D01*
X196199047Y-38105952D02*
X195627619Y-38677380D01*
X195627619Y-38677380D02*
X196246666Y-38677380D01*
%TO.C,R13*%
X123018642Y-71064380D02*
X122685309Y-70588190D01*
X122447214Y-71064380D02*
X122447214Y-70064380D01*
X122447214Y-70064380D02*
X122828166Y-70064380D01*
X122828166Y-70064380D02*
X122923404Y-70112000D01*
X122923404Y-70112000D02*
X122971023Y-70159619D01*
X122971023Y-70159619D02*
X123018642Y-70254857D01*
X123018642Y-70254857D02*
X123018642Y-70397714D01*
X123018642Y-70397714D02*
X122971023Y-70492952D01*
X122971023Y-70492952D02*
X122923404Y-70540571D01*
X122923404Y-70540571D02*
X122828166Y-70588190D01*
X122828166Y-70588190D02*
X122447214Y-70588190D01*
X123971023Y-71064380D02*
X123399595Y-71064380D01*
X123685309Y-71064380D02*
X123685309Y-70064380D01*
X123685309Y-70064380D02*
X123590071Y-70207238D01*
X123590071Y-70207238D02*
X123494833Y-70302476D01*
X123494833Y-70302476D02*
X123399595Y-70350095D01*
X124304357Y-70064380D02*
X124923404Y-70064380D01*
X124923404Y-70064380D02*
X124590071Y-70445333D01*
X124590071Y-70445333D02*
X124732928Y-70445333D01*
X124732928Y-70445333D02*
X124828166Y-70492952D01*
X124828166Y-70492952D02*
X124875785Y-70540571D01*
X124875785Y-70540571D02*
X124923404Y-70635809D01*
X124923404Y-70635809D02*
X124923404Y-70873904D01*
X124923404Y-70873904D02*
X124875785Y-70969142D01*
X124875785Y-70969142D02*
X124828166Y-71016761D01*
X124828166Y-71016761D02*
X124732928Y-71064380D01*
X124732928Y-71064380D02*
X124447214Y-71064380D01*
X124447214Y-71064380D02*
X124351976Y-71016761D01*
X124351976Y-71016761D02*
X124304357Y-70969142D01*
%TO.C,R14*%
X148236642Y-84521380D02*
X147903309Y-84045190D01*
X147665214Y-84521380D02*
X147665214Y-83521380D01*
X147665214Y-83521380D02*
X148046166Y-83521380D01*
X148046166Y-83521380D02*
X148141404Y-83569000D01*
X148141404Y-83569000D02*
X148189023Y-83616619D01*
X148189023Y-83616619D02*
X148236642Y-83711857D01*
X148236642Y-83711857D02*
X148236642Y-83854714D01*
X148236642Y-83854714D02*
X148189023Y-83949952D01*
X148189023Y-83949952D02*
X148141404Y-83997571D01*
X148141404Y-83997571D02*
X148046166Y-84045190D01*
X148046166Y-84045190D02*
X147665214Y-84045190D01*
X149189023Y-84521380D02*
X148617595Y-84521380D01*
X148903309Y-84521380D02*
X148903309Y-83521380D01*
X148903309Y-83521380D02*
X148808071Y-83664238D01*
X148808071Y-83664238D02*
X148712833Y-83759476D01*
X148712833Y-83759476D02*
X148617595Y-83807095D01*
X150046166Y-83854714D02*
X150046166Y-84521380D01*
X149808071Y-83473761D02*
X149569976Y-84188047D01*
X149569976Y-84188047D02*
X150189023Y-84188047D01*
%TO.C,U6*%
X143731095Y-61308380D02*
X143731095Y-62117904D01*
X143731095Y-62117904D02*
X143778714Y-62213142D01*
X143778714Y-62213142D02*
X143826333Y-62260761D01*
X143826333Y-62260761D02*
X143921571Y-62308380D01*
X143921571Y-62308380D02*
X144112047Y-62308380D01*
X144112047Y-62308380D02*
X144207285Y-62260761D01*
X144207285Y-62260761D02*
X144254904Y-62213142D01*
X144254904Y-62213142D02*
X144302523Y-62117904D01*
X144302523Y-62117904D02*
X144302523Y-61308380D01*
X145207285Y-61308380D02*
X145016809Y-61308380D01*
X145016809Y-61308380D02*
X144921571Y-61356000D01*
X144921571Y-61356000D02*
X144873952Y-61403619D01*
X144873952Y-61403619D02*
X144778714Y-61546476D01*
X144778714Y-61546476D02*
X144731095Y-61736952D01*
X144731095Y-61736952D02*
X144731095Y-62117904D01*
X144731095Y-62117904D02*
X144778714Y-62213142D01*
X144778714Y-62213142D02*
X144826333Y-62260761D01*
X144826333Y-62260761D02*
X144921571Y-62308380D01*
X144921571Y-62308380D02*
X145112047Y-62308380D01*
X145112047Y-62308380D02*
X145207285Y-62260761D01*
X145207285Y-62260761D02*
X145254904Y-62213142D01*
X145254904Y-62213142D02*
X145302523Y-62117904D01*
X145302523Y-62117904D02*
X145302523Y-61879809D01*
X145302523Y-61879809D02*
X145254904Y-61784571D01*
X145254904Y-61784571D02*
X145207285Y-61736952D01*
X145207285Y-61736952D02*
X145112047Y-61689333D01*
X145112047Y-61689333D02*
X144921571Y-61689333D01*
X144921571Y-61689333D02*
X144826333Y-61736952D01*
X144826333Y-61736952D02*
X144778714Y-61784571D01*
X144778714Y-61784571D02*
X144731095Y-61879809D01*
%TO.C,R25*%
X108577142Y-98357380D02*
X108243809Y-97881190D01*
X108005714Y-98357380D02*
X108005714Y-97357380D01*
X108005714Y-97357380D02*
X108386666Y-97357380D01*
X108386666Y-97357380D02*
X108481904Y-97405000D01*
X108481904Y-97405000D02*
X108529523Y-97452619D01*
X108529523Y-97452619D02*
X108577142Y-97547857D01*
X108577142Y-97547857D02*
X108577142Y-97690714D01*
X108577142Y-97690714D02*
X108529523Y-97785952D01*
X108529523Y-97785952D02*
X108481904Y-97833571D01*
X108481904Y-97833571D02*
X108386666Y-97881190D01*
X108386666Y-97881190D02*
X108005714Y-97881190D01*
X108958095Y-97452619D02*
X109005714Y-97405000D01*
X109005714Y-97405000D02*
X109100952Y-97357380D01*
X109100952Y-97357380D02*
X109339047Y-97357380D01*
X109339047Y-97357380D02*
X109434285Y-97405000D01*
X109434285Y-97405000D02*
X109481904Y-97452619D01*
X109481904Y-97452619D02*
X109529523Y-97547857D01*
X109529523Y-97547857D02*
X109529523Y-97643095D01*
X109529523Y-97643095D02*
X109481904Y-97785952D01*
X109481904Y-97785952D02*
X108910476Y-98357380D01*
X108910476Y-98357380D02*
X109529523Y-98357380D01*
X110434285Y-97357380D02*
X109958095Y-97357380D01*
X109958095Y-97357380D02*
X109910476Y-97833571D01*
X109910476Y-97833571D02*
X109958095Y-97785952D01*
X109958095Y-97785952D02*
X110053333Y-97738333D01*
X110053333Y-97738333D02*
X110291428Y-97738333D01*
X110291428Y-97738333D02*
X110386666Y-97785952D01*
X110386666Y-97785952D02*
X110434285Y-97833571D01*
X110434285Y-97833571D02*
X110481904Y-97928809D01*
X110481904Y-97928809D02*
X110481904Y-98166904D01*
X110481904Y-98166904D02*
X110434285Y-98262142D01*
X110434285Y-98262142D02*
X110386666Y-98309761D01*
X110386666Y-98309761D02*
X110291428Y-98357380D01*
X110291428Y-98357380D02*
X110053333Y-98357380D01*
X110053333Y-98357380D02*
X109958095Y-98309761D01*
X109958095Y-98309761D02*
X109910476Y-98262142D01*
%TO.C,R6*%
X137692333Y-95457380D02*
X137359000Y-94981190D01*
X137120905Y-95457380D02*
X137120905Y-94457380D01*
X137120905Y-94457380D02*
X137501857Y-94457380D01*
X137501857Y-94457380D02*
X137597095Y-94505000D01*
X137597095Y-94505000D02*
X137644714Y-94552619D01*
X137644714Y-94552619D02*
X137692333Y-94647857D01*
X137692333Y-94647857D02*
X137692333Y-94790714D01*
X137692333Y-94790714D02*
X137644714Y-94885952D01*
X137644714Y-94885952D02*
X137597095Y-94933571D01*
X137597095Y-94933571D02*
X137501857Y-94981190D01*
X137501857Y-94981190D02*
X137120905Y-94981190D01*
X138549476Y-94457380D02*
X138359000Y-94457380D01*
X138359000Y-94457380D02*
X138263762Y-94505000D01*
X138263762Y-94505000D02*
X138216143Y-94552619D01*
X138216143Y-94552619D02*
X138120905Y-94695476D01*
X138120905Y-94695476D02*
X138073286Y-94885952D01*
X138073286Y-94885952D02*
X138073286Y-95266904D01*
X138073286Y-95266904D02*
X138120905Y-95362142D01*
X138120905Y-95362142D02*
X138168524Y-95409761D01*
X138168524Y-95409761D02*
X138263762Y-95457380D01*
X138263762Y-95457380D02*
X138454238Y-95457380D01*
X138454238Y-95457380D02*
X138549476Y-95409761D01*
X138549476Y-95409761D02*
X138597095Y-95362142D01*
X138597095Y-95362142D02*
X138644714Y-95266904D01*
X138644714Y-95266904D02*
X138644714Y-95028809D01*
X138644714Y-95028809D02*
X138597095Y-94933571D01*
X138597095Y-94933571D02*
X138549476Y-94885952D01*
X138549476Y-94885952D02*
X138454238Y-94838333D01*
X138454238Y-94838333D02*
X138263762Y-94838333D01*
X138263762Y-94838333D02*
X138168524Y-94885952D01*
X138168524Y-94885952D02*
X138120905Y-94933571D01*
X138120905Y-94933571D02*
X138073286Y-95028809D01*
%TO.C,C4*%
X141057333Y-100192142D02*
X141009714Y-100239761D01*
X141009714Y-100239761D02*
X140866857Y-100287380D01*
X140866857Y-100287380D02*
X140771619Y-100287380D01*
X140771619Y-100287380D02*
X140628762Y-100239761D01*
X140628762Y-100239761D02*
X140533524Y-100144523D01*
X140533524Y-100144523D02*
X140485905Y-100049285D01*
X140485905Y-100049285D02*
X140438286Y-99858809D01*
X140438286Y-99858809D02*
X140438286Y-99715952D01*
X140438286Y-99715952D02*
X140485905Y-99525476D01*
X140485905Y-99525476D02*
X140533524Y-99430238D01*
X140533524Y-99430238D02*
X140628762Y-99335000D01*
X140628762Y-99335000D02*
X140771619Y-99287380D01*
X140771619Y-99287380D02*
X140866857Y-99287380D01*
X140866857Y-99287380D02*
X141009714Y-99335000D01*
X141009714Y-99335000D02*
X141057333Y-99382619D01*
X141914476Y-99620714D02*
X141914476Y-100287380D01*
X141676381Y-99239761D02*
X141438286Y-99954047D01*
X141438286Y-99954047D02*
X142057333Y-99954047D01*
%TO.C,R9*%
X95275833Y-69667380D02*
X94942500Y-69191190D01*
X94704405Y-69667380D02*
X94704405Y-68667380D01*
X94704405Y-68667380D02*
X95085357Y-68667380D01*
X95085357Y-68667380D02*
X95180595Y-68715000D01*
X95180595Y-68715000D02*
X95228214Y-68762619D01*
X95228214Y-68762619D02*
X95275833Y-68857857D01*
X95275833Y-68857857D02*
X95275833Y-69000714D01*
X95275833Y-69000714D02*
X95228214Y-69095952D01*
X95228214Y-69095952D02*
X95180595Y-69143571D01*
X95180595Y-69143571D02*
X95085357Y-69191190D01*
X95085357Y-69191190D02*
X94704405Y-69191190D01*
X95752024Y-69667380D02*
X95942500Y-69667380D01*
X95942500Y-69667380D02*
X96037738Y-69619761D01*
X96037738Y-69619761D02*
X96085357Y-69572142D01*
X96085357Y-69572142D02*
X96180595Y-69429285D01*
X96180595Y-69429285D02*
X96228214Y-69238809D01*
X96228214Y-69238809D02*
X96228214Y-68857857D01*
X96228214Y-68857857D02*
X96180595Y-68762619D01*
X96180595Y-68762619D02*
X96132976Y-68715000D01*
X96132976Y-68715000D02*
X96037738Y-68667380D01*
X96037738Y-68667380D02*
X95847262Y-68667380D01*
X95847262Y-68667380D02*
X95752024Y-68715000D01*
X95752024Y-68715000D02*
X95704405Y-68762619D01*
X95704405Y-68762619D02*
X95656786Y-68857857D01*
X95656786Y-68857857D02*
X95656786Y-69095952D01*
X95656786Y-69095952D02*
X95704405Y-69191190D01*
X95704405Y-69191190D02*
X95752024Y-69238809D01*
X95752024Y-69238809D02*
X95847262Y-69286428D01*
X95847262Y-69286428D02*
X96037738Y-69286428D01*
X96037738Y-69286428D02*
X96132976Y-69238809D01*
X96132976Y-69238809D02*
X96180595Y-69191190D01*
X96180595Y-69191190D02*
X96228214Y-69095952D01*
%TO.C,D5*%
X164615905Y-93543380D02*
X164615905Y-92543380D01*
X164615905Y-92543380D02*
X164854000Y-92543380D01*
X164854000Y-92543380D02*
X164996857Y-92591000D01*
X164996857Y-92591000D02*
X165092095Y-92686238D01*
X165092095Y-92686238D02*
X165139714Y-92781476D01*
X165139714Y-92781476D02*
X165187333Y-92971952D01*
X165187333Y-92971952D02*
X165187333Y-93114809D01*
X165187333Y-93114809D02*
X165139714Y-93305285D01*
X165139714Y-93305285D02*
X165092095Y-93400523D01*
X165092095Y-93400523D02*
X164996857Y-93495761D01*
X164996857Y-93495761D02*
X164854000Y-93543380D01*
X164854000Y-93543380D02*
X164615905Y-93543380D01*
X166092095Y-92543380D02*
X165615905Y-92543380D01*
X165615905Y-92543380D02*
X165568286Y-93019571D01*
X165568286Y-93019571D02*
X165615905Y-92971952D01*
X165615905Y-92971952D02*
X165711143Y-92924333D01*
X165711143Y-92924333D02*
X165949238Y-92924333D01*
X165949238Y-92924333D02*
X166044476Y-92971952D01*
X166044476Y-92971952D02*
X166092095Y-93019571D01*
X166092095Y-93019571D02*
X166139714Y-93114809D01*
X166139714Y-93114809D02*
X166139714Y-93352904D01*
X166139714Y-93352904D02*
X166092095Y-93448142D01*
X166092095Y-93448142D02*
X166044476Y-93495761D01*
X166044476Y-93495761D02*
X165949238Y-93543380D01*
X165949238Y-93543380D02*
X165711143Y-93543380D01*
X165711143Y-93543380D02*
X165615905Y-93495761D01*
X165615905Y-93495761D02*
X165568286Y-93448142D01*
%TO.C,R8*%
X151531833Y-93538380D02*
X151198500Y-93062190D01*
X150960405Y-93538380D02*
X150960405Y-92538380D01*
X150960405Y-92538380D02*
X151341357Y-92538380D01*
X151341357Y-92538380D02*
X151436595Y-92586000D01*
X151436595Y-92586000D02*
X151484214Y-92633619D01*
X151484214Y-92633619D02*
X151531833Y-92728857D01*
X151531833Y-92728857D02*
X151531833Y-92871714D01*
X151531833Y-92871714D02*
X151484214Y-92966952D01*
X151484214Y-92966952D02*
X151436595Y-93014571D01*
X151436595Y-93014571D02*
X151341357Y-93062190D01*
X151341357Y-93062190D02*
X150960405Y-93062190D01*
X152103262Y-92966952D02*
X152008024Y-92919333D01*
X152008024Y-92919333D02*
X151960405Y-92871714D01*
X151960405Y-92871714D02*
X151912786Y-92776476D01*
X151912786Y-92776476D02*
X151912786Y-92728857D01*
X151912786Y-92728857D02*
X151960405Y-92633619D01*
X151960405Y-92633619D02*
X152008024Y-92586000D01*
X152008024Y-92586000D02*
X152103262Y-92538380D01*
X152103262Y-92538380D02*
X152293738Y-92538380D01*
X152293738Y-92538380D02*
X152388976Y-92586000D01*
X152388976Y-92586000D02*
X152436595Y-92633619D01*
X152436595Y-92633619D02*
X152484214Y-92728857D01*
X152484214Y-92728857D02*
X152484214Y-92776476D01*
X152484214Y-92776476D02*
X152436595Y-92871714D01*
X152436595Y-92871714D02*
X152388976Y-92919333D01*
X152388976Y-92919333D02*
X152293738Y-92966952D01*
X152293738Y-92966952D02*
X152103262Y-92966952D01*
X152103262Y-92966952D02*
X152008024Y-93014571D01*
X152008024Y-93014571D02*
X151960405Y-93062190D01*
X151960405Y-93062190D02*
X151912786Y-93157428D01*
X151912786Y-93157428D02*
X151912786Y-93347904D01*
X151912786Y-93347904D02*
X151960405Y-93443142D01*
X151960405Y-93443142D02*
X152008024Y-93490761D01*
X152008024Y-93490761D02*
X152103262Y-93538380D01*
X152103262Y-93538380D02*
X152293738Y-93538380D01*
X152293738Y-93538380D02*
X152388976Y-93490761D01*
X152388976Y-93490761D02*
X152436595Y-93443142D01*
X152436595Y-93443142D02*
X152484214Y-93347904D01*
X152484214Y-93347904D02*
X152484214Y-93157428D01*
X152484214Y-93157428D02*
X152436595Y-93062190D01*
X152436595Y-93062190D02*
X152388976Y-93014571D01*
X152388976Y-93014571D02*
X152293738Y-92966952D01*
%TO.C,R19*%
X153218142Y-64215380D02*
X152884809Y-63739190D01*
X152646714Y-64215380D02*
X152646714Y-63215380D01*
X152646714Y-63215380D02*
X153027666Y-63215380D01*
X153027666Y-63215380D02*
X153122904Y-63263000D01*
X153122904Y-63263000D02*
X153170523Y-63310619D01*
X153170523Y-63310619D02*
X153218142Y-63405857D01*
X153218142Y-63405857D02*
X153218142Y-63548714D01*
X153218142Y-63548714D02*
X153170523Y-63643952D01*
X153170523Y-63643952D02*
X153122904Y-63691571D01*
X153122904Y-63691571D02*
X153027666Y-63739190D01*
X153027666Y-63739190D02*
X152646714Y-63739190D01*
X154170523Y-64215380D02*
X153599095Y-64215380D01*
X153884809Y-64215380D02*
X153884809Y-63215380D01*
X153884809Y-63215380D02*
X153789571Y-63358238D01*
X153789571Y-63358238D02*
X153694333Y-63453476D01*
X153694333Y-63453476D02*
X153599095Y-63501095D01*
X154646714Y-64215380D02*
X154837190Y-64215380D01*
X154837190Y-64215380D02*
X154932428Y-64167761D01*
X154932428Y-64167761D02*
X154980047Y-64120142D01*
X154980047Y-64120142D02*
X155075285Y-63977285D01*
X155075285Y-63977285D02*
X155122904Y-63786809D01*
X155122904Y-63786809D02*
X155122904Y-63405857D01*
X155122904Y-63405857D02*
X155075285Y-63310619D01*
X155075285Y-63310619D02*
X155027666Y-63263000D01*
X155027666Y-63263000D02*
X154932428Y-63215380D01*
X154932428Y-63215380D02*
X154741952Y-63215380D01*
X154741952Y-63215380D02*
X154646714Y-63263000D01*
X154646714Y-63263000D02*
X154599095Y-63310619D01*
X154599095Y-63310619D02*
X154551476Y-63405857D01*
X154551476Y-63405857D02*
X154551476Y-63643952D01*
X154551476Y-63643952D02*
X154599095Y-63739190D01*
X154599095Y-63739190D02*
X154646714Y-63786809D01*
X154646714Y-63786809D02*
X154741952Y-63834428D01*
X154741952Y-63834428D02*
X154932428Y-63834428D01*
X154932428Y-63834428D02*
X155027666Y-63786809D01*
X155027666Y-63786809D02*
X155075285Y-63739190D01*
X155075285Y-63739190D02*
X155122904Y-63643952D01*
%TO.C,U2*%
X131917095Y-95927380D02*
X131917095Y-96736904D01*
X131917095Y-96736904D02*
X131964714Y-96832142D01*
X131964714Y-96832142D02*
X132012333Y-96879761D01*
X132012333Y-96879761D02*
X132107571Y-96927380D01*
X132107571Y-96927380D02*
X132298047Y-96927380D01*
X132298047Y-96927380D02*
X132393285Y-96879761D01*
X132393285Y-96879761D02*
X132440904Y-96832142D01*
X132440904Y-96832142D02*
X132488523Y-96736904D01*
X132488523Y-96736904D02*
X132488523Y-95927380D01*
X132917095Y-96022619D02*
X132964714Y-95975000D01*
X132964714Y-95975000D02*
X133059952Y-95927380D01*
X133059952Y-95927380D02*
X133298047Y-95927380D01*
X133298047Y-95927380D02*
X133393285Y-95975000D01*
X133393285Y-95975000D02*
X133440904Y-96022619D01*
X133440904Y-96022619D02*
X133488523Y-96117857D01*
X133488523Y-96117857D02*
X133488523Y-96213095D01*
X133488523Y-96213095D02*
X133440904Y-96355952D01*
X133440904Y-96355952D02*
X132869476Y-96927380D01*
X132869476Y-96927380D02*
X133488523Y-96927380D01*
%TO.C,D4*%
X122835905Y-75255380D02*
X122835905Y-74255380D01*
X122835905Y-74255380D02*
X123074000Y-74255380D01*
X123074000Y-74255380D02*
X123216857Y-74303000D01*
X123216857Y-74303000D02*
X123312095Y-74398238D01*
X123312095Y-74398238D02*
X123359714Y-74493476D01*
X123359714Y-74493476D02*
X123407333Y-74683952D01*
X123407333Y-74683952D02*
X123407333Y-74826809D01*
X123407333Y-74826809D02*
X123359714Y-75017285D01*
X123359714Y-75017285D02*
X123312095Y-75112523D01*
X123312095Y-75112523D02*
X123216857Y-75207761D01*
X123216857Y-75207761D02*
X123074000Y-75255380D01*
X123074000Y-75255380D02*
X122835905Y-75255380D01*
X124264476Y-74588714D02*
X124264476Y-75255380D01*
X124026381Y-74207761D02*
X123788286Y-74922047D01*
X123788286Y-74922047D02*
X124407333Y-74922047D01*
%TO.C,Q3*%
X156544261Y-80546619D02*
X156449023Y-80499000D01*
X156449023Y-80499000D02*
X156353785Y-80403761D01*
X156353785Y-80403761D02*
X156210928Y-80260904D01*
X156210928Y-80260904D02*
X156115690Y-80213285D01*
X156115690Y-80213285D02*
X156020452Y-80213285D01*
X156068071Y-80451380D02*
X155972833Y-80403761D01*
X155972833Y-80403761D02*
X155877595Y-80308523D01*
X155877595Y-80308523D02*
X155829976Y-80118047D01*
X155829976Y-80118047D02*
X155829976Y-79784714D01*
X155829976Y-79784714D02*
X155877595Y-79594238D01*
X155877595Y-79594238D02*
X155972833Y-79499000D01*
X155972833Y-79499000D02*
X156068071Y-79451380D01*
X156068071Y-79451380D02*
X156258547Y-79451380D01*
X156258547Y-79451380D02*
X156353785Y-79499000D01*
X156353785Y-79499000D02*
X156449023Y-79594238D01*
X156449023Y-79594238D02*
X156496642Y-79784714D01*
X156496642Y-79784714D02*
X156496642Y-80118047D01*
X156496642Y-80118047D02*
X156449023Y-80308523D01*
X156449023Y-80308523D02*
X156353785Y-80403761D01*
X156353785Y-80403761D02*
X156258547Y-80451380D01*
X156258547Y-80451380D02*
X156068071Y-80451380D01*
X156829976Y-79451380D02*
X157449023Y-79451380D01*
X157449023Y-79451380D02*
X157115690Y-79832333D01*
X157115690Y-79832333D02*
X157258547Y-79832333D01*
X157258547Y-79832333D02*
X157353785Y-79879952D01*
X157353785Y-79879952D02*
X157401404Y-79927571D01*
X157401404Y-79927571D02*
X157449023Y-80022809D01*
X157449023Y-80022809D02*
X157449023Y-80260904D01*
X157449023Y-80260904D02*
X157401404Y-80356142D01*
X157401404Y-80356142D02*
X157353785Y-80403761D01*
X157353785Y-80403761D02*
X157258547Y-80451380D01*
X157258547Y-80451380D02*
X156972833Y-80451380D01*
X156972833Y-80451380D02*
X156877595Y-80403761D01*
X156877595Y-80403761D02*
X156829976Y-80356142D01*
%TO.C,BT1*%
X131294285Y-50643571D02*
X131437142Y-50691190D01*
X131437142Y-50691190D02*
X131484761Y-50738809D01*
X131484761Y-50738809D02*
X131532380Y-50834047D01*
X131532380Y-50834047D02*
X131532380Y-50976904D01*
X131532380Y-50976904D02*
X131484761Y-51072142D01*
X131484761Y-51072142D02*
X131437142Y-51119761D01*
X131437142Y-51119761D02*
X131341904Y-51167380D01*
X131341904Y-51167380D02*
X130960952Y-51167380D01*
X130960952Y-51167380D02*
X130960952Y-50167380D01*
X130960952Y-50167380D02*
X131294285Y-50167380D01*
X131294285Y-50167380D02*
X131389523Y-50215000D01*
X131389523Y-50215000D02*
X131437142Y-50262619D01*
X131437142Y-50262619D02*
X131484761Y-50357857D01*
X131484761Y-50357857D02*
X131484761Y-50453095D01*
X131484761Y-50453095D02*
X131437142Y-50548333D01*
X131437142Y-50548333D02*
X131389523Y-50595952D01*
X131389523Y-50595952D02*
X131294285Y-50643571D01*
X131294285Y-50643571D02*
X130960952Y-50643571D01*
X131818095Y-50167380D02*
X132389523Y-50167380D01*
X132103809Y-51167380D02*
X132103809Y-50167380D01*
X133246666Y-51167380D02*
X132675238Y-51167380D01*
X132960952Y-51167380D02*
X132960952Y-50167380D01*
X132960952Y-50167380D02*
X132865714Y-50310238D01*
X132865714Y-50310238D02*
X132770476Y-50405476D01*
X132770476Y-50405476D02*
X132675238Y-50453095D01*
%TO.C,C6*%
X131010142Y-66255666D02*
X131057761Y-66303285D01*
X131057761Y-66303285D02*
X131105380Y-66446142D01*
X131105380Y-66446142D02*
X131105380Y-66541380D01*
X131105380Y-66541380D02*
X131057761Y-66684237D01*
X131057761Y-66684237D02*
X130962523Y-66779475D01*
X130962523Y-66779475D02*
X130867285Y-66827094D01*
X130867285Y-66827094D02*
X130676809Y-66874713D01*
X130676809Y-66874713D02*
X130533952Y-66874713D01*
X130533952Y-66874713D02*
X130343476Y-66827094D01*
X130343476Y-66827094D02*
X130248238Y-66779475D01*
X130248238Y-66779475D02*
X130153000Y-66684237D01*
X130153000Y-66684237D02*
X130105380Y-66541380D01*
X130105380Y-66541380D02*
X130105380Y-66446142D01*
X130105380Y-66446142D02*
X130153000Y-66303285D01*
X130153000Y-66303285D02*
X130200619Y-66255666D01*
X130105380Y-65398523D02*
X130105380Y-65588999D01*
X130105380Y-65588999D02*
X130153000Y-65684237D01*
X130153000Y-65684237D02*
X130200619Y-65731856D01*
X130200619Y-65731856D02*
X130343476Y-65827094D01*
X130343476Y-65827094D02*
X130533952Y-65874713D01*
X130533952Y-65874713D02*
X130914904Y-65874713D01*
X130914904Y-65874713D02*
X131010142Y-65827094D01*
X131010142Y-65827094D02*
X131057761Y-65779475D01*
X131057761Y-65779475D02*
X131105380Y-65684237D01*
X131105380Y-65684237D02*
X131105380Y-65493761D01*
X131105380Y-65493761D02*
X131057761Y-65398523D01*
X131057761Y-65398523D02*
X131010142Y-65350904D01*
X131010142Y-65350904D02*
X130914904Y-65303285D01*
X130914904Y-65303285D02*
X130676809Y-65303285D01*
X130676809Y-65303285D02*
X130581571Y-65350904D01*
X130581571Y-65350904D02*
X130533952Y-65398523D01*
X130533952Y-65398523D02*
X130486333Y-65493761D01*
X130486333Y-65493761D02*
X130486333Y-65684237D01*
X130486333Y-65684237D02*
X130533952Y-65779475D01*
X130533952Y-65779475D02*
X130581571Y-65827094D01*
X130581571Y-65827094D02*
X130676809Y-65874713D01*
%TO.C,R12*%
X117553642Y-71064380D02*
X117220309Y-70588190D01*
X116982214Y-71064380D02*
X116982214Y-70064380D01*
X116982214Y-70064380D02*
X117363166Y-70064380D01*
X117363166Y-70064380D02*
X117458404Y-70112000D01*
X117458404Y-70112000D02*
X117506023Y-70159619D01*
X117506023Y-70159619D02*
X117553642Y-70254857D01*
X117553642Y-70254857D02*
X117553642Y-70397714D01*
X117553642Y-70397714D02*
X117506023Y-70492952D01*
X117506023Y-70492952D02*
X117458404Y-70540571D01*
X117458404Y-70540571D02*
X117363166Y-70588190D01*
X117363166Y-70588190D02*
X116982214Y-70588190D01*
X118506023Y-71064380D02*
X117934595Y-71064380D01*
X118220309Y-71064380D02*
X118220309Y-70064380D01*
X118220309Y-70064380D02*
X118125071Y-70207238D01*
X118125071Y-70207238D02*
X118029833Y-70302476D01*
X118029833Y-70302476D02*
X117934595Y-70350095D01*
X118886976Y-70159619D02*
X118934595Y-70112000D01*
X118934595Y-70112000D02*
X119029833Y-70064380D01*
X119029833Y-70064380D02*
X119267928Y-70064380D01*
X119267928Y-70064380D02*
X119363166Y-70112000D01*
X119363166Y-70112000D02*
X119410785Y-70159619D01*
X119410785Y-70159619D02*
X119458404Y-70254857D01*
X119458404Y-70254857D02*
X119458404Y-70350095D01*
X119458404Y-70350095D02*
X119410785Y-70492952D01*
X119410785Y-70492952D02*
X118839357Y-71064380D01*
X118839357Y-71064380D02*
X119458404Y-71064380D01*
%TO.C,J5*%
X98726666Y-91387380D02*
X98726666Y-92101666D01*
X98726666Y-92101666D02*
X98679047Y-92244523D01*
X98679047Y-92244523D02*
X98583809Y-92339761D01*
X98583809Y-92339761D02*
X98440952Y-92387380D01*
X98440952Y-92387380D02*
X98345714Y-92387380D01*
X99679047Y-91387380D02*
X99202857Y-91387380D01*
X99202857Y-91387380D02*
X99155238Y-91863571D01*
X99155238Y-91863571D02*
X99202857Y-91815952D01*
X99202857Y-91815952D02*
X99298095Y-91768333D01*
X99298095Y-91768333D02*
X99536190Y-91768333D01*
X99536190Y-91768333D02*
X99631428Y-91815952D01*
X99631428Y-91815952D02*
X99679047Y-91863571D01*
X99679047Y-91863571D02*
X99726666Y-91958809D01*
X99726666Y-91958809D02*
X99726666Y-92196904D01*
X99726666Y-92196904D02*
X99679047Y-92292142D01*
X99679047Y-92292142D02*
X99631428Y-92339761D01*
X99631428Y-92339761D02*
X99536190Y-92387380D01*
X99536190Y-92387380D02*
X99298095Y-92387380D01*
X99298095Y-92387380D02*
X99202857Y-92339761D01*
X99202857Y-92339761D02*
X99155238Y-92292142D01*
%TO.C,C2*%
X119213333Y-86219642D02*
X119165714Y-86267261D01*
X119165714Y-86267261D02*
X119022857Y-86314880D01*
X119022857Y-86314880D02*
X118927619Y-86314880D01*
X118927619Y-86314880D02*
X118784762Y-86267261D01*
X118784762Y-86267261D02*
X118689524Y-86172023D01*
X118689524Y-86172023D02*
X118641905Y-86076785D01*
X118641905Y-86076785D02*
X118594286Y-85886309D01*
X118594286Y-85886309D02*
X118594286Y-85743452D01*
X118594286Y-85743452D02*
X118641905Y-85552976D01*
X118641905Y-85552976D02*
X118689524Y-85457738D01*
X118689524Y-85457738D02*
X118784762Y-85362500D01*
X118784762Y-85362500D02*
X118927619Y-85314880D01*
X118927619Y-85314880D02*
X119022857Y-85314880D01*
X119022857Y-85314880D02*
X119165714Y-85362500D01*
X119165714Y-85362500D02*
X119213333Y-85410119D01*
X119594286Y-85410119D02*
X119641905Y-85362500D01*
X119641905Y-85362500D02*
X119737143Y-85314880D01*
X119737143Y-85314880D02*
X119975238Y-85314880D01*
X119975238Y-85314880D02*
X120070476Y-85362500D01*
X120070476Y-85362500D02*
X120118095Y-85410119D01*
X120118095Y-85410119D02*
X120165714Y-85505357D01*
X120165714Y-85505357D02*
X120165714Y-85600595D01*
X120165714Y-85600595D02*
X120118095Y-85743452D01*
X120118095Y-85743452D02*
X119546667Y-86314880D01*
X119546667Y-86314880D02*
X120165714Y-86314880D01*
D11*
%TO.C,R17*%
X164372936Y-81894000D02*
X165827064Y-81894000D01*
X164372936Y-83714000D02*
X165827064Y-83714000D01*
D12*
%TO.C,U5*%
X98068000Y-85806000D02*
X101068000Y-85806000D01*
X98068000Y-88946000D02*
X101068000Y-88946000D01*
D13*
X97193000Y-86251000D02*
G75*
G03*
X97193000Y-86251000I-100000J0D01*
G01*
D11*
%TO.C,U1*%
X107570000Y-87757500D02*
X108970000Y-87757500D01*
X108970000Y-85437500D02*
X107070000Y-85437500D01*
%TO.C,R1*%
X110697742Y-90917500D02*
X111172258Y-90917500D01*
X110697742Y-91962500D02*
X111172258Y-91962500D01*
%TO.C,J1*%
X171820000Y-39310000D02*
X173150000Y-39310000D01*
X171820000Y-40640000D02*
X171820000Y-39310000D01*
X171820000Y-41910000D02*
X171820000Y-100390000D01*
X171820000Y-41910000D02*
X174480000Y-41910000D01*
X171820000Y-100390000D02*
X174480000Y-100390000D01*
X174480000Y-41910000D02*
X174480000Y-100390000D01*
%TO.C,R7*%
X127461742Y-95997500D02*
X127936258Y-95997500D01*
X127461742Y-97042500D02*
X127936258Y-97042500D01*
%TO.C,R15*%
X147767436Y-74904000D02*
X149221564Y-74904000D01*
X147767436Y-76724000D02*
X149221564Y-76724000D01*
%TO.C,R18*%
X157813742Y-65135500D02*
X158288258Y-65135500D01*
X157813742Y-66180500D02*
X158288258Y-66180500D01*
%TO.C,R24*%
X108492936Y-95610000D02*
X109947064Y-95610000D01*
X108492936Y-97430000D02*
X109947064Y-97430000D01*
%TO.C,D2*%
X115949000Y-75573000D02*
X115949000Y-77843000D01*
X115949000Y-77843000D02*
X119834000Y-77843000D01*
X119834000Y-75573000D02*
X115949000Y-75573000D01*
D14*
%TO.C,IC1*%
X99228000Y-66530000D02*
X99322000Y-66530000D01*
X99228000Y-68150000D02*
X99228000Y-66530000D01*
X99322000Y-68150000D02*
X99228000Y-68150000D01*
X100128000Y-66530000D02*
X101172000Y-66530000D01*
X100222000Y-68150000D02*
X100128000Y-68150000D01*
X101172000Y-68150000D02*
X101078000Y-68150000D01*
X101978000Y-66530000D02*
X102072000Y-66530000D01*
X102072000Y-66530000D02*
X102072000Y-68150000D01*
X102072000Y-68150000D02*
X101978000Y-68150000D01*
D12*
X99750000Y-67640000D02*
G75*
G03*
X99750000Y-67640000I-100000J0D01*
G01*
D11*
%TO.C,R16*%
X163392436Y-74904000D02*
X164846564Y-74904000D01*
X163392436Y-76724000D02*
X164846564Y-76724000D01*
%TO.C,R2*%
X130615936Y-91927000D02*
X132070064Y-91927000D01*
X130615936Y-93747000D02*
X132070064Y-93747000D01*
%TO.C,Q1*%
X101600000Y-75565000D02*
X98000000Y-75565000D01*
X101600000Y-75565000D02*
X103800000Y-75565000D01*
X101600000Y-78785000D02*
X99400000Y-78785000D01*
X101600000Y-78785000D02*
X103800000Y-78785000D01*
%TO.C,U4*%
X121059000Y-63812000D02*
X115484000Y-63812000D01*
X121059000Y-63812000D02*
X123344000Y-63812000D01*
X121059000Y-68842000D02*
X118774000Y-68842000D01*
X121059000Y-68842000D02*
X123344000Y-68842000D01*
%TO.C,D3*%
X153892000Y-74679000D02*
X153892000Y-76949000D01*
X153892000Y-76949000D02*
X157777000Y-76949000D01*
X157777000Y-74679000D02*
X153892000Y-74679000D01*
%TO.C,R11*%
X112389436Y-74147000D02*
X113843564Y-74147000D01*
X112389436Y-75967000D02*
X113843564Y-75967000D01*
%TO.C,C3*%
X137949000Y-101861252D02*
X137949000Y-101338748D01*
X139419000Y-101861252D02*
X139419000Y-101338748D01*
%TO.C,C5*%
X131678000Y-71880252D02*
X131678000Y-70457748D01*
X133498000Y-71880252D02*
X133498000Y-70457748D01*
%TO.C,C1*%
X113565000Y-86208752D02*
X113565000Y-85686248D01*
X115035000Y-86208752D02*
X115035000Y-85686248D01*
%TO.C,R5*%
X127461742Y-101077500D02*
X127936258Y-101077500D01*
X127461742Y-102122500D02*
X127936258Y-102122500D01*
%TO.C,R4*%
X127461742Y-98567500D02*
X127936258Y-98567500D01*
X127461742Y-99612500D02*
X127936258Y-99612500D01*
%TO.C,D1*%
X156719000Y-93861000D02*
X156719000Y-96131000D01*
X156719000Y-96131000D02*
X160604000Y-96131000D01*
X160604000Y-93861000D02*
X156719000Y-93861000D01*
%TO.C,R3*%
X115777742Y-90917500D02*
X116252258Y-90917500D01*
X115777742Y-91962500D02*
X116252258Y-91962500D01*
%TO.C,R10*%
X94522936Y-64114000D02*
X95977064Y-64114000D01*
X94522936Y-65934000D02*
X95977064Y-65934000D01*
%TO.C,J2*%
X194250000Y-39310000D02*
X195580000Y-39310000D01*
X194250000Y-40640000D02*
X194250000Y-39310000D01*
X194250000Y-41910000D02*
X194250000Y-100390000D01*
X194250000Y-41910000D02*
X196910000Y-41910000D01*
X194250000Y-100390000D02*
X196910000Y-100390000D01*
X196910000Y-41910000D02*
X196910000Y-100390000D01*
%TO.C,R13*%
X122934436Y-71607000D02*
X124388564Y-71607000D01*
X122934436Y-73427000D02*
X124388564Y-73427000D01*
%TO.C,R14*%
X148152436Y-85064000D02*
X149606564Y-85064000D01*
X148152436Y-86884000D02*
X149606564Y-86884000D01*
D12*
%TO.C,U6*%
X143288000Y-62753000D02*
X147288000Y-62753000D01*
X143288000Y-67803000D02*
X147288000Y-67803000D01*
D13*
X140943000Y-62773000D02*
G75*
G03*
X140943000Y-62773000I-100000J0D01*
G01*
D11*
%TO.C,R25*%
X108492936Y-98900000D02*
X109947064Y-98900000D01*
X108492936Y-100720000D02*
X109947064Y-100720000D01*
%TO.C,R6*%
X137621742Y-95997500D02*
X138096258Y-95997500D01*
X137621742Y-97042500D02*
X138096258Y-97042500D01*
%TO.C,C4*%
X140489000Y-101861252D02*
X140489000Y-101338748D01*
X141959000Y-101861252D02*
X141959000Y-101338748D01*
%TO.C,R9*%
X94715436Y-70210000D02*
X96169564Y-70210000D01*
X94715436Y-72030000D02*
X96169564Y-72030000D01*
%TO.C,D5*%
X163069000Y-93861000D02*
X163069000Y-96131000D01*
X163069000Y-96131000D02*
X166954000Y-96131000D01*
X166954000Y-93861000D02*
X163069000Y-93861000D01*
%TO.C,R8*%
X150971436Y-94081000D02*
X152425564Y-94081000D01*
X150971436Y-95901000D02*
X152425564Y-95901000D01*
%TO.C,R19*%
X153623742Y-64755500D02*
X154098258Y-64755500D01*
X153623742Y-65800500D02*
X154098258Y-65800500D01*
%TO.C,U2*%
X131319000Y-100120000D02*
X131319000Y-99520000D01*
X131619000Y-97400000D02*
X131319000Y-97400000D01*
X131619000Y-100120000D02*
X131319000Y-100120000D01*
X133739000Y-97400000D02*
X134039000Y-97400000D01*
X133739000Y-100120000D02*
X134039000Y-100120000D01*
X134039000Y-97400000D02*
X134039000Y-98000000D01*
X134039000Y-100120000D02*
X134039000Y-99520000D01*
%TO.C,D4*%
X121289000Y-75573000D02*
X121289000Y-77843000D01*
X121289000Y-77843000D02*
X125174000Y-77843000D01*
X125174000Y-75573000D02*
X121289000Y-75573000D01*
%TO.C,Q3*%
X156639500Y-80924000D02*
X154964500Y-80924000D01*
X156639500Y-80924000D02*
X157289500Y-80924000D01*
X156639500Y-84044000D02*
X155989500Y-84044000D01*
X156639500Y-84044000D02*
X157289500Y-84044000D01*
D13*
%TO.C,BT1*%
X157105000Y-51155000D02*
X161105000Y-51155000D01*
X159105000Y-49055000D02*
X159105000Y-53055000D01*
D11*
%TO.C,C6*%
X131678000Y-66800252D02*
X131678000Y-65377748D01*
X133498000Y-66800252D02*
X133498000Y-65377748D01*
%TO.C,R12*%
X117469436Y-71607000D02*
X118923564Y-71607000D01*
X117469436Y-73427000D02*
X118923564Y-73427000D01*
%TO.C,J5*%
X95215000Y-95360000D02*
X95215000Y-97850000D01*
X97360000Y-92920000D02*
X98160000Y-92920000D01*
X97760000Y-93370000D02*
X97360000Y-92920000D01*
X98160000Y-92920000D02*
X97760000Y-93370000D01*
X102905000Y-95360000D02*
X102905000Y-97850000D01*
%TO.C,C2*%
X116105000Y-86208752D02*
X116105000Y-85686248D01*
X117575000Y-86208752D02*
X117575000Y-85686248D01*
%TD*%
M02*
