M48
; DRILL file {KiCad (7.0.0)} date Tue Mar 21 00:44:20 2023
; FORMAT={-:-/ absolute / metric / decimal}
; #@! TF.CreationDate,2023-03-21T00:44:20+02:00
; #@! TF.GenerationSoftware,Kicad,Pcbnew,(7.0.0)
; #@! TF.FileFunction,Plated,1,2,PTH
FMAT,2
METRIC
; #@! TA.AperFunction,Plated,PTH,ViaDrill
T1C0.300
; #@! TA.AperFunction,Plated,PTH,ComponentDrill
T2C0.500
; #@! TA.AperFunction,Plated,PTH,ComponentDrill
T3C1.000
%
G90
G05
T1
X95.242Y-71.12
X100.847Y-89.31
X103.432Y-88.636
X105.13Y-86.497
X119.545Y-91.28
X124.342Y-69.099
X127.545Y-97.346
X130.523Y-98.865
X131.346Y-100.073
X131.381Y-68.528
X132.597Y-98.909
X132.988Y-100.474
T3
X95.305Y-51.155
X166.905Y-51.155
X173.15Y-40.64
X173.15Y-43.18
X173.15Y-45.72
X173.15Y-48.26
X173.15Y-50.8
X173.15Y-53.34
X173.15Y-55.88
X173.15Y-58.42
X173.15Y-60.96
X173.15Y-63.5
X173.15Y-66.04
X173.15Y-68.58
X173.15Y-71.12
X173.15Y-73.66
X173.15Y-76.2
X173.15Y-78.74
X173.15Y-81.28
X173.15Y-83.82
X173.15Y-86.36
X173.15Y-88.9
X173.15Y-91.44
X173.15Y-93.98
X173.15Y-96.52
X173.15Y-99.06
X195.58Y-40.64
X195.58Y-43.18
X195.58Y-45.72
X195.58Y-48.26
X195.58Y-50.8
X195.58Y-53.34
X195.58Y-55.88
X195.58Y-58.42
X195.58Y-60.96
X195.58Y-63.5
X195.58Y-66.04
X195.58Y-68.58
X195.58Y-71.12
X195.58Y-73.66
X195.58Y-76.2
X195.58Y-78.74
X195.58Y-81.28
X195.58Y-83.82
X195.58Y-86.36
X195.58Y-88.9
X195.58Y-91.44
X195.58Y-93.98
X195.58Y-96.52
X195.58Y-99.06
T2
G00X96.235Y-96.56
M15
G01X96.235Y-97.26
M16
G05
G00X101.885Y-96.56
M15
G01X101.885Y-97.26
M16
G05
T0
M30
