%TF.GenerationSoftware,KiCad,Pcbnew,(7.0.0)*%
%TF.CreationDate,2023-03-21T00:44:08+02:00*%
%TF.ProjectId,main_v0.6,6d61696e-5f76-4302-9e36-2e6b69636164,rev?*%
%TF.SameCoordinates,Original*%
%TF.FileFunction,Paste,Top*%
%TF.FilePolarity,Positive*%
%FSLAX46Y46*%
G04 Gerber Fmt 4.6, Leading zero omitted, Abs format (unit mm)*
G04 Created by KiCad (PCBNEW (7.0.0)) date 2023-03-21 00:44:08*
%MOMM*%
%LPD*%
G01*
G04 APERTURE LIST*
G04 Aperture macros list*
%AMRoundRect*
0 Rectangle with rounded corners*
0 $1 Rounding radius*
0 $2 $3 $4 $5 $6 $7 $8 $9 X,Y pos of 4 corners*
0 Add a 4 corners polygon primitive as box body*
4,1,4,$2,$3,$4,$5,$6,$7,$8,$9,$2,$3,0*
0 Add four circle primitives for the rounded corners*
1,1,$1+$1,$2,$3*
1,1,$1+$1,$4,$5*
1,1,$1+$1,$6,$7*
1,1,$1+$1,$8,$9*
0 Add four rect primitives between the rounded corners*
20,1,$1+$1,$2,$3,$4,$5,0*
20,1,$1+$1,$4,$5,$6,$7,0*
20,1,$1+$1,$6,$7,$8,$9,0*
20,1,$1+$1,$8,$9,$2,$3,0*%
%AMFreePoly0*
4,1,9,1.050000,0.350000,0.550000,0.000000,0.550000,-0.400000,0.800000,-0.650000,0.800000,-0.800000,-1.050000,-0.800000,-1.050000,0.800000,1.050000,0.800000,1.050000,0.350000,1.050000,0.350000,$1*%
%AMFreePoly1*
4,1,9,1.050000,-0.800000,-0.800000,-0.800000,-0.800000,-0.650000,-0.550000,-0.400000,-0.550000,0.000000,-1.050000,0.350000,-1.050000,0.800000,1.050000,0.800000,1.050000,-0.800000,1.050000,-0.800000,$1*%
G04 Aperture macros list end*
%ADD10C,0.010000*%
%ADD11RoundRect,0.250000X-0.312500X-0.625000X0.312500X-0.625000X0.312500X0.625000X-0.312500X0.625000X0*%
%ADD12RoundRect,0.007500X-0.412500X-0.117500X0.412500X-0.117500X0.412500X0.117500X-0.412500X0.117500X0*%
%ADD13R,0.650000X0.400000*%
%ADD14RoundRect,0.200000X-0.200000X-0.275000X0.200000X-0.275000X0.200000X0.275000X-0.200000X0.275000X0*%
%ADD15RoundRect,0.250000X-0.375000X-0.625000X0.375000X-0.625000X0.375000X0.625000X-0.375000X0.625000X0*%
%ADD16R,0.550000X1.200000*%
%ADD17RoundRect,0.100000X-0.637500X-0.100000X0.637500X-0.100000X0.637500X0.100000X-0.637500X0.100000X0*%
%ADD18RoundRect,0.250000X-0.670000X-0.645000X0.670000X-0.645000X0.670000X0.645000X-0.670000X0.645000X0*%
%ADD19RoundRect,0.175000X-1.250000X-0.175000X1.250000X-0.175000X1.250000X0.175000X-1.250000X0.175000X0*%
%ADD20RoundRect,0.250000X0.475000X-0.250000X0.475000X0.250000X-0.475000X0.250000X-0.475000X-0.250000X0*%
%ADD21RoundRect,0.250000X0.650000X-0.325000X0.650000X0.325000X-0.650000X0.325000X-0.650000X-0.325000X0*%
%ADD22RoundRect,0.042000X-0.943000X-0.258000X0.943000X-0.258000X0.943000X0.258000X-0.943000X0.258000X0*%
%ADD23RoundRect,0.100000X-0.175000X-0.100000X0.175000X-0.100000X0.175000X0.100000X-0.175000X0.100000X0*%
%ADD24RoundRect,0.100000X-0.100000X-0.175000X0.100000X-0.175000X0.100000X0.175000X-0.100000X0.175000X0*%
%ADD25RoundRect,0.150000X-0.587500X-0.150000X0.587500X-0.150000X0.587500X0.150000X-0.587500X0.150000X0*%
%ADD26R,0.400000X1.350000*%
%ADD27FreePoly0,0.000000*%
%ADD28R,1.900000X1.900000*%
%ADD29FreePoly1,0.000000*%
G04 APERTURE END LIST*
%TO.C,U5*%
G36*
X100078000Y-88166000D02*
G01*
X99058000Y-88166000D01*
X99058000Y-86586000D01*
X100078000Y-86586000D01*
X100078000Y-88166000D01*
G37*
D10*
X100078000Y-88166000D02*
X99058000Y-88166000D01*
X99058000Y-86586000D01*
X100078000Y-86586000D01*
X100078000Y-88166000D01*
%TO.C,U3*%
G36*
X128186000Y-85233740D02*
G01*
X127383350Y-85233740D01*
X127383350Y-83830000D01*
X128186000Y-83830000D01*
X128186000Y-85233740D01*
G37*
X128186000Y-85233740D02*
X127383350Y-85233740D01*
X127383350Y-83830000D01*
X128186000Y-83830000D01*
X128186000Y-85233740D01*
G36*
X130186000Y-82550000D02*
G01*
X128385217Y-82550000D01*
X128385217Y-80350000D01*
X130186000Y-80350000D01*
X130186000Y-82550000D01*
G37*
X130186000Y-82550000D02*
X128385217Y-82550000D01*
X128385217Y-80350000D01*
X130186000Y-80350000D01*
X130186000Y-82550000D01*
G36*
X129686000Y-85232740D02*
G01*
X128885591Y-85232740D01*
X128885591Y-83830000D01*
X129686000Y-83830000D01*
X129686000Y-85232740D01*
G37*
X129686000Y-85232740D02*
X128885591Y-85232740D01*
X128885591Y-83830000D01*
X129686000Y-83830000D01*
X129686000Y-85232740D01*
G36*
X131186000Y-85231730D02*
G01*
X130386710Y-85231730D01*
X130386710Y-83830000D01*
X131186000Y-83830000D01*
X131186000Y-85231730D01*
G37*
X131186000Y-85231730D02*
X130386710Y-85231730D01*
X130386710Y-83830000D01*
X131186000Y-83830000D01*
X131186000Y-85231730D01*
%TD*%
D11*
%TO.C,R17*%
X163637500Y-82804000D03*
X166562500Y-82804000D03*
%TD*%
D12*
%TO.C,U5*%
X98133000Y-86251000D03*
X98133000Y-86701000D03*
X98133000Y-87151000D03*
X98133000Y-87601000D03*
X98133000Y-88051000D03*
X98133000Y-88501000D03*
X101003000Y-88501000D03*
X101003000Y-88051000D03*
X101003000Y-87601000D03*
X101003000Y-87151000D03*
X101003000Y-86701000D03*
X101003000Y-86251000D03*
%TD*%
D13*
%TO.C,U1*%
X107319999Y-85947499D03*
X107319999Y-86597499D03*
X107319999Y-87247499D03*
X109219999Y-87247499D03*
X109219999Y-85947499D03*
%TD*%
D14*
%TO.C,R1*%
X110110000Y-91440000D03*
X111760000Y-91440000D03*
%TD*%
%TO.C,R7*%
X126874000Y-96520000D03*
X128524000Y-96520000D03*
%TD*%
D11*
%TO.C,R15*%
X147032000Y-75814000D03*
X149957000Y-75814000D03*
%TD*%
D14*
%TO.C,R18*%
X157226000Y-65658000D03*
X158876000Y-65658000D03*
%TD*%
D11*
%TO.C,R24*%
X107757500Y-96520000D03*
X110682500Y-96520000D03*
%TD*%
D15*
%TO.C,D2*%
X116834000Y-76708000D03*
X119634000Y-76708000D03*
%TD*%
D16*
%TO.C,IC1*%
X99699999Y-68639999D03*
X100649999Y-68639999D03*
X101599999Y-68639999D03*
X101599999Y-66039999D03*
X100649999Y-66039999D03*
X99699999Y-66039999D03*
%TD*%
D11*
%TO.C,R16*%
X162657000Y-75814000D03*
X165582000Y-75814000D03*
%TD*%
%TO.C,R2*%
X129880500Y-92837000D03*
X132805500Y-92837000D03*
%TD*%
D17*
%TO.C,Q1*%
X98737500Y-76200000D03*
X98737500Y-76850000D03*
X98737500Y-77500000D03*
X98737500Y-78150000D03*
X104462500Y-78150000D03*
X104462500Y-77500000D03*
X104462500Y-76850000D03*
X104462500Y-76200000D03*
%TD*%
D18*
%TO.C,U4*%
X119919000Y-65217000D03*
X119919000Y-67437000D03*
X122199000Y-65217000D03*
X122199000Y-67437000D03*
D19*
X116909000Y-64422000D03*
X116909000Y-65692000D03*
X116909000Y-66962000D03*
X116909000Y-68232000D03*
X125209000Y-68232000D03*
X125209000Y-66962000D03*
X125209000Y-65692000D03*
X125209000Y-64422000D03*
%TD*%
D15*
%TO.C,D3*%
X154777000Y-75814000D03*
X157577000Y-75814000D03*
%TD*%
D11*
%TO.C,R11*%
X111654000Y-75057000D03*
X114579000Y-75057000D03*
%TD*%
D20*
%TO.C,C3*%
X138684000Y-102550000D03*
X138684000Y-100650000D03*
%TD*%
D21*
%TO.C,C5*%
X132588000Y-72644000D03*
X132588000Y-69694000D03*
%TD*%
D20*
%TO.C,C1*%
X114300000Y-86897500D03*
X114300000Y-84997500D03*
%TD*%
D14*
%TO.C,R5*%
X126874000Y-101600000D03*
X128524000Y-101600000D03*
%TD*%
%TO.C,R4*%
X126874000Y-99090000D03*
X128524000Y-99090000D03*
%TD*%
D15*
%TO.C,D1*%
X157604000Y-94996000D03*
X160404000Y-94996000D03*
%TD*%
D14*
%TO.C,R3*%
X115190000Y-91440000D03*
X116840000Y-91440000D03*
%TD*%
D11*
%TO.C,R10*%
X93787500Y-65024000D03*
X96712500Y-65024000D03*
%TD*%
%TO.C,R13*%
X122199000Y-72517000D03*
X125124000Y-72517000D03*
%TD*%
%TO.C,R14*%
X147417000Y-85974000D03*
X150342000Y-85974000D03*
%TD*%
D22*
%TO.C,U6*%
X142813000Y-63373000D03*
X142813000Y-64643000D03*
X142813000Y-65913000D03*
X142813000Y-67183000D03*
X147763000Y-67183000D03*
X147763000Y-65913000D03*
X147763000Y-64643000D03*
X147763000Y-63373000D03*
%TD*%
D11*
%TO.C,R25*%
X107757500Y-99810000D03*
X110682500Y-99810000D03*
%TD*%
D14*
%TO.C,R6*%
X137034000Y-96520000D03*
X138684000Y-96520000D03*
%TD*%
D20*
%TO.C,C4*%
X141224000Y-102550000D03*
X141224000Y-100650000D03*
%TD*%
D11*
%TO.C,R9*%
X93980000Y-71120000D03*
X96905000Y-71120000D03*
%TD*%
D15*
%TO.C,D5*%
X163954000Y-94996000D03*
X166754000Y-94996000D03*
%TD*%
D11*
%TO.C,R8*%
X150236000Y-94991000D03*
X153161000Y-94991000D03*
%TD*%
D14*
%TO.C,R19*%
X153036000Y-65278000D03*
X154686000Y-65278000D03*
%TD*%
D23*
%TO.C,U2*%
X131754000Y-98460000D03*
X131754000Y-99060000D03*
D24*
X132079000Y-99685000D03*
X132679000Y-99685000D03*
X133279000Y-99685000D03*
D23*
X133604000Y-99060000D03*
X133604000Y-98460000D03*
D24*
X133279000Y-97835000D03*
X132679000Y-97835000D03*
X132079000Y-97835000D03*
%TD*%
D15*
%TO.C,D4*%
X122174000Y-76708000D03*
X124974000Y-76708000D03*
%TD*%
D25*
%TO.C,Q3*%
X155702000Y-81534000D03*
X155702000Y-83434000D03*
X157577000Y-82484000D03*
%TD*%
D21*
%TO.C,C6*%
X132588000Y-67564000D03*
X132588000Y-64614000D03*
%TD*%
D11*
%TO.C,R12*%
X116734000Y-72517000D03*
X119659000Y-72517000D03*
%TD*%
D26*
%TO.C,J5*%
X97759999Y-94234999D03*
X98409999Y-94234999D03*
X99059999Y-94234999D03*
X99709999Y-94234999D03*
X100359999Y-94234999D03*
D27*
X95960000Y-94360000D03*
D28*
X97859999Y-96909999D03*
X100259999Y-96909999D03*
D29*
X102160000Y-94360000D03*
%TD*%
D20*
%TO.C,C2*%
X116840000Y-86897500D03*
X116840000Y-84997500D03*
%TD*%
M02*
