%TF.GenerationSoftware,KiCad,Pcbnew,(7.0.0)*%
%TF.CreationDate,2023-03-21T00:44:08+02:00*%
%TF.ProjectId,main_v0.6,6d61696e-5f76-4302-9e36-2e6b69636164,rev?*%
%TF.SameCoordinates,Original*%
%TF.FileFunction,Legend,Bot*%
%TF.FilePolarity,Positive*%
%FSLAX46Y46*%
G04 Gerber Fmt 4.6, Leading zero omitted, Abs format (unit mm)*
G04 Created by KiCad (PCBNEW (7.0.0)) date 2023-03-21 00:44:08*
%MOMM*%
%LPD*%
G01*
G04 APERTURE LIST*
%ADD10C,0.150000*%
G04 APERTURE END LIST*
D10*
X197358095Y-102970000D02*
X197453333Y-102922380D01*
X197453333Y-102922380D02*
X197596190Y-102922380D01*
X197596190Y-102922380D02*
X197739047Y-102970000D01*
X197739047Y-102970000D02*
X197834285Y-103065238D01*
X197834285Y-103065238D02*
X197881904Y-103160476D01*
X197881904Y-103160476D02*
X197929523Y-103350952D01*
X197929523Y-103350952D02*
X197929523Y-103493809D01*
X197929523Y-103493809D02*
X197881904Y-103684285D01*
X197881904Y-103684285D02*
X197834285Y-103779523D01*
X197834285Y-103779523D02*
X197739047Y-103874761D01*
X197739047Y-103874761D02*
X197596190Y-103922380D01*
X197596190Y-103922380D02*
X197500952Y-103922380D01*
X197500952Y-103922380D02*
X197358095Y-103874761D01*
X197358095Y-103874761D02*
X197310476Y-103827142D01*
X197310476Y-103827142D02*
X197310476Y-103493809D01*
X197310476Y-103493809D02*
X197500952Y-103493809D01*
X196881904Y-103922380D02*
X196881904Y-103255714D01*
X196881904Y-103446190D02*
X196834285Y-103350952D01*
X196834285Y-103350952D02*
X196786666Y-103303333D01*
X196786666Y-103303333D02*
X196691428Y-103255714D01*
X196691428Y-103255714D02*
X196596190Y-103255714D01*
X196119999Y-103922380D02*
X196215237Y-103874761D01*
X196215237Y-103874761D02*
X196262856Y-103827142D01*
X196262856Y-103827142D02*
X196310475Y-103731904D01*
X196310475Y-103731904D02*
X196310475Y-103446190D01*
X196310475Y-103446190D02*
X196262856Y-103350952D01*
X196262856Y-103350952D02*
X196215237Y-103303333D01*
X196215237Y-103303333D02*
X196119999Y-103255714D01*
X196119999Y-103255714D02*
X195977142Y-103255714D01*
X195977142Y-103255714D02*
X195881904Y-103303333D01*
X195881904Y-103303333D02*
X195834285Y-103350952D01*
X195834285Y-103350952D02*
X195786666Y-103446190D01*
X195786666Y-103446190D02*
X195786666Y-103731904D01*
X195786666Y-103731904D02*
X195834285Y-103827142D01*
X195834285Y-103827142D02*
X195881904Y-103874761D01*
X195881904Y-103874761D02*
X195977142Y-103922380D01*
X195977142Y-103922380D02*
X196119999Y-103922380D01*
X194929523Y-103255714D02*
X194929523Y-103922380D01*
X195358094Y-103255714D02*
X195358094Y-103779523D01*
X195358094Y-103779523D02*
X195310475Y-103874761D01*
X195310475Y-103874761D02*
X195215237Y-103922380D01*
X195215237Y-103922380D02*
X195072380Y-103922380D01*
X195072380Y-103922380D02*
X194977142Y-103874761D01*
X194977142Y-103874761D02*
X194929523Y-103827142D01*
X194453332Y-103255714D02*
X194453332Y-104255714D01*
X194453332Y-103303333D02*
X194358094Y-103255714D01*
X194358094Y-103255714D02*
X194167618Y-103255714D01*
X194167618Y-103255714D02*
X194072380Y-103303333D01*
X194072380Y-103303333D02*
X194024761Y-103350952D01*
X194024761Y-103350952D02*
X193977142Y-103446190D01*
X193977142Y-103446190D02*
X193977142Y-103731904D01*
X193977142Y-103731904D02*
X194024761Y-103827142D01*
X194024761Y-103827142D02*
X194072380Y-103874761D01*
X194072380Y-103874761D02*
X194167618Y-103922380D01*
X194167618Y-103922380D02*
X194358094Y-103922380D01*
X194358094Y-103922380D02*
X194453332Y-103874761D01*
X192519999Y-103255714D02*
X192519999Y-103922380D01*
X192758094Y-102874761D02*
X192996189Y-103589047D01*
X192996189Y-103589047D02*
X192377142Y-103589047D01*
X191491427Y-103255714D02*
X191253332Y-103922380D01*
X191253332Y-103922380D02*
X191015237Y-103255714D01*
X190443808Y-102922380D02*
X190348570Y-102922380D01*
X190348570Y-102922380D02*
X190253332Y-102970000D01*
X190253332Y-102970000D02*
X190205713Y-103017619D01*
X190205713Y-103017619D02*
X190158094Y-103112857D01*
X190158094Y-103112857D02*
X190110475Y-103303333D01*
X190110475Y-103303333D02*
X190110475Y-103541428D01*
X190110475Y-103541428D02*
X190158094Y-103731904D01*
X190158094Y-103731904D02*
X190205713Y-103827142D01*
X190205713Y-103827142D02*
X190253332Y-103874761D01*
X190253332Y-103874761D02*
X190348570Y-103922380D01*
X190348570Y-103922380D02*
X190443808Y-103922380D01*
X190443808Y-103922380D02*
X190539046Y-103874761D01*
X190539046Y-103874761D02*
X190586665Y-103827142D01*
X190586665Y-103827142D02*
X190634284Y-103731904D01*
X190634284Y-103731904D02*
X190681903Y-103541428D01*
X190681903Y-103541428D02*
X190681903Y-103303333D01*
X190681903Y-103303333D02*
X190634284Y-103112857D01*
X190634284Y-103112857D02*
X190586665Y-103017619D01*
X190586665Y-103017619D02*
X190539046Y-102970000D01*
X190539046Y-102970000D02*
X190443808Y-102922380D01*
X189681903Y-103827142D02*
X189634284Y-103874761D01*
X189634284Y-103874761D02*
X189681903Y-103922380D01*
X189681903Y-103922380D02*
X189729522Y-103874761D01*
X189729522Y-103874761D02*
X189681903Y-103827142D01*
X189681903Y-103827142D02*
X189681903Y-103922380D01*
X188681904Y-103922380D02*
X189253332Y-103922380D01*
X188967618Y-103922380D02*
X188967618Y-102922380D01*
X188967618Y-102922380D02*
X189062856Y-103065238D01*
X189062856Y-103065238D02*
X189158094Y-103160476D01*
X189158094Y-103160476D02*
X189253332Y-103208095D01*
M02*
