%TF.GenerationSoftware,KiCad,Pcbnew,(7.0.0)*%
%TF.CreationDate,2023-03-21T00:44:08+02:00*%
%TF.ProjectId,main_v0.6,6d61696e-5f76-4302-9e36-2e6b69636164,rev?*%
%TF.SameCoordinates,Original*%
%TF.FileFunction,Copper,L2,Bot*%
%TF.FilePolarity,Positive*%
%FSLAX46Y46*%
G04 Gerber Fmt 4.6, Leading zero omitted, Abs format (unit mm)*
G04 Created by KiCad (PCBNEW (7.0.0)) date 2023-03-21 00:44:08*
%MOMM*%
%LPD*%
G01*
G04 APERTURE LIST*
%TA.AperFunction,ComponentPad*%
%ADD10R,1.700000X1.700000*%
%TD*%
%TA.AperFunction,ComponentPad*%
%ADD11O,1.700000X1.700000*%
%TD*%
%TA.AperFunction,ComponentPad*%
%ADD12C,2.000000*%
%TD*%
%TA.AperFunction,ComponentPad*%
%ADD13O,1.000000X1.700000*%
%TD*%
%TA.AperFunction,ComponentPad*%
%ADD14O,0.850000X1.700000*%
%TD*%
%TA.AperFunction,ViaPad*%
%ADD15C,0.600000*%
%TD*%
%TA.AperFunction,Conductor*%
%ADD16C,0.200000*%
%TD*%
%TA.AperFunction,Conductor*%
%ADD17C,0.300000*%
%TD*%
G04 APERTURE END LIST*
D10*
%TO.P,J1,1,Pin_1*%
%TO.N,unconnected-(J1-Pin_1-Pad1)*%
X173149999Y-40639999D03*
D11*
%TO.P,J1,2,Pin_2*%
%TO.N,unconnected-(J1-Pin_2-Pad2)*%
X173149999Y-43179999D03*
%TO.P,J1,3,Pin_3*%
%TO.N,unconnected-(J1-Pin_3-Pad3)*%
X173149999Y-45719999D03*
%TO.P,J1,4,Pin_4*%
%TO.N,unconnected-(J1-Pin_4-Pad4)*%
X173149999Y-48259999D03*
%TO.P,J1,5,Pin_5*%
%TO.N,unconnected-(J1-Pin_5-Pad5)*%
X173149999Y-50799999D03*
%TO.P,J1,6,Pin_6*%
%TO.N,unconnected-(J1-Pin_6-Pad6)*%
X173149999Y-53339999D03*
%TO.P,J1,7,Pin_7*%
%TO.N,unconnected-(J1-Pin_7-Pad7)*%
X173149999Y-55879999D03*
%TO.P,J1,8,Pin_8*%
%TO.N,unconnected-(J1-Pin_8-Pad8)*%
X173149999Y-58419999D03*
%TO.P,J1,9,Pin_9*%
%TO.N,unconnected-(J1-Pin_9-Pad9)*%
X173149999Y-60959999D03*
%TO.P,J1,10,Pin_10*%
%TO.N,unconnected-(J1-Pin_10-Pad10)*%
X173149999Y-63499999D03*
%TO.P,J1,11,Pin_11*%
%TO.N,unconnected-(J1-Pin_11-Pad11)*%
X173149999Y-66039999D03*
%TO.P,J1,12,Pin_12*%
%TO.N,unconnected-(J1-Pin_12-Pad12)*%
X173149999Y-68579999D03*
%TO.P,J1,13,Pin_13*%
%TO.N,unconnected-(J1-Pin_13-Pad13)*%
X173149999Y-71119999D03*
%TO.P,J1,14,Pin_14*%
%TO.N,unconnected-(J1-Pin_14-Pad14)*%
X173149999Y-73659999D03*
%TO.P,J1,15,Pin_15*%
%TO.N,unconnected-(J1-Pin_15-Pad15)*%
X173149999Y-76199999D03*
%TO.P,J1,16,Pin_16*%
%TO.N,unconnected-(J1-Pin_16-Pad16)*%
X173149999Y-78739999D03*
%TO.P,J1,17,Pin_17*%
%TO.N,unconnected-(J1-Pin_17-Pad17)*%
X173149999Y-81279999D03*
%TO.P,J1,18,Pin_18*%
%TO.N,unconnected-(J1-Pin_18-Pad18)*%
X173149999Y-83819999D03*
%TO.P,J1,19,Pin_19*%
%TO.N,unconnected-(J1-Pin_19-Pad19)*%
X173149999Y-86359999D03*
%TO.P,J1,20,Pin_20*%
%TO.N,unconnected-(J1-Pin_20-Pad20)*%
X173149999Y-88899999D03*
%TO.P,J1,21,Pin_21*%
%TO.N,unconnected-(J1-Pin_21-Pad21)*%
X173149999Y-91439999D03*
%TO.P,J1,22,Pin_22*%
%TO.N,/I2C2_SCL*%
X173149999Y-93979999D03*
%TO.P,J1,23,Pin_23*%
%TO.N,unconnected-(J1-Pin_23-Pad23)*%
X173149999Y-96519999D03*
%TO.P,J1,24,Pin_24*%
%TO.N,unconnected-(J1-Pin_24-Pad24)*%
X173149999Y-99059999D03*
%TD*%
D10*
%TO.P,J2,1,Pin_1*%
%TO.N,unconnected-(J2-Pin_1-Pad1)*%
X195579999Y-40639999D03*
D11*
%TO.P,J2,2,Pin_2*%
%TO.N,unconnected-(J2-Pin_2-Pad2)*%
X195579999Y-43179999D03*
%TO.P,J2,3,Pin_3*%
%TO.N,unconnected-(J2-Pin_3-Pad3)*%
X195579999Y-45719999D03*
%TO.P,J2,4,Pin_4*%
%TO.N,unconnected-(J2-Pin_4-Pad4)*%
X195579999Y-48259999D03*
%TO.P,J2,5,Pin_5*%
%TO.N,unconnected-(J2-Pin_5-Pad5)*%
X195579999Y-50799999D03*
%TO.P,J2,6,Pin_6*%
%TO.N,/Interface IC Module/TXD*%
X195579999Y-53339999D03*
%TO.P,J2,7,Pin_7*%
%TO.N,/Interface IC Module/RXD*%
X195579999Y-55879999D03*
%TO.P,J2,8,Pin_8*%
%TO.N,unconnected-(J2-Pin_8-Pad8)*%
X195579999Y-58419999D03*
%TO.P,J2,9,Pin_9*%
%TO.N,unconnected-(J2-Pin_9-Pad9)*%
X195579999Y-60959999D03*
%TO.P,J2,10,Pin_10*%
%TO.N,unconnected-(J2-Pin_10-Pad10)*%
X195579999Y-63499999D03*
%TO.P,J2,11,Pin_11*%
%TO.N,/Interface IC Module/I2C3_SCL*%
X195579999Y-66039999D03*
%TO.P,J2,12,Pin_12*%
%TO.N,/Interface IC Module/I2C3_SDA*%
X195579999Y-68579999D03*
%TO.P,J2,13,Pin_13*%
%TO.N,unconnected-(J2-Pin_13-Pad13)*%
X195579999Y-71119999D03*
%TO.P,J2,14,Pin_14*%
%TO.N,unconnected-(J2-Pin_14-Pad14)*%
X195579999Y-73659999D03*
%TO.P,J2,15,Pin_15*%
%TO.N,unconnected-(J2-Pin_15-Pad15)*%
X195579999Y-76199999D03*
%TO.P,J2,16,Pin_16*%
%TO.N,unconnected-(J2-Pin_16-Pad16)*%
X195579999Y-78739999D03*
%TO.P,J2,17,Pin_17*%
%TO.N,unconnected-(J2-Pin_17-Pad17)*%
X195579999Y-81279999D03*
%TO.P,J2,18,Pin_18*%
%TO.N,/Interface IC Module/I2C1_SCL*%
X195579999Y-83819999D03*
%TO.P,J2,19,Pin_19*%
%TO.N,/Interface IC Module/I2C1_SDA*%
X195579999Y-86359999D03*
%TO.P,J2,20,Pin_20*%
%TO.N,unconnected-(J2-Pin_20-Pad20)*%
X195579999Y-88899999D03*
%TO.P,J2,21,Pin_21*%
%TO.N,unconnected-(J2-Pin_21-Pad21)*%
X195579999Y-91439999D03*
%TO.P,J2,22,Pin_22*%
%TO.N,unconnected-(J2-Pin_22-Pad22)*%
X195579999Y-93979999D03*
%TO.P,J2,23,Pin_23*%
%TO.N,unconnected-(J2-Pin_23-Pad23)*%
X195579999Y-96519999D03*
%TO.P,J2,24,Pin_24*%
%TO.N,unconnected-(J2-Pin_24-Pad24)*%
X195579999Y-99059999D03*
%TD*%
D12*
%TO.P,BT1,1,+*%
%TO.N,/V battery+*%
X166905000Y-51155000D03*
%TO.P,BT1,2,-*%
%TO.N,/V battery-*%
X95305000Y-51155000D03*
%TD*%
D13*
%TO.P,J5,6,Shield*%
%TO.N,GND*%
X96234999Y-96909999D03*
D14*
X101884999Y-96909999D03*
%TD*%
D15*
%TO.N,/V battery+*%
X95242300Y-71120000D03*
X131380900Y-68528500D03*
X124342200Y-69098800D03*
%TO.N,GND*%
X105129800Y-86497400D03*
X131345800Y-100073400D03*
X100847000Y-89309800D03*
X132988100Y-100474100D03*
%TO.N,/I2C2_SCL*%
X119544600Y-91280000D03*
%TO.N,/Interface IC Module/TXD*%
X103432300Y-88636200D03*
%TO.N,/Interface IC Module/I2C1_SCL*%
X130522500Y-98864800D03*
%TO.N,Net-(U2-~{CS})*%
X127545000Y-97345900D03*
X132597400Y-98909300D03*
%TD*%
D16*
%TO.N,/V battery+*%
X95242300Y-71120000D02*
X122321000Y-71120000D01*
X149531500Y-68528500D02*
X131380900Y-68528500D01*
X124912500Y-68528500D02*
X124342200Y-69098800D01*
X166905000Y-51155000D02*
X149531500Y-68528500D01*
X122321000Y-71120000D02*
X124342200Y-69098800D01*
X131380900Y-68528500D02*
X124912500Y-68528500D01*
%TO.N,GND*%
X131746500Y-100474100D02*
X132988100Y-100474100D01*
X131345800Y-100073400D02*
X131746500Y-100474100D01*
X103898100Y-100073400D02*
X131345800Y-100073400D01*
X101885000Y-97485100D02*
X101885000Y-98060300D01*
X105129800Y-86497400D02*
X104722200Y-86497400D01*
X101885000Y-89334600D02*
X100871800Y-89334600D01*
X104722200Y-86497400D02*
X101885000Y-89334600D01*
X101885000Y-98060300D02*
X103898100Y-100073400D01*
X101885000Y-97485100D02*
X101885000Y-96910000D01*
X101885000Y-89334600D02*
X101885000Y-96910000D01*
X100871800Y-89334600D02*
X100847000Y-89309800D01*
%TO.N,/I2C2_SCL*%
X173150000Y-93980000D02*
X122244600Y-93980000D01*
X122244600Y-93980000D02*
X119544600Y-91280000D01*
%TO.N,/Interface IC Module/TXD*%
X167908300Y-54490300D02*
X167251700Y-54490300D01*
D17*
X194429700Y-53340000D02*
X193279400Y-54490300D01*
X195580000Y-53340000D02*
X194429700Y-53340000D01*
X193279400Y-54490300D02*
X167908300Y-54490300D01*
X133105800Y-88636200D02*
X103432300Y-88636200D01*
X167251700Y-54490300D02*
X133105800Y-88636200D01*
D16*
%TO.N,/Interface IC Module/I2C1_SCL*%
X130522500Y-98864800D02*
X134070300Y-95317000D01*
X134070300Y-95317000D02*
X182932700Y-95317000D01*
X182932700Y-95317000D02*
X194429700Y-83820000D01*
X195580000Y-83820000D02*
X194429700Y-83820000D01*
%TO.N,Net-(U2-~{CS})*%
X132041600Y-99465100D02*
X129664200Y-99465100D01*
X132597400Y-98909300D02*
X132041600Y-99465100D01*
X129664200Y-99465100D02*
X127545000Y-97345900D01*
%TD*%
%TA.AperFunction,Conductor*%
%TO.N,GND*%
G36*
X198047500Y-38127113D02*
G01*
X198092887Y-38172500D01*
X198109500Y-38234500D01*
X198109500Y-104005500D01*
X198092887Y-104067500D01*
X198047500Y-104112887D01*
X197985500Y-104129500D01*
X91574500Y-104129500D01*
X91512500Y-104112887D01*
X91467113Y-104067500D01*
X91450500Y-104005500D01*
X91450500Y-97307570D01*
X95235000Y-97307570D01*
X95235317Y-97313835D01*
X95249783Y-97456084D01*
X95252301Y-97468335D01*
X95309419Y-97650385D01*
X95314355Y-97661889D01*
X95406954Y-97828720D01*
X95414097Y-97838982D01*
X95538379Y-97983754D01*
X95547458Y-97992385D01*
X95698329Y-98109167D01*
X95708957Y-98115792D01*
X95880256Y-98199817D01*
X95891997Y-98204165D01*
X95971253Y-98224686D01*
X95982464Y-98224971D01*
X95983627Y-98219962D01*
X96485000Y-98219962D01*
X96487337Y-98230645D01*
X96492502Y-98230973D01*
X96492840Y-98230885D01*
X96671760Y-98164621D01*
X96683006Y-98159105D01*
X96844926Y-98058180D01*
X96854820Y-98050521D01*
X96993114Y-97919063D01*
X97001262Y-97909572D01*
X97110265Y-97752963D01*
X97116334Y-97742029D01*
X97191581Y-97566681D01*
X97195324Y-97554752D01*
X97231189Y-97380233D01*
X100960000Y-97380233D01*
X100960338Y-97386696D01*
X100974550Y-97521916D01*
X100977238Y-97534558D01*
X101033308Y-97707125D01*
X101038564Y-97718930D01*
X101129288Y-97876069D01*
X101136883Y-97886523D01*
X101258298Y-98021367D01*
X101267898Y-98030012D01*
X101414697Y-98136668D01*
X101425886Y-98143128D01*
X101591652Y-98216931D01*
X101603937Y-98220923D01*
X101621449Y-98224645D01*
X101632549Y-98224500D01*
X101635000Y-98213672D01*
X102135000Y-98213672D01*
X102137450Y-98224500D01*
X102148550Y-98224645D01*
X102166062Y-98220923D01*
X102178347Y-98216931D01*
X102344110Y-98143129D01*
X102355305Y-98136665D01*
X102502095Y-98030016D01*
X102511704Y-98021364D01*
X102633116Y-97886523D01*
X102640711Y-97876069D01*
X102731435Y-97718930D01*
X102736691Y-97707125D01*
X102792761Y-97534558D01*
X102795449Y-97521916D01*
X102809661Y-97386696D01*
X102810000Y-97380233D01*
X102810000Y-97176326D01*
X102806549Y-97163450D01*
X102793674Y-97160000D01*
X102151326Y-97160000D01*
X102138450Y-97163450D01*
X102135000Y-97176326D01*
X102135000Y-98213672D01*
X101635000Y-98213672D01*
X101635000Y-97176326D01*
X101631549Y-97163450D01*
X101618674Y-97160000D01*
X100976326Y-97160000D01*
X100963450Y-97163450D01*
X100960000Y-97176326D01*
X100960000Y-97380233D01*
X97231189Y-97380233D01*
X97233734Y-97367847D01*
X97235000Y-97355402D01*
X97235000Y-97176326D01*
X97231549Y-97163450D01*
X97218674Y-97160000D01*
X96501326Y-97160000D01*
X96488450Y-97163450D01*
X96485000Y-97176326D01*
X96485000Y-98219962D01*
X95983627Y-98219962D01*
X95985000Y-98214046D01*
X95985000Y-97176326D01*
X95981549Y-97163450D01*
X95968674Y-97160000D01*
X95251326Y-97160000D01*
X95238450Y-97163450D01*
X95235000Y-97176326D01*
X95235000Y-97307570D01*
X91450500Y-97307570D01*
X91450500Y-96643674D01*
X95235000Y-96643674D01*
X95238450Y-96656549D01*
X95251326Y-96660000D01*
X95968674Y-96660000D01*
X95981549Y-96656549D01*
X95985000Y-96643674D01*
X96485000Y-96643674D01*
X96488450Y-96656549D01*
X96501326Y-96660000D01*
X97218674Y-96660000D01*
X97231549Y-96656549D01*
X97235000Y-96643674D01*
X100960000Y-96643674D01*
X100963450Y-96656549D01*
X100976326Y-96660000D01*
X101618674Y-96660000D01*
X101631549Y-96656549D01*
X101635000Y-96643674D01*
X102135000Y-96643674D01*
X102138450Y-96656549D01*
X102151326Y-96660000D01*
X102793674Y-96660000D01*
X102806549Y-96656549D01*
X102810000Y-96643674D01*
X102810000Y-96439767D01*
X102809661Y-96433303D01*
X102795449Y-96298083D01*
X102792761Y-96285441D01*
X102736691Y-96112874D01*
X102731435Y-96101069D01*
X102640711Y-95943930D01*
X102633116Y-95933476D01*
X102511701Y-95798632D01*
X102502101Y-95789987D01*
X102355302Y-95683331D01*
X102344113Y-95676871D01*
X102178347Y-95603068D01*
X102166062Y-95599076D01*
X102148550Y-95595354D01*
X102137450Y-95595499D01*
X102135000Y-95606328D01*
X102135000Y-96643674D01*
X101635000Y-96643674D01*
X101635000Y-95606328D01*
X101632549Y-95595499D01*
X101621449Y-95595354D01*
X101603937Y-95599076D01*
X101591652Y-95603068D01*
X101425889Y-95676870D01*
X101414694Y-95683334D01*
X101267904Y-95789983D01*
X101258295Y-95798635D01*
X101136883Y-95933476D01*
X101129288Y-95943930D01*
X101038564Y-96101069D01*
X101033308Y-96112874D01*
X100977238Y-96285441D01*
X100974550Y-96298083D01*
X100960338Y-96433303D01*
X100960000Y-96439767D01*
X100960000Y-96643674D01*
X97235000Y-96643674D01*
X97235000Y-96512430D01*
X97234682Y-96506164D01*
X97220216Y-96363915D01*
X97217698Y-96351664D01*
X97160580Y-96169614D01*
X97155644Y-96158110D01*
X97063045Y-95991279D01*
X97055902Y-95981017D01*
X96931620Y-95836245D01*
X96922541Y-95827614D01*
X96771670Y-95710832D01*
X96761042Y-95704207D01*
X96589743Y-95620182D01*
X96578002Y-95615834D01*
X96498746Y-95595313D01*
X96487535Y-95595028D01*
X96485000Y-95605954D01*
X96485000Y-96643674D01*
X95985000Y-96643674D01*
X95985000Y-95600038D01*
X95982662Y-95589354D01*
X95977497Y-95589026D01*
X95977159Y-95589114D01*
X95798239Y-95655378D01*
X95786993Y-95660894D01*
X95625073Y-95761819D01*
X95615179Y-95769478D01*
X95476885Y-95900936D01*
X95468737Y-95910427D01*
X95359734Y-96067036D01*
X95353665Y-96077970D01*
X95278418Y-96253318D01*
X95274675Y-96265247D01*
X95236265Y-96452152D01*
X95235000Y-96464598D01*
X95235000Y-96643674D01*
X91450500Y-96643674D01*
X91450500Y-94589344D01*
X96705868Y-94589344D01*
X96708389Y-94599299D01*
X96724332Y-94662259D01*
X96734584Y-94702741D01*
X96740202Y-94711341D01*
X96740204Y-94711344D01*
X96768305Y-94754356D01*
X96798563Y-94800669D01*
X96806668Y-94806977D01*
X96882766Y-94866207D01*
X96882768Y-94866208D01*
X96890874Y-94872517D01*
X97001512Y-94910500D01*
X97083907Y-94910500D01*
X97089040Y-94910500D01*
X97175381Y-94896092D01*
X97278258Y-94840418D01*
X97357484Y-94754356D01*
X97404473Y-94647232D01*
X97409269Y-94589344D01*
X100705868Y-94589344D01*
X100708389Y-94599299D01*
X100724332Y-94662259D01*
X100734584Y-94702741D01*
X100740202Y-94711341D01*
X100740204Y-94711344D01*
X100768305Y-94754356D01*
X100798563Y-94800669D01*
X100806668Y-94806977D01*
X100882766Y-94866207D01*
X100882768Y-94866208D01*
X100890874Y-94872517D01*
X101001512Y-94910500D01*
X101083907Y-94910500D01*
X101089040Y-94910500D01*
X101175381Y-94896092D01*
X101278258Y-94840418D01*
X101357484Y-94754356D01*
X101404473Y-94647232D01*
X101414132Y-94530656D01*
X101385416Y-94417259D01*
X101321437Y-94319331D01*
X101280079Y-94287141D01*
X101237233Y-94253792D01*
X101237229Y-94253789D01*
X101229126Y-94247483D01*
X101219409Y-94244147D01*
X101128207Y-94212836D01*
X101128203Y-94212835D01*
X101118488Y-94209500D01*
X101030960Y-94209500D01*
X101025906Y-94210343D01*
X101025898Y-94210344D01*
X100954751Y-94222217D01*
X100954749Y-94222217D01*
X100944619Y-94223908D01*
X100935586Y-94228796D01*
X100935584Y-94228797D01*
X100850779Y-94274691D01*
X100850777Y-94274692D01*
X100841742Y-94279582D01*
X100834787Y-94287137D01*
X100834782Y-94287141D01*
X100769474Y-94358085D01*
X100769472Y-94358087D01*
X100762516Y-94365644D01*
X100758390Y-94375049D01*
X100758388Y-94375053D01*
X100726140Y-94448572D01*
X100715527Y-94472768D01*
X100714679Y-94482997D01*
X100714678Y-94483003D01*
X100708139Y-94561933D01*
X100705868Y-94589344D01*
X97409269Y-94589344D01*
X97414132Y-94530656D01*
X97385416Y-94417259D01*
X97321437Y-94319331D01*
X97280079Y-94287141D01*
X97237233Y-94253792D01*
X97237229Y-94253789D01*
X97229126Y-94247483D01*
X97219409Y-94244147D01*
X97128207Y-94212836D01*
X97128203Y-94212835D01*
X97118488Y-94209500D01*
X97030960Y-94209500D01*
X97025906Y-94210343D01*
X97025898Y-94210344D01*
X96954751Y-94222217D01*
X96954749Y-94222217D01*
X96944619Y-94223908D01*
X96935586Y-94228796D01*
X96935584Y-94228797D01*
X96850779Y-94274691D01*
X96850777Y-94274692D01*
X96841742Y-94279582D01*
X96834787Y-94287137D01*
X96834782Y-94287141D01*
X96769474Y-94358085D01*
X96769472Y-94358087D01*
X96762516Y-94365644D01*
X96758390Y-94375049D01*
X96758388Y-94375053D01*
X96726140Y-94448572D01*
X96715527Y-94472768D01*
X96714679Y-94482997D01*
X96714678Y-94483003D01*
X96708139Y-94561933D01*
X96705868Y-94589344D01*
X91450500Y-94589344D01*
X91450500Y-88636200D01*
X102626735Y-88636200D01*
X102646932Y-88815455D01*
X102649228Y-88822019D01*
X102649230Y-88822024D01*
X102678403Y-88905395D01*
X102706511Y-88985722D01*
X102710212Y-88991612D01*
X102795052Y-89126635D01*
X102802484Y-89138462D01*
X102930038Y-89266016D01*
X103082778Y-89361989D01*
X103253045Y-89421568D01*
X103432300Y-89441765D01*
X103611555Y-89421568D01*
X103781822Y-89361989D01*
X103871396Y-89305705D01*
X103937368Y-89286700D01*
X133024727Y-89286700D01*
X133036396Y-89287250D01*
X133036481Y-89287258D01*
X133044096Y-89288960D01*
X133114062Y-89286760D01*
X133117957Y-89286700D01*
X133142825Y-89286700D01*
X133146725Y-89286700D01*
X133151094Y-89286147D01*
X133162739Y-89285230D01*
X133208369Y-89283797D01*
X133228751Y-89277874D01*
X133247791Y-89273931D01*
X133268858Y-89271271D01*
X133286106Y-89264441D01*
X133311308Y-89254464D01*
X133322357Y-89250680D01*
X133366198Y-89237944D01*
X133384460Y-89227142D01*
X133401936Y-89218580D01*
X133421671Y-89210768D01*
X133458616Y-89183925D01*
X133468358Y-89177526D01*
X133507665Y-89154281D01*
X133522669Y-89139276D01*
X133537464Y-89126638D01*
X133554637Y-89114163D01*
X133583747Y-89078972D01*
X133591590Y-89070354D01*
X163506945Y-59155000D01*
X166104466Y-59155000D01*
X166105246Y-59161923D01*
X166123756Y-59326211D01*
X166123757Y-59326217D01*
X166124537Y-59333136D01*
X166126836Y-59339707D01*
X166126838Y-59339714D01*
X166156607Y-59424786D01*
X166183744Y-59502339D01*
X166279117Y-59654125D01*
X166405875Y-59780883D01*
X166557661Y-59876256D01*
X166726864Y-59935463D01*
X166905000Y-59955534D01*
X167083136Y-59935463D01*
X167252339Y-59876256D01*
X167404125Y-59780883D01*
X167530883Y-59654125D01*
X167626256Y-59502339D01*
X167685463Y-59333136D01*
X167705534Y-59155000D01*
X167685463Y-58976864D01*
X167626256Y-58807661D01*
X167530883Y-58655875D01*
X167404125Y-58529117D01*
X167252339Y-58433744D01*
X167213061Y-58420000D01*
X167089714Y-58376838D01*
X167089707Y-58376836D01*
X167083136Y-58374537D01*
X167076217Y-58373757D01*
X167076211Y-58373756D01*
X166911923Y-58355246D01*
X166905000Y-58354466D01*
X166898077Y-58355246D01*
X166733788Y-58373756D01*
X166733780Y-58373757D01*
X166726864Y-58374537D01*
X166720294Y-58376835D01*
X166720285Y-58376838D01*
X166564236Y-58431443D01*
X166564233Y-58431444D01*
X166557661Y-58433744D01*
X166551766Y-58437447D01*
X166551764Y-58437449D01*
X166411775Y-58525409D01*
X166411770Y-58525412D01*
X166405875Y-58529117D01*
X166400950Y-58534041D01*
X166400946Y-58534045D01*
X166284045Y-58650946D01*
X166284041Y-58650950D01*
X166279117Y-58655875D01*
X166275412Y-58661770D01*
X166275409Y-58661775D01*
X166187449Y-58801764D01*
X166183744Y-58807661D01*
X166181444Y-58814233D01*
X166181443Y-58814236D01*
X166126838Y-58970285D01*
X166126835Y-58970294D01*
X166124537Y-58976864D01*
X166123757Y-58983780D01*
X166123756Y-58983788D01*
X166111460Y-59092927D01*
X166104466Y-59155000D01*
X163506945Y-59155000D01*
X167534826Y-55127119D01*
X167575055Y-55100239D01*
X167622508Y-55090800D01*
X167622883Y-55090800D01*
X167664915Y-55098818D01*
X167666932Y-55099927D01*
X167826123Y-55140800D01*
X171809941Y-55140800D01*
X171869584Y-55156086D01*
X171914522Y-55198175D01*
X171933676Y-55256690D01*
X171922323Y-55317205D01*
X171878386Y-55411427D01*
X171878383Y-55411432D01*
X171876097Y-55416337D01*
X171874698Y-55421557D01*
X171874694Y-55421569D01*
X171816337Y-55639365D01*
X171816335Y-55639371D01*
X171814937Y-55644592D01*
X171794341Y-55880000D01*
X171814937Y-56115408D01*
X171816336Y-56120630D01*
X171816337Y-56120634D01*
X171874694Y-56338430D01*
X171874697Y-56338438D01*
X171876097Y-56343663D01*
X171878385Y-56348570D01*
X171878386Y-56348572D01*
X171973678Y-56552927D01*
X171973681Y-56552933D01*
X171975965Y-56557830D01*
X171979064Y-56562257D01*
X171979066Y-56562259D01*
X172108399Y-56746966D01*
X172108402Y-56746970D01*
X172111505Y-56751401D01*
X172278599Y-56918495D01*
X172283032Y-56921599D01*
X172283038Y-56921604D01*
X172464158Y-57048425D01*
X172503024Y-57092743D01*
X172517035Y-57150000D01*
X172503024Y-57207257D01*
X172464159Y-57251575D01*
X172283041Y-57378395D01*
X172278599Y-57381505D01*
X172274775Y-57385328D01*
X172274769Y-57385334D01*
X172115334Y-57544769D01*
X172115328Y-57544775D01*
X172111505Y-57548599D01*
X172108402Y-57553029D01*
X172108399Y-57553034D01*
X171979073Y-57737731D01*
X171979068Y-57737738D01*
X171975965Y-57742171D01*
X171973677Y-57747077D01*
X171973675Y-57747081D01*
X171878386Y-57951427D01*
X171878383Y-57951432D01*
X171876097Y-57956337D01*
X171874698Y-57961557D01*
X171874694Y-57961569D01*
X171816337Y-58179365D01*
X171816335Y-58179371D01*
X171814937Y-58184592D01*
X171814465Y-58189977D01*
X171814465Y-58189982D01*
X171800006Y-58355246D01*
X171794341Y-58420000D01*
X171794813Y-58425395D01*
X171812306Y-58625344D01*
X171814937Y-58655408D01*
X171816336Y-58660630D01*
X171816337Y-58660634D01*
X171874694Y-58878430D01*
X171874697Y-58878438D01*
X171876097Y-58883663D01*
X171878385Y-58888570D01*
X171878386Y-58888572D01*
X171973678Y-59092927D01*
X171973681Y-59092933D01*
X171975965Y-59097830D01*
X171979064Y-59102257D01*
X171979066Y-59102259D01*
X172108399Y-59286966D01*
X172108402Y-59286970D01*
X172111505Y-59291401D01*
X172278599Y-59458495D01*
X172283032Y-59461599D01*
X172283038Y-59461604D01*
X172464158Y-59588425D01*
X172503024Y-59632743D01*
X172517035Y-59690000D01*
X172503024Y-59747257D01*
X172464159Y-59791575D01*
X172283041Y-59918395D01*
X172278599Y-59921505D01*
X172274775Y-59925328D01*
X172274769Y-59925334D01*
X172115334Y-60084769D01*
X172115328Y-60084775D01*
X172111505Y-60088599D01*
X172108402Y-60093029D01*
X172108399Y-60093034D01*
X171979073Y-60277731D01*
X171979068Y-60277738D01*
X171975965Y-60282171D01*
X171973677Y-60287077D01*
X171973675Y-60287081D01*
X171878386Y-60491427D01*
X171878383Y-60491432D01*
X171876097Y-60496337D01*
X171874698Y-60501557D01*
X171874694Y-60501569D01*
X171816337Y-60719365D01*
X171816335Y-60719371D01*
X171814937Y-60724592D01*
X171814465Y-60729977D01*
X171814465Y-60729982D01*
X171797842Y-60919987D01*
X171794341Y-60960000D01*
X171814937Y-61195408D01*
X171816336Y-61200630D01*
X171816337Y-61200634D01*
X171874694Y-61418430D01*
X171874697Y-61418438D01*
X171876097Y-61423663D01*
X171878385Y-61428570D01*
X171878386Y-61428572D01*
X171973678Y-61632927D01*
X171973681Y-61632933D01*
X171975965Y-61637830D01*
X171979064Y-61642257D01*
X171979066Y-61642259D01*
X172108399Y-61826966D01*
X172108402Y-61826970D01*
X172111505Y-61831401D01*
X172278599Y-61998495D01*
X172283032Y-62001599D01*
X172283038Y-62001604D01*
X172464158Y-62128425D01*
X172503024Y-62172743D01*
X172517035Y-62230000D01*
X172503024Y-62287257D01*
X172464159Y-62331575D01*
X172283041Y-62458395D01*
X172278599Y-62461505D01*
X172274775Y-62465328D01*
X172274769Y-62465334D01*
X172115334Y-62624769D01*
X172115328Y-62624775D01*
X172111505Y-62628599D01*
X172108402Y-62633029D01*
X172108399Y-62633034D01*
X171979073Y-62817731D01*
X171979068Y-62817738D01*
X171975965Y-62822171D01*
X171973677Y-62827077D01*
X171973675Y-62827081D01*
X171878386Y-63031427D01*
X171878383Y-63031432D01*
X171876097Y-63036337D01*
X171874698Y-63041557D01*
X171874694Y-63041569D01*
X171816337Y-63259365D01*
X171816335Y-63259371D01*
X171814937Y-63264592D01*
X171794341Y-63500000D01*
X171814937Y-63735408D01*
X171816336Y-63740630D01*
X171816337Y-63740634D01*
X171874694Y-63958430D01*
X171874697Y-63958438D01*
X171876097Y-63963663D01*
X171878385Y-63968570D01*
X171878386Y-63968572D01*
X171973678Y-64172927D01*
X171973681Y-64172933D01*
X171975965Y-64177830D01*
X171979064Y-64182257D01*
X171979066Y-64182259D01*
X172108399Y-64366966D01*
X172108402Y-64366970D01*
X172111505Y-64371401D01*
X172278599Y-64538495D01*
X172283032Y-64541599D01*
X172283038Y-64541604D01*
X172464158Y-64668425D01*
X172503024Y-64712743D01*
X172517035Y-64770000D01*
X172503024Y-64827257D01*
X172464159Y-64871575D01*
X172283041Y-64998395D01*
X172278599Y-65001505D01*
X172274775Y-65005328D01*
X172274769Y-65005334D01*
X172115334Y-65164769D01*
X172115328Y-65164775D01*
X172111505Y-65168599D01*
X172108402Y-65173029D01*
X172108399Y-65173034D01*
X171979073Y-65357731D01*
X171979068Y-65357738D01*
X171975965Y-65362171D01*
X171973677Y-65367077D01*
X171973675Y-65367081D01*
X171878386Y-65571427D01*
X171878383Y-65571432D01*
X171876097Y-65576337D01*
X171874698Y-65581557D01*
X171874694Y-65581569D01*
X171816337Y-65799365D01*
X171816335Y-65799371D01*
X171814937Y-65804592D01*
X171794341Y-66040000D01*
X171814937Y-66275408D01*
X171816336Y-66280630D01*
X171816337Y-66280634D01*
X171874694Y-66498430D01*
X171874697Y-66498438D01*
X171876097Y-66503663D01*
X171878385Y-66508570D01*
X171878386Y-66508572D01*
X171973678Y-66712927D01*
X171973681Y-66712933D01*
X171975965Y-66717830D01*
X171979064Y-66722257D01*
X171979066Y-66722259D01*
X172108399Y-66906966D01*
X172108402Y-66906970D01*
X172111505Y-66911401D01*
X172278599Y-67078495D01*
X172283032Y-67081599D01*
X172283038Y-67081604D01*
X172464158Y-67208425D01*
X172503024Y-67252743D01*
X172517035Y-67310000D01*
X172503024Y-67367257D01*
X172464159Y-67411575D01*
X172283041Y-67538395D01*
X172278599Y-67541505D01*
X172274775Y-67545328D01*
X172274769Y-67545334D01*
X172115334Y-67704769D01*
X172115328Y-67704775D01*
X172111505Y-67708599D01*
X172108402Y-67713029D01*
X172108399Y-67713034D01*
X171979073Y-67897731D01*
X171979068Y-67897738D01*
X171975965Y-67902171D01*
X171973677Y-67907077D01*
X171973675Y-67907081D01*
X171878386Y-68111427D01*
X171878383Y-68111432D01*
X171876097Y-68116337D01*
X171874698Y-68121557D01*
X171874694Y-68121569D01*
X171816337Y-68339365D01*
X171816335Y-68339371D01*
X171814937Y-68344592D01*
X171814465Y-68349977D01*
X171814465Y-68349982D01*
X171804378Y-68465276D01*
X171794341Y-68580000D01*
X171794813Y-68585395D01*
X171809725Y-68755843D01*
X171814937Y-68815408D01*
X171816336Y-68820630D01*
X171816337Y-68820634D01*
X171874694Y-69038430D01*
X171874697Y-69038438D01*
X171876097Y-69043663D01*
X171878385Y-69048570D01*
X171878386Y-69048572D01*
X171973678Y-69252927D01*
X171973681Y-69252933D01*
X171975965Y-69257830D01*
X171979064Y-69262257D01*
X171979066Y-69262259D01*
X172108399Y-69446966D01*
X172108402Y-69446970D01*
X172111505Y-69451401D01*
X172278599Y-69618495D01*
X172283032Y-69621599D01*
X172283038Y-69621604D01*
X172464158Y-69748425D01*
X172503024Y-69792743D01*
X172517035Y-69850000D01*
X172503024Y-69907257D01*
X172464159Y-69951575D01*
X172283041Y-70078395D01*
X172278599Y-70081505D01*
X172274775Y-70085328D01*
X172274769Y-70085334D01*
X172115334Y-70244769D01*
X172115328Y-70244775D01*
X172111505Y-70248599D01*
X172108402Y-70253029D01*
X172108399Y-70253034D01*
X171979073Y-70437731D01*
X171979068Y-70437738D01*
X171975965Y-70442171D01*
X171973677Y-70447077D01*
X171973675Y-70447081D01*
X171878386Y-70651427D01*
X171878383Y-70651432D01*
X171876097Y-70656337D01*
X171874698Y-70661557D01*
X171874694Y-70661569D01*
X171816337Y-70879365D01*
X171816335Y-70879371D01*
X171814937Y-70884592D01*
X171814465Y-70889977D01*
X171814465Y-70889982D01*
X171794947Y-71113077D01*
X171794341Y-71120000D01*
X171794813Y-71125395D01*
X171809418Y-71292334D01*
X171814937Y-71355408D01*
X171816336Y-71360630D01*
X171816337Y-71360634D01*
X171874694Y-71578430D01*
X171874697Y-71578438D01*
X171876097Y-71583663D01*
X171878385Y-71588570D01*
X171878386Y-71588572D01*
X171973678Y-71792927D01*
X171973681Y-71792933D01*
X171975965Y-71797830D01*
X171979064Y-71802257D01*
X171979066Y-71802259D01*
X172108399Y-71986966D01*
X172108402Y-71986970D01*
X172111505Y-71991401D01*
X172278599Y-72158495D01*
X172283032Y-72161599D01*
X172283038Y-72161604D01*
X172464158Y-72288425D01*
X172503024Y-72332743D01*
X172517035Y-72390000D01*
X172503024Y-72447257D01*
X172464159Y-72491575D01*
X172283041Y-72618395D01*
X172278599Y-72621505D01*
X172274775Y-72625328D01*
X172274769Y-72625334D01*
X172115334Y-72784769D01*
X172115328Y-72784775D01*
X172111505Y-72788599D01*
X172108402Y-72793029D01*
X172108399Y-72793034D01*
X171979073Y-72977731D01*
X171979068Y-72977738D01*
X171975965Y-72982171D01*
X171973677Y-72987077D01*
X171973675Y-72987081D01*
X171878386Y-73191427D01*
X171878383Y-73191432D01*
X171876097Y-73196337D01*
X171874698Y-73201557D01*
X171874694Y-73201569D01*
X171816337Y-73419365D01*
X171816335Y-73419371D01*
X171814937Y-73424592D01*
X171794341Y-73660000D01*
X171814937Y-73895408D01*
X171816336Y-73900630D01*
X171816337Y-73900634D01*
X171874694Y-74118430D01*
X171874697Y-74118438D01*
X171876097Y-74123663D01*
X171878385Y-74128570D01*
X171878386Y-74128572D01*
X171973678Y-74332927D01*
X171973681Y-74332933D01*
X171975965Y-74337830D01*
X171979064Y-74342257D01*
X171979066Y-74342259D01*
X172108399Y-74526966D01*
X172108402Y-74526970D01*
X172111505Y-74531401D01*
X172278599Y-74698495D01*
X172283032Y-74701599D01*
X172283038Y-74701604D01*
X172464158Y-74828425D01*
X172503024Y-74872743D01*
X172517035Y-74930000D01*
X172503024Y-74987257D01*
X172464159Y-75031575D01*
X172283041Y-75158395D01*
X172278599Y-75161505D01*
X172274775Y-75165328D01*
X172274769Y-75165334D01*
X172115334Y-75324769D01*
X172115328Y-75324775D01*
X172111505Y-75328599D01*
X172108402Y-75333029D01*
X172108399Y-75333034D01*
X171979073Y-75517731D01*
X171979068Y-75517738D01*
X171975965Y-75522171D01*
X171973677Y-75527077D01*
X171973675Y-75527081D01*
X171878386Y-75731427D01*
X171878383Y-75731432D01*
X171876097Y-75736337D01*
X171874698Y-75741557D01*
X171874694Y-75741569D01*
X171816337Y-75959365D01*
X171816335Y-75959371D01*
X171814937Y-75964592D01*
X171794341Y-76200000D01*
X171814937Y-76435408D01*
X171816336Y-76440630D01*
X171816337Y-76440634D01*
X171874694Y-76658430D01*
X171874697Y-76658438D01*
X171876097Y-76663663D01*
X171878385Y-76668570D01*
X171878386Y-76668572D01*
X171973678Y-76872927D01*
X171973681Y-76872933D01*
X171975965Y-76877830D01*
X171979064Y-76882257D01*
X171979066Y-76882259D01*
X172108399Y-77066966D01*
X172108402Y-77066970D01*
X172111505Y-77071401D01*
X172278599Y-77238495D01*
X172283032Y-77241599D01*
X172283038Y-77241604D01*
X172464158Y-77368425D01*
X172503024Y-77412743D01*
X172517035Y-77470000D01*
X172503024Y-77527257D01*
X172464159Y-77571575D01*
X172283041Y-77698395D01*
X172278599Y-77701505D01*
X172274775Y-77705328D01*
X172274769Y-77705334D01*
X172115334Y-77864769D01*
X172115328Y-77864775D01*
X172111505Y-77868599D01*
X172108402Y-77873029D01*
X172108399Y-77873034D01*
X171979073Y-78057731D01*
X171979068Y-78057738D01*
X171975965Y-78062171D01*
X171973677Y-78067077D01*
X171973675Y-78067081D01*
X171878386Y-78271427D01*
X171878383Y-78271432D01*
X171876097Y-78276337D01*
X171874698Y-78281557D01*
X171874694Y-78281569D01*
X171816337Y-78499365D01*
X171816335Y-78499371D01*
X171814937Y-78504592D01*
X171794341Y-78740000D01*
X171814937Y-78975408D01*
X171816336Y-78980630D01*
X171816337Y-78980634D01*
X171874694Y-79198430D01*
X171874697Y-79198438D01*
X171876097Y-79203663D01*
X171878385Y-79208570D01*
X171878386Y-79208572D01*
X171973678Y-79412927D01*
X171973681Y-79412933D01*
X171975965Y-79417830D01*
X171979064Y-79422257D01*
X171979066Y-79422259D01*
X172108399Y-79606966D01*
X172108402Y-79606970D01*
X172111505Y-79611401D01*
X172278599Y-79778495D01*
X172283032Y-79781599D01*
X172283038Y-79781604D01*
X172464158Y-79908425D01*
X172503024Y-79952743D01*
X172517035Y-80010000D01*
X172503024Y-80067257D01*
X172464160Y-80111574D01*
X172278599Y-80241505D01*
X172274775Y-80245328D01*
X172274769Y-80245334D01*
X172115334Y-80404769D01*
X172115328Y-80404775D01*
X172111505Y-80408599D01*
X172108402Y-80413029D01*
X172108399Y-80413034D01*
X171979073Y-80597731D01*
X171979068Y-80597738D01*
X171975965Y-80602171D01*
X171973677Y-80607077D01*
X171973675Y-80607081D01*
X171878386Y-80811427D01*
X171878383Y-80811432D01*
X171876097Y-80816337D01*
X171874698Y-80821557D01*
X171874694Y-80821569D01*
X171816337Y-81039365D01*
X171816335Y-81039371D01*
X171814937Y-81044592D01*
X171794341Y-81280000D01*
X171814937Y-81515408D01*
X171816336Y-81520630D01*
X171816337Y-81520634D01*
X171874694Y-81738430D01*
X171874697Y-81738438D01*
X171876097Y-81743663D01*
X171878385Y-81748570D01*
X171878386Y-81748572D01*
X171973678Y-81952927D01*
X171973681Y-81952933D01*
X171975965Y-81957830D01*
X171979064Y-81962257D01*
X171979066Y-81962259D01*
X172108399Y-82146966D01*
X172108402Y-82146970D01*
X172111505Y-82151401D01*
X172278599Y-82318495D01*
X172283032Y-82321599D01*
X172283038Y-82321604D01*
X172464158Y-82448425D01*
X172503024Y-82492743D01*
X172517035Y-82550000D01*
X172503024Y-82607257D01*
X172464159Y-82651575D01*
X172283041Y-82778395D01*
X172278599Y-82781505D01*
X172274775Y-82785328D01*
X172274769Y-82785334D01*
X172115334Y-82944769D01*
X172115328Y-82944775D01*
X172111505Y-82948599D01*
X172108402Y-82953029D01*
X172108399Y-82953034D01*
X171979073Y-83137731D01*
X171979068Y-83137738D01*
X171975965Y-83142171D01*
X171973677Y-83147077D01*
X171973675Y-83147081D01*
X171878386Y-83351427D01*
X171878383Y-83351432D01*
X171876097Y-83356337D01*
X171874698Y-83361557D01*
X171874694Y-83361569D01*
X171816337Y-83579365D01*
X171816335Y-83579371D01*
X171814937Y-83584592D01*
X171794341Y-83820000D01*
X171814937Y-84055408D01*
X171816336Y-84060630D01*
X171816337Y-84060634D01*
X171874694Y-84278430D01*
X171874697Y-84278438D01*
X171876097Y-84283663D01*
X171878385Y-84288570D01*
X171878386Y-84288572D01*
X171973678Y-84492927D01*
X171973681Y-84492933D01*
X171975965Y-84497830D01*
X171979064Y-84502257D01*
X171979066Y-84502259D01*
X172108399Y-84686966D01*
X172108402Y-84686970D01*
X172111505Y-84691401D01*
X172278599Y-84858495D01*
X172283032Y-84861599D01*
X172283038Y-84861604D01*
X172464158Y-84988425D01*
X172503024Y-85032743D01*
X172517035Y-85090000D01*
X172503024Y-85147257D01*
X172464159Y-85191575D01*
X172283041Y-85318395D01*
X172278599Y-85321505D01*
X172274775Y-85325328D01*
X172274769Y-85325334D01*
X172115334Y-85484769D01*
X172115328Y-85484775D01*
X172111505Y-85488599D01*
X172108402Y-85493029D01*
X172108399Y-85493034D01*
X171979073Y-85677731D01*
X171979068Y-85677738D01*
X171975965Y-85682171D01*
X171973677Y-85687077D01*
X171973675Y-85687081D01*
X171878386Y-85891427D01*
X171878383Y-85891432D01*
X171876097Y-85896337D01*
X171874698Y-85901557D01*
X171874694Y-85901569D01*
X171816337Y-86119365D01*
X171816335Y-86119371D01*
X171814937Y-86124592D01*
X171794341Y-86360000D01*
X171814937Y-86595408D01*
X171816336Y-86600630D01*
X171816337Y-86600634D01*
X171874694Y-86818430D01*
X171874697Y-86818438D01*
X171876097Y-86823663D01*
X171878385Y-86828570D01*
X171878386Y-86828572D01*
X171973678Y-87032927D01*
X171973681Y-87032933D01*
X171975965Y-87037830D01*
X171979064Y-87042257D01*
X171979066Y-87042259D01*
X172108399Y-87226966D01*
X172108402Y-87226970D01*
X172111505Y-87231401D01*
X172278599Y-87398495D01*
X172283032Y-87401599D01*
X172283038Y-87401604D01*
X172464158Y-87528425D01*
X172503024Y-87572743D01*
X172517035Y-87630000D01*
X172503024Y-87687257D01*
X172464160Y-87731574D01*
X172278599Y-87861505D01*
X172274775Y-87865328D01*
X172274769Y-87865334D01*
X172115334Y-88024769D01*
X172115328Y-88024775D01*
X172111505Y-88028599D01*
X172108402Y-88033029D01*
X172108399Y-88033034D01*
X171979073Y-88217731D01*
X171979068Y-88217738D01*
X171975965Y-88222171D01*
X171973677Y-88227077D01*
X171973675Y-88227081D01*
X171878386Y-88431427D01*
X171878383Y-88431432D01*
X171876097Y-88436337D01*
X171874698Y-88441557D01*
X171874694Y-88441569D01*
X171816337Y-88659365D01*
X171816335Y-88659371D01*
X171814937Y-88664592D01*
X171794341Y-88900000D01*
X171794813Y-88905395D01*
X171810000Y-89078986D01*
X171814937Y-89135408D01*
X171816336Y-89140630D01*
X171816337Y-89140634D01*
X171874694Y-89358430D01*
X171874697Y-89358438D01*
X171876097Y-89363663D01*
X171878385Y-89368570D01*
X171878386Y-89368572D01*
X171973678Y-89572927D01*
X171973681Y-89572933D01*
X171975965Y-89577830D01*
X171979064Y-89582257D01*
X171979066Y-89582259D01*
X172108399Y-89766966D01*
X172108402Y-89766970D01*
X172111505Y-89771401D01*
X172278599Y-89938495D01*
X172283032Y-89941599D01*
X172283038Y-89941604D01*
X172464158Y-90068425D01*
X172503024Y-90112743D01*
X172517035Y-90170000D01*
X172503024Y-90227257D01*
X172464159Y-90271575D01*
X172283041Y-90398395D01*
X172278599Y-90401505D01*
X172274775Y-90405328D01*
X172274769Y-90405334D01*
X172115334Y-90564769D01*
X172115328Y-90564775D01*
X172111505Y-90568599D01*
X172108402Y-90573029D01*
X172108399Y-90573034D01*
X171979073Y-90757731D01*
X171979068Y-90757738D01*
X171975965Y-90762171D01*
X171973677Y-90767077D01*
X171973675Y-90767081D01*
X171878386Y-90971427D01*
X171878383Y-90971432D01*
X171876097Y-90976337D01*
X171874698Y-90981557D01*
X171874694Y-90981569D01*
X171816337Y-91199365D01*
X171816335Y-91199371D01*
X171814937Y-91204592D01*
X171814465Y-91209977D01*
X171814465Y-91209982D01*
X171807734Y-91286923D01*
X171794341Y-91440000D01*
X171794813Y-91445395D01*
X171811437Y-91635412D01*
X171814937Y-91675408D01*
X171816336Y-91680630D01*
X171816337Y-91680634D01*
X171874694Y-91898430D01*
X171874697Y-91898438D01*
X171876097Y-91903663D01*
X171878385Y-91908570D01*
X171878386Y-91908572D01*
X171973678Y-92112927D01*
X171973681Y-92112933D01*
X171975965Y-92117830D01*
X171979064Y-92122257D01*
X171979066Y-92122259D01*
X172108399Y-92306966D01*
X172108402Y-92306970D01*
X172111505Y-92311401D01*
X172278599Y-92478495D01*
X172283032Y-92481599D01*
X172283038Y-92481604D01*
X172464158Y-92608425D01*
X172503024Y-92652743D01*
X172517035Y-92710000D01*
X172503024Y-92767257D01*
X172464159Y-92811575D01*
X172283041Y-92938395D01*
X172278599Y-92941505D01*
X172274775Y-92945328D01*
X172274769Y-92945334D01*
X172115334Y-93104769D01*
X172115328Y-93104775D01*
X172111505Y-93108599D01*
X172108402Y-93113029D01*
X172108399Y-93113034D01*
X171979073Y-93297731D01*
X171979068Y-93297738D01*
X171975965Y-93302171D01*
X171973677Y-93307075D01*
X171973676Y-93307079D01*
X171973290Y-93307908D01*
X171973020Y-93308214D01*
X171970970Y-93311767D01*
X171970263Y-93311359D01*
X171927533Y-93360081D01*
X171860909Y-93379500D01*
X122544697Y-93379500D01*
X122497244Y-93370061D01*
X122457016Y-93343181D01*
X120375300Y-91261465D01*
X120351261Y-91227585D01*
X120339761Y-91187667D01*
X120329968Y-91100745D01*
X120270389Y-90930478D01*
X120174416Y-90777738D01*
X120046862Y-90650184D01*
X119894122Y-90554211D01*
X119887559Y-90551914D01*
X119887556Y-90551913D01*
X119730424Y-90496930D01*
X119730419Y-90496928D01*
X119723855Y-90494632D01*
X119716935Y-90493852D01*
X119716934Y-90493852D01*
X119551523Y-90475215D01*
X119544600Y-90474435D01*
X119537677Y-90475215D01*
X119372265Y-90493852D01*
X119372262Y-90493852D01*
X119365345Y-90494632D01*
X119358782Y-90496928D01*
X119358775Y-90496930D01*
X119201643Y-90551913D01*
X119201636Y-90551915D01*
X119195078Y-90554211D01*
X119189190Y-90557910D01*
X119189187Y-90557912D01*
X119048238Y-90646476D01*
X119048233Y-90646479D01*
X119042338Y-90650184D01*
X119037413Y-90655108D01*
X119037409Y-90655112D01*
X118919712Y-90772809D01*
X118919708Y-90772813D01*
X118914784Y-90777738D01*
X118911079Y-90783633D01*
X118911076Y-90783638D01*
X118822512Y-90924587D01*
X118822510Y-90924590D01*
X118818811Y-90930478D01*
X118816515Y-90937036D01*
X118816513Y-90937043D01*
X118761530Y-91094175D01*
X118761528Y-91094182D01*
X118759232Y-91100745D01*
X118739035Y-91280000D01*
X118739815Y-91286923D01*
X118757062Y-91440000D01*
X118759232Y-91459255D01*
X118761528Y-91465819D01*
X118761530Y-91465824D01*
X118816513Y-91622956D01*
X118818811Y-91629522D01*
X118914784Y-91782262D01*
X119042338Y-91909816D01*
X119195078Y-92005789D01*
X119365345Y-92065368D01*
X119452267Y-92075161D01*
X119492185Y-92086661D01*
X119526065Y-92110700D01*
X121786399Y-94371034D01*
X121797089Y-94383222D01*
X121816318Y-94408282D01*
X121862428Y-94443663D01*
X121941759Y-94504536D01*
X122087838Y-94565044D01*
X122244600Y-94585682D01*
X122252659Y-94584621D01*
X122275902Y-94581561D01*
X122292087Y-94580500D01*
X133678404Y-94580500D01*
X133737572Y-94595527D01*
X133782399Y-94636965D01*
X133802022Y-94694771D01*
X133791684Y-94754936D01*
X133753890Y-94802876D01*
X133648464Y-94883771D01*
X133648460Y-94883774D01*
X133642018Y-94888718D01*
X133637074Y-94895160D01*
X133637071Y-94895164D01*
X133622794Y-94913771D01*
X133612100Y-94925964D01*
X130503964Y-98034099D01*
X130470085Y-98058138D01*
X130430167Y-98069638D01*
X130350166Y-98078652D01*
X130350164Y-98078652D01*
X130343245Y-98079432D01*
X130336676Y-98081730D01*
X130336674Y-98081731D01*
X130179543Y-98136713D01*
X130179536Y-98136715D01*
X130172978Y-98139011D01*
X130167090Y-98142710D01*
X130167087Y-98142712D01*
X130026138Y-98231276D01*
X130026133Y-98231279D01*
X130020238Y-98234984D01*
X130015313Y-98239908D01*
X130015309Y-98239912D01*
X129897612Y-98357609D01*
X129897608Y-98357613D01*
X129892684Y-98362538D01*
X129888979Y-98368433D01*
X129888976Y-98368438D01*
X129800412Y-98509387D01*
X129800410Y-98509390D01*
X129796711Y-98515278D01*
X129795952Y-98517447D01*
X129760196Y-98561015D01*
X129706404Y-98584185D01*
X129647978Y-98580081D01*
X129597953Y-98549618D01*
X128375700Y-97327365D01*
X128351661Y-97293485D01*
X128340161Y-97253567D01*
X128333329Y-97192927D01*
X128330368Y-97166645D01*
X128270789Y-96996378D01*
X128174816Y-96843638D01*
X128047262Y-96716084D01*
X127894522Y-96620111D01*
X127887959Y-96617814D01*
X127887956Y-96617813D01*
X127730824Y-96562830D01*
X127730819Y-96562828D01*
X127724255Y-96560532D01*
X127717335Y-96559752D01*
X127717334Y-96559752D01*
X127551923Y-96541115D01*
X127545000Y-96540335D01*
X127538077Y-96541115D01*
X127372665Y-96559752D01*
X127372662Y-96559752D01*
X127365745Y-96560532D01*
X127359182Y-96562828D01*
X127359175Y-96562830D01*
X127202043Y-96617813D01*
X127202036Y-96617815D01*
X127195478Y-96620111D01*
X127189590Y-96623810D01*
X127189587Y-96623812D01*
X127048638Y-96712376D01*
X127048633Y-96712379D01*
X127042738Y-96716084D01*
X127037813Y-96721008D01*
X127037809Y-96721012D01*
X126920112Y-96838709D01*
X126920108Y-96838713D01*
X126915184Y-96843638D01*
X126911479Y-96849533D01*
X126911476Y-96849538D01*
X126822912Y-96990487D01*
X126822910Y-96990490D01*
X126819211Y-96996378D01*
X126816915Y-97002936D01*
X126816913Y-97002943D01*
X126761930Y-97160075D01*
X126761928Y-97160082D01*
X126759632Y-97166645D01*
X126758852Y-97173562D01*
X126758852Y-97173565D01*
X126756118Y-97197830D01*
X126739435Y-97345900D01*
X126759632Y-97525155D01*
X126761928Y-97531719D01*
X126761930Y-97531724D01*
X126816913Y-97688856D01*
X126819211Y-97695422D01*
X126915184Y-97848162D01*
X127042738Y-97975716D01*
X127195478Y-98071689D01*
X127365745Y-98131268D01*
X127452667Y-98141061D01*
X127492585Y-98152561D01*
X127526465Y-98176600D01*
X129205999Y-99856134D01*
X129216689Y-99868322D01*
X129235918Y-99893382D01*
X129354221Y-99984159D01*
X129361359Y-99989636D01*
X129507438Y-100050144D01*
X129664200Y-100070782D01*
X129672259Y-100069721D01*
X129695502Y-100066661D01*
X129711687Y-100065600D01*
X131994113Y-100065600D01*
X132010298Y-100066661D01*
X132041600Y-100070782D01*
X132198362Y-100050144D01*
X132344441Y-99989636D01*
X132351579Y-99984159D01*
X132469882Y-99893382D01*
X132489110Y-99868322D01*
X132499789Y-99856144D01*
X132615936Y-99739997D01*
X132649813Y-99715961D01*
X132689730Y-99704461D01*
X132776655Y-99694668D01*
X132946922Y-99635089D01*
X133099662Y-99539116D01*
X133227216Y-99411562D01*
X133323189Y-99258822D01*
X133382768Y-99088555D01*
X133402965Y-98909300D01*
X133382768Y-98730045D01*
X133323189Y-98559778D01*
X133227216Y-98407038D01*
X133099662Y-98279484D01*
X133022939Y-98231276D01*
X132952812Y-98187212D01*
X132946922Y-98183511D01*
X132940359Y-98181214D01*
X132940356Y-98181213D01*
X132783224Y-98126230D01*
X132783219Y-98126228D01*
X132776655Y-98123932D01*
X132769735Y-98123152D01*
X132769734Y-98123152D01*
X132604323Y-98104515D01*
X132597400Y-98103735D01*
X132590477Y-98104515D01*
X132425947Y-98123052D01*
X132365899Y-98114918D01*
X132316876Y-98079300D01*
X132290584Y-98024705D01*
X132293303Y-97964170D01*
X132324381Y-97912153D01*
X134282716Y-95953818D01*
X134322944Y-95926939D01*
X134370397Y-95917500D01*
X171751698Y-95917500D01*
X171806542Y-95930288D01*
X171850074Y-95966013D01*
X171873315Y-96017308D01*
X171871473Y-96073593D01*
X171816337Y-96279365D01*
X171816335Y-96279371D01*
X171814937Y-96284592D01*
X171814465Y-96289977D01*
X171814465Y-96289982D01*
X171795003Y-96512430D01*
X171794341Y-96520000D01*
X171794813Y-96525395D01*
X171811927Y-96721012D01*
X171814937Y-96755408D01*
X171816336Y-96760630D01*
X171816337Y-96760634D01*
X171874694Y-96978430D01*
X171874697Y-96978438D01*
X171876097Y-96983663D01*
X171878385Y-96988570D01*
X171878386Y-96988572D01*
X171973678Y-97192927D01*
X171973681Y-97192933D01*
X171975965Y-97197830D01*
X171979064Y-97202257D01*
X171979066Y-97202259D01*
X172108399Y-97386966D01*
X172108402Y-97386970D01*
X172111505Y-97391401D01*
X172278599Y-97558495D01*
X172283032Y-97561599D01*
X172283038Y-97561604D01*
X172464158Y-97688425D01*
X172503024Y-97732743D01*
X172517035Y-97790000D01*
X172503024Y-97847257D01*
X172464159Y-97891575D01*
X172283041Y-98018395D01*
X172278599Y-98021505D01*
X172274775Y-98025328D01*
X172274769Y-98025334D01*
X172115334Y-98184769D01*
X172115328Y-98184775D01*
X172111505Y-98188599D01*
X172108402Y-98193029D01*
X172108399Y-98193034D01*
X171979073Y-98377731D01*
X171979068Y-98377738D01*
X171975965Y-98382171D01*
X171973677Y-98387077D01*
X171973675Y-98387081D01*
X171878386Y-98591427D01*
X171878383Y-98591432D01*
X171876097Y-98596337D01*
X171874698Y-98601557D01*
X171874694Y-98601569D01*
X171816337Y-98819365D01*
X171816335Y-98819371D01*
X171814937Y-98824592D01*
X171814465Y-98829977D01*
X171814465Y-98829982D01*
X171807526Y-98909300D01*
X171794341Y-99060000D01*
X171794813Y-99065395D01*
X171811161Y-99252256D01*
X171814937Y-99295408D01*
X171816336Y-99300630D01*
X171816337Y-99300634D01*
X171874694Y-99518430D01*
X171874697Y-99518438D01*
X171876097Y-99523663D01*
X171878385Y-99528570D01*
X171878386Y-99528572D01*
X171973678Y-99732927D01*
X171973681Y-99732933D01*
X171975965Y-99737830D01*
X171979064Y-99742257D01*
X171979066Y-99742259D01*
X172108399Y-99926966D01*
X172108402Y-99926970D01*
X172111505Y-99931401D01*
X172278599Y-100098495D01*
X172472170Y-100234035D01*
X172686337Y-100333903D01*
X172914592Y-100395063D01*
X173150000Y-100415659D01*
X173385408Y-100395063D01*
X173613663Y-100333903D01*
X173827830Y-100234035D01*
X174021401Y-100098495D01*
X174188495Y-99931401D01*
X174324035Y-99737830D01*
X174423903Y-99523663D01*
X174485063Y-99295408D01*
X174505659Y-99060000D01*
X174485063Y-98824592D01*
X174423903Y-98596337D01*
X174324035Y-98382171D01*
X174188495Y-98188599D01*
X174021401Y-98021505D01*
X174016968Y-98018401D01*
X174016961Y-98018395D01*
X173835842Y-97891575D01*
X173796976Y-97847257D01*
X173782965Y-97790000D01*
X173796976Y-97732743D01*
X173835842Y-97688425D01*
X174016961Y-97561604D01*
X174016961Y-97561603D01*
X174021401Y-97558495D01*
X174188495Y-97391401D01*
X174324035Y-97197830D01*
X174423903Y-96983663D01*
X174485063Y-96755408D01*
X174505659Y-96520000D01*
X174485063Y-96284592D01*
X174435889Y-96101069D01*
X174428527Y-96073593D01*
X174426685Y-96017308D01*
X174449926Y-95966013D01*
X174493458Y-95930288D01*
X174548302Y-95917500D01*
X182885213Y-95917500D01*
X182901398Y-95918561D01*
X182932700Y-95922682D01*
X183089462Y-95902044D01*
X183235541Y-95841536D01*
X183254310Y-95827134D01*
X183360982Y-95745282D01*
X183380210Y-95720222D01*
X183390889Y-95708044D01*
X194386838Y-84712096D01*
X194442425Y-84680002D01*
X194506613Y-84680002D01*
X194562200Y-84712096D01*
X194708599Y-84858495D01*
X194713032Y-84861599D01*
X194713038Y-84861604D01*
X194894158Y-84988425D01*
X194933024Y-85032743D01*
X194947035Y-85090000D01*
X194933024Y-85147257D01*
X194894159Y-85191575D01*
X194713041Y-85318395D01*
X194708599Y-85321505D01*
X194704775Y-85325328D01*
X194704769Y-85325334D01*
X194545334Y-85484769D01*
X194545328Y-85484775D01*
X194541505Y-85488599D01*
X194538402Y-85493029D01*
X194538399Y-85493034D01*
X194409073Y-85677731D01*
X194409068Y-85677738D01*
X194405965Y-85682171D01*
X194403677Y-85687077D01*
X194403675Y-85687081D01*
X194308386Y-85891427D01*
X194308383Y-85891432D01*
X194306097Y-85896337D01*
X194304698Y-85901557D01*
X194304694Y-85901569D01*
X194246337Y-86119365D01*
X194246335Y-86119371D01*
X194244937Y-86124592D01*
X194224341Y-86360000D01*
X194244937Y-86595408D01*
X194246336Y-86600630D01*
X194246337Y-86600634D01*
X194304694Y-86818430D01*
X194304697Y-86818438D01*
X194306097Y-86823663D01*
X194308385Y-86828570D01*
X194308386Y-86828572D01*
X194403678Y-87032927D01*
X194403681Y-87032933D01*
X194405965Y-87037830D01*
X194409064Y-87042257D01*
X194409066Y-87042259D01*
X194538399Y-87226966D01*
X194538402Y-87226970D01*
X194541505Y-87231401D01*
X194708599Y-87398495D01*
X194713032Y-87401599D01*
X194713038Y-87401604D01*
X194894158Y-87528425D01*
X194933024Y-87572743D01*
X194947035Y-87630000D01*
X194933024Y-87687257D01*
X194894160Y-87731574D01*
X194708599Y-87861505D01*
X194704775Y-87865328D01*
X194704769Y-87865334D01*
X194545334Y-88024769D01*
X194545328Y-88024775D01*
X194541505Y-88028599D01*
X194538402Y-88033029D01*
X194538399Y-88033034D01*
X194409073Y-88217731D01*
X194409068Y-88217738D01*
X194405965Y-88222171D01*
X194403677Y-88227077D01*
X194403675Y-88227081D01*
X194308386Y-88431427D01*
X194308383Y-88431432D01*
X194306097Y-88436337D01*
X194304698Y-88441557D01*
X194304694Y-88441569D01*
X194246337Y-88659365D01*
X194246335Y-88659371D01*
X194244937Y-88664592D01*
X194224341Y-88900000D01*
X194224813Y-88905395D01*
X194240000Y-89078986D01*
X194244937Y-89135408D01*
X194246336Y-89140630D01*
X194246337Y-89140634D01*
X194304694Y-89358430D01*
X194304697Y-89358438D01*
X194306097Y-89363663D01*
X194308385Y-89368570D01*
X194308386Y-89368572D01*
X194403678Y-89572927D01*
X194403681Y-89572933D01*
X194405965Y-89577830D01*
X194409064Y-89582257D01*
X194409066Y-89582259D01*
X194538399Y-89766966D01*
X194538402Y-89766970D01*
X194541505Y-89771401D01*
X194708599Y-89938495D01*
X194713032Y-89941599D01*
X194713038Y-89941604D01*
X194894158Y-90068425D01*
X194933024Y-90112743D01*
X194947035Y-90170000D01*
X194933024Y-90227257D01*
X194894159Y-90271575D01*
X194713041Y-90398395D01*
X194708599Y-90401505D01*
X194704775Y-90405328D01*
X194704769Y-90405334D01*
X194545334Y-90564769D01*
X194545328Y-90564775D01*
X194541505Y-90568599D01*
X194538402Y-90573029D01*
X194538399Y-90573034D01*
X194409073Y-90757731D01*
X194409068Y-90757738D01*
X194405965Y-90762171D01*
X194403677Y-90767077D01*
X194403675Y-90767081D01*
X194308386Y-90971427D01*
X194308383Y-90971432D01*
X194306097Y-90976337D01*
X194304698Y-90981557D01*
X194304694Y-90981569D01*
X194246337Y-91199365D01*
X194246335Y-91199371D01*
X194244937Y-91204592D01*
X194244465Y-91209977D01*
X194244465Y-91209982D01*
X194237734Y-91286923D01*
X194224341Y-91440000D01*
X194224813Y-91445395D01*
X194241437Y-91635412D01*
X194244937Y-91675408D01*
X194246336Y-91680630D01*
X194246337Y-91680634D01*
X194304694Y-91898430D01*
X194304697Y-91898438D01*
X194306097Y-91903663D01*
X194308385Y-91908570D01*
X194308386Y-91908572D01*
X194403678Y-92112927D01*
X194403681Y-92112933D01*
X194405965Y-92117830D01*
X194409064Y-92122257D01*
X194409066Y-92122259D01*
X194538399Y-92306966D01*
X194538402Y-92306970D01*
X194541505Y-92311401D01*
X194708599Y-92478495D01*
X194713032Y-92481599D01*
X194713038Y-92481604D01*
X194894158Y-92608425D01*
X194933024Y-92652743D01*
X194947035Y-92710000D01*
X194933024Y-92767257D01*
X194894159Y-92811575D01*
X194713041Y-92938395D01*
X194708599Y-92941505D01*
X194704775Y-92945328D01*
X194704769Y-92945334D01*
X194545334Y-93104769D01*
X194545328Y-93104775D01*
X194541505Y-93108599D01*
X194538402Y-93113029D01*
X194538399Y-93113034D01*
X194409073Y-93297731D01*
X194409068Y-93297738D01*
X194405965Y-93302171D01*
X194403677Y-93307077D01*
X194403675Y-93307081D01*
X194308386Y-93511427D01*
X194308383Y-93511432D01*
X194306097Y-93516337D01*
X194304698Y-93521557D01*
X194304694Y-93521569D01*
X194246337Y-93739365D01*
X194246335Y-93739371D01*
X194244937Y-93744592D01*
X194224341Y-93980000D01*
X194244937Y-94215408D01*
X194246336Y-94220630D01*
X194246337Y-94220634D01*
X194304694Y-94438430D01*
X194304697Y-94438438D01*
X194306097Y-94443663D01*
X194308385Y-94448570D01*
X194308386Y-94448572D01*
X194403678Y-94652927D01*
X194403681Y-94652933D01*
X194405965Y-94657830D01*
X194409064Y-94662257D01*
X194409066Y-94662259D01*
X194538399Y-94846966D01*
X194538402Y-94846970D01*
X194541505Y-94851401D01*
X194708599Y-95018495D01*
X194713032Y-95021599D01*
X194713038Y-95021604D01*
X194894158Y-95148425D01*
X194933024Y-95192743D01*
X194947035Y-95250000D01*
X194933024Y-95307257D01*
X194894159Y-95351575D01*
X194713041Y-95478395D01*
X194708599Y-95481505D01*
X194704775Y-95485328D01*
X194704769Y-95485334D01*
X194545334Y-95644769D01*
X194545328Y-95644775D01*
X194541505Y-95648599D01*
X194538402Y-95653029D01*
X194538399Y-95653034D01*
X194409073Y-95837731D01*
X194409068Y-95837738D01*
X194405965Y-95842171D01*
X194403677Y-95847077D01*
X194403675Y-95847081D01*
X194308386Y-96051427D01*
X194308383Y-96051432D01*
X194306097Y-96056337D01*
X194304698Y-96061557D01*
X194304694Y-96061569D01*
X194246337Y-96279365D01*
X194246335Y-96279371D01*
X194244937Y-96284592D01*
X194244465Y-96289977D01*
X194244465Y-96289982D01*
X194225003Y-96512430D01*
X194224341Y-96520000D01*
X194224813Y-96525395D01*
X194241927Y-96721012D01*
X194244937Y-96755408D01*
X194246336Y-96760630D01*
X194246337Y-96760634D01*
X194304694Y-96978430D01*
X194304697Y-96978438D01*
X194306097Y-96983663D01*
X194308385Y-96988570D01*
X194308386Y-96988572D01*
X194403678Y-97192927D01*
X194403681Y-97192933D01*
X194405965Y-97197830D01*
X194409064Y-97202257D01*
X194409066Y-97202259D01*
X194538399Y-97386966D01*
X194538402Y-97386970D01*
X194541505Y-97391401D01*
X194708599Y-97558495D01*
X194713032Y-97561599D01*
X194713038Y-97561604D01*
X194894158Y-97688425D01*
X194933024Y-97732743D01*
X194947035Y-97790000D01*
X194933024Y-97847257D01*
X194894159Y-97891575D01*
X194713041Y-98018395D01*
X194708599Y-98021505D01*
X194704775Y-98025328D01*
X194704769Y-98025334D01*
X194545334Y-98184769D01*
X194545328Y-98184775D01*
X194541505Y-98188599D01*
X194538402Y-98193029D01*
X194538399Y-98193034D01*
X194409073Y-98377731D01*
X194409068Y-98377738D01*
X194405965Y-98382171D01*
X194403677Y-98387077D01*
X194403675Y-98387081D01*
X194308386Y-98591427D01*
X194308383Y-98591432D01*
X194306097Y-98596337D01*
X194304698Y-98601557D01*
X194304694Y-98601569D01*
X194246337Y-98819365D01*
X194246335Y-98819371D01*
X194244937Y-98824592D01*
X194244465Y-98829977D01*
X194244465Y-98829982D01*
X194237526Y-98909300D01*
X194224341Y-99060000D01*
X194224813Y-99065395D01*
X194241161Y-99252256D01*
X194244937Y-99295408D01*
X194246336Y-99300630D01*
X194246337Y-99300634D01*
X194304694Y-99518430D01*
X194304697Y-99518438D01*
X194306097Y-99523663D01*
X194308385Y-99528570D01*
X194308386Y-99528572D01*
X194403678Y-99732927D01*
X194403681Y-99732933D01*
X194405965Y-99737830D01*
X194409064Y-99742257D01*
X194409066Y-99742259D01*
X194538399Y-99926966D01*
X194538402Y-99926970D01*
X194541505Y-99931401D01*
X194708599Y-100098495D01*
X194902170Y-100234035D01*
X195116337Y-100333903D01*
X195344592Y-100395063D01*
X195580000Y-100415659D01*
X195815408Y-100395063D01*
X196043663Y-100333903D01*
X196257830Y-100234035D01*
X196451401Y-100098495D01*
X196618495Y-99931401D01*
X196754035Y-99737830D01*
X196853903Y-99523663D01*
X196915063Y-99295408D01*
X196935659Y-99060000D01*
X196915063Y-98824592D01*
X196853903Y-98596337D01*
X196754035Y-98382171D01*
X196618495Y-98188599D01*
X196451401Y-98021505D01*
X196446968Y-98018401D01*
X196446961Y-98018395D01*
X196265842Y-97891575D01*
X196226976Y-97847257D01*
X196212965Y-97790000D01*
X196226976Y-97732743D01*
X196265842Y-97688425D01*
X196446961Y-97561604D01*
X196446961Y-97561603D01*
X196451401Y-97558495D01*
X196618495Y-97391401D01*
X196754035Y-97197830D01*
X196853903Y-96983663D01*
X196915063Y-96755408D01*
X196935659Y-96520000D01*
X196915063Y-96284592D01*
X196865889Y-96101069D01*
X196855305Y-96061569D01*
X196855304Y-96061567D01*
X196853903Y-96056337D01*
X196754035Y-95842171D01*
X196618495Y-95648599D01*
X196451401Y-95481505D01*
X196446968Y-95478401D01*
X196446961Y-95478395D01*
X196265842Y-95351575D01*
X196226976Y-95307257D01*
X196212965Y-95250000D01*
X196226976Y-95192743D01*
X196265842Y-95148425D01*
X196446961Y-95021604D01*
X196446961Y-95021603D01*
X196451401Y-95018495D01*
X196618495Y-94851401D01*
X196754035Y-94657830D01*
X196853903Y-94443663D01*
X196915063Y-94215408D01*
X196935659Y-93980000D01*
X196915063Y-93744592D01*
X196853903Y-93516337D01*
X196754035Y-93302171D01*
X196618495Y-93108599D01*
X196451401Y-92941505D01*
X196446968Y-92938401D01*
X196446961Y-92938395D01*
X196265842Y-92811575D01*
X196226976Y-92767257D01*
X196212965Y-92710000D01*
X196226976Y-92652743D01*
X196265842Y-92608425D01*
X196446961Y-92481604D01*
X196446961Y-92481603D01*
X196451401Y-92478495D01*
X196618495Y-92311401D01*
X196754035Y-92117830D01*
X196853903Y-91903663D01*
X196915063Y-91675408D01*
X196935659Y-91440000D01*
X196915063Y-91204592D01*
X196853903Y-90976337D01*
X196754035Y-90762171D01*
X196618495Y-90568599D01*
X196451401Y-90401505D01*
X196446968Y-90398401D01*
X196446961Y-90398395D01*
X196265842Y-90271575D01*
X196226976Y-90227257D01*
X196212965Y-90170000D01*
X196226976Y-90112743D01*
X196265842Y-90068425D01*
X196446961Y-89941604D01*
X196446961Y-89941603D01*
X196451401Y-89938495D01*
X196618495Y-89771401D01*
X196754035Y-89577830D01*
X196853903Y-89363663D01*
X196915063Y-89135408D01*
X196935659Y-88900000D01*
X196915063Y-88664592D01*
X196859425Y-88456945D01*
X196855305Y-88441569D01*
X196855304Y-88441567D01*
X196853903Y-88436337D01*
X196754035Y-88222171D01*
X196618495Y-88028599D01*
X196451401Y-87861505D01*
X196446970Y-87858402D01*
X196446966Y-87858399D01*
X196265841Y-87731574D01*
X196226976Y-87687256D01*
X196212965Y-87629999D01*
X196226976Y-87572742D01*
X196265839Y-87528426D01*
X196451401Y-87398495D01*
X196618495Y-87231401D01*
X196754035Y-87037830D01*
X196853903Y-86823663D01*
X196915063Y-86595408D01*
X196935659Y-86360000D01*
X196915063Y-86124592D01*
X196853903Y-85896337D01*
X196754035Y-85682171D01*
X196618495Y-85488599D01*
X196451401Y-85321505D01*
X196446968Y-85318401D01*
X196446961Y-85318395D01*
X196265842Y-85191575D01*
X196226976Y-85147257D01*
X196212965Y-85090000D01*
X196226976Y-85032743D01*
X196265842Y-84988425D01*
X196446961Y-84861604D01*
X196446961Y-84861603D01*
X196451401Y-84858495D01*
X196618495Y-84691401D01*
X196754035Y-84497830D01*
X196853903Y-84283663D01*
X196915063Y-84055408D01*
X196935659Y-83820000D01*
X196915063Y-83584592D01*
X196853903Y-83356337D01*
X196754035Y-83142171D01*
X196618495Y-82948599D01*
X196451401Y-82781505D01*
X196446968Y-82778401D01*
X196446961Y-82778395D01*
X196265842Y-82651575D01*
X196226976Y-82607257D01*
X196212965Y-82550000D01*
X196226976Y-82492743D01*
X196265842Y-82448425D01*
X196446961Y-82321604D01*
X196446961Y-82321603D01*
X196451401Y-82318495D01*
X196618495Y-82151401D01*
X196754035Y-81957830D01*
X196853903Y-81743663D01*
X196915063Y-81515408D01*
X196935659Y-81280000D01*
X196915063Y-81044592D01*
X196853903Y-80816337D01*
X196754035Y-80602171D01*
X196618495Y-80408599D01*
X196451401Y-80241505D01*
X196446970Y-80238402D01*
X196446966Y-80238399D01*
X196265841Y-80111574D01*
X196226976Y-80067256D01*
X196212965Y-80009999D01*
X196226976Y-79952742D01*
X196265839Y-79908426D01*
X196451401Y-79778495D01*
X196618495Y-79611401D01*
X196754035Y-79417830D01*
X196853903Y-79203663D01*
X196915063Y-78975408D01*
X196935659Y-78740000D01*
X196915063Y-78504592D01*
X196853903Y-78276337D01*
X196754035Y-78062171D01*
X196618495Y-77868599D01*
X196451401Y-77701505D01*
X196446968Y-77698401D01*
X196446961Y-77698395D01*
X196265842Y-77571575D01*
X196226976Y-77527257D01*
X196212965Y-77470000D01*
X196226976Y-77412743D01*
X196265842Y-77368425D01*
X196446961Y-77241604D01*
X196446961Y-77241603D01*
X196451401Y-77238495D01*
X196618495Y-77071401D01*
X196754035Y-76877830D01*
X196853903Y-76663663D01*
X196915063Y-76435408D01*
X196935659Y-76200000D01*
X196915063Y-75964592D01*
X196853903Y-75736337D01*
X196754035Y-75522171D01*
X196618495Y-75328599D01*
X196451401Y-75161505D01*
X196446968Y-75158401D01*
X196446961Y-75158395D01*
X196265842Y-75031575D01*
X196226976Y-74987257D01*
X196212965Y-74930000D01*
X196226976Y-74872743D01*
X196265842Y-74828425D01*
X196446961Y-74701604D01*
X196446961Y-74701603D01*
X196451401Y-74698495D01*
X196618495Y-74531401D01*
X196754035Y-74337830D01*
X196853903Y-74123663D01*
X196915063Y-73895408D01*
X196935659Y-73660000D01*
X196915063Y-73424592D01*
X196853903Y-73196337D01*
X196754035Y-72982171D01*
X196618495Y-72788599D01*
X196451401Y-72621505D01*
X196446968Y-72618401D01*
X196446961Y-72618395D01*
X196265842Y-72491575D01*
X196226976Y-72447257D01*
X196212965Y-72390000D01*
X196226976Y-72332743D01*
X196265842Y-72288425D01*
X196446961Y-72161604D01*
X196446961Y-72161603D01*
X196451401Y-72158495D01*
X196618495Y-71991401D01*
X196754035Y-71797830D01*
X196853903Y-71583663D01*
X196915063Y-71355408D01*
X196935659Y-71120000D01*
X196915063Y-70884592D01*
X196853903Y-70656337D01*
X196754035Y-70442171D01*
X196618495Y-70248599D01*
X196451401Y-70081505D01*
X196446968Y-70078401D01*
X196446961Y-70078395D01*
X196265842Y-69951575D01*
X196226976Y-69907257D01*
X196212965Y-69850000D01*
X196226976Y-69792743D01*
X196265842Y-69748425D01*
X196446961Y-69621604D01*
X196446961Y-69621603D01*
X196451401Y-69618495D01*
X196618495Y-69451401D01*
X196754035Y-69257830D01*
X196853903Y-69043663D01*
X196915063Y-68815408D01*
X196935659Y-68580000D01*
X196915063Y-68344592D01*
X196859563Y-68137460D01*
X196855305Y-68121569D01*
X196855304Y-68121567D01*
X196853903Y-68116337D01*
X196754035Y-67902171D01*
X196618495Y-67708599D01*
X196451401Y-67541505D01*
X196446968Y-67538401D01*
X196446961Y-67538395D01*
X196265842Y-67411575D01*
X196226976Y-67367257D01*
X196212965Y-67310000D01*
X196226976Y-67252743D01*
X196265842Y-67208425D01*
X196446961Y-67081604D01*
X196446961Y-67081603D01*
X196451401Y-67078495D01*
X196618495Y-66911401D01*
X196754035Y-66717830D01*
X196853903Y-66503663D01*
X196915063Y-66275408D01*
X196935659Y-66040000D01*
X196915063Y-65804592D01*
X196853903Y-65576337D01*
X196754035Y-65362171D01*
X196618495Y-65168599D01*
X196451401Y-65001505D01*
X196446968Y-64998401D01*
X196446961Y-64998395D01*
X196265842Y-64871575D01*
X196226976Y-64827257D01*
X196212965Y-64770000D01*
X196226976Y-64712743D01*
X196265842Y-64668425D01*
X196446961Y-64541604D01*
X196446961Y-64541603D01*
X196451401Y-64538495D01*
X196618495Y-64371401D01*
X196754035Y-64177830D01*
X196853903Y-63963663D01*
X196915063Y-63735408D01*
X196935659Y-63500000D01*
X196915063Y-63264592D01*
X196853903Y-63036337D01*
X196754035Y-62822171D01*
X196618495Y-62628599D01*
X196451401Y-62461505D01*
X196446968Y-62458401D01*
X196446961Y-62458395D01*
X196265842Y-62331575D01*
X196226976Y-62287257D01*
X196212965Y-62230000D01*
X196226976Y-62172743D01*
X196265842Y-62128425D01*
X196446961Y-62001604D01*
X196446961Y-62001603D01*
X196451401Y-61998495D01*
X196618495Y-61831401D01*
X196754035Y-61637830D01*
X196853903Y-61423663D01*
X196915063Y-61195408D01*
X196935659Y-60960000D01*
X196915063Y-60724592D01*
X196853903Y-60496337D01*
X196754035Y-60282171D01*
X196618495Y-60088599D01*
X196451401Y-59921505D01*
X196446968Y-59918401D01*
X196446961Y-59918395D01*
X196265842Y-59791575D01*
X196226976Y-59747257D01*
X196212965Y-59690000D01*
X196226976Y-59632743D01*
X196265842Y-59588425D01*
X196446961Y-59461604D01*
X196446961Y-59461603D01*
X196451401Y-59458495D01*
X196618495Y-59291401D01*
X196754035Y-59097830D01*
X196853903Y-58883663D01*
X196915063Y-58655408D01*
X196935659Y-58420000D01*
X196915063Y-58184592D01*
X196853903Y-57956337D01*
X196754035Y-57742171D01*
X196618495Y-57548599D01*
X196451401Y-57381505D01*
X196446968Y-57378401D01*
X196446961Y-57378395D01*
X196265842Y-57251575D01*
X196226976Y-57207257D01*
X196212965Y-57150000D01*
X196226976Y-57092743D01*
X196265842Y-57048425D01*
X196446961Y-56921604D01*
X196446961Y-56921603D01*
X196451401Y-56918495D01*
X196618495Y-56751401D01*
X196754035Y-56557830D01*
X196853903Y-56343663D01*
X196915063Y-56115408D01*
X196935659Y-55880000D01*
X196915063Y-55644592D01*
X196853903Y-55416337D01*
X196754035Y-55202171D01*
X196618495Y-55008599D01*
X196451401Y-54841505D01*
X196446970Y-54838402D01*
X196446966Y-54838399D01*
X196265841Y-54711574D01*
X196226976Y-54667256D01*
X196212965Y-54609999D01*
X196226976Y-54552742D01*
X196265839Y-54508426D01*
X196451401Y-54378495D01*
X196618495Y-54211401D01*
X196754035Y-54017830D01*
X196853903Y-53803663D01*
X196915063Y-53575408D01*
X196935659Y-53340000D01*
X196915063Y-53104592D01*
X196861813Y-52905857D01*
X196855305Y-52881569D01*
X196855304Y-52881567D01*
X196853903Y-52876337D01*
X196754035Y-52662171D01*
X196618495Y-52468599D01*
X196451401Y-52301505D01*
X196446968Y-52298401D01*
X196446961Y-52298395D01*
X196265842Y-52171575D01*
X196226976Y-52127257D01*
X196212965Y-52070000D01*
X196226976Y-52012743D01*
X196265842Y-51968425D01*
X196446961Y-51841604D01*
X196446961Y-51841603D01*
X196451401Y-51838495D01*
X196618495Y-51671401D01*
X196754035Y-51477830D01*
X196853903Y-51263663D01*
X196915063Y-51035408D01*
X196935659Y-50800000D01*
X196915063Y-50564592D01*
X196853903Y-50336337D01*
X196754035Y-50122171D01*
X196618495Y-49928599D01*
X196451401Y-49761505D01*
X196446968Y-49758401D01*
X196446961Y-49758395D01*
X196265842Y-49631575D01*
X196226976Y-49587257D01*
X196212965Y-49530000D01*
X196226976Y-49472743D01*
X196265842Y-49428425D01*
X196446961Y-49301604D01*
X196446961Y-49301603D01*
X196451401Y-49298495D01*
X196618495Y-49131401D01*
X196754035Y-48937830D01*
X196853903Y-48723663D01*
X196915063Y-48495408D01*
X196935659Y-48260000D01*
X196915063Y-48024592D01*
X196853903Y-47796337D01*
X196754035Y-47582171D01*
X196618495Y-47388599D01*
X196451401Y-47221505D01*
X196446968Y-47218401D01*
X196446961Y-47218395D01*
X196265842Y-47091575D01*
X196226976Y-47047257D01*
X196212965Y-46990000D01*
X196226976Y-46932743D01*
X196265842Y-46888425D01*
X196446961Y-46761604D01*
X196446961Y-46761603D01*
X196451401Y-46758495D01*
X196618495Y-46591401D01*
X196754035Y-46397830D01*
X196853903Y-46183663D01*
X196915063Y-45955408D01*
X196935659Y-45720000D01*
X196915063Y-45484592D01*
X196853903Y-45256337D01*
X196754035Y-45042171D01*
X196618495Y-44848599D01*
X196451401Y-44681505D01*
X196446968Y-44678401D01*
X196446961Y-44678395D01*
X196265842Y-44551575D01*
X196226976Y-44507257D01*
X196212965Y-44450000D01*
X196226976Y-44392743D01*
X196265842Y-44348425D01*
X196446961Y-44221604D01*
X196446961Y-44221603D01*
X196451401Y-44218495D01*
X196618495Y-44051401D01*
X196754035Y-43857830D01*
X196853903Y-43643663D01*
X196915063Y-43415408D01*
X196935659Y-43180000D01*
X196915063Y-42944592D01*
X196853903Y-42716337D01*
X196754035Y-42502171D01*
X196618495Y-42308599D01*
X196496569Y-42186672D01*
X196465273Y-42133927D01*
X196463084Y-42072634D01*
X196490537Y-42017789D01*
X196540916Y-41982810D01*
X196672331Y-41933796D01*
X196787546Y-41847546D01*
X196873796Y-41732331D01*
X196924091Y-41597483D01*
X196930500Y-41537873D01*
X196930499Y-39742128D01*
X196924091Y-39682517D01*
X196873796Y-39547669D01*
X196787546Y-39432454D01*
X196672331Y-39346204D01*
X196537483Y-39295909D01*
X196529770Y-39295079D01*
X196529767Y-39295079D01*
X196481180Y-39289855D01*
X196481169Y-39289854D01*
X196477873Y-39289500D01*
X196474550Y-39289500D01*
X194685439Y-39289500D01*
X194685420Y-39289500D01*
X194682128Y-39289501D01*
X194678850Y-39289853D01*
X194678838Y-39289854D01*
X194630231Y-39295079D01*
X194630225Y-39295080D01*
X194622517Y-39295909D01*
X194615252Y-39298618D01*
X194615246Y-39298620D01*
X194495980Y-39343104D01*
X194495978Y-39343104D01*
X194487669Y-39346204D01*
X194480572Y-39351516D01*
X194480568Y-39351519D01*
X194379550Y-39427141D01*
X194379546Y-39427144D01*
X194372454Y-39432454D01*
X194367144Y-39439546D01*
X194367141Y-39439550D01*
X194291519Y-39540568D01*
X194291516Y-39540572D01*
X194286204Y-39547669D01*
X194283104Y-39555978D01*
X194283104Y-39555980D01*
X194238620Y-39675247D01*
X194238619Y-39675250D01*
X194235909Y-39682517D01*
X194235079Y-39690227D01*
X194235079Y-39690232D01*
X194229855Y-39738819D01*
X194229854Y-39738831D01*
X194229500Y-39742127D01*
X194229500Y-39745448D01*
X194229500Y-39745449D01*
X194229500Y-41534560D01*
X194229500Y-41534578D01*
X194229501Y-41537872D01*
X194229853Y-41541150D01*
X194229854Y-41541161D01*
X194235079Y-41589768D01*
X194235080Y-41589773D01*
X194235909Y-41597483D01*
X194238619Y-41604749D01*
X194238620Y-41604753D01*
X194239650Y-41607514D01*
X194286204Y-41732331D01*
X194291518Y-41739430D01*
X194291519Y-41739431D01*
X194310509Y-41764799D01*
X194372454Y-41847546D01*
X194487669Y-41933796D01*
X194597405Y-41974725D01*
X194619082Y-41982810D01*
X194669462Y-42017789D01*
X194696915Y-42072633D01*
X194694726Y-42133926D01*
X194663430Y-42186673D01*
X194541505Y-42308599D01*
X194538402Y-42313029D01*
X194538399Y-42313034D01*
X194409073Y-42497731D01*
X194409068Y-42497738D01*
X194405965Y-42502171D01*
X194403677Y-42507077D01*
X194403675Y-42507081D01*
X194308386Y-42711427D01*
X194308383Y-42711432D01*
X194306097Y-42716337D01*
X194304698Y-42721557D01*
X194304694Y-42721569D01*
X194246337Y-42939365D01*
X194246335Y-42939371D01*
X194244937Y-42944592D01*
X194224341Y-43180000D01*
X194244937Y-43415408D01*
X194246336Y-43420630D01*
X194246337Y-43420634D01*
X194304694Y-43638430D01*
X194304697Y-43638438D01*
X194306097Y-43643663D01*
X194308385Y-43648570D01*
X194308386Y-43648572D01*
X194403678Y-43852927D01*
X194403681Y-43852933D01*
X194405965Y-43857830D01*
X194409064Y-43862257D01*
X194409066Y-43862259D01*
X194538399Y-44046966D01*
X194538402Y-44046970D01*
X194541505Y-44051401D01*
X194708599Y-44218495D01*
X194713032Y-44221599D01*
X194713038Y-44221604D01*
X194894158Y-44348425D01*
X194933024Y-44392743D01*
X194947035Y-44450000D01*
X194933024Y-44507257D01*
X194894159Y-44551575D01*
X194713041Y-44678395D01*
X194708599Y-44681505D01*
X194704775Y-44685328D01*
X194704769Y-44685334D01*
X194545334Y-44844769D01*
X194545328Y-44844775D01*
X194541505Y-44848599D01*
X194538402Y-44853029D01*
X194538399Y-44853034D01*
X194409073Y-45037731D01*
X194409068Y-45037738D01*
X194405965Y-45042171D01*
X194403677Y-45047077D01*
X194403675Y-45047081D01*
X194308386Y-45251427D01*
X194308383Y-45251432D01*
X194306097Y-45256337D01*
X194304698Y-45261557D01*
X194304694Y-45261569D01*
X194246337Y-45479365D01*
X194246335Y-45479371D01*
X194244937Y-45484592D01*
X194224341Y-45720000D01*
X194244937Y-45955408D01*
X194246336Y-45960630D01*
X194246337Y-45960634D01*
X194304694Y-46178430D01*
X194304697Y-46178438D01*
X194306097Y-46183663D01*
X194308385Y-46188570D01*
X194308386Y-46188572D01*
X194403678Y-46392927D01*
X194403681Y-46392933D01*
X194405965Y-46397830D01*
X194409064Y-46402257D01*
X194409066Y-46402259D01*
X194538399Y-46586966D01*
X194538402Y-46586970D01*
X194541505Y-46591401D01*
X194708599Y-46758495D01*
X194713032Y-46761599D01*
X194713038Y-46761604D01*
X194894158Y-46888425D01*
X194933024Y-46932743D01*
X194947035Y-46990000D01*
X194933024Y-47047257D01*
X194894159Y-47091575D01*
X194713041Y-47218395D01*
X194708599Y-47221505D01*
X194704775Y-47225328D01*
X194704769Y-47225334D01*
X194545334Y-47384769D01*
X194545328Y-47384775D01*
X194541505Y-47388599D01*
X194538402Y-47393029D01*
X194538399Y-47393034D01*
X194409073Y-47577731D01*
X194409068Y-47577738D01*
X194405965Y-47582171D01*
X194403677Y-47587077D01*
X194403675Y-47587081D01*
X194308386Y-47791427D01*
X194308383Y-47791432D01*
X194306097Y-47796337D01*
X194304698Y-47801557D01*
X194304694Y-47801569D01*
X194246337Y-48019365D01*
X194246335Y-48019371D01*
X194244937Y-48024592D01*
X194224341Y-48260000D01*
X194244937Y-48495408D01*
X194246336Y-48500630D01*
X194246337Y-48500634D01*
X194304694Y-48718430D01*
X194304697Y-48718438D01*
X194306097Y-48723663D01*
X194308385Y-48728570D01*
X194308386Y-48728572D01*
X194403678Y-48932927D01*
X194403681Y-48932933D01*
X194405965Y-48937830D01*
X194409064Y-48942257D01*
X194409066Y-48942259D01*
X194538399Y-49126966D01*
X194538402Y-49126970D01*
X194541505Y-49131401D01*
X194708599Y-49298495D01*
X194713032Y-49301599D01*
X194713038Y-49301604D01*
X194894158Y-49428425D01*
X194933024Y-49472743D01*
X194947035Y-49530000D01*
X194933024Y-49587257D01*
X194894159Y-49631575D01*
X194713041Y-49758395D01*
X194708599Y-49761505D01*
X194704775Y-49765328D01*
X194704769Y-49765334D01*
X194545334Y-49924769D01*
X194545328Y-49924775D01*
X194541505Y-49928599D01*
X194538402Y-49933029D01*
X194538399Y-49933034D01*
X194409073Y-50117731D01*
X194409068Y-50117738D01*
X194405965Y-50122171D01*
X194403677Y-50127077D01*
X194403675Y-50127081D01*
X194308386Y-50331427D01*
X194308383Y-50331432D01*
X194306097Y-50336337D01*
X194304698Y-50341557D01*
X194304694Y-50341569D01*
X194246337Y-50559365D01*
X194246335Y-50559371D01*
X194244937Y-50564592D01*
X194244465Y-50569977D01*
X194244465Y-50569982D01*
X194224813Y-50794605D01*
X194224341Y-50800000D01*
X194244937Y-51035408D01*
X194246336Y-51040630D01*
X194246337Y-51040634D01*
X194304694Y-51258430D01*
X194304697Y-51258438D01*
X194306097Y-51263663D01*
X194308385Y-51268570D01*
X194308386Y-51268572D01*
X194403678Y-51472927D01*
X194403681Y-51472933D01*
X194405965Y-51477830D01*
X194409064Y-51482257D01*
X194409066Y-51482259D01*
X194538399Y-51666966D01*
X194538402Y-51666970D01*
X194541505Y-51671401D01*
X194708599Y-51838495D01*
X194713032Y-51841599D01*
X194713038Y-51841604D01*
X194894158Y-51968425D01*
X194933024Y-52012743D01*
X194947035Y-52070000D01*
X194933024Y-52127257D01*
X194894159Y-52171575D01*
X194713041Y-52298395D01*
X194708599Y-52301505D01*
X194704775Y-52305328D01*
X194704769Y-52305334D01*
X194545334Y-52464769D01*
X194545328Y-52464775D01*
X194541505Y-52468599D01*
X194538402Y-52473029D01*
X194538399Y-52473034D01*
X194421400Y-52640127D01*
X194385536Y-52674162D01*
X194339224Y-52691477D01*
X194334924Y-52692158D01*
X194327131Y-52692403D01*
X194319643Y-52694578D01*
X194319644Y-52694578D01*
X194306749Y-52698324D01*
X194287709Y-52702266D01*
X194274384Y-52703950D01*
X194274377Y-52703951D01*
X194266642Y-52704929D01*
X194259392Y-52707798D01*
X194259389Y-52707800D01*
X194224185Y-52721737D01*
X194213141Y-52725518D01*
X194176794Y-52736078D01*
X194176784Y-52736081D01*
X194169302Y-52738256D01*
X194162593Y-52742223D01*
X194162585Y-52742227D01*
X194151030Y-52749061D01*
X194133562Y-52757618D01*
X194113829Y-52765432D01*
X194107518Y-52770016D01*
X194107514Y-52770019D01*
X194076891Y-52792266D01*
X194067136Y-52798674D01*
X194034551Y-52817946D01*
X194034545Y-52817950D01*
X194027835Y-52821919D01*
X194022319Y-52827434D01*
X194022316Y-52827437D01*
X194012822Y-52836930D01*
X193998038Y-52849557D01*
X193987175Y-52857449D01*
X193987166Y-52857457D01*
X193980863Y-52862037D01*
X193975896Y-52868039D01*
X193975885Y-52868051D01*
X193951755Y-52897219D01*
X193943895Y-52905857D01*
X193046273Y-53803481D01*
X193006045Y-53830361D01*
X192958592Y-53839800D01*
X174575820Y-53839800D01*
X174520976Y-53827012D01*
X174477444Y-53791287D01*
X174454203Y-53739992D01*
X174456045Y-53683707D01*
X174463762Y-53654904D01*
X174485063Y-53575408D01*
X174505659Y-53340000D01*
X174485063Y-53104592D01*
X174431813Y-52905857D01*
X174425305Y-52881569D01*
X174425304Y-52881567D01*
X174423903Y-52876337D01*
X174324035Y-52662171D01*
X174188495Y-52468599D01*
X174021401Y-52301505D01*
X174016968Y-52298401D01*
X174016961Y-52298395D01*
X173835842Y-52171575D01*
X173796976Y-52127257D01*
X173782965Y-52070000D01*
X173796976Y-52012743D01*
X173835842Y-51968425D01*
X174016961Y-51841604D01*
X174016961Y-51841603D01*
X174021401Y-51838495D01*
X174188495Y-51671401D01*
X174324035Y-51477830D01*
X174423903Y-51263663D01*
X174485063Y-51035408D01*
X174505659Y-50800000D01*
X174485063Y-50564592D01*
X174423903Y-50336337D01*
X174324035Y-50122171D01*
X174188495Y-49928599D01*
X174021401Y-49761505D01*
X174016968Y-49758401D01*
X174016961Y-49758395D01*
X173835842Y-49631575D01*
X173796976Y-49587257D01*
X173782965Y-49530000D01*
X173796976Y-49472743D01*
X173835842Y-49428425D01*
X174016961Y-49301604D01*
X174016961Y-49301603D01*
X174021401Y-49298495D01*
X174188495Y-49131401D01*
X174324035Y-48937830D01*
X174423903Y-48723663D01*
X174485063Y-48495408D01*
X174505659Y-48260000D01*
X174485063Y-48024592D01*
X174423903Y-47796337D01*
X174324035Y-47582171D01*
X174188495Y-47388599D01*
X174021401Y-47221505D01*
X174016968Y-47218401D01*
X174016961Y-47218395D01*
X173835842Y-47091575D01*
X173796976Y-47047257D01*
X173782965Y-46990000D01*
X173796976Y-46932743D01*
X173835842Y-46888425D01*
X174016961Y-46761604D01*
X174016961Y-46761603D01*
X174021401Y-46758495D01*
X174188495Y-46591401D01*
X174324035Y-46397830D01*
X174423903Y-46183663D01*
X174485063Y-45955408D01*
X174505659Y-45720000D01*
X174485063Y-45484592D01*
X174423903Y-45256337D01*
X174324035Y-45042171D01*
X174188495Y-44848599D01*
X174021401Y-44681505D01*
X174016968Y-44678401D01*
X174016961Y-44678395D01*
X173835842Y-44551575D01*
X173796976Y-44507257D01*
X173782965Y-44450000D01*
X173796976Y-44392743D01*
X173835842Y-44348425D01*
X174016961Y-44221604D01*
X174016961Y-44221603D01*
X174021401Y-44218495D01*
X174188495Y-44051401D01*
X174324035Y-43857830D01*
X174423903Y-43643663D01*
X174485063Y-43415408D01*
X174505659Y-43180000D01*
X174485063Y-42944592D01*
X174423903Y-42716337D01*
X174324035Y-42502171D01*
X174188495Y-42308599D01*
X174066569Y-42186672D01*
X174035273Y-42133927D01*
X174033084Y-42072634D01*
X174060537Y-42017789D01*
X174110916Y-41982810D01*
X174242331Y-41933796D01*
X174357546Y-41847546D01*
X174443796Y-41732331D01*
X174494091Y-41597483D01*
X174500500Y-41537873D01*
X174500499Y-39742128D01*
X174494091Y-39682517D01*
X174443796Y-39547669D01*
X174357546Y-39432454D01*
X174242331Y-39346204D01*
X174107483Y-39295909D01*
X174099770Y-39295079D01*
X174099767Y-39295079D01*
X174051180Y-39289855D01*
X174051169Y-39289854D01*
X174047873Y-39289500D01*
X174044550Y-39289500D01*
X172255439Y-39289500D01*
X172255420Y-39289500D01*
X172252128Y-39289501D01*
X172248850Y-39289853D01*
X172248838Y-39289854D01*
X172200231Y-39295079D01*
X172200225Y-39295080D01*
X172192517Y-39295909D01*
X172185252Y-39298618D01*
X172185246Y-39298620D01*
X172065980Y-39343104D01*
X172065978Y-39343104D01*
X172057669Y-39346204D01*
X172050572Y-39351516D01*
X172050568Y-39351519D01*
X171949550Y-39427141D01*
X171949546Y-39427144D01*
X171942454Y-39432454D01*
X171937144Y-39439546D01*
X171937141Y-39439550D01*
X171861519Y-39540568D01*
X171861516Y-39540572D01*
X171856204Y-39547669D01*
X171853104Y-39555978D01*
X171853104Y-39555980D01*
X171808620Y-39675247D01*
X171808619Y-39675250D01*
X171805909Y-39682517D01*
X171805079Y-39690227D01*
X171805079Y-39690232D01*
X171799855Y-39738819D01*
X171799854Y-39738831D01*
X171799500Y-39742127D01*
X171799500Y-39745448D01*
X171799500Y-39745449D01*
X171799500Y-41534560D01*
X171799500Y-41534578D01*
X171799501Y-41537872D01*
X171799853Y-41541150D01*
X171799854Y-41541161D01*
X171805079Y-41589768D01*
X171805080Y-41589773D01*
X171805909Y-41597483D01*
X171808619Y-41604749D01*
X171808620Y-41604753D01*
X171809650Y-41607514D01*
X171856204Y-41732331D01*
X171861518Y-41739430D01*
X171861519Y-41739431D01*
X171880509Y-41764799D01*
X171942454Y-41847546D01*
X172057669Y-41933796D01*
X172167405Y-41974725D01*
X172189082Y-41982810D01*
X172239462Y-42017789D01*
X172266915Y-42072633D01*
X172264726Y-42133926D01*
X172233430Y-42186673D01*
X172111505Y-42308599D01*
X172108402Y-42313029D01*
X172108399Y-42313034D01*
X171979073Y-42497731D01*
X171979068Y-42497738D01*
X171975965Y-42502171D01*
X171973677Y-42507077D01*
X171973675Y-42507081D01*
X171878386Y-42711427D01*
X171878383Y-42711432D01*
X171876097Y-42716337D01*
X171874698Y-42721557D01*
X171874694Y-42721569D01*
X171816337Y-42939365D01*
X171816335Y-42939371D01*
X171814937Y-42944592D01*
X171794341Y-43180000D01*
X171814937Y-43415408D01*
X171816336Y-43420630D01*
X171816337Y-43420634D01*
X171874694Y-43638430D01*
X171874697Y-43638438D01*
X171876097Y-43643663D01*
X171878385Y-43648570D01*
X171878386Y-43648572D01*
X171973678Y-43852927D01*
X171973681Y-43852933D01*
X171975965Y-43857830D01*
X171979064Y-43862257D01*
X171979066Y-43862259D01*
X172108399Y-44046966D01*
X172108402Y-44046970D01*
X172111505Y-44051401D01*
X172278599Y-44218495D01*
X172283032Y-44221599D01*
X172283038Y-44221604D01*
X172464158Y-44348425D01*
X172503024Y-44392743D01*
X172517035Y-44450000D01*
X172503024Y-44507257D01*
X172464159Y-44551575D01*
X172283041Y-44678395D01*
X172278599Y-44681505D01*
X172274775Y-44685328D01*
X172274769Y-44685334D01*
X172115334Y-44844769D01*
X172115328Y-44844775D01*
X172111505Y-44848599D01*
X172108402Y-44853029D01*
X172108399Y-44853034D01*
X171979073Y-45037731D01*
X171979068Y-45037738D01*
X171975965Y-45042171D01*
X171973677Y-45047077D01*
X171973675Y-45047081D01*
X171878386Y-45251427D01*
X171878383Y-45251432D01*
X171876097Y-45256337D01*
X171874698Y-45261557D01*
X171874694Y-45261569D01*
X171816337Y-45479365D01*
X171816335Y-45479371D01*
X171814937Y-45484592D01*
X171794341Y-45720000D01*
X171814937Y-45955408D01*
X171816336Y-45960630D01*
X171816337Y-45960634D01*
X171874694Y-46178430D01*
X171874697Y-46178438D01*
X171876097Y-46183663D01*
X171878385Y-46188570D01*
X171878386Y-46188572D01*
X171973678Y-46392927D01*
X171973681Y-46392933D01*
X171975965Y-46397830D01*
X171979064Y-46402257D01*
X171979066Y-46402259D01*
X172108399Y-46586966D01*
X172108402Y-46586970D01*
X172111505Y-46591401D01*
X172278599Y-46758495D01*
X172283032Y-46761599D01*
X172283038Y-46761604D01*
X172464158Y-46888425D01*
X172503024Y-46932743D01*
X172517035Y-46990000D01*
X172503024Y-47047257D01*
X172464159Y-47091575D01*
X172283041Y-47218395D01*
X172278599Y-47221505D01*
X172274775Y-47225328D01*
X172274769Y-47225334D01*
X172115334Y-47384769D01*
X172115328Y-47384775D01*
X172111505Y-47388599D01*
X172108402Y-47393029D01*
X172108399Y-47393034D01*
X171979073Y-47577731D01*
X171979068Y-47577738D01*
X171975965Y-47582171D01*
X171973677Y-47587077D01*
X171973675Y-47587081D01*
X171878386Y-47791427D01*
X171878383Y-47791432D01*
X171876097Y-47796337D01*
X171874698Y-47801557D01*
X171874694Y-47801569D01*
X171816337Y-48019365D01*
X171816335Y-48019371D01*
X171814937Y-48024592D01*
X171794341Y-48260000D01*
X171814937Y-48495408D01*
X171816336Y-48500630D01*
X171816337Y-48500634D01*
X171874694Y-48718430D01*
X171874697Y-48718438D01*
X171876097Y-48723663D01*
X171878385Y-48728570D01*
X171878386Y-48728572D01*
X171973678Y-48932927D01*
X171973681Y-48932933D01*
X171975965Y-48937830D01*
X171979064Y-48942257D01*
X171979066Y-48942259D01*
X172108399Y-49126966D01*
X172108402Y-49126970D01*
X172111505Y-49131401D01*
X172278599Y-49298495D01*
X172283032Y-49301599D01*
X172283038Y-49301604D01*
X172464158Y-49428425D01*
X172503024Y-49472743D01*
X172517035Y-49530000D01*
X172503024Y-49587257D01*
X172464159Y-49631575D01*
X172283041Y-49758395D01*
X172278599Y-49761505D01*
X172274775Y-49765328D01*
X172274769Y-49765334D01*
X172115334Y-49924769D01*
X172115328Y-49924775D01*
X172111505Y-49928599D01*
X172108402Y-49933029D01*
X172108399Y-49933034D01*
X171979073Y-50117731D01*
X171979068Y-50117738D01*
X171975965Y-50122171D01*
X171973677Y-50127077D01*
X171973675Y-50127081D01*
X171878386Y-50331427D01*
X171878383Y-50331432D01*
X171876097Y-50336337D01*
X171874698Y-50341557D01*
X171874694Y-50341569D01*
X171816337Y-50559365D01*
X171816335Y-50559371D01*
X171814937Y-50564592D01*
X171814465Y-50569977D01*
X171814465Y-50569982D01*
X171794813Y-50794605D01*
X171794341Y-50800000D01*
X171814937Y-51035408D01*
X171816336Y-51040630D01*
X171816337Y-51040634D01*
X171874694Y-51258430D01*
X171874697Y-51258438D01*
X171876097Y-51263663D01*
X171878385Y-51268570D01*
X171878386Y-51268572D01*
X171973678Y-51472927D01*
X171973681Y-51472933D01*
X171975965Y-51477830D01*
X171979064Y-51482257D01*
X171979066Y-51482259D01*
X172108399Y-51666966D01*
X172108402Y-51666970D01*
X172111505Y-51671401D01*
X172278599Y-51838495D01*
X172283032Y-51841599D01*
X172283038Y-51841604D01*
X172464158Y-51968425D01*
X172503024Y-52012743D01*
X172517035Y-52070000D01*
X172503024Y-52127257D01*
X172464159Y-52171575D01*
X172283041Y-52298395D01*
X172278599Y-52301505D01*
X172274775Y-52305328D01*
X172274769Y-52305334D01*
X172115334Y-52464769D01*
X172115328Y-52464775D01*
X172111505Y-52468599D01*
X172108402Y-52473029D01*
X172108399Y-52473034D01*
X171979073Y-52657731D01*
X171979068Y-52657738D01*
X171975965Y-52662171D01*
X171973677Y-52667077D01*
X171973675Y-52667081D01*
X171878386Y-52871427D01*
X171878383Y-52871432D01*
X171876097Y-52876337D01*
X171874698Y-52881557D01*
X171874694Y-52881569D01*
X171816337Y-53099365D01*
X171816335Y-53099371D01*
X171814937Y-53104592D01*
X171794341Y-53340000D01*
X171814937Y-53575408D01*
X171816336Y-53580630D01*
X171816337Y-53580634D01*
X171843955Y-53683707D01*
X171845797Y-53739992D01*
X171822556Y-53791287D01*
X171779024Y-53827012D01*
X171724180Y-53839800D01*
X167867375Y-53839800D01*
X167863516Y-53840287D01*
X167863508Y-53840288D01*
X167752980Y-53854251D01*
X167752976Y-53854251D01*
X167745242Y-53855229D01*
X167737992Y-53858099D01*
X167737990Y-53858100D01*
X167679920Y-53881092D01*
X167634272Y-53889800D01*
X167535772Y-53889800D01*
X167488496Y-53878450D01*
X167488091Y-53879577D01*
X167480754Y-53876935D01*
X167473800Y-53873392D01*
X167466186Y-53871690D01*
X167466183Y-53871689D01*
X167321018Y-53839241D01*
X167321011Y-53839240D01*
X167313404Y-53837540D01*
X167305606Y-53837785D01*
X167156929Y-53842457D01*
X167156921Y-53842458D01*
X167149131Y-53842703D01*
X167141642Y-53844878D01*
X167141640Y-53844879D01*
X166998794Y-53886379D01*
X166998791Y-53886380D01*
X166991302Y-53888556D01*
X166984586Y-53892527D01*
X166984583Y-53892529D01*
X166856551Y-53968246D01*
X166856544Y-53968250D01*
X166849835Y-53972219D01*
X166844320Y-53977733D01*
X166844316Y-53977737D01*
X132872673Y-87949381D01*
X132832445Y-87976261D01*
X132784992Y-87985700D01*
X103937368Y-87985700D01*
X103871396Y-87966694D01*
X103787713Y-87914112D01*
X103787709Y-87914110D01*
X103781822Y-87910411D01*
X103775259Y-87908114D01*
X103775256Y-87908113D01*
X103618124Y-87853130D01*
X103618119Y-87853128D01*
X103611555Y-87850832D01*
X103604635Y-87850052D01*
X103604634Y-87850052D01*
X103439223Y-87831415D01*
X103432300Y-87830635D01*
X103425377Y-87831415D01*
X103259965Y-87850052D01*
X103259962Y-87850052D01*
X103253045Y-87850832D01*
X103246482Y-87853128D01*
X103246475Y-87853130D01*
X103089343Y-87908113D01*
X103089336Y-87908115D01*
X103082778Y-87910411D01*
X103076890Y-87914110D01*
X103076887Y-87914112D01*
X102935938Y-88002676D01*
X102935933Y-88002679D01*
X102930038Y-88006384D01*
X102925113Y-88011308D01*
X102925109Y-88011312D01*
X102807412Y-88129009D01*
X102807408Y-88129013D01*
X102802484Y-88133938D01*
X102798779Y-88139833D01*
X102798776Y-88139838D01*
X102710212Y-88280787D01*
X102710210Y-88280790D01*
X102706511Y-88286678D01*
X102704215Y-88293236D01*
X102704213Y-88293243D01*
X102649230Y-88450375D01*
X102649228Y-88450382D01*
X102646932Y-88456945D01*
X102626735Y-88636200D01*
X91450500Y-88636200D01*
X91450500Y-71120000D01*
X94436735Y-71120000D01*
X94456932Y-71299255D01*
X94459228Y-71305819D01*
X94459230Y-71305824D01*
X94478409Y-71360634D01*
X94516511Y-71469522D01*
X94520212Y-71475412D01*
X94584942Y-71578430D01*
X94612484Y-71622262D01*
X94740038Y-71749816D01*
X94892778Y-71845789D01*
X95063045Y-71905368D01*
X95242300Y-71925565D01*
X95421555Y-71905368D01*
X95591822Y-71845789D01*
X95744562Y-71749816D01*
X95747659Y-71746718D01*
X95782507Y-71727459D01*
X95823462Y-71720500D01*
X122273513Y-71720500D01*
X122289698Y-71721561D01*
X122321000Y-71725682D01*
X122477762Y-71705044D01*
X122623841Y-71644536D01*
X122703172Y-71583663D01*
X122749282Y-71548282D01*
X122768510Y-71523222D01*
X122779189Y-71511044D01*
X124360737Y-69929497D01*
X124394614Y-69905461D01*
X124434532Y-69893961D01*
X124521455Y-69884168D01*
X124691722Y-69824589D01*
X124844462Y-69728616D01*
X124972016Y-69601062D01*
X125067989Y-69448322D01*
X125127568Y-69278055D01*
X125131954Y-69239117D01*
X125152721Y-69183149D01*
X125197233Y-69143370D01*
X125255175Y-69129000D01*
X130799738Y-69129000D01*
X130840693Y-69135959D01*
X130875540Y-69155218D01*
X130878638Y-69158316D01*
X131031378Y-69254289D01*
X131201645Y-69313868D01*
X131380900Y-69334065D01*
X131560155Y-69313868D01*
X131730422Y-69254289D01*
X131883162Y-69158316D01*
X131886259Y-69155218D01*
X131921107Y-69135959D01*
X131962062Y-69129000D01*
X149484013Y-69129000D01*
X149500198Y-69130061D01*
X149531500Y-69134182D01*
X149688262Y-69113544D01*
X149834341Y-69053036D01*
X149873632Y-69022887D01*
X149959782Y-68956782D01*
X149979010Y-68931722D01*
X149989689Y-68919544D01*
X166301452Y-52607781D01*
X166361182Y-52574655D01*
X166429392Y-52578182D01*
X166535386Y-52614571D01*
X166780665Y-52655500D01*
X167024201Y-52655500D01*
X167029335Y-52655500D01*
X167274614Y-52614571D01*
X167509810Y-52533828D01*
X167728509Y-52415474D01*
X167924744Y-52262738D01*
X168093164Y-52079785D01*
X168229173Y-51871607D01*
X168329063Y-51643881D01*
X168390108Y-51402821D01*
X168410643Y-51155000D01*
X168390108Y-50907179D01*
X168329063Y-50666119D01*
X168229173Y-50438393D01*
X168093164Y-50230215D01*
X167993703Y-50122171D01*
X167928215Y-50051032D01*
X167928211Y-50051029D01*
X167924744Y-50047262D01*
X167728509Y-49894526D01*
X167723997Y-49892084D01*
X167514316Y-49778610D01*
X167514310Y-49778607D01*
X167509810Y-49776172D01*
X167504969Y-49774510D01*
X167504962Y-49774507D01*
X167279465Y-49697094D01*
X167279461Y-49697093D01*
X167274614Y-49695429D01*
X167265768Y-49693952D01*
X167034398Y-49655344D01*
X167034387Y-49655343D01*
X167029335Y-49654500D01*
X166780665Y-49654500D01*
X166775613Y-49655343D01*
X166775601Y-49655344D01*
X166540443Y-49694585D01*
X166540441Y-49694585D01*
X166535386Y-49695429D01*
X166530541Y-49697092D01*
X166530534Y-49697094D01*
X166305037Y-49774507D01*
X166305026Y-49774511D01*
X166300190Y-49776172D01*
X166295693Y-49778605D01*
X166295683Y-49778610D01*
X166086002Y-49892084D01*
X166085995Y-49892088D01*
X166081491Y-49894526D01*
X166077448Y-49897672D01*
X166077440Y-49897678D01*
X165889304Y-50044111D01*
X165885256Y-50047262D01*
X165881793Y-50051023D01*
X165881784Y-50051032D01*
X165720311Y-50226439D01*
X165720305Y-50226446D01*
X165716836Y-50230215D01*
X165714031Y-50234506D01*
X165714028Y-50234512D01*
X165583631Y-50434099D01*
X165583624Y-50434111D01*
X165580827Y-50438393D01*
X165578772Y-50443077D01*
X165578766Y-50443089D01*
X165482997Y-50661422D01*
X165480937Y-50666119D01*
X165479679Y-50671084D01*
X165479678Y-50671089D01*
X165421151Y-50902204D01*
X165421149Y-50902213D01*
X165419892Y-50907179D01*
X165419468Y-50912288D01*
X165419467Y-50912298D01*
X165399781Y-51149883D01*
X165399357Y-51155000D01*
X165399781Y-51160117D01*
X165419467Y-51397701D01*
X165419468Y-51397709D01*
X165419892Y-51402821D01*
X165421149Y-51407788D01*
X165421151Y-51407795D01*
X165480937Y-51643881D01*
X165478649Y-51644460D01*
X165481617Y-51702584D01*
X165448501Y-51762262D01*
X149319084Y-67891681D01*
X149278856Y-67918561D01*
X149231403Y-67928000D01*
X131962062Y-67928000D01*
X131921107Y-67921041D01*
X131886259Y-67901781D01*
X131883162Y-67898684D01*
X131730422Y-67802711D01*
X131723859Y-67800414D01*
X131723856Y-67800413D01*
X131566724Y-67745430D01*
X131566719Y-67745428D01*
X131560155Y-67743132D01*
X131553235Y-67742352D01*
X131553234Y-67742352D01*
X131387823Y-67723715D01*
X131380900Y-67722935D01*
X131373977Y-67723715D01*
X131208565Y-67742352D01*
X131208562Y-67742352D01*
X131201645Y-67743132D01*
X131195082Y-67745428D01*
X131195075Y-67745430D01*
X131037943Y-67800413D01*
X131037936Y-67800415D01*
X131031378Y-67802711D01*
X131025490Y-67806410D01*
X131025487Y-67806412D01*
X130884533Y-67894979D01*
X130884527Y-67894983D01*
X130878638Y-67898684D01*
X130875540Y-67901781D01*
X130840693Y-67921041D01*
X130799738Y-67928000D01*
X124959987Y-67928000D01*
X124943802Y-67926939D01*
X124920559Y-67923879D01*
X124912500Y-67922818D01*
X124904441Y-67923879D01*
X124873139Y-67928000D01*
X124763797Y-67942394D01*
X124763789Y-67942396D01*
X124755738Y-67943456D01*
X124748233Y-67946564D01*
X124748228Y-67946566D01*
X124617166Y-68000854D01*
X124617162Y-68000855D01*
X124609659Y-68003964D01*
X124603214Y-68008908D01*
X124603211Y-68008911D01*
X124490664Y-68095271D01*
X124490660Y-68095274D01*
X124484218Y-68100218D01*
X124479274Y-68106660D01*
X124479271Y-68106664D01*
X124464997Y-68125267D01*
X124454303Y-68137460D01*
X124323664Y-68268099D01*
X124289785Y-68292138D01*
X124249867Y-68303638D01*
X124169866Y-68312652D01*
X124169864Y-68312652D01*
X124162945Y-68313432D01*
X124156376Y-68315730D01*
X124156374Y-68315731D01*
X123999243Y-68370713D01*
X123999236Y-68370715D01*
X123992678Y-68373011D01*
X123986790Y-68376710D01*
X123986787Y-68376712D01*
X123845838Y-68465276D01*
X123845833Y-68465279D01*
X123839938Y-68468984D01*
X123835013Y-68473908D01*
X123835009Y-68473912D01*
X123717312Y-68591609D01*
X123717308Y-68591613D01*
X123712384Y-68596538D01*
X123708679Y-68602433D01*
X123708676Y-68602438D01*
X123620112Y-68743387D01*
X123620110Y-68743390D01*
X123616411Y-68749278D01*
X123614115Y-68755836D01*
X123614113Y-68755843D01*
X123593271Y-68815408D01*
X123556832Y-68919545D01*
X123556052Y-68926464D01*
X123556052Y-68926466D01*
X123547038Y-69006466D01*
X123535538Y-69046384D01*
X123511499Y-69080263D01*
X122108584Y-70483181D01*
X122068356Y-70510061D01*
X122020903Y-70519500D01*
X95823462Y-70519500D01*
X95782507Y-70512541D01*
X95747659Y-70493281D01*
X95744562Y-70490184D01*
X95591822Y-70394211D01*
X95585259Y-70391914D01*
X95585256Y-70391913D01*
X95428124Y-70336930D01*
X95428119Y-70336928D01*
X95421555Y-70334632D01*
X95414635Y-70333852D01*
X95414634Y-70333852D01*
X95249223Y-70315215D01*
X95242300Y-70314435D01*
X95235377Y-70315215D01*
X95069965Y-70333852D01*
X95069962Y-70333852D01*
X95063045Y-70334632D01*
X95056482Y-70336928D01*
X95056475Y-70336930D01*
X94899343Y-70391913D01*
X94899336Y-70391915D01*
X94892778Y-70394211D01*
X94886890Y-70397910D01*
X94886887Y-70397912D01*
X94745938Y-70486476D01*
X94745933Y-70486479D01*
X94740038Y-70490184D01*
X94735113Y-70495108D01*
X94735109Y-70495112D01*
X94617412Y-70612809D01*
X94617408Y-70612813D01*
X94612484Y-70617738D01*
X94608779Y-70623633D01*
X94608776Y-70623638D01*
X94520212Y-70764587D01*
X94520210Y-70764590D01*
X94516511Y-70770478D01*
X94514215Y-70777036D01*
X94514213Y-70777043D01*
X94459230Y-70934175D01*
X94459228Y-70934182D01*
X94456932Y-70940745D01*
X94436735Y-71120000D01*
X91450500Y-71120000D01*
X91450500Y-59155000D01*
X99789748Y-59155000D01*
X99790064Y-59159418D01*
X99808417Y-59416030D01*
X99808418Y-59416039D01*
X99808734Y-59420453D01*
X99809674Y-59424778D01*
X99809676Y-59424786D01*
X99856035Y-59637893D01*
X99865304Y-59680502D01*
X99866853Y-59684655D01*
X99956759Y-59925705D01*
X99956761Y-59925711D01*
X99958307Y-59929854D01*
X99960429Y-59933740D01*
X100083723Y-60159537D01*
X100083727Y-60159544D01*
X100085850Y-60163431D01*
X100088507Y-60166980D01*
X100242684Y-60372937D01*
X100242689Y-60372943D01*
X100245337Y-60376480D01*
X100433520Y-60564663D01*
X100437057Y-60567311D01*
X100437062Y-60567315D01*
X100538855Y-60643516D01*
X100646569Y-60724150D01*
X100880146Y-60851693D01*
X101129498Y-60944696D01*
X101389547Y-61001266D01*
X101655000Y-61020252D01*
X101920453Y-61001266D01*
X102180502Y-60944696D01*
X102429854Y-60851693D01*
X102663431Y-60724150D01*
X102876480Y-60564663D01*
X103064663Y-60376480D01*
X103224150Y-60163431D01*
X103351693Y-59929854D01*
X103444696Y-59680502D01*
X103501266Y-59420453D01*
X103520252Y-59155000D01*
X103501266Y-58889547D01*
X103444696Y-58629498D01*
X103351693Y-58380146D01*
X103224150Y-58146569D01*
X103143516Y-58038855D01*
X103067315Y-57937062D01*
X103067311Y-57937057D01*
X103064663Y-57933520D01*
X102876480Y-57745337D01*
X102872943Y-57742689D01*
X102872937Y-57742684D01*
X102718205Y-57626854D01*
X102663431Y-57585850D01*
X102659544Y-57583727D01*
X102659537Y-57583723D01*
X102433740Y-57460429D01*
X102429854Y-57458307D01*
X102425711Y-57456761D01*
X102425705Y-57456759D01*
X102184655Y-57366853D01*
X102180502Y-57365304D01*
X102176170Y-57364361D01*
X102176168Y-57364361D01*
X101924786Y-57309676D01*
X101924778Y-57309674D01*
X101920453Y-57308734D01*
X101916039Y-57308418D01*
X101916030Y-57308417D01*
X101659418Y-57290064D01*
X101655000Y-57289748D01*
X101650582Y-57290064D01*
X101393969Y-57308417D01*
X101393958Y-57308418D01*
X101389547Y-57308734D01*
X101385223Y-57309674D01*
X101385213Y-57309676D01*
X101133831Y-57364361D01*
X101133825Y-57364362D01*
X101129498Y-57365304D01*
X101125348Y-57366851D01*
X101125344Y-57366853D01*
X100884294Y-57456759D01*
X100884283Y-57456763D01*
X100880146Y-57458307D01*
X100876264Y-57460426D01*
X100876259Y-57460429D01*
X100650462Y-57583723D01*
X100650449Y-57583731D01*
X100646569Y-57585850D01*
X100643023Y-57588503D01*
X100643019Y-57588507D01*
X100437062Y-57742684D01*
X100437049Y-57742694D01*
X100433520Y-57745337D01*
X100430394Y-57748462D01*
X100430387Y-57748469D01*
X100248469Y-57930387D01*
X100248462Y-57930394D01*
X100245337Y-57933520D01*
X100242694Y-57937049D01*
X100242684Y-57937062D01*
X100088507Y-58143019D01*
X100088503Y-58143023D01*
X100085850Y-58146569D01*
X100083731Y-58150449D01*
X100083723Y-58150462D01*
X99960429Y-58376259D01*
X99958307Y-58380146D01*
X99956763Y-58384283D01*
X99956759Y-58384294D01*
X99866853Y-58625344D01*
X99865304Y-58629498D01*
X99864362Y-58633825D01*
X99864361Y-58633831D01*
X99809676Y-58885213D01*
X99809674Y-58885223D01*
X99808734Y-58889547D01*
X99808418Y-58893958D01*
X99808417Y-58893969D01*
X99793837Y-59097830D01*
X99789748Y-59155000D01*
X91450500Y-59155000D01*
X91450500Y-51155000D01*
X93799357Y-51155000D01*
X93799781Y-51160117D01*
X93819467Y-51397701D01*
X93819468Y-51397709D01*
X93819892Y-51402821D01*
X93821149Y-51407788D01*
X93821151Y-51407795D01*
X93879678Y-51638910D01*
X93880937Y-51643881D01*
X93882997Y-51648577D01*
X93978766Y-51866910D01*
X93978769Y-51866916D01*
X93980827Y-51871607D01*
X93983627Y-51875893D01*
X93983631Y-51875900D01*
X94044081Y-51968425D01*
X94116836Y-52079785D01*
X94120310Y-52083559D01*
X94120311Y-52083560D01*
X94281784Y-52258967D01*
X94281787Y-52258970D01*
X94285256Y-52262738D01*
X94481491Y-52415474D01*
X94700190Y-52533828D01*
X94935386Y-52614571D01*
X95180665Y-52655500D01*
X95424201Y-52655500D01*
X95429335Y-52655500D01*
X95674614Y-52614571D01*
X95909810Y-52533828D01*
X96128509Y-52415474D01*
X96324744Y-52262738D01*
X96493164Y-52079785D01*
X96629173Y-51871607D01*
X96729063Y-51643881D01*
X96790108Y-51402821D01*
X96810643Y-51155000D01*
X96790108Y-50907179D01*
X96729063Y-50666119D01*
X96629173Y-50438393D01*
X96493164Y-50230215D01*
X96393703Y-50122171D01*
X96328215Y-50051032D01*
X96328211Y-50051029D01*
X96324744Y-50047262D01*
X96128509Y-49894526D01*
X96123997Y-49892084D01*
X95914316Y-49778610D01*
X95914310Y-49778607D01*
X95909810Y-49776172D01*
X95904969Y-49774510D01*
X95904962Y-49774507D01*
X95679465Y-49697094D01*
X95679461Y-49697093D01*
X95674614Y-49695429D01*
X95665768Y-49693952D01*
X95434398Y-49655344D01*
X95434387Y-49655343D01*
X95429335Y-49654500D01*
X95180665Y-49654500D01*
X95175613Y-49655343D01*
X95175601Y-49655344D01*
X94940443Y-49694585D01*
X94940441Y-49694585D01*
X94935386Y-49695429D01*
X94930541Y-49697092D01*
X94930534Y-49697094D01*
X94705037Y-49774507D01*
X94705026Y-49774511D01*
X94700190Y-49776172D01*
X94695693Y-49778605D01*
X94695683Y-49778610D01*
X94486002Y-49892084D01*
X94485995Y-49892088D01*
X94481491Y-49894526D01*
X94477448Y-49897672D01*
X94477440Y-49897678D01*
X94289304Y-50044111D01*
X94285256Y-50047262D01*
X94281793Y-50051023D01*
X94281784Y-50051032D01*
X94120311Y-50226439D01*
X94120305Y-50226446D01*
X94116836Y-50230215D01*
X94114031Y-50234506D01*
X94114028Y-50234512D01*
X93983631Y-50434099D01*
X93983624Y-50434111D01*
X93980827Y-50438393D01*
X93978772Y-50443077D01*
X93978766Y-50443089D01*
X93882997Y-50661422D01*
X93880937Y-50666119D01*
X93879679Y-50671084D01*
X93879678Y-50671089D01*
X93821151Y-50902204D01*
X93821149Y-50902213D01*
X93819892Y-50907179D01*
X93819468Y-50912288D01*
X93819467Y-50912298D01*
X93799781Y-51149883D01*
X93799357Y-51155000D01*
X91450500Y-51155000D01*
X91450500Y-43155000D01*
X158689748Y-43155000D01*
X158690064Y-43159418D01*
X158708417Y-43416030D01*
X158708418Y-43416039D01*
X158708734Y-43420453D01*
X158709674Y-43424778D01*
X158709676Y-43424786D01*
X158756152Y-43638430D01*
X158765304Y-43680502D01*
X158766853Y-43684655D01*
X158856759Y-43925705D01*
X158856761Y-43925711D01*
X158858307Y-43929854D01*
X158860429Y-43933740D01*
X158983723Y-44159537D01*
X158983727Y-44159544D01*
X158985850Y-44163431D01*
X158988507Y-44166980D01*
X159142684Y-44372937D01*
X159142689Y-44372943D01*
X159145337Y-44376480D01*
X159333520Y-44564663D01*
X159337057Y-44567311D01*
X159337062Y-44567315D01*
X159438855Y-44643516D01*
X159546569Y-44724150D01*
X159780146Y-44851693D01*
X160029498Y-44944696D01*
X160289547Y-45001266D01*
X160555000Y-45020252D01*
X160820453Y-45001266D01*
X161080502Y-44944696D01*
X161329854Y-44851693D01*
X161563431Y-44724150D01*
X161776480Y-44564663D01*
X161964663Y-44376480D01*
X162124150Y-44163431D01*
X162251693Y-43929854D01*
X162344696Y-43680502D01*
X162401266Y-43420453D01*
X162420252Y-43155000D01*
X162401266Y-42889547D01*
X162344696Y-42629498D01*
X162251693Y-42380146D01*
X162166319Y-42223796D01*
X162126276Y-42150462D01*
X162126274Y-42150459D01*
X162124150Y-42146569D01*
X162001561Y-41982810D01*
X161967315Y-41937062D01*
X161967311Y-41937057D01*
X161964663Y-41933520D01*
X161776480Y-41745337D01*
X161772943Y-41742689D01*
X161772937Y-41742684D01*
X161618205Y-41626854D01*
X161563431Y-41585850D01*
X161559544Y-41583727D01*
X161559537Y-41583723D01*
X161333740Y-41460429D01*
X161329854Y-41458307D01*
X161325711Y-41456761D01*
X161325705Y-41456759D01*
X161084655Y-41366853D01*
X161080502Y-41365304D01*
X161076170Y-41364361D01*
X161076168Y-41364361D01*
X160824786Y-41309676D01*
X160824778Y-41309674D01*
X160820453Y-41308734D01*
X160816039Y-41308418D01*
X160816030Y-41308417D01*
X160559418Y-41290064D01*
X160555000Y-41289748D01*
X160550582Y-41290064D01*
X160293969Y-41308417D01*
X160293958Y-41308418D01*
X160289547Y-41308734D01*
X160285223Y-41309674D01*
X160285213Y-41309676D01*
X160033831Y-41364361D01*
X160033825Y-41364362D01*
X160029498Y-41365304D01*
X160025348Y-41366851D01*
X160025344Y-41366853D01*
X159784294Y-41456759D01*
X159784283Y-41456763D01*
X159780146Y-41458307D01*
X159776264Y-41460426D01*
X159776259Y-41460429D01*
X159550462Y-41583723D01*
X159550449Y-41583731D01*
X159546569Y-41585850D01*
X159543023Y-41588503D01*
X159543019Y-41588507D01*
X159337062Y-41742684D01*
X159337049Y-41742694D01*
X159333520Y-41745337D01*
X159330394Y-41748462D01*
X159330387Y-41748469D01*
X159148469Y-41930387D01*
X159148462Y-41930394D01*
X159145337Y-41933520D01*
X159142694Y-41937049D01*
X159142684Y-41937062D01*
X158988507Y-42143019D01*
X158988503Y-42143023D01*
X158985850Y-42146569D01*
X158983731Y-42150449D01*
X158983723Y-42150462D01*
X158860429Y-42376259D01*
X158858307Y-42380146D01*
X158856763Y-42384283D01*
X158856759Y-42384294D01*
X158766853Y-42625344D01*
X158765304Y-42629498D01*
X158764362Y-42633825D01*
X158764361Y-42633831D01*
X158709676Y-42885213D01*
X158709674Y-42885223D01*
X158708734Y-42889547D01*
X158708418Y-42893958D01*
X158708417Y-42893969D01*
X158690345Y-43146644D01*
X158689748Y-43155000D01*
X91450500Y-43155000D01*
X91450500Y-38234500D01*
X91467113Y-38172500D01*
X91512500Y-38127113D01*
X91574500Y-38110500D01*
X197985500Y-38110500D01*
X198047500Y-38127113D01*
G37*
%TD.AperFunction*%
%TD*%
M02*
