%TF.GenerationSoftware,KiCad,Pcbnew,(7.0.0)*%
%TF.CreationDate,2023-04-04T02:03:31+02:00*%
%TF.ProjectId,main_v0.6,6d61696e-5f76-4302-9e36-2e6b69636164,rev?*%
%TF.SameCoordinates,Original*%
%TF.FileFunction,Paste,Top*%
%TF.FilePolarity,Positive*%
%FSLAX46Y46*%
G04 Gerber Fmt 4.6, Leading zero omitted, Abs format (unit mm)*
G04 Created by KiCad (PCBNEW (7.0.0)) date 2023-04-04 02:03:31*
%MOMM*%
%LPD*%
G01*
G04 APERTURE LIST*
G04 Aperture macros list*
%AMRoundRect*
0 Rectangle with rounded corners*
0 $1 Rounding radius*
0 $2 $3 $4 $5 $6 $7 $8 $9 X,Y pos of 4 corners*
0 Add a 4 corners polygon primitive as box body*
4,1,4,$2,$3,$4,$5,$6,$7,$8,$9,$2,$3,0*
0 Add four circle primitives for the rounded corners*
1,1,$1+$1,$2,$3*
1,1,$1+$1,$4,$5*
1,1,$1+$1,$6,$7*
1,1,$1+$1,$8,$9*
0 Add four rect primitives between the rounded corners*
20,1,$1+$1,$2,$3,$4,$5,0*
20,1,$1+$1,$4,$5,$6,$7,0*
20,1,$1+$1,$6,$7,$8,$9,0*
20,1,$1+$1,$8,$9,$2,$3,0*%
%AMFreePoly0*
4,1,9,1.050000,0.350000,0.550000,0.000000,0.550000,-0.400000,0.800000,-0.650000,0.800000,-0.800000,-1.050000,-0.800000,-1.050000,0.800000,1.050000,0.800000,1.050000,0.350000,1.050000,0.350000,$1*%
%AMFreePoly1*
4,1,9,1.050000,-0.800000,-0.800000,-0.800000,-0.800000,-0.650000,-0.550000,-0.400000,-0.550000,0.000000,-1.050000,0.350000,-1.050000,0.800000,1.050000,0.800000,1.050000,-0.800000,1.050000,-0.800000,$1*%
G04 Aperture macros list end*
%ADD10C,0.010000*%
%ADD11RoundRect,0.250000X-0.312500X-0.625000X0.312500X-0.625000X0.312500X0.625000X-0.312500X0.625000X0*%
%ADD12RoundRect,0.007500X-0.412500X-0.117500X0.412500X-0.117500X0.412500X0.117500X-0.412500X0.117500X0*%
%ADD13R,0.650000X0.400000*%
%ADD14RoundRect,0.200000X-0.200000X-0.275000X0.200000X-0.275000X0.200000X0.275000X-0.200000X0.275000X0*%
%ADD15RoundRect,0.250000X-0.325000X-0.650000X0.325000X-0.650000X0.325000X0.650000X-0.325000X0.650000X0*%
%ADD16RoundRect,0.250000X-0.375000X-0.625000X0.375000X-0.625000X0.375000X0.625000X-0.375000X0.625000X0*%
%ADD17R,0.550000X1.200000*%
%ADD18R,2.000000X7.875000*%
%ADD19RoundRect,0.100000X-0.637500X-0.100000X0.637500X-0.100000X0.637500X0.100000X-0.637500X0.100000X0*%
%ADD20RoundRect,0.250000X-0.670000X-0.645000X0.670000X-0.645000X0.670000X0.645000X-0.670000X0.645000X0*%
%ADD21RoundRect,0.175000X-1.250000X-0.175000X1.250000X-0.175000X1.250000X0.175000X-1.250000X0.175000X0*%
%ADD22RoundRect,0.250000X0.475000X-0.250000X0.475000X0.250000X-0.475000X0.250000X-0.475000X-0.250000X0*%
%ADD23RoundRect,0.250000X0.650000X-0.325000X0.650000X0.325000X-0.650000X0.325000X-0.650000X-0.325000X0*%
%ADD24RoundRect,0.042000X-0.943000X-0.258000X0.943000X-0.258000X0.943000X0.258000X-0.943000X0.258000X0*%
%ADD25RoundRect,0.100000X-0.175000X-0.100000X0.175000X-0.100000X0.175000X0.100000X-0.175000X0.100000X0*%
%ADD26RoundRect,0.100000X-0.100000X-0.175000X0.100000X-0.175000X0.100000X0.175000X-0.100000X0.175000X0*%
%ADD27RoundRect,0.150000X-0.587500X-0.150000X0.587500X-0.150000X0.587500X0.150000X-0.587500X0.150000X0*%
%ADD28R,0.400000X1.350000*%
%ADD29FreePoly0,0.000000*%
%ADD30R,1.900000X1.900000*%
%ADD31FreePoly1,0.000000*%
G04 APERTURE END LIST*
%TO.C,U5*%
G36*
X77166000Y-89056000D02*
G01*
X76146000Y-89056000D01*
X76146000Y-87476000D01*
X77166000Y-87476000D01*
X77166000Y-89056000D01*
G37*
D10*
X77166000Y-89056000D02*
X76146000Y-89056000D01*
X76146000Y-87476000D01*
X77166000Y-87476000D01*
X77166000Y-89056000D01*
%TO.C,U3*%
G36*
X138346000Y-83709740D02*
G01*
X137543350Y-83709740D01*
X137543350Y-82306000D01*
X138346000Y-82306000D01*
X138346000Y-83709740D01*
G37*
X138346000Y-83709740D02*
X137543350Y-83709740D01*
X137543350Y-82306000D01*
X138346000Y-82306000D01*
X138346000Y-83709740D01*
G36*
X140346000Y-81026000D02*
G01*
X138545217Y-81026000D01*
X138545217Y-78826000D01*
X140346000Y-78826000D01*
X140346000Y-81026000D01*
G37*
X140346000Y-81026000D02*
X138545217Y-81026000D01*
X138545217Y-78826000D01*
X140346000Y-78826000D01*
X140346000Y-81026000D01*
G36*
X139846000Y-83708740D02*
G01*
X139045591Y-83708740D01*
X139045591Y-82306000D01*
X139846000Y-82306000D01*
X139846000Y-83708740D01*
G37*
X139846000Y-83708740D02*
X139045591Y-83708740D01*
X139045591Y-82306000D01*
X139846000Y-82306000D01*
X139846000Y-83708740D01*
G36*
X141346000Y-83707730D02*
G01*
X140546710Y-83707730D01*
X140546710Y-82306000D01*
X141346000Y-82306000D01*
X141346000Y-83707730D01*
G37*
X141346000Y-83707730D02*
X140546710Y-83707730D01*
X140546710Y-82306000D01*
X141346000Y-82306000D01*
X141346000Y-83707730D01*
%TD*%
D11*
%TO.C,R17*%
X142810500Y-94051000D03*
X145735500Y-94051000D03*
%TD*%
D12*
%TO.C,U5*%
X75221000Y-87141000D03*
X75221000Y-87591000D03*
X75221000Y-88041000D03*
X75221000Y-88491000D03*
X75221000Y-88941000D03*
X75221000Y-89391000D03*
X78091000Y-89391000D03*
X78091000Y-88941000D03*
X78091000Y-88491000D03*
X78091000Y-88041000D03*
X78091000Y-87591000D03*
X78091000Y-87141000D03*
%TD*%
D11*
%TO.C,R22*%
X179316500Y-77790000D03*
X182241500Y-77790000D03*
%TD*%
D13*
%TO.C,U1*%
X92333999Y-95381999D03*
X92333999Y-96031999D03*
X92333999Y-96681999D03*
X94233999Y-96681999D03*
X94233999Y-95381999D03*
%TD*%
D14*
%TO.C,R1*%
X95124000Y-100874500D03*
X96774000Y-100874500D03*
%TD*%
%TO.C,R7*%
X153869000Y-91903000D03*
X155519000Y-91903000D03*
%TD*%
D15*
%TO.C,C7*%
X162615000Y-77922000D03*
X165565000Y-77922000D03*
%TD*%
D11*
%TO.C,R15*%
X124775500Y-91440000D03*
X127700500Y-91440000D03*
%TD*%
D14*
%TO.C,R18*%
X152146000Y-70866000D03*
X153796000Y-70866000D03*
%TD*%
D11*
%TO.C,R24*%
X84388000Y-97169000D03*
X87313000Y-97169000D03*
%TD*%
D16*
%TO.C,D2*%
X110707000Y-84455000D03*
X113507000Y-84455000D03*
%TD*%
D17*
%TO.C,IC1*%
X88269999Y-71982999D03*
X89219999Y-71982999D03*
X90169999Y-71982999D03*
X90169999Y-69382999D03*
X89219999Y-69382999D03*
X88269999Y-69382999D03*
%TD*%
D18*
%TO.C,Y1*%
X166369999Y-42734999D03*
X166369999Y-54609999D03*
%TD*%
D11*
%TO.C,R16*%
X142084000Y-88143000D03*
X145009000Y-88143000D03*
%TD*%
%TO.C,R2*%
X156875500Y-88220000D03*
X159800500Y-88220000D03*
%TD*%
D19*
%TO.C,Q1*%
X87307500Y-79543000D03*
X87307500Y-80193000D03*
X87307500Y-80843000D03*
X87307500Y-81493000D03*
X93032500Y-81493000D03*
X93032500Y-80843000D03*
X93032500Y-80193000D03*
X93032500Y-79543000D03*
%TD*%
D20*
%TO.C,U4*%
X113792000Y-72964000D03*
X113792000Y-75184000D03*
X116072000Y-72964000D03*
X116072000Y-75184000D03*
D21*
X110782000Y-72169000D03*
X110782000Y-73439000D03*
X110782000Y-74709000D03*
X110782000Y-75979000D03*
X119082000Y-75979000D03*
X119082000Y-74709000D03*
X119082000Y-73439000D03*
X119082000Y-72169000D03*
%TD*%
D16*
%TO.C,D3*%
X134204000Y-88143000D03*
X137004000Y-88143000D03*
%TD*%
D11*
%TO.C,R11*%
X103408500Y-74295000D03*
X106333500Y-74295000D03*
%TD*%
D22*
%TO.C,C3*%
X165679000Y-97933000D03*
X165679000Y-96033000D03*
%TD*%
D23*
%TO.C,C5*%
X132080000Y-79150000D03*
X132080000Y-76200000D03*
%TD*%
D22*
%TO.C,C1*%
X99568000Y-96520000D03*
X99568000Y-94620000D03*
%TD*%
D14*
%TO.C,R5*%
X153869000Y-96983000D03*
X155519000Y-96983000D03*
%TD*%
%TO.C,R4*%
X153869000Y-94473000D03*
X155519000Y-94473000D03*
%TD*%
D15*
%TO.C,C9*%
X179324000Y-74470000D03*
X182274000Y-74470000D03*
%TD*%
D16*
%TO.C,D1*%
X136777000Y-101859000D03*
X139577000Y-101859000D03*
%TD*%
D14*
%TO.C,R3*%
X100204000Y-100874500D03*
X101854000Y-100874500D03*
%TD*%
D11*
%TO.C,R10*%
X82357500Y-68367000D03*
X85282500Y-68367000D03*
%TD*%
%TO.C,R13*%
X116072000Y-80264000D03*
X118997000Y-80264000D03*
%TD*%
D15*
%TO.C,C8*%
X179324000Y-71120000D03*
X182274000Y-71120000D03*
%TD*%
D11*
%TO.C,R14*%
X126590000Y-97221000D03*
X129515000Y-97221000D03*
%TD*%
D24*
%TO.C,U6*%
X143268000Y-72263000D03*
X143268000Y-73533000D03*
X143268000Y-74803000D03*
X143268000Y-76073000D03*
X148218000Y-76073000D03*
X148218000Y-74803000D03*
X148218000Y-73533000D03*
X148218000Y-72263000D03*
%TD*%
D11*
%TO.C,R21*%
X121950500Y-80137000D03*
X124875500Y-80137000D03*
%TD*%
%TO.C,R25*%
X84388000Y-100459000D03*
X87313000Y-100459000D03*
%TD*%
D14*
%TO.C,R6*%
X164029000Y-91903000D03*
X165679000Y-91903000D03*
%TD*%
D22*
%TO.C,C4*%
X168219000Y-97933000D03*
X168219000Y-96033000D03*
%TD*%
D11*
%TO.C,R9*%
X82550000Y-74463000D03*
X85475000Y-74463000D03*
%TD*%
D16*
%TO.C,D5*%
X143127000Y-101859000D03*
X145927000Y-101859000D03*
%TD*%
D11*
%TO.C,R8*%
X129409000Y-101854000D03*
X132334000Y-101854000D03*
%TD*%
D14*
%TO.C,R19*%
X152337000Y-67310000D03*
X153987000Y-67310000D03*
%TD*%
D25*
%TO.C,U2*%
X158749000Y-93843000D03*
X158749000Y-94443000D03*
D26*
X159074000Y-95068000D03*
X159674000Y-95068000D03*
X160274000Y-95068000D03*
D25*
X160599000Y-94443000D03*
X160599000Y-93843000D03*
D26*
X160274000Y-93218000D03*
X159674000Y-93218000D03*
X159074000Y-93218000D03*
%TD*%
D16*
%TO.C,D4*%
X116047000Y-84455000D03*
X118847000Y-84455000D03*
%TD*%
D27*
%TO.C,Q3*%
X134875000Y-92781000D03*
X134875000Y-94681000D03*
X136750000Y-93731000D03*
%TD*%
D11*
%TO.C,R20*%
X152975500Y-78176000D03*
X155900500Y-78176000D03*
%TD*%
D23*
%TO.C,C6*%
X132080000Y-74070000D03*
X132080000Y-71120000D03*
%TD*%
D11*
%TO.C,R12*%
X110607000Y-80264000D03*
X113532000Y-80264000D03*
%TD*%
D28*
%TO.C,J5*%
X74847999Y-95124999D03*
X75497999Y-95124999D03*
X76147999Y-95124999D03*
X76797999Y-95124999D03*
X77447999Y-95124999D03*
D29*
X73048000Y-95250000D03*
D30*
X74947999Y-97799999D03*
X77347999Y-97799999D03*
D31*
X79248000Y-95250000D03*
%TD*%
D22*
%TO.C,C2*%
X102108000Y-96520000D03*
X102108000Y-94620000D03*
%TD*%
M02*
