M48
; DRILL file {KiCad (7.0.0)} date Tue Apr  4 02:03:41 2023
; FORMAT={-:-/ absolute / metric / decimal}
; #@! TF.CreationDate,2023-04-04T02:03:41+02:00
; #@! TF.GenerationSoftware,Kicad,Pcbnew,(7.0.0)
; #@! TF.FileFunction,Plated,1,2,PTH
FMAT,2
METRIC
; #@! TA.AperFunction,Plated,PTH,ViaDrill
T1C0.300
; #@! TA.AperFunction,Plated,PTH,ComponentDrill
T2C0.500
; #@! TA.AperFunction,Plated,PTH,ComponentDrill
T3C1.000
; #@! TA.AperFunction,Plated,PTH,ComponentDrill
T4C1.100
%
G90
G05
T1
X78.058Y-89.871
X78.869Y-88.041
X93.072Y-96.245
X103.403Y-66.422
X122.912Y-80.51
X131.915Y-77.801
X131.987Y-75.004
X155.62Y-86.358
X155.724Y-82.911
X182.274Y-69.832
X182.274Y-73.21
T3
X75.466Y-48.768
X123.698Y-62.992
X126.238Y-62.992
X128.778Y-62.992
X131.318Y-62.992
X133.858Y-62.992
X136.398Y-62.992
X138.938Y-62.992
X141.478Y-62.992
X144.018Y-62.992
X146.558Y-62.992
X147.066Y-48.768
X155.702Y-40.64
X155.702Y-43.18
X155.702Y-45.72
X155.702Y-48.26
X155.702Y-50.8
X173.15Y-40.64
X173.15Y-43.18
X173.15Y-45.72
X173.15Y-48.26
X173.15Y-50.8
X173.15Y-53.34
X173.15Y-55.88
X173.15Y-58.42
X173.15Y-60.96
X173.15Y-63.5
X173.15Y-66.04
X173.15Y-68.58
X173.15Y-71.12
X173.15Y-73.66
X173.15Y-76.2
X173.15Y-78.74
X173.15Y-81.28
X173.15Y-83.82
X173.15Y-86.36
X173.15Y-88.9
X173.15Y-91.44
X173.15Y-93.98
X173.15Y-96.52
X173.15Y-99.06
X195.58Y-40.64
X195.58Y-43.18
X195.58Y-45.72
X195.58Y-48.26
X195.58Y-50.8
X195.58Y-53.34
X195.58Y-55.88
X195.58Y-58.42
X195.58Y-60.96
X195.58Y-63.5
X195.58Y-66.04
X195.58Y-68.58
X195.58Y-71.12
X195.58Y-73.66
X195.58Y-76.2
X195.58Y-78.74
X195.58Y-81.28
X195.58Y-83.82
X195.58Y-86.36
X195.58Y-88.9
X195.58Y-91.44
X195.58Y-93.98
X195.58Y-96.52
X195.58Y-99.06
T4
X160.072Y-63.79
X160.072Y-68.29
X166.572Y-63.79
X166.572Y-68.29
T2
G00X73.323Y-97.45
M15
G01X73.323Y-98.15
M16
G05
G00X78.973Y-97.45
M15
G01X78.973Y-98.15
M16
G05
T0
M30
