%TF.GenerationSoftware,KiCad,Pcbnew,(7.0.0)*%
%TF.CreationDate,2023-04-04T02:03:31+02:00*%
%TF.ProjectId,main_v0.6,6d61696e-5f76-4302-9e36-2e6b69636164,rev?*%
%TF.SameCoordinates,Original*%
%TF.FileFunction,Soldermask,Bot*%
%TF.FilePolarity,Negative*%
%FSLAX46Y46*%
G04 Gerber Fmt 4.6, Leading zero omitted, Abs format (unit mm)*
G04 Created by KiCad (PCBNEW (7.0.0)) date 2023-04-04 02:03:31*
%MOMM*%
%LPD*%
G01*
G04 APERTURE LIST*
%ADD10R,1.700000X1.700000*%
%ADD11O,1.700000X1.700000*%
%ADD12C,2.000000*%
%ADD13C,0.600000*%
%ADD14O,1.000000X1.700000*%
%ADD15O,0.850000X1.700000*%
G04 APERTURE END LIST*
D10*
%TO.C,J1*%
X173149999Y-40639999D03*
D11*
X173149999Y-43179999D03*
X173149999Y-45719999D03*
X173149999Y-48259999D03*
X173149999Y-50799999D03*
X173149999Y-53339999D03*
X173149999Y-55879999D03*
X173149999Y-58419999D03*
X173149999Y-60959999D03*
X173149999Y-63499999D03*
X173149999Y-66039999D03*
X173149999Y-68579999D03*
X173149999Y-71119999D03*
X173149999Y-73659999D03*
X173149999Y-76199999D03*
X173149999Y-78739999D03*
X173149999Y-81279999D03*
X173149999Y-83819999D03*
X173149999Y-86359999D03*
X173149999Y-88899999D03*
X173149999Y-91439999D03*
X173149999Y-93979999D03*
X173149999Y-96519999D03*
X173149999Y-99059999D03*
%TD*%
D10*
%TO.C,J4*%
X155701999Y-40639999D03*
D11*
X155701999Y-43179999D03*
X155701999Y-45719999D03*
X155701999Y-48259999D03*
X155701999Y-50799999D03*
%TD*%
D10*
%TO.C,J3*%
X146557999Y-62991999D03*
D11*
X144017999Y-62991999D03*
X141477999Y-62991999D03*
X138937999Y-62991999D03*
X136397999Y-62991999D03*
X133857999Y-62991999D03*
X131317999Y-62991999D03*
X128777999Y-62991999D03*
X126237999Y-62991999D03*
X123697999Y-62991999D03*
%TD*%
D10*
%TO.C,J2*%
X195579999Y-40639999D03*
D11*
X195579999Y-43179999D03*
X195579999Y-45719999D03*
X195579999Y-48259999D03*
X195579999Y-50799999D03*
X195579999Y-53339999D03*
X195579999Y-55879999D03*
X195579999Y-58419999D03*
X195579999Y-60959999D03*
X195579999Y-63499999D03*
X195579999Y-66039999D03*
X195579999Y-68579999D03*
X195579999Y-71119999D03*
X195579999Y-73659999D03*
X195579999Y-76199999D03*
X195579999Y-78739999D03*
X195579999Y-81279999D03*
X195579999Y-83819999D03*
X195579999Y-86359999D03*
X195579999Y-88899999D03*
X195579999Y-91439999D03*
X195579999Y-93979999D03*
X195579999Y-96519999D03*
X195579999Y-99059999D03*
%TD*%
D12*
%TO.C,SW1*%
X160072000Y-63790000D03*
X166572000Y-63790000D03*
X160072000Y-68290000D03*
X166572000Y-68290000D03*
%TD*%
%TO.C,BT1*%
X147066000Y-48768000D03*
X75466000Y-48768000D03*
%TD*%
D13*
%TO.C,J5*%
X74148000Y-95450000D03*
X78148000Y-95450000D03*
D14*
X73322999Y-97799999D03*
D15*
X78972999Y-97799999D03*
%TD*%
M02*
