%TF.GenerationSoftware,KiCad,Pcbnew,(7.0.0)*%
%TF.CreationDate,2023-04-25T10:25:48+02:00*%
%TF.ProjectId,main_v0.6,6d61696e-5f76-4302-9e36-2e6b69636164,rev?*%
%TF.SameCoordinates,Original*%
%TF.FileFunction,Paste,Top*%
%TF.FilePolarity,Positive*%
%FSLAX46Y46*%
G04 Gerber Fmt 4.6, Leading zero omitted, Abs format (unit mm)*
G04 Created by KiCad (PCBNEW (7.0.0)) date 2023-04-25 10:25:48*
%MOMM*%
%LPD*%
G01*
G04 APERTURE LIST*
G04 Aperture macros list*
%AMRoundRect*
0 Rectangle with rounded corners*
0 $1 Rounding radius*
0 $2 $3 $4 $5 $6 $7 $8 $9 X,Y pos of 4 corners*
0 Add a 4 corners polygon primitive as box body*
4,1,4,$2,$3,$4,$5,$6,$7,$8,$9,$2,$3,0*
0 Add four circle primitives for the rounded corners*
1,1,$1+$1,$2,$3*
1,1,$1+$1,$4,$5*
1,1,$1+$1,$6,$7*
1,1,$1+$1,$8,$9*
0 Add four rect primitives between the rounded corners*
20,1,$1+$1,$2,$3,$4,$5,0*
20,1,$1+$1,$4,$5,$6,$7,0*
20,1,$1+$1,$6,$7,$8,$9,0*
20,1,$1+$1,$8,$9,$2,$3,0*%
%AMFreePoly0*
4,1,9,3.862500,-0.866500,0.737500,-0.866500,0.737500,-0.450000,-0.737500,-0.450000,-0.737500,0.450000,0.737500,0.450000,0.737500,0.866500,3.862500,0.866500,3.862500,-0.866500,3.862500,-0.866500,$1*%
%AMFreePoly1*
4,1,9,1.050000,0.350000,0.550000,0.000000,0.550000,-0.400000,0.800000,-0.650000,0.800000,-0.800000,-1.050000,-0.800000,-1.050000,0.800000,1.050000,0.800000,1.050000,0.350000,1.050000,0.350000,$1*%
%AMFreePoly2*
4,1,9,1.050000,-0.800000,-0.800000,-0.800000,-0.800000,-0.650000,-0.550000,-0.400000,-0.550000,0.000000,-1.050000,0.350000,-1.050000,0.800000,1.050000,0.800000,1.050000,-0.800000,1.050000,-0.800000,$1*%
G04 Aperture macros list end*
%ADD10C,0.010000*%
%ADD11RoundRect,0.250000X-0.312500X-0.625000X0.312500X-0.625000X0.312500X0.625000X-0.312500X0.625000X0*%
%ADD12RoundRect,0.007500X-0.117500X0.412500X-0.117500X-0.412500X0.117500X-0.412500X0.117500X0.412500X0*%
%ADD13RoundRect,0.250000X0.625000X-0.312500X0.625000X0.312500X-0.625000X0.312500X-0.625000X-0.312500X0*%
%ADD14R,0.650000X0.400000*%
%ADD15RoundRect,0.250000X-0.325000X-0.650000X0.325000X-0.650000X0.325000X0.650000X-0.325000X0.650000X0*%
%ADD16RoundRect,0.250000X-0.625000X0.312500X-0.625000X-0.312500X0.625000X-0.312500X0.625000X0.312500X0*%
%ADD17RoundRect,0.218750X-0.218750X-0.256250X0.218750X-0.256250X0.218750X0.256250X-0.218750X0.256250X0*%
%ADD18R,0.550000X1.200000*%
%ADD19R,2.000000X7.875000*%
%ADD20RoundRect,0.250000X0.312500X0.625000X-0.312500X0.625000X-0.312500X-0.625000X0.312500X-0.625000X0*%
%ADD21RoundRect,0.250000X-0.275000X-0.700000X0.275000X-0.700000X0.275000X0.700000X-0.275000X0.700000X0*%
%ADD22RoundRect,0.150000X-0.150000X0.512500X-0.150000X-0.512500X0.150000X-0.512500X0.150000X0.512500X0*%
%ADD23RoundRect,0.250000X-0.670000X-0.645000X0.670000X-0.645000X0.670000X0.645000X-0.670000X0.645000X0*%
%ADD24RoundRect,0.175000X-1.250000X-0.175000X1.250000X-0.175000X1.250000X0.175000X-1.250000X0.175000X0*%
%ADD25RoundRect,0.250000X0.650000X-0.325000X0.650000X0.325000X-0.650000X0.325000X-0.650000X-0.325000X0*%
%ADD26RoundRect,0.250000X-0.650000X0.325000X-0.650000X-0.325000X0.650000X-0.325000X0.650000X0.325000X0*%
%ADD27R,1.300000X0.900000*%
%ADD28FreePoly0,0.000000*%
%ADD29RoundRect,0.250000X0.325000X0.650000X-0.325000X0.650000X-0.325000X-0.650000X0.325000X-0.650000X0*%
%ADD30R,0.600000X1.550000*%
%ADD31R,2.200000X2.150000*%
%ADD32RoundRect,0.100000X-0.175000X-0.100000X0.175000X-0.100000X0.175000X0.100000X-0.175000X0.100000X0*%
%ADD33RoundRect,0.100000X-0.100000X-0.175000X0.100000X-0.175000X0.100000X0.175000X-0.100000X0.175000X0*%
%ADD34R,0.380000X0.150000*%
%ADD35R,0.380000X0.630000*%
%ADD36R,0.450000X0.250000*%
%ADD37R,1.350000X0.400000*%
%ADD38FreePoly1,270.000000*%
%ADD39R,1.900000X1.900000*%
%ADD40FreePoly2,270.000000*%
G04 APERTURE END LIST*
%TO.C,U5*%
G36*
X111280000Y-84584000D02*
G01*
X109700000Y-84584000D01*
X109700000Y-83564000D01*
X111280000Y-83564000D01*
X111280000Y-84584000D01*
G37*
D10*
X111280000Y-84584000D02*
X109700000Y-84584000D01*
X109700000Y-83564000D01*
X111280000Y-83564000D01*
X111280000Y-84584000D01*
%TO.C,U7*%
G36*
X136476000Y-128923000D02*
G01*
X136001000Y-128923000D01*
X136001000Y-128573000D01*
X136476000Y-128573000D01*
X136476000Y-128923000D01*
G37*
X136476000Y-128923000D02*
X136001000Y-128923000D01*
X136001000Y-128573000D01*
X136476000Y-128573000D01*
X136476000Y-128923000D01*
G36*
X136626000Y-129398000D02*
G01*
X136001000Y-129398000D01*
X136001000Y-129198000D01*
X136626000Y-129198000D01*
X136626000Y-129398000D01*
G37*
X136626000Y-129398000D02*
X136001000Y-129398000D01*
X136001000Y-129198000D01*
X136626000Y-129198000D01*
X136626000Y-129398000D01*
G36*
X136476000Y-130023000D02*
G01*
X136001000Y-130023000D01*
X136001000Y-129673000D01*
X136476000Y-129673000D01*
X136476000Y-130023000D01*
G37*
X136476000Y-130023000D02*
X136001000Y-130023000D01*
X136001000Y-129673000D01*
X136476000Y-129673000D01*
X136476000Y-130023000D01*
G36*
X137151000Y-128923000D02*
G01*
X136676000Y-128923000D01*
X136676000Y-128573000D01*
X137151000Y-128573000D01*
X137151000Y-128923000D01*
G37*
X137151000Y-128923000D02*
X136676000Y-128923000D01*
X136676000Y-128573000D01*
X137151000Y-128573000D01*
X137151000Y-128923000D01*
G36*
X137151000Y-130023000D02*
G01*
X136676000Y-130023000D01*
X136676000Y-129673000D01*
X137151000Y-129673000D01*
X137151000Y-130023000D01*
G37*
X137151000Y-130023000D02*
X136676000Y-130023000D01*
X136676000Y-129673000D01*
X137151000Y-129673000D01*
X137151000Y-130023000D01*
G36*
X137451000Y-129398000D02*
G01*
X136826000Y-129398000D01*
X136826000Y-129198000D01*
X137451000Y-129198000D01*
X137451000Y-129398000D01*
G37*
X137451000Y-129398000D02*
X136826000Y-129398000D01*
X136826000Y-129198000D01*
X137451000Y-129198000D01*
X137451000Y-129398000D01*
%TD*%
D11*
%TO.C,R28*%
X157795500Y-80530000D03*
X160720500Y-80530000D03*
%TD*%
D12*
%TO.C,U5*%
X111615000Y-82639000D03*
X111165000Y-82639000D03*
X110715000Y-82639000D03*
X110265000Y-82639000D03*
X109815000Y-82639000D03*
X109365000Y-82639000D03*
X109365000Y-85509000D03*
X109815000Y-85509000D03*
X110265000Y-85509000D03*
X110715000Y-85509000D03*
X111165000Y-85509000D03*
X111615000Y-85509000D03*
%TD*%
D13*
%TO.C,R22*%
X142240000Y-104078500D03*
X142240000Y-101153500D03*
%TD*%
D14*
%TO.C,U1*%
X114685999Y-70327999D03*
X114685999Y-70977999D03*
X114685999Y-71627999D03*
X116585999Y-71627999D03*
X116585999Y-70327999D03*
%TD*%
D11*
%TO.C,R1*%
X109535500Y-60960000D03*
X112460500Y-60960000D03*
%TD*%
%TO.C,R7*%
X152461500Y-109728000D03*
X155386500Y-109728000D03*
%TD*%
D15*
%TO.C,C7*%
X97331000Y-113792000D03*
X100281000Y-113792000D03*
%TD*%
D16*
%TO.C,R18*%
X119253000Y-106235000D03*
X119253000Y-109160000D03*
%TD*%
D11*
%TO.C,R24*%
X99822000Y-75692000D03*
X102747000Y-75692000D03*
%TD*%
D17*
%TO.C,D2*%
X162788500Y-127254000D03*
X164363500Y-127254000D03*
%TD*%
D11*
%TO.C,R17*%
X127823500Y-122936000D03*
X130748500Y-122936000D03*
%TD*%
D18*
%TO.C,IC1*%
X130621999Y-131093999D03*
X131571999Y-131093999D03*
X132521999Y-131093999D03*
X132521999Y-128493999D03*
X131571999Y-128493999D03*
X130621999Y-128493999D03*
%TD*%
D19*
%TO.C,Y1*%
X136905999Y-79343499D03*
X136905999Y-67468499D03*
%TD*%
D11*
%TO.C,R32*%
X112583500Y-66548000D03*
X115508500Y-66548000D03*
%TD*%
%TO.C,R15*%
X146111500Y-122428000D03*
X149036500Y-122428000D03*
%TD*%
D15*
%TO.C,C11*%
X152449000Y-122174000D03*
X155399000Y-122174000D03*
%TD*%
D20*
%TO.C,R2*%
X160913000Y-98298000D03*
X157988000Y-98298000D03*
%TD*%
D21*
%TO.C,L1*%
X133553000Y-123190000D03*
X136703000Y-123190000D03*
%TD*%
D22*
%TO.C,Q1*%
X123632000Y-132212500D03*
X122682000Y-132212500D03*
X121732000Y-132212500D03*
X121732000Y-134487500D03*
X122682000Y-134487500D03*
X123632000Y-134487500D03*
%TD*%
D23*
%TO.C,U4*%
X150628000Y-132875000D03*
X150628000Y-135095000D03*
X152908000Y-132875000D03*
X152908000Y-135095000D03*
D24*
X147618000Y-132080000D03*
X147618000Y-133350000D03*
X147618000Y-134620000D03*
X147618000Y-135890000D03*
X155918000Y-135890000D03*
X155918000Y-134620000D03*
X155918000Y-133350000D03*
X155918000Y-132080000D03*
%TD*%
D13*
%TO.C,R30*%
X97220500Y-68772500D03*
X97220500Y-65847500D03*
%TD*%
D11*
%TO.C,R11*%
X142109000Y-127000000D03*
X145034000Y-127000000D03*
%TD*%
D25*
%TO.C,C3*%
X158242000Y-95201000D03*
X158242000Y-92251000D03*
%TD*%
%TO.C,C5*%
X140970000Y-135587000D03*
X140970000Y-132637000D03*
%TD*%
D11*
%TO.C,R23*%
X152461500Y-117094000D03*
X155386500Y-117094000D03*
%TD*%
D26*
%TO.C,C1*%
X110490000Y-69391000D03*
X110490000Y-72341000D03*
%TD*%
D11*
%TO.C,R5*%
X151191500Y-98044000D03*
X154116500Y-98044000D03*
%TD*%
D16*
%TO.C,R4*%
X152654000Y-101661500D03*
X152654000Y-104586500D03*
%TD*%
D11*
%TO.C,R14*%
X140269500Y-122428000D03*
X143194500Y-122428000D03*
%TD*%
D27*
%TO.C,U3*%
X104221999Y-112037999D03*
D28*
X104309500Y-113538000D03*
D27*
X104221999Y-115037999D03*
%TD*%
D29*
%TO.C,C9*%
X137922000Y-61722000D03*
X134972000Y-61722000D03*
%TD*%
D30*
%TO.C,U8*%
X122046999Y-96138499D03*
X120776999Y-96138499D03*
X119506999Y-96138499D03*
X118236999Y-96138499D03*
X118236999Y-101538499D03*
X119506999Y-101538499D03*
X120776999Y-101538499D03*
X122046999Y-101538499D03*
%TD*%
D31*
%TO.C,D1*%
X116417999Y-138429999D03*
X120817999Y-138429999D03*
%TD*%
D11*
%TO.C,R3*%
X113853500Y-74168000D03*
X116778500Y-74168000D03*
%TD*%
%TO.C,R26*%
X159065500Y-117094000D03*
X161990500Y-117094000D03*
%TD*%
%TO.C,R10*%
X121027000Y-128524000D03*
X123952000Y-128524000D03*
%TD*%
%TO.C,R16*%
X121473500Y-123190000D03*
X124398500Y-123190000D03*
%TD*%
%TO.C,R13*%
X154747500Y-127762000D03*
X157672500Y-127762000D03*
%TD*%
D29*
%TO.C,C8*%
X138635000Y-86106000D03*
X135685000Y-86106000D03*
%TD*%
D11*
%TO.C,R21*%
X139253500Y-140970000D03*
X142178500Y-140970000D03*
%TD*%
D16*
%TO.C,R25*%
X111440500Y-98552000D03*
X111440500Y-101477000D03*
%TD*%
D11*
%TO.C,R6*%
X155700500Y-112014000D03*
X158625500Y-112014000D03*
%TD*%
D25*
%TO.C,C4*%
X160782000Y-95201000D03*
X160782000Y-92251000D03*
%TD*%
D16*
%TO.C,R9*%
X142240000Y-96073500D03*
X142240000Y-98998500D03*
%TD*%
D26*
%TO.C,C10*%
X117348000Y-126795000D03*
X117348000Y-129745000D03*
%TD*%
D11*
%TO.C,R8*%
X124267500Y-138430000D03*
X127192500Y-138430000D03*
%TD*%
D16*
%TO.C,R19*%
X122809000Y-106233500D03*
X122809000Y-109158500D03*
%TD*%
D13*
%TO.C,R31*%
X164592000Y-83058000D03*
X164592000Y-80133000D03*
%TD*%
D32*
%TO.C,U2*%
X155285000Y-103931000D03*
X155285000Y-104531000D03*
D33*
X155610000Y-105156000D03*
X156210000Y-105156000D03*
X156810000Y-105156000D03*
D32*
X157135000Y-104531000D03*
X157135000Y-103931000D03*
D33*
X156810000Y-103306000D03*
X156210000Y-103306000D03*
X155610000Y-103306000D03*
%TD*%
D17*
%TO.C,D4*%
X148056500Y-140716000D03*
X149631500Y-140716000D03*
%TD*%
D11*
%TO.C,R20*%
X97597500Y-109728000D03*
X100522500Y-109728000D03*
%TD*%
D34*
%TO.C,Q2*%
X149351999Y-126825999D03*
X149351999Y-127174999D03*
D35*
X150011999Y-126999999D03*
%TD*%
D25*
%TO.C,C6*%
X133858000Y-144731000D03*
X133858000Y-141781000D03*
%TD*%
D16*
%TO.C,R27*%
X150368000Y-85090000D03*
X150368000Y-88015000D03*
%TD*%
D11*
%TO.C,R29*%
X157795500Y-83820000D03*
X160720500Y-83820000D03*
%TD*%
D36*
%TO.C,U7*%
X138175999Y-130047999D03*
X138175999Y-129547999D03*
X138175999Y-129047999D03*
X138175999Y-128547999D03*
%TD*%
D11*
%TO.C,R12*%
X154809000Y-140716000D03*
X157734000Y-140716000D03*
%TD*%
D37*
%TO.C,J5*%
X93978999Y-87060999D03*
X93978999Y-87710999D03*
X93978999Y-88360999D03*
X93978999Y-89010999D03*
X93978999Y-89660999D03*
D38*
X93854000Y-85261000D03*
D39*
X91303999Y-87160999D03*
X91303999Y-89560999D03*
D40*
X93854000Y-91461000D03*
%TD*%
D25*
%TO.C,C2*%
X120904000Y-71882000D03*
X120904000Y-68932000D03*
%TD*%
M02*
